<?xml version="1.0" standalone="no"?>
<!DOCTYPE svg PUBLIC "-//W3C//DTD SVG 20010904//EN"
 "http://www.w3.org/TR/2001/REC-SVG-20010904/DTD/svg10.dtd">
<svg version="1.0" xmlns="http://www.w3.org/2000/svg"
 width="1200.000000pt" height="700.000000pt" viewBox="0 0 1200.000000 700.000000"
 preserveAspectRatio="xMidYMid meet">

<g transform="translate(0.000000,700.000000) scale(0.100000,-0.100000)"
fill="#000000" stroke="none">
<path d="M8050 6983 c0 -5 251 -259 558 -566 l558 -558 119 3 120 3 0 560 0
560 -677 3 c-373 1 -678 -1 -678 -5z"/>
<path d="M10354 6577 c-540 -545 -694 -703 -694 -711 0 -3 527 -6 1170 -6
l1170 0 0 565 0 565 -618 0 -618 0 -410 -413z"/>
<path d="M165 6536 c-45 -20 -65 -56 -65 -118 1 -82 40 -118 129 -118 28 0 60
-6 71 -12 29 -18 50 4 27 29 -11 13 -13 23 -7 33 5 8 10 41 10 72 0 49 -4 62
-27 88 -34 36 -92 47 -138 26z m99 -52 c17 -17 22 -90 7 -113 -6 -10 -13 -11
-29 -2 -22 12 -39 0 -27 -19 3 -5 -3 -10 -14 -10 -27 0 -51 37 -51 80 0 51 24
80 65 80 18 0 41 -7 49 -16z"/>
<path d="M3553 6534 c-36 -18 -43 -37 -30 -76 7 -22 22 -32 67 -49 67 -24 80
-42 45 -65 -25 -16 -49 -10 -75 20 -14 18 -50 22 -50 5 0 -15 21 -53 34 -61 6
-4 35 -8 64 -8 63 0 92 23 92 73 0 41 -20 61 -80 78 -53 15 -66 29 -43 47 22
16 38 15 57 -4 9 -8 28 -14 43 -12 l28 3 -32 33 c-36 36 -69 41 -120 16z"/>
<path d="M1074 6524 c3 -9 6 -18 6 -20 0 -2 9 -4 20 -4 13 0 20 7 20 20 0 15
-7 20 -26 20 -20 0 -25 -4 -20 -16z"/>
<path d="M1923 6508 c-6 -18 -27 -72 -46 -120 l-35 -88 24 0 c16 0 28 9 39 30
13 25 21 30 53 30 44 0 57 -8 66 -37 5 -16 15 -23 32 -23 13 0 24 4 24 10 0
10 -52 145 -76 198 -12 25 -21 32 -43 32 -22 0 -30 -6 -38 -32z m65 -104 c-4
-3 -17 -4 -31 -2 -25 3 -25 3 -10 38 l15 35 16 -32 c8 -18 13 -35 10 -39z"/>
<path d="M2300 6419 c0 -118 0 -120 22 -117 11 2 22 11 24 21 8 56 24 60 47
12 13 -27 23 -35 43 -35 l26 0 -32 56 -31 56 26 28 c42 44 -6 52 -51 9 -13
-12 -25 -18 -26 -13 0 5 -2 14 -3 19 -2 6 -3 27 -4 48 -1 30 -5 37 -21 37 -19
0 -20 -7 -20 -121z"/>
<path d="M2800 6501 l0 -39 -30 11 c-25 10 -34 8 -57 -9 -23 -17 -29 -30 -31
-72 -4 -73 16 -91 102 -90 l66 0 0 119 0 119 -25 0 c-22 0 -25 -4 -25 -39z
m-4 -86 c8 -33 -3 -74 -22 -82 -37 -14 -72 65 -42 95 22 22 57 14 64 -13z"/>
<path d="M2990 6419 l0 -121 85 3 c70 3 87 7 99 24 20 26 20 64 0 86 -14 16
-15 23 -4 49 10 25 10 34 -4 55 -15 23 -22 25 -96 25 l-80 0 0 -121z m135 56
c0 -17 -7 -20 -45 -20 -33 0 -45 4 -46 15 -1 27 7 31 49 28 34 -2 42 -7 42
-23z m8 -84 c8 -8 9 -16 1 -29 -16 -25 -97 -24 -102 1 -8 38 6 50 49 44 23 -3
46 -10 52 -16z"/>
<path d="M3773 6527 c-13 -5 -23 -16 -23 -24 0 -7 -6 -23 -12 -34 -10 -17 -10
-23 0 -26 7 -3 12 -24 12 -58 0 -29 3 -60 6 -69 8 -22 74 -22 74 -1 0 8 -7 15
-15 15 -12 0 -15 13 -15 55 0 42 3 55 15 55 19 0 20 26 1 37 -8 4 -16 20 -18
34 -3 23 -6 25 -25 16z"/>
<path d="M5150 6505 c0 -35 0 -35 -37 -29 -56 8 -83 -20 -83 -86 0 -72 20 -89
102 -88 l63 1 -2 86 c-1 47 -2 101 -3 119 0 25 -4 32 -20 32 -16 0 -20 -7 -20
-35z m-8 -90 c17 -38 0 -80 -32 -80 -18 0 -27 8 -34 27 -13 36 6 78 34 78 12
0 25 -10 32 -25z"/>
<path d="M5320 6533 c0 -4 18 -35 40 -68 34 -51 40 -68 40 -112 0 -50 2 -53
25 -53 24 0 25 3 25 53 0 45 6 62 40 115 22 33 40 64 40 67 0 4 -12 5 -27 3
-20 -2 -33 -13 -48 -40 -11 -21 -24 -38 -30 -38 -5 0 -19 17 -30 38 -15 27
-28 38 -47 40 -16 2 -28 0 -28 -5z"/>
<path d="M973 6523 c-7 -2 -13 -11 -13 -19 0 -8 -6 -24 -12 -35 -10 -17 -10
-23 0 -26 8 -3 12 -25 12 -62 0 -31 5 -62 12 -69 18 -18 68 -15 68 3 0 8 -7
15 -15 15 -12 0 -15 13 -15 55 0 42 3 55 15 55 8 0 15 7 15 15 0 9 -7 18 -15
21 -8 4 -15 17 -15 30 0 23 -11 28 -37 17z"/>
<path d="M4064 6518 c-27 -36 -39 -71 -26 -75 8 -3 12 -25 12 -62 0 -64 11
-81 52 -81 29 0 39 23 14 33 -14 6 -27 72 -18 95 2 6 10 12 18 12 18 0 18 27
0 37 -8 4 -15 17 -17 27 -5 24 -23 31 -35 14z"/>
<path d="M370 6402 c0 -47 5 -83 12 -90 15 -15 70 -16 85 -1 8 8 13 8 17 0 4
-6 16 -11 27 -11 17 0 19 8 19 85 0 68 -3 87 -15 92 -24 9 -29 -2 -26 -60 1
-42 -2 -57 -18 -71 -11 -10 -27 -16 -36 -13 -14 6 -17 20 -20 100 -1 26 -18
46 -37 47 -5 0 -8 -35 -8 -78z"/>
<path d="M596 6457 c-35 -35 -37 -104 -3 -135 37 -35 127 -25 127 13 0 18 -23
19 -49 3 -23 -14 -53 -3 -49 19 2 12 15 16 53 17 46 1 50 3 53 27 4 36 -26 69
-70 75 -30 5 -41 2 -62 -19z m82 -39 c3 -14 -3 -18 -27 -18 -29 0 -41 17 -24
34 13 13 48 1 51 -16z"/>
<path d="M782 6464 c-24 -16 -30 -58 -10 -71 7 -4 30 -15 51 -24 21 -8 39 -19
40 -25 3 -16 -44 -16 -62 0 -15 13 -20 14 -36 2 -17 -12 -17 -14 6 -29 26 -19
90 -22 120 -7 45 25 10 100 -47 100 -29 0 -53 27 -31 36 9 3 24 1 36 -5 28
-15 51 -14 51 4 0 34 -79 47 -118 19z"/>
<path d="M1077 6474 c-4 -4 -7 -45 -7 -91 0 -82 0 -83 25 -83 l26 0 -3 87 c-2
70 -6 88 -18 91 -9 1 -19 0 -23 -4z"/>
<path d="M1179 6451 c-32 -33 -37 -67 -14 -110 16 -33 33 -41 79 -41 51 0 86
33 86 80 0 52 -8 68 -41 85 -43 23 -77 18 -110 -14z m103 -36 c13 -29 -1 -72
-27 -81 -38 -15 -73 64 -43 94 21 21 57 14 70 -13z"/>
<path d="M1388 6472 c-15 -3 -18 -16 -18 -88 0 -83 0 -84 25 -84 24 0 25 3 25
54 0 69 7 86 35 86 28 0 35 -17 35 -86 0 -47 2 -54 20 -54 18 0 20 7 20 80 0
76 -1 81 -25 92 -19 8 -31 8 -51 -1 -15 -6 -31 -8 -38 -3 -6 5 -19 7 -28 4z"/>
<path d="M1594 6455 c-24 -24 -25 -28 -11 -48 8 -12 34 -29 59 -37 27 -9 43
-20 41 -27 -6 -16 -37 -17 -62 -1 -10 6 -27 8 -37 4 -18 -7 -18 -9 5 -27 29
-24 103 -26 126 -3 37 38 5 84 -68 99 -16 3 -27 11 -24 18 4 12 23 13 70 1 21
-5 27 -3 27 9 0 42 -88 50 -126 12z"/>
<path d="M2132 6464 c-45 -31 -20 -82 51 -99 15 -4 27 -13 27 -21 0 -18 -44
-18 -60 0 -13 17 -40 10 -40 -10 0 -19 33 -34 75 -34 52 0 75 15 75 50 0 30
-30 60 -60 60 -9 0 -25 6 -36 14 -18 14 -18 15 0 22 10 4 27 2 37 -4 26 -16
49 -15 49 3 0 34 -79 47 -118 19z"/>
<path d="M2509 6451 c-36 -36 -39 -86 -8 -125 26 -34 96 -37 124 -6 17 18 17
20 1 26 -10 4 -28 1 -42 -7 -21 -11 -27 -10 -40 3 -24 24 -9 37 39 33 62 -5
72 4 53 49 -14 34 -46 56 -82 56 -9 0 -29 -13 -45 -29z m75 -17 c21 -21 12
-34 -25 -34 -33 0 -40 23 -11 39 9 6 18 11 19 11 1 0 9 -7 17 -16z"/>
<path d="M3225 6470 c-3 -5 8 -43 25 -86 36 -95 37 -102 5 -114 -35 -13 -33
-40 4 -40 38 0 53 16 75 76 10 27 27 73 38 102 14 35 17 57 11 63 -18 18 -41
-2 -52 -44 -9 -37 -30 -82 -31 -67 0 3 -9 30 -19 60 -17 49 -43 72 -56 50z"/>
<path d="M3881 6467 c-33 -17 -38 -37 -9 -37 13 0 29 4 37 9 8 5 20 7 28 4 27
-10 12 -30 -34 -44 -44 -13 -48 -17 -51 -48 -4 -44 7 -50 88 -49 l65 0 -3 74
c-3 62 -7 76 -25 89 -26 18 -63 19 -96 2z m67 -109 c-3 -25 -34 -36 -52 -18
-8 8 -6 15 8 26 29 21 48 18 44 -8z"/>
<path d="M4193 6468 c-43 -21 -55 -100 -22 -142 16 -21 29 -26 63 -26 39 0 76
21 76 43 0 11 -39 8 -59 -5 -15 -9 -23 -9 -35 1 -28 23 -18 31 39 31 l55 0 0
33 c0 20 -8 41 -18 50 -24 22 -71 29 -99 15z m67 -48 c0 -16 -7 -20 -30 -20
-18 0 -30 5 -30 13 0 20 10 27 37 27 16 0 23 -6 23 -20z"/>
<path d="M4361 6463 c-19 -15 -23 -25 -17 -46 5 -20 18 -30 56 -44 28 -10 49
-22 47 -28 -6 -17 -46 -17 -62 -1 -17 17 -45 11 -45 -10 0 -37 106 -48 140
-14 37 37 18 72 -50 90 -22 6 -40 15 -40 20 0 17 22 22 45 10 13 -7 32 -10 41
-6 16 6 16 8 2 22 -25 26 -89 29 -117 7z"/>
<path d="M4648 6458 c-21 -21 -21 -23 -5 -26 10 -2 31 1 47 6 15 6 31 8 34 5
15 -15 3 -32 -26 -38 -49 -11 -68 -27 -68 -56 0 -38 17 -48 90 -47 l65 0 -3
74 c-3 62 -7 76 -25 89 -32 22 -83 19 -109 -7z m80 -100 c-3 -26 -36 -37 -49
-16 -6 8 -3 17 8 26 26 19 45 15 41 -10z"/>
<path d="M4827 6474 c-4 -4 -7 -45 -7 -91 0 -82 0 -83 25 -83 24 0 25 3 25 58
0 68 9 85 41 80 22 -3 24 -8 27 -70 3 -63 5 -68 25 -68 22 0 22 3 19 78 -2 42
-8 81 -13 86 -8 8 -47 11 -89 6 -8 -2 -22 1 -31 4 -8 4 -18 3 -22 0z"/>
<path d="M5579 6451 c-36 -36 -39 -86 -8 -125 16 -21 29 -26 63 -26 39 0 76
21 76 43 0 11 -39 8 -59 -5 -15 -9 -23 -9 -35 1 -27 23 -18 30 42 33 57 3 57
3 55 33 -3 36 -44 75 -79 75 -15 0 -38 -12 -55 -29z m84 -25 c8 -19 -1 -26
-35 -26 -30 0 -31 1 -22 24 8 20 50 21 57 2z"/>
<path d="M5778 6469 c-10 -5 -18 -17 -18 -25 0 -12 9 -14 45 -8 36 5 45 3 45
-9 0 -9 -17 -19 -45 -26 -36 -9 -46 -17 -51 -38 -12 -45 5 -58 82 -60 l70 -1
-4 71 c-3 57 -8 76 -24 90 -22 19 -73 22 -100 6z m75 -95 c3 -4 2 -15 -4 -25
-12 -23 -45 -25 -53 -4 -8 21 40 46 57 29z"/>
<path d="M5944 6471 c-2 -2 -4 -42 -4 -88 0 -82 0 -83 25 -83 24 0 25 3 25 58
0 61 11 82 43 82 12 0 17 6 15 18 -3 13 -14 17 -51 17 -27 0 -50 -1 -53 -4z"/>
<path d="M6092 6464 c-47 -33 -19 -83 56 -99 18 -4 31 -12 29 -18 -5 -16 -47
-21 -60 -8 -16 16 -47 13 -47 -4 0 -32 99 -49 132 -22 40 32 21 82 -37 93 -42
8 -65 31 -40 40 9 4 27 1 40 -6 13 -7 32 -9 42 -6 17 7 16 9 -6 27 -28 23 -78
25 -109 3z"/>
<path d="M6750 5775 c0 -8 4 -15 10 -15 5 0 7 7 4 15 -4 8 -8 15 -10 15 -2 0
-4 -7 -4 -15z"/>
<path d="M7465 5780 c4 -6 11 -8 16 -5 14 9 11 15 -7 15 -8 0 -12 -5 -9 -10z"/>
<path d="M7737 5783 c-10 -9 -9 -23 1 -23 5 0 9 7 9 15 0 17 -1 18 -10 8z"/>
<path d="M10761 5774 c0 -11 3 -14 6 -6 3 7 2 16 -1 19 -3 4 -6 -2 -5 -13z"/>
<path d="M11617 5778 c-2 -7 -1 -22 4 -33 6 -16 8 -14 8 13 1 33 -4 41 -12 20z"/>
<path d="M6790 5769 c0 -5 5 -7 10 -4 6 3 10 8 10 11 0 2 -4 4 -10 4 -5 0 -10
-5 -10 -11z"/>
<path d="M6997 5773 c-2 -5 -1 -19 4 -33 7 -23 7 -23 8 8 1 31 -3 40 -12 25z"/>
<path d="M9880 5770 c0 -6 7 -10 15 -10 8 0 15 2 15 4 0 2 -7 6 -15 10 -8 3
-15 1 -15 -4z"/>
<path d="M10030 5769 c0 -5 5 -7 10 -4 6 3 10 8 10 11 0 2 -4 4 -10 4 -5 0
-10 -5 -10 -11z"/>
<path d="M6912 5745 c0 -16 2 -22 5 -12 2 9 2 23 0 30 -3 6 -5 -1 -5 -18z"/>
<path d="M6948 5763 c7 -3 16 -2 19 1 4 3 -2 6 -13 5 -11 0 -14 -3 -6 -6z"/>
<path d="M7051 5763 c0 -4 4 -17 9 -28 8 -19 9 -19 9 2 1 12 -3 25 -9 28 -5 3
-10 3 -9 -2z"/>
<path d="M7092 5745 c0 -16 2 -22 5 -12 2 9 2 23 0 30 -3 6 -5 -1 -5 -18z"/>
<path d="M7142 5750 c0 -14 2 -19 5 -12 2 6 2 18 0 25 -3 6 -5 1 -5 -13z"/>
<path d="M7290 5763 c8 -3 18 -11 22 -17 5 -7 8 -4 8 7 0 11 -7 17 -22 16 -16
0 -18 -2 -8 -6z"/>
<path d="M7668 5763 c7 -3 16 -2 19 1 4 3 -2 6 -13 5 -11 0 -14 -3 -6 -6z"/>
<path d="M8545 5760 c-19 -8 -19 -9 3 -9 12 -1 22 4 22 9 0 6 -1 10 -2 9 -2 0
-12 -4 -23 -9z"/>
<path d="M10162 5750 c0 -14 2 -19 5 -12 2 6 2 18 0 25 -3 6 -5 1 -5 -13z"/>
<path d="M10351 5754 c0 -11 3 -14 6 -6 3 7 2 16 -1 19 -3 4 -6 -2 -5 -13z"/>
<path d="M10531 5754 c0 -11 3 -14 6 -6 3 7 2 16 -1 19 -3 4 -6 -2 -5 -13z"/>
<path d="M10622 5750 c0 -14 2 -19 5 -12 2 6 2 18 0 25 -3 6 -5 1 -5 -13z"/>
<path d="M10671 5754 c0 -11 3 -14 6 -6 3 7 2 16 -1 19 -3 4 -6 -2 -5 -13z"/>
<path d="M10791 5754 c0 -11 3 -14 6 -6 3 7 2 16 -1 19 -3 4 -6 -2 -5 -13z"/>
<path d="M11252 5750 c0 -14 2 -19 5 -12 2 6 2 18 0 25 -3 6 -5 1 -5 -13z"/>
<path d="M11490 5755 c-10 -12 -10 -15 4 -15 9 0 16 7 16 15 0 8 -2 15 -4 15
-2 0 -9 -7 -16 -15z"/>
<path d="M6821 5744 c0 -11 3 -14 6 -6 3 7 2 16 -1 19 -3 4 -6 -2 -5 -13z"/>
<path d="M6861 5744 c0 -11 3 -14 6 -6 3 7 2 16 -1 19 -3 4 -6 -2 -5 -13z"/>
<path d="M7378 5753 c6 -2 18 -2 25 0 6 3 1 5 -13 5 -14 0 -19 -2 -12 -5z"/>
<path d="M8010 5743 c0 -12 3 -14 8 -7 4 7 16 14 27 17 15 4 14 5 -7 6 -21 1
-28 -4 -28 -16z"/>
<path d="M8480 5745 c0 -8 5 -15 10 -15 6 0 10 7 10 15 0 8 -4 15 -10 15 -5 0
-10 -7 -10 -15z"/>
<path d="M9955 5750 c3 -5 8 -10 11 -10 2 0 4 5 4 10 0 6 -5 10 -11 10 -5 0
-7 -4 -4 -10z"/>
<path d="M10070 5751 c0 -5 9 -7 20 -4 11 3 20 7 20 9 0 2 -9 4 -20 4 -11 0
-20 -4 -20 -9z"/>
<path d="M10400 5751 c0 -4 11 -6 25 -3 14 2 25 6 25 8 0 2 -11 4 -25 4 -14 0
-25 -4 -25 -9z"/>
<path d="M10570 5743 c0 -10 4 -14 8 -8 4 6 11 13 16 18 5 4 2 7 -7 7 -10 0
-17 -8 -17 -17z"/>
<path d="M11030 5751 c0 -4 11 -6 25 -3 14 2 25 6 25 8 0 2 -11 4 -25 4 -14 0
-25 -4 -25 -9z"/>
<path d="M11530 5751 c0 -4 11 -6 25 -3 14 2 25 6 25 8 0 2 -11 4 -25 4 -14 0
-25 -4 -25 -9z"/>
<path d="M8377 5743 c-3 -5 6 -8 19 -8 13 0 24 3 24 8 0 4 -9 7 -19 7 -11 0
-22 -3 -24 -7z"/>
<path d="M7915 5720 c-3 -5 -1 -10 4 -10 6 0 11 5 11 10 0 6 -2 10 -4 10 -3 0
-8 -4 -11 -10z"/>
<path d="M11614 5480 c0 -52 1 -74 3 -47 2 26 2 68 0 95 -2 26 -3 4 -3 -48z"/>
<path d="M8702 5278 c-1 -148 -6 -248 -12 -250 -5 -1 -11 -60 -14 -130 -2 -69
-7 -132 -11 -138 -11 -18 -7 -112 5 -124 7 -7 10 -5 11 4 1 8 3 26 6 40 2 14
6 79 8 144 3 66 8 122 13 125 5 3 6 132 2 291 l-7 285 -1 -247z"/>
<path d="M11368 5504 c-5 -4 -8 -30 -9 -58 -1 -41 -3 -46 -9 -26 -5 17 -8 -6
-9 -67 -1 -56 3 -93 9 -93 6 0 11 18 11 40 1 22 2 43 4 48 1 4 5 18 9 33 9 31
4 134 -6 123z"/>
<path d="M11106 5463 c-9 -57 -7 -70 9 -77 12 -4 15 5 15 54 0 67 -14 80 -24
23z"/>
<path d="M8335 5180 c2 -199 6 -264 18 -294 12 -32 16 -36 20 -20 3 14 5 12 6
-8 0 -16 6 -28 11 -28 12 0 12 263 0 300 l-8 25 -2 -25 -2 -25 -8 25 c-4 14
-5 38 -2 54 4 20 2 27 -6 22 -16 -9 -21 21 -25 134 -2 52 -3 -20 -2 -160z"/>
<path d="M8186 5195 c-8 -231 -16 -289 -27 -205 -6 43 -6 42 -7 -17 -2 -76
-22 -85 -22 -10 0 67 -9 104 -21 85 -12 -18 -11 -246 1 -250 5 -1 10 -29 11
-61 2 -64 13 -82 24 -39 7 25 8 25 15 7 6 -13 9 14 9 72 1 63 5 93 13 95 10 4
14 67 16 249 5 322 -2 363 -12 74z m-29 -442 c-3 -10 -5 -2 -5 17 0 19 2 27 5
18 2 -10 2 -26 0 -35z"/>
<path d="M11631 5390 c-1 -3 -4 -61 -6 -130 -2 -93 0 -115 6 -85 8 34 8 230 0
215z"/>
<path d="M11416 5364 c-3 -9 -6 -24 -6 -34 0 -10 -5 -20 -11 -22 -8 -3 -8 -32
-3 -98 8 -95 8 -95 18 -47 12 58 26 61 26 5 0 -23 3 -39 6 -36 8 9 -8 248 -16
248 -4 0 -11 -7 -14 -16z"/>
<path d="M8294 5210 c0 -85 2 -120 3 -77 2 42 2 112 0 155 -1 42 -3 7 -3 -78z"/>
<path d="M11138 5328 c-2 -7 -2 -46 0 -85 3 -53 7 -73 17 -73 8 0 18 -8 24
-17 7 -13 9 8 6 71 -5 100 -14 127 -16 45 l-1 -54 -9 59 c-9 62 -14 75 -21 54z"/>
<path d="M11250 5311 c0 -24 -16 -36 -23 -19 -3 7 -6 -3 -6 -22 -1 -19 -3 -44
-5 -55 -2 -11 -1 -14 1 -7 9 26 23 -1 23 -44 0 -24 5 -44 10 -44 6 0 10 42 10
105 0 58 -2 105 -5 105 -3 0 -5 -9 -5 -19z"/>
<path d="M8917 5223 c-3 -54 -2 -132 2 -173 7 -63 8 -47 10 98 0 94 -1 172 -2
172 -2 0 -7 -44 -10 -97z"/>
<path d="M620 5259 c-22 -4 -27 -7 -12 -8 20 -1 22 -6 22 -66 0 -37 4 -65 10
-65 6 0 10 28 10 64 0 63 1 65 28 68 l27 3 -25 5 c-14 3 -41 3 -60 -1z"/>
<path d="M3191 5253 c-5 -11 -6 -44 -1 -78 l7 -60 2 48 c0 27 6 47 12 47 8 0
8 4 0 14 -8 10 -9 16 -1 21 5 3 10 10 10 16 0 15 -19 10 -29 -8z"/>
<path d="M4860 5260 c-10 -6 -14 -26 -12 -71 3 -74 12 -93 12 -26 0 28 5 47
11 47 8 0 7 5 -2 16 -10 13 -10 17 1 24 8 5 12 11 9 14 -2 3 -11 1 -19 -4z"/>
<path d="M1500 5240 c0 -15 -7 -20 -29 -20 -30 0 -41 -14 -41 -54 0 -31 19
-46 57 -46 l33 0 0 70 c0 40 -4 70 -10 70 -5 0 -10 -9 -10 -20z m-2 -61 c2
-15 -4 -31 -13 -39 -24 -20 -50 9 -41 45 9 36 50 32 54 -6z"/>
<path d="M1611 5188 c1 -53 3 -63 8 -38 5 30 11 36 36 39 l30 4 -30 6 c-21 4
-31 13 -33 28 -3 19 2 22 40 26 l43 4 -47 1 -48 2 1 -72z"/>
<path d="M1730 5190 c0 -40 4 -70 10 -70 6 0 10 30 10 70 0 40 -4 70 -10 70
-6 0 -10 -30 -10 -70z"/>
<path d="M2070 5241 c0 -15 -8 -21 -32 -23 -29 -3 -33 -7 -36 -36 -4 -42 13
-63 49 -60 29 2 29 3 29 70 0 37 -2 68 -5 68 -3 0 -5 -9 -5 -19z m-4 -57 c4
-17 1 -31 -10 -42 -15 -15 -17 -15 -32 0 -22 22 -11 68 16 68 13 0 22 -9 26
-26z"/>
<path d="M2293 5190 c0 -60 1 -66 6 -30 5 37 10 46 29 48 23 4 26 -4 22 -60
-1 -16 3 -28 9 -28 6 0 11 19 11 45 0 47 -17 67 -51 58 -12 -4 -19 2 -22 19
-2 12 -4 -11 -4 -52z"/>
<path d="M3299 5239 c-2 -13 -2 -44 1 -69 4 -34 10 -46 24 -48 18 -4 19 -3 3
13 -18 17 -23 71 -8 77 5 2 4 14 -3 27 l-13 24 -4 -24z"/>
<path d="M3350 5191 c0 -77 17 -98 22 -28 2 35 7 43 26 45 20 3 22 -1 22 -42
0 -25 5 -46 10 -46 11 0 14 59 4 84 -4 10 -18 16 -35 16 -19 0 -29 5 -29 14 0
8 -4 18 -10 21 -6 4 -10 -20 -10 -64z"/>
<path d="M3643 5190 c0 -41 2 -58 4 -37 2 20 2 54 0 75 -2 20 -4 3 -4 -38z"/>
<path d="M4167 5243 c-9 -8 -9 -86 -1 -107 12 -32 19 -15 18 44 -1 61 -5 75
-17 63z"/>
<path d="M4458 5238 c-9 -24 7 -111 20 -116 11 -3 12 0 2 18 -7 13 -10 37 -7
55 6 34 -6 68 -15 43z"/>
<path d="M1348 5222 c-26 -3 -28 -6 -28 -53 0 -60 18 -65 22 -6 2 34 7 42 23
42 16 0 21 -8 23 -42 2 -24 7 -43 11 -43 4 0 7 17 5 38 -2 20 -3 42 -3 48 -1
15 -19 20 -53 16z"/>
<path d="M2813 5223 c-21 -4 -23 -10 -21 -56 l1 -52 6 45 c5 37 10 46 29 48
20 3 22 -1 22 -42 0 -25 5 -46 10 -46 16 0 12 77 -6 94 -8 9 -16 15 -17 15 -1
-1 -12 -4 -24 -6z"/>
<path d="M4375 5222 c-33 -7 -39 -20 -9 -19 39 3 41 -16 3 -26 -24 -6 -30 -13
-27 -30 3 -19 10 -22 47 -23 43 -2 43 -2 37 28 -3 17 -6 38 -6 48 0 20 -16 28
-45 22z m35 -56 c0 -18 -15 -36 -31 -36 -12 0 -19 7 -19 20 0 15 7 20 25 20
14 0 25 -2 25 -4z"/>
<path d="M11060 5207 c0 -14 -4 -28 -9 -31 -13 -8 -7 -36 10 -47 22 -14 32
-11 24 9 -4 9 -9 33 -12 52 -6 43 -13 52 -13 17z"/>
<path d="M200 5205 c-26 -32 13 -81 48 -59 34 22 22 74 -18 74 -10 0 -23 -7
-30 -15z"/>
<path d="M727 5213 c-13 -12 -7 -70 7 -83 19 -15 58 -9 64 10 5 13 3 13 -11 1
-20 -16 -47 -8 -47 14 0 11 10 15 35 15 38 0 40 2 25 31 -10 19 -59 27 -73 12z
m61 -20 c2 -8 -6 -13 -22 -13 -17 0 -26 5 -26 16 0 19 41 16 48 -3z"/>
<path d="M845 5197 c14 -22 14 -26 -6 -50 -11 -15 -15 -27 -9 -27 6 0 13 7 16
15 8 20 31 19 43 -2 5 -10 13 -15 17 -10 4 4 0 15 -9 25 -21 23 -21 36 -2 52
22 18 11 24 -15 8 -18 -10 -24 -10 -27 0 -3 6 -9 12 -14 12 -5 0 -3 -11 6 -23z"/>
<path d="M940 5212 c0 -5 14 -7 30 -4 23 3 30 0 30 -12 0 -10 -9 -16 -24 -16
-29 0 -49 -22 -40 -44 5 -12 17 -16 46 -14 l39 3 -3 45 c-3 44 -4 45 -40 48
-21 2 -38 -1 -38 -6z m58 -59 c-4 -22 -48 -31 -48 -10 0 19 10 27 32 27 13 0
18 -6 16 -17z"/>
<path d="M1050 5199 c0 -13 10 -23 30 -30 17 -6 30 -15 30 -20 0 -17 -30 -22
-47 -8 -14 12 -16 12 -11 -1 3 -9 17 -15 34 -15 23 0 30 5 32 23 3 18 -3 25
-27 33 -40 14 -41 33 -1 26 17 -4 30 -2 30 3 0 6 -16 10 -35 10 -29 0 -35 -4
-35 -21z"/>
<path d="M1210 5210 c0 -5 13 -7 30 -3 23 4 30 2 30 -11 0 -10 -8 -16 -24 -16
-13 0 -29 -7 -36 -15 -19 -23 5 -45 46 -42 33 2 34 3 34 50 l0 47 -40 0 c-22
0 -40 -4 -40 -10z m68 -52 c-7 -21 -36 -34 -49 -21 -6 6 -8 16 -5 22 10 15 59
14 54 -1z"/>
<path d="M1774 5195 c-9 -38 10 -75 40 -75 32 0 48 22 44 62 -3 30 -6 33 -40
36 -33 3 -38 0 -44 -23z m72 -11 c8 -31 -14 -58 -39 -48 -17 6 -24 54 -10 67
16 16 43 6 49 -19z"/>
<path d="M1892 5168 c1 -43 2 -46 5 -16 3 24 12 43 26 53 21 15 21 15 -6 15
-26 0 -27 -2 -25 -52z"/>
<path d="M1963 5170 c0 -30 2 -43 4 -27 2 15 2 39 0 55 -2 15 -4 2 -4 -28z"/>
<path d="M2120 5212 c0 -5 14 -7 30 -4 41 6 41 -23 0 -32 -34 -6 -50 -33 -29
-47 8 -5 29 -7 46 -6 32 2 33 3 33 50 l0 47 -40 0 c-22 0 -40 -4 -40 -8z m58
-59 c-4 -22 -48 -31 -48 -10 0 19 10 27 32 27 13 0 18 -6 16 -17z"/>
<path d="M2400 5210 c0 -5 13 -7 30 -3 23 4 30 2 30 -11 0 -9 -8 -16 -18 -16
-10 0 -27 -6 -37 -14 -28 -21 -4 -47 41 -43 33 2 34 3 34 50 l0 47 -40 0 c-22
0 -40 -4 -40 -10z m60 -60 c-11 -21 -35 -27 -45 -10 -10 16 4 30 31 30 22 0
23 -3 14 -20z"/>
<path d="M2514 5205 c-8 -20 4 -35 26 -35 24 0 36 -18 21 -33 -9 -9 -16 -8
-31 1 -16 10 -18 9 -14 -3 8 -20 60 -19 68 1 8 21 0 33 -30 44 -32 13 -31 34
1 28 14 -3 25 -1 25 3 0 15 -60 10 -66 -6z"/>
<path d="M2669 5194 c-12 -32 11 -74 41 -74 40 0 66 60 38 88 -7 7 -25 12 -40
12 -22 0 -31 -6 -39 -26z m70 -6 c5 -13 6 -28 4 -35 -7 -18 -34 -25 -49 -12
-15 12 -19 51 -7 62 14 15 44 6 52 -15z"/>
<path d="M2902 5208 c-27 -27 -3 -88 35 -88 11 0 27 7 34 17 13 15 12 15 -8 3
-18 -11 -24 -12 -37 -1 -25 21 -19 31 20 31 31 0 35 3 32 23 -2 16 -11 23 -33
25 -17 2 -36 -3 -43 -10z m61 -13 c-3 -13 -53 -20 -53 -7 0 15 13 23 35 20 11
-2 19 -7 18 -13z"/>
<path d="M3068 5196 c-8 -20 -8 -32 0 -52 16 -34 60 -30 82 8 20 36 5 62 -38
66 -26 3 -34 -2 -44 -22z m70 -17 c4 -34 -22 -57 -43 -39 -16 13 -20 51 -8 64
16 16 48 1 51 -25z"/>
<path d="M3477 5214 c-11 -12 -8 -69 5 -82 16 -16 43 -15 58 3 8 9 8 15 2 15
-6 0 -12 -6 -15 -12 -3 -10 -9 -10 -23 -2 -34 20 -28 34 15 34 38 0 40 2 32
23 -8 22 -58 36 -74 21z m58 -19 c0 -5 -10 -11 -22 -13 -16 -2 -23 2 -23 13 0
11 7 15 23 13 12 -2 22 -7 22 -13z"/>
<path d="M3681 5198 c-15 -40 8 -78 45 -78 30 0 49 37 40 74 -5 22 -12 26 -42
26 -27 0 -37 -5 -43 -22z m68 -10 c10 -26 -3 -58 -23 -58 -23 0 -39 28 -32 55
8 32 43 34 55 3z"/>
<path d="M3794 5199 c3 -13 9 -37 13 -52 7 -36 23 -30 38 14 l12 34 12 -37 c7
-21 16 -38 20 -38 8 0 34 91 27 97 -2 2 -9 -11 -16 -29 l-12 -33 -12 28 c-15
34 -29 36 -36 6 -8 -32 -30 -36 -30 -5 0 13 -5 28 -12 32 -8 5 -9 0 -4 -17z"/>
<path d="M3947 5213 c-13 -12 -7 -71 8 -83 16 -13 65 -6 65 10 0 6 -9 5 -21
-2 -17 -11 -22 -10 -35 7 -14 19 -13 20 25 23 42 3 52 17 29 40 -13 13 -60 16
-71 5z m63 -18 c0 -9 -9 -15 -25 -15 -16 0 -25 6 -25 15 0 9 9 15 25 15 16 0
25 -6 25 -15z"/>
<path d="M4060 5199 c0 -13 10 -23 30 -30 17 -6 30 -15 30 -20 0 -17 -30 -22
-47 -8 -14 12 -16 12 -11 -1 3 -9 17 -15 34 -15 24 0 29 4 29 25 0 17 -7 26
-24 30 -14 3 -27 12 -29 19 -4 11 3 13 27 8 20 -4 30 -3 26 3 -3 6 -19 10 -36
10 -23 0 -29 -4 -29 -21z"/>
<path d="M4270 5170 c0 -27 5 -50 10 -50 6 0 10 18 10 40 0 27 6 42 18 49 14
9 13 10 -10 11 -27 0 -28 -2 -28 -50z"/>
<path d="M4523 5170 c0 -30 2 -43 4 -27 2 15 2 39 0 55 -2 15 -4 2 -4 -28z"/>
<path d="M4558 5196 c-16 -36 3 -76 36 -76 32 0 48 22 44 62 -3 29 -7 33 -35
36 -27 3 -35 -1 -45 -22z m68 -11 c7 -27 -10 -55 -33 -55 -19 0 -33 41 -21 63
13 26 47 21 54 -8z"/>
<path d="M4724 5196 c-9 -36 4 -65 32 -72 41 -11 69 29 53 74 -6 17 -16 22
-43 22 -29 0 -37 -4 -42 -24z m74 -17 c2 -15 -4 -32 -14 -40 -14 -12 -19 -10
-35 10 -15 18 -16 27 -8 43 15 28 53 20 57 -13z"/>
<path d="M8382 5195 c0 -16 2 -22 5 -12 2 9 2 23 0 30 -3 6 -5 -1 -5 -18z"/>
<path d="M11591 5184 c0 -11 3 -14 6 -6 3 7 2 16 -1 19 -3 4 -6 -2 -5 -13z"/>
<path d="M11288 5174 c-11 -10 -10 -58 1 -69 5 -6 11 -28 14 -50 3 -32 4 -28
4 15 1 64 -9 115 -19 104z"/>
<path d="M8152 5130 c0 -19 2 -27 5 -17 2 9 2 25 0 35 -3 9 -5 1 -5 -18z"/>
<path d="M8772 5090 c0 -41 3 -84 8 -95 11 -26 12 62 1 125 -8 41 -9 39 -9
-30z"/>
<path d="M11580 5118 c0 -49 5 -47 14 5 4 23 3 37 -4 37 -5 0 -10 -19 -10 -42z"/>
<path d="M11671 5083 c0 -46 3 -83 8 -83 5 0 13 -9 16 -20 10 -32 25 -23 25
15 0 23 -5 35 -14 35 -9 0 -17 21 -23 68 l-10 67 -2 -82z"/>
<path d="M8040 5070 c0 -56 -3 -70 -15 -70 -12 0 -15 -14 -15 -69 0 -40 -5
-71 -11 -73 -15 -5 -25 -253 -10 -262 7 -5 11 3 11 25 0 37 15 29 23 -11 3
-14 5 36 4 110 0 74 4 137 9 140 5 3 10 -4 12 -15 2 -11 9 -24 14 -30 7 -7 9
12 4 60 -3 39 -6 114 -6 168 0 58 -4 97 -10 97 -6 0 -10 -30 -10 -70z m-7
-133 c3 -8 1 -20 -4 -28 -6 -10 -9 -7 -9 14 0 29 5 35 13 14z"/>
<path d="M11046 5098 c-3 -13 -6 -50 -7 -83 -1 -33 -3 -52 -6 -42 -11 41 -23
11 -23 -59 0 -44 4 -73 9 -69 5 3 12 -7 14 -22 3 -23 4 -22 6 9 0 20 5 39 10
43 9 5 16 245 7 245 -2 0 -6 -10 -10 -22z"/>
<path d="M11750 5073 c0 -27 -4 -64 -9 -84 -5 -21 -5 -43 -1 -49 6 -9 9 -8 12
6 4 16 7 14 17 -10 10 -24 14 -26 27 -15 14 11 18 10 29 -4 11 -16 13 -14 19
18 9 48 -3 125 -19 125 -8 0 -16 8 -18 18 -4 16 -5 16 -6 0 -2 -31 -21 -19
-21 12 0 20 -5 30 -15 30 -11 0 -15 -12 -15 -47z"/>
<path d="M8848 5087 c-12 -29 -9 -375 3 -355 5 10 8 90 7 195 -2 98 -6 170
-10 160z"/>
<path d="M11083 5030 c0 -41 2 -58 4 -37 2 20 2 54 0 75 -2 20 -4 3 -4 -38z"/>
<path d="M11491 5003 c0 -63 3 -103 9 -103 12 0 12 82 0 155 -6 43 -8 35 -9
-52z"/>
<path d="M11712 5075 c0 -16 2 -22 5 -12 2 9 2 23 0 30 -3 6 -5 -1 -5 -18z"/>
<path d="M11257 5083 c-4 -6 -3 -21 1 -34 6 -16 10 -18 14 -8 7 19 -6 56 -15
42z"/>
<path d="M8152 5060 c0 -14 2 -19 5 -12 2 6 2 18 0 25 -3 6 -5 1 -5 -13z"/>
<path d="M8641 4966 c-1 -82 2 -117 9 -110 7 7 8 47 2 120 l-9 109 -2 -119z"/>
<path d="M11198 5028 c5 -89 9 -97 11 -20 0 39 -2 72 -6 72 -5 0 -7 -24 -5
-52z"/>
<path d="M11622 5050 c0 -19 2 -27 5 -17 2 9 2 25 0 35 -3 9 -5 1 -5 -18z"/>
<path d="M11892 5020 c0 -14 2 -19 5 -12 2 6 2 18 0 25 -3 6 -5 1 -5 -13z"/>
<path d="M1723 4950 c0 -41 2 -58 4 -37 2 20 2 54 0 75 -2 20 -4 3 -4 -38z"/>
<path d="M7914 4882 c-6 -80 -16 -148 -22 -154 -7 -7 -12 -42 -12 -80 0 -37
-4 -68 -9 -68 -12 0 -20 49 -22 133 -1 37 -7 72 -14 77 -9 8 -13 -28 -18 -151
-3 -88 -8 -163 -11 -166 -12 -12 -17 6 -23 78 -4 46 -11 77 -19 82 -8 4 -14
17 -14 27 0 11 -5 20 -11 20 -8 0 -10 -17 -6 -56 6 -57 1 -84 -14 -84 -5 0 -9
21 -9 46 0 27 -4 43 -10 39 -5 -3 -10 2 -10 11 0 10 -2 15 -5 12 -8 -7 -9
-298 -1 -305 3 -4 7 -27 7 -52 1 -25 4 -36 6 -23 2 12 11 22 19 22 11 0 14 17
14 81 0 97 21 106 32 14 7 -56 18 -87 18 -51 0 9 5 14 10 11 6 -3 10 3 10 14
0 21 14 34 43 38 12 2 17 -4 17 -21 0 -33 18 -43 24 -14 7 30 16 122 22 231 4
58 9 87 17 87 9 0 11 38 9 148 -4 209 -6 214 -18 54z"/>
<path d="M718 5004 c-12 -11 -9 -112 3 -119 6 -4 11 -5 12 -4 6 11 -9 130 -15
123z"/>
<path d="M768 4998 c-2 -7 -2 -37 0 -65 3 -40 8 -53 20 -53 12 0 13 3 4 12
-14 14 -16 75 -3 80 5 2 4 11 -4 21 -9 13 -14 14 -17 5z"/>
<path d="M1397 5003 c-9 -8 -9 -86 -1 -107 3 -9 13 -16 21 -16 12 0 13 3 4 14
-6 7 -10 34 -10 60 2 47 -2 61 -14 49z"/>
<path d="M2037 4993 c-3 -5 -2 -32 0 -60 4 -39 10 -53 21 -53 13 0 13 3 4 12
-14 14 -16 64 -2 73 5 3 7 12 3 20 -6 16 -19 20 -26 8z"/>
<path d="M11540 4930 c0 -51 -3 -69 -12 -67 -14 2 -12 -61 2 -97 7 -17 9 -13
9 17 1 26 5 37 14 35 8 -3 14 -50 18 -164 l5 -159 -3 175 c-4 218 -12 330 -24
330 -5 0 -9 -31 -9 -70z"/>
<path d="M11878 4973 c-5 -58 -4 -74 3 -79 5 -3 9 18 9 45 0 48 -8 71 -12 34z"/>
<path d="M600 4963 c0 -14 2 -15 9 -5 9 15 42 13 48 -3 2 -6 -11 -15 -29 -20
-23 -7 -33 -16 -33 -30 0 -17 7 -20 44 -21 l43 -2 -6 41 c-9 53 -12 57 -47 57
-21 0 -29 -5 -29 -17z m58 -50 c-4 -23 -48 -31 -48 -10 0 9 6 18 13 20 25 11
38 7 35 -10z"/>
<path d="M826 4964 c-17 -45 1 -84 39 -84 28 0 45 19 45 50 0 14 -5 31 -12 38
-17 17 -65 15 -72 -4z m64 -14 c12 -23 -2 -60 -23 -60 -32 0 -48 45 -25 68 18
18 36 15 48 -8z"/>
<path d="M937 4973 c-11 -10 -8 -93 3 -93 6 0 10 15 10 34 0 19 7 42 16 50 14
15 14 16 -4 16 -10 0 -22 -3 -25 -7z"/>
<path d="M1007 4973 c-11 -10 -8 -93 2 -93 6 0 11 19 13 43 2 34 7 42 23 42
16 0 21 -8 25 -45 3 -25 8 -38 11 -30 3 8 4 32 1 53 -4 34 -7 37 -36 37 -18 0
-36 -3 -39 -7z"/>
<path d="M1120 4959 c-15 -28 -5 -66 20 -74 23 -7 60 2 60 16 0 5 -9 4 -19 -3
-15 -9 -23 -9 -35 1 -21 18 -11 31 25 31 22 0 29 5 29 19 0 35 -63 43 -80 10z
m64 -4 c4 -11 -2 -15 -24 -15 -22 0 -28 4 -24 15 4 8 14 15 24 15 10 0 20 -7
24 -15z"/>
<path d="M1235 4955 c3 -16 8 -45 12 -64 4 -23 2 -36 -8 -42 -11 -7 -11 -9 4
-9 9 0 17 1 17 3 0 2 11 31 24 65 14 34 20 62 15 62 -5 0 -12 -13 -15 -30 -7
-33 -22 -39 -30 -12 -3 9 -10 26 -15 37 -7 16 -8 14 -4 -10z"/>
<path d="M1451 4966 c-16 -19 -10 -66 10 -79 9 -5 28 -7 42 -3 22 5 27 12 27
35 0 16 -3 36 -6 45 -8 20 -57 21 -73 2z m63 -18 c14 -23 -3 -53 -30 -53 -20
0 -31 33 -20 61 7 19 35 14 50 -8z"/>
<path d="M1620 4961 c-22 -43 -5 -81 36 -81 12 0 27 7 34 15 15 18 7 19 -21 3
-17 -11 -22 -10 -34 5 -21 28 -4 62 29 60 15 -1 24 2 21 8 -11 16 -54 10 -65
-10z"/>
<path d="M1773 4930 c0 -30 2 -43 4 -27 2 15 2 39 0 55 -2 15 -4 2 -4 -28z"/>
<path d="M1816 4965 c-34 -34 -6 -89 42 -83 14 2 27 9 30 16 3 11 0 11 -16 1
-17 -10 -23 -10 -36 0 -22 19 -11 31 29 31 31 0 34 2 26 23 -10 27 -52 34 -75
12z m62 -12 c2 -8 -6 -13 -22 -13 -25 0 -33 10 -19 24 10 10 36 3 41 -11z"/>
<path d="M1927 4973 c-9 -19 -8 -93 2 -93 6 0 11 18 11 40 0 28 5 43 16 47 24
9 44 -23 37 -58 -3 -18 -1 -29 6 -29 12 0 15 57 5 84 -6 16 -69 23 -77 9z"/>
<path d="M2097 4967 c-7 -19 4 -33 31 -41 12 -4 22 -14 22 -22 0 -17 -36 -19
-43 -1 -3 7 -6 4 -6 -6 -1 -15 5 -18 32 -15 42 4 45 37 5 56 -35 16 -37 36 -3
30 14 -3 25 -1 25 3 0 15 -57 10 -63 -4z"/>
<path d="M11933 4891 c3 -51 8 -95 11 -98 3 -4 6 35 6 85 0 57 -4 93 -11 98
-9 5 -10 -18 -6 -85z"/>
<path d="M8600 4890 c0 -64 -3 -80 -15 -80 -8 0 -15 -9 -15 -19 0 -10 -7 -21
-15 -25 -11 -4 -15 -21 -15 -65 0 -33 -4 -63 -10 -66 -5 -3 -8 -30 -5 -62 4
-46 2 -53 -9 -44 -7 6 -11 23 -9 39 l3 27 -11 -25 -12 -25 -7 30 c-6 24 -8 19
-9 -27 -1 -42 -5 -58 -15 -58 -18 0 -26 51 -27 175 0 104 -10 159 -21 119 -5
-21 -2 -194 6 -299 3 -33 6 -100 7 -150 1 -67 4 -81 9 -55 8 36 12 33 14 -9 1
-31 36 -39 36 -8 0 18 -2 19 -10 7 -7 -12 -10 -8 -10 15 0 23 3 27 10 15 7
-10 10 14 10 77 0 50 5 104 12 120 10 25 13 14 19 -91 8 -125 18 -163 21 -80
4 126 6 153 14 165 6 10 11 0 15 -31 5 -36 6 -28 7 39 2 68 5 82 16 78 9 -4
15 1 15 11 0 9 3 99 7 200 4 100 4 182 0 182 -3 0 -6 -36 -6 -80z"/>
<path d="M11699 4933 c-3 -10 -1 -40 2 -68 5 -44 6 -46 9 -15 1 23 4 28 7 15
9 -36 23 -41 23 -7 0 18 -4 32 -10 32 -5 0 -10 14 -10 30 0 32 -15 41 -21 13z"/>
<path d="M8250 4912 c0 -18 -4 -32 -10 -32 -5 0 -11 -39 -12 -87 -2 -69 -6
-87 -17 -85 -10 2 -12 -4 -7 -20 3 -13 6 -57 6 -98 0 -52 4 -70 10 -59 5 9 9
29 10 45 0 62 15 159 25 159 6 0 12 -47 16 -110 l5 -110 2 122 c1 67 -2 124
-6 127 -4 2 -9 42 -11 88 -2 80 -11 125 -11 60z"/>
<path d="M8493 4890 c0 -30 2 -43 4 -27 2 15 2 39 0 55 -2 15 -4 2 -4 -28z"/>
<path d="M10936 4815 c6 -136 6 -135 15 -135 10 0 16 129 7 144 -5 6 -8 7 -9
1 -1 -5 -6 15 -10 45 -5 37 -6 18 -3 -55z"/>
<path d="M11460 4900 c0 -5 5 -10 10 -10 6 0 10 5 10 10 0 6 -4 10 -10 10 -5
0 -10 -4 -10 -10z"/>
<path d="M11467 4813 c-9 -96 -9 -183 2 -183 18 0 29 212 12 238 -5 8 -10 -13
-14 -55z"/>
<path d="M8721 4727 c-1 -81 1 -158 5 -172 11 -45 24 -26 24 37 0 34 5 89 11
123 6 34 9 77 7 96 l-4 34 -11 -45 -11 -45 -1 45 c-1 25 -5 51 -10 59 -6 9
-10 -40 -10 -132z"/>
<path d="M8821 4836 c-1 -22 -5 -27 -17 -22 -15 6 -16 -1 -10 -56 3 -35 9
-111 13 -170 3 -60 10 -108 14 -108 5 0 10 -37 12 -82 1 -46 4 -8 5 84 1 103
6 169 12 173 8 5 7 11 -1 21 -7 8 -15 54 -19 102 -4 48 -8 74 -9 58z"/>
<path d="M11662 4840 c-1 -8 -5 -33 -8 -55 -5 -31 -4 -37 5 -29 7 7 11 29 8
55 -2 24 -4 37 -5 29z"/>
<path d="M8494 4735 c0 -49 1 -71 3 -48 2 23 2 64 0 90 -2 26 -3 8 -3 -42z"/>
<path d="M8897 4813 c-4 -3 -7 -56 -7 -116 0 -61 2 -108 4 -106 7 6 20 229 14
229 -3 0 -8 -3 -11 -7z"/>
<path d="M8318 4794 c-5 -4 -8 -41 -8 -83 0 -52 3 -72 10 -65 6 6 10 42 8 83
-2 40 -6 69 -10 65z"/>
<path d="M11314 4635 c0 -93 2 -133 3 -88 2 45 2 122 0 170 -1 48 -3 12 -3
-82z"/>
<path d="M2971 4758 c-4 -13 -5 -45 -1 -73 l7 -50 2 41 c0 22 4 44 8 47 10 11
12 57 2 57 -5 0 -13 -10 -18 -22z"/>
<path d="M4353 4710 c0 -41 2 -58 4 -37 2 20 2 54 0 75 -2 20 -4 3 -4 -38z"/>
<path d="M1210 4705 c0 -67 16 -91 22 -32 3 28 7 32 35 35 28 3 33 0 39 -25
11 -51 12 -49 12 22 0 44 -3 61 -7 45 -5 -20 -14 -26 -44 -28 -34 -3 -37 -1
-37 22 0 14 -4 26 -10 26 -6 0 -10 -28 -10 -65z"/>
<path d="M2072 4705 c1 -38 3 -53 5 -33 3 24 11 42 23 48 23 12 37 -4 43 -50
3 -30 4 -29 5 12 2 39 -1 48 -18 53 -11 3 -24 3 -30 0 -6 -3 -14 4 -19 17 -7
17 -9 5 -9 -47z"/>
<path d="M3080 4715 c0 -57 11 -85 33 -85 5 0 4 7 -3 15 -8 9 -11 30 -7 55 3
25 0 45 -9 57 -12 16 -13 11 -14 -42z"/>
<path d="M3140 4705 c0 -37 4 -65 10 -65 6 0 10 18 10 41 0 36 2 40 23 37 17
-2 23 -12 28 -43 7 -38 7 -38 5 10 -1 48 -2 50 -28 50 -20 -1 -28 4 -28 17 0
10 -4 18 -10 18 -6 0 -10 -28 -10 -65z"/>
<path d="M3420 4705 c0 -37 4 -65 10 -65 6 0 10 18 10 39 0 68 44 61 53 -9 3
-23 4 -18 3 15 -1 48 -2 50 -28 48 -22 -1 -28 3 -28 18 0 10 -4 19 -10 19 -6
0 -10 -28 -10 -65z"/>
<path d="M3703 4705 c0 -38 2 -54 4 -35 9 70 53 78 53 9 0 -21 5 -39 10 -39
16 0 12 76 -5 90 -8 7 -24 10 -34 7 -15 -3 -21 1 -24 17 -2 11 -4 -10 -4 -49z"/>
<path d="M4027 4758 c-6 -16 3 -110 12 -120 3 -4 5 22 5 58 -2 66 -8 87 -17
62z"/>
<path d="M10753 4680 c0 -52 2 -138 6 -190 l6 -95 7 78 c4 44 9 82 13 85 14
15 25 -28 25 -101 0 -68 2 -78 17 -75 9 2 17 10 19 18 1 8 3 20 4 25 1 6 2 39
1 75 -2 54 -4 61 -12 40 -8 -20 -12 -22 -19 -10 -5 8 -10 31 -10 51 0 20 -3
52 -7 70 l-7 34 -6 -34 c-3 -19 -10 -36 -17 -38 -9 -3 -13 19 -16 79 l-3 83
-1 -95z"/>
<path d="M1373 4732 c-23 -14 -25 -57 -5 -82 17 -22 23 -23 46 -12 20 9 26 19
26 45 0 48 -32 72 -67 49z m55 -50 c-2 -21 -8 -27 -28 -27 -20 0 -26 6 -28 29
-4 34 14 49 41 35 12 -7 17 -19 15 -37z"/>
<path d="M1460 4737 c0 -5 5 -28 11 -53 13 -52 34 -57 44 -11 l7 32 14 -32
c19 -43 28 -41 43 8 15 50 8 63 -9 17 l-12 -33 -11 32 c-17 46 -26 50 -33 15
-7 -34 -34 -45 -34 -14 0 17 -20 55 -20 39z"/>
<path d="M1627 4722 c-24 -26 -21 -59 7 -77 19 -13 29 -14 45 -5 12 6 21 16
21 22 0 6 -8 4 -18 -5 -22 -20 -42 -9 -46 26 -4 37 19 56 42 34 15 -16 15 -17
-8 -17 -20 0 -22 -2 -10 -10 23 -15 40 -12 40 8 0 41 -45 55 -73 24z"/>
<path d="M1847 4729 c-11 -7 -17 -22 -17 -45 0 -27 5 -37 25 -46 19 -8 28 -8
40 2 8 7 13 15 10 18 -2 3 -11 0 -19 -7 -11 -9 -18 -8 -31 6 -16 16 -16 17 6
26 l24 10 -25 6 c-24 7 -24 7 -5 18 11 6 18 14 15 16 -3 3 -13 1 -23 -4z"/>
<path d="M1959 4728 c-11 -10 -13 -24 -8 -53 l6 -40 2 38 c0 23 7 40 16 43 16
6 21 24 7 24 -5 0 -15 -6 -23 -12z"/>
<path d="M2197 4733 c-13 -13 -7 -25 7 -14 14 11 46 5 46 -9 0 -4 -15 -11 -32
-16 -60 -18 -38 -69 25 -57 24 5 27 10 27 42 0 20 -5 42 -12 49 -13 13 -50 16
-61 5z m53 -61 c0 -15 -22 -30 -36 -25 -24 9 -16 33 11 33 14 0 25 -4 25 -8z"/>
<path d="M2330 4736 c0 -2 7 -9 15 -16 9 -7 15 -8 15 -2 0 5 -7 12 -15 16 -8
3 -15 4 -15 2z"/>
<path d="M2464 4715 c-18 -28 -11 -60 17 -75 30 -17 59 4 59 43 0 58 -46 78
-76 32z m56 1 c6 -8 10 -25 8 -38 -2 -17 -10 -23 -28 -23 -20 0 -26 6 -28 29
-5 40 25 59 48 32z"/>
<path d="M2588 4733 c-14 -4 -18 -14 -16 -51 1 -44 2 -44 5 -10 3 24 11 42 23
48 23 12 37 -4 43 -50 3 -31 4 -29 5 11 2 35 -2 48 -14 53 -17 6 -19 6 -46 -1z"/>
<path d="M2696 4724 c-35 -35 -4 -99 42 -87 31 8 28 19 -5 18 -19 0 -29 6 -31
18 -3 16 1 18 32 13 31 -5 36 -3 36 14 0 18 -26 40 -49 40 -5 0 -17 -7 -25
-16z m54 -15 c0 -5 -11 -9 -25 -9 -26 0 -34 15 -12 23 16 5 37 -3 37 -14z"/>
<path d="M2868 4729 c-24 -14 -23 -62 2 -84 17 -15 24 -16 45 -7 19 9 25 19
25 45 0 51 -31 71 -72 46z m46 -15 c20 -20 20 -38 0 -59 -15 -15 -18 -15 -35
1 -11 9 -19 23 -19 30 0 11 26 44 35 44 2 0 11 -7 19 -16z"/>
<path d="M3268 4729 c-26 -15 -24 -75 2 -89 14 -8 26 -8 40 0 29 15 25 20 -11
13 -27 -5 -31 -3 -27 13 2 13 12 19 30 19 39 1 46 14 19 36 -27 22 -30 22 -53
8z m36 -5 c25 -9 19 -24 -9 -24 -24 0 -32 10 -18 23 8 8 8 8 27 1z"/>
<path d="M3584 4715 c-14 -21 -15 -31 -6 -50 7 -14 17 -26 24 -26 29 -3 33 -4
33 -14 0 -5 -12 -10 -27 -10 -33 0 -37 -10 -6 -18 42 -11 58 8 58 72 0 52 -2
59 -22 65 -34 9 -36 8 -54 -19z m62 -17 c7 -25 -18 -53 -40 -45 -9 4 -16 17
-16 30 0 46 42 57 56 15z"/>
<path d="M3823 4730 c-30 -12 -31 -60 -3 -85 17 -15 24 -16 45 -7 14 6 25 16
25 22 0 6 -7 6 -19 -1 -19 -13 -51 -6 -51 10 0 6 16 13 35 17 39 7 46 27 16
44 -22 11 -19 11 -48 0z m34 -28 c-34 -4 -48 5 -27 18 8 5 22 4 34 -3 20 -11
20 -12 -7 -15z"/>
<path d="M3924 4725 c-8 -19 3 -34 32 -45 13 -5 24 -14 24 -19 0 -13 -28 -22
-35 -11 -4 6 -11 10 -17 10 -7 0 -6 -6 2 -15 16 -19 35 -19 54 0 20 21 12 38
-24 52 -21 8 -28 16 -24 27 3 9 3 16 0 16 -4 0 -9 -7 -12 -15z"/>
<path d="M3964 4725 c11 -8 22 -12 25 -9 6 6 -19 24 -34 24 -5 -1 -1 -7 9 -15z"/>
<path d="M4258 4729 c-12 -6 -18 -22 -18 -45 0 -27 5 -37 26 -46 23 -11 29
-10 46 12 13 16 17 32 13 49 -10 39 -34 50 -67 30z m50 -43 c-2 -26 -7 -31
-28 -31 -18 0 -26 6 -28 23 -5 30 14 51 39 45 16 -4 19 -12 17 -37z"/>
<path d="M4533 4732 c-20 -3 -23 -9 -23 -48 0 -52 15 -60 16 -8 1 34 19 58 36
48 4 -3 8 -23 8 -45 0 -21 5 -39 10 -39 6 0 10 18 10 39 0 24 5 41 14 44 20 8
26 -2 26 -45 0 -21 5 -38 10 -38 13 0 13 60 1 80 -9 13 -59 19 -108 12z"/>
<path d="M4702 4733 c-17 -7 -33 -49 -26 -68 10 -25 41 -37 64 -25 11 6 20 16
20 22 0 9 -3 9 -12 0 -15 -15 -45 -16 -54 -1 -3 6 0 15 7 20 12 8 12 10 0 18
-11 7 -10 11 6 19 24 13 46 1 37 -21 -4 -12 -1 -17 10 -17 20 0 21 24 0 44
-16 16 -29 19 -52 9z"/>
<path d="M1739 4685 c9 -25 21 -45 27 -45 6 0 16 18 23 41 14 48 8 64 -7 20
-14 -39 -20 -39 -33 -1 -6 17 -14 30 -19 30 -4 0 0 -20 9 -45z"/>
<path d="M1888 4722 c7 -5 10 -16 6 -25 -5 -13 -2 -16 10 -11 10 4 15 13 12
21 -3 8 -6 17 -6 19 0 2 -8 4 -17 4 -13 0 -15 -2 -5 -8z"/>
<path d="M2297 4723 c-14 -13 -6 -24 29 -39 29 -12 34 -18 24 -29 -9 -11 -17
-12 -32 -4 -11 6 -22 8 -25 5 -3 -3 6 -11 20 -17 21 -9 30 -9 42 1 23 19 18
38 -15 55 -17 9 -28 20 -25 25 7 11 -8 14 -18 3z"/>
<path d="M3543 4685 c0 -27 2 -38 4 -22 2 15 2 37 0 50 -2 12 -4 0 -4 -28z"/>
<path d="M4148 4688 c20 -53 20 -54 32 -42 15 15 41 84 31 84 -5 0 -14 -13
-20 -30 -5 -16 -13 -30 -16 -30 -3 0 -11 14 -16 30 -6 17 -15 30 -19 30 -5 0
-1 -19 8 -42z"/>
<path d="M4402 4689 c-2 -51 11 -64 54 -53 21 5 24 11 23 53 -1 45 -1 45 -9
13 -16 -67 -56 -70 -63 -5 -3 36 -4 36 -5 -8z"/>
<path d="M7492 4705 c0 -16 2 -22 5 -12 2 9 2 23 0 30 -3 6 -5 -1 -5 -18z"/>
<path d="M11864 4530 c0 -107 2 -151 3 -97 2 53 2 141 0 195 -1 53 -3 9 -3
-98z"/>
<path d="M7594 4580 c0 -58 1 -81 3 -52 2 28 2 76 0 105 -2 28 -3 5 -3 -53z"/>
<path d="M10990 4646 c0 -19 -5 -36 -11 -38 -8 -3 -9 -37 -4 -116 4 -62 9
-111 10 -110 5 5 14 298 9 298 -2 0 -4 -15 -4 -34z"/>
<path d="M7930 4627 c0 -26 5 -47 10 -47 7 0 9 16 6 41 -7 58 -16 61 -16 6z"/>
<path d="M8618 4608 c0 -29 -2 -65 -2 -80 -1 -16 2 -28 6 -28 4 0 8 36 8 80 0
89 -9 110 -12 28z"/>
<path d="M7480 4628 c0 -13 -2 -48 -5 -78 -3 -30 -3 -49 1 -42 12 26 24 10 24
-35 0 -27 4 -54 9 -61 4 -8 6 32 4 90 -5 118 -9 148 -23 148 -6 0 -10 -10 -10
-22z"/>
<path d="M8077 4469 c2 -93 3 -175 3 -181 0 -6 3 -9 6 -6 3 4 7 85 9 182 2
135 0 176 -9 176 -10 0 -12 -40 -9 -171z"/>
<path d="M8496 4627 c3 -10 9 -15 12 -12 3 3 0 11 -7 18 -10 9 -11 8 -5 -6z"/>
<path d="M7617 4517 c-5 -75 -3 -93 9 -100 9 -5 14 -22 14 -45 0 -20 3 -116 7
-212 6 -136 9 -163 14 -120 11 84 10 268 0 272 -6 2 -13 67 -17 146 -4 78 -10
145 -14 147 -4 2 -10 -37 -13 -88z"/>
<path d="M10842 4590 c0 -14 2 -19 5 -12 2 6 2 18 0 25 -3 6 -5 1 -5 -13z"/>
<path d="M8322 4570 c0 -19 2 -27 5 -17 2 9 2 25 0 35 -3 9 -5 1 -5 -18z"/>
<path d="M7551 4510 c-2 -41 -5 -124 -7 -185 -2 -63 -8 -111 -14 -113 -13 -5
-13 -149 0 -157 10 -6 16 40 12 100 -2 47 8 65 20 35 13 -31 15 -22 20 58 3
46 1 62 -9 62 -9 0 -13 34 -16 138 -2 93 -4 113 -6 62z"/>
<path d="M7409 4558 c0 -2 -3 -48 -5 -103 -3 -69 -1 -95 6 -85 8 12 10 11 10
-7 0 -12 5 -25 10 -28 6 -3 10 -24 10 -45 0 -21 3 -46 6 -55 15 -37 24 14 24
131 0 108 -2 123 -20 139 -11 10 -20 24 -20 31 0 11 -19 31 -21 22z"/>
<path d="M7972 4543 c-2 -25 -17 -31 -26 -10 -2 6 -3 -37 -2 -96 4 -132 21
-163 31 -56 4 41 5 99 3 129 -3 30 -5 45 -6 33z"/>
<path d="M6836 4508 c-3 -24 -10 -84 -15 -135 -5 -50 -14 -109 -20 -130 -6
-21 -11 -55 -11 -75 0 -37 -13 -51 -23 -25 -6 14 -9 -36 -7 -110 1 -28 -6 -72
-14 -97 -9 -26 -16 -62 -16 -81 0 -18 -4 -37 -10 -40 -13 -8 -13 -92 1 -100 6
-4 12 -5 14 -3 3 2 7 49 11 103 5 74 11 105 24 120 12 14 19 46 24 104 7 85
24 142 27 91 1 -14 7 11 13 54 11 78 30 109 39 64 5 -24 -2 191 -8 252 -2 19
-4 38 -4 43 -1 4 -5 7 -10 7 -5 0 -12 -19 -15 -42z"/>
<path d="M4301 4518 c-4 -13 -5 -48 -1 -78 l7 -55 2 47 c0 26 6 48 14 51 10 4
10 6 0 6 -15 1 -18 31 -3 31 6 0 10 5 10 10 0 19 -21 10 -29 -12z"/>
<path d="M603 4460 c0 -41 2 -58 4 -37 2 20 2 54 0 75 -2 20 -4 3 -4 -38z"/>
<path d="M2109 4514 c-3 -10 -3 -43 -1 -71 3 -39 8 -53 19 -53 13 0 13 3 3 15
-8 9 -11 30 -8 53 3 20 2 46 -2 56 -7 20 -7 20 -11 0z"/>
<path d="M2162 4460 c0 -41 2 -64 5 -50 10 65 13 71 36 68 18 -2 23 -11 28
-48 l6 -45 1 53 c2 52 2 52 -28 52 -22 0 -33 6 -40 23 -6 16 -9 1 -8 -53z"/>
<path d="M2334 4519 c-14 -23 -3 -129 14 -129 7 0 6 130 -2 137 -2 2 -7 -1
-12 -8z"/>
<path d="M2393 4460 c0 -41 1 -64 4 -50 10 65 13 71 36 68 18 -2 23 -11 28
-48 l6 -45 1 53 2 52 -34 0 c-28 0 -35 4 -39 23 -2 12 -4 -12 -4 -53z"/>
<path d="M3658 4513 c-8 -30 6 -116 20 -121 6 -2 12 1 12 7 0 6 -4 11 -10 11
-12 0 -14 67 -2 72 4 2 3 13 -4 26 -10 20 -12 21 -16 5z"/>
<path d="M4080 4511 c0 -15 -8 -21 -32 -23 -29 -3 -33 -7 -36 -36 -4 -42 13
-63 49 -60 29 2 29 3 29 70 0 37 -2 68 -5 68 -3 0 -5 -9 -5 -19z m-2 -56 c1
-11 -4 -29 -12 -40 -12 -16 -16 -17 -30 -6 -16 14 -22 52 -9 65 14 14 48 1 51
-19z"/>
<path d="M7182 4508 c-1 -14 -5 -35 -8 -45 -5 -14 -4 -15 5 -7 7 7 11 26 8 45
-3 28 -4 29 -5 7z"/>
<path d="M1527 4513 c-11 -18 8 -116 23 -121 12 -4 13 -2 3 9 -15 15 -17 76
-4 81 5 2 4 11 -4 21 -7 10 -15 14 -18 10z"/>
<path d="M4849 4503 c-4 -68 7 -113 28 -113 12 0 13 3 3 15 -6 8 -11 31 -10
52 2 21 2 44 1 51 -2 19 -21 14 -22 -5z"/>
<path d="M7012 4408 c-1 -64 -6 -119 -11 -122 -5 -3 -7 -24 -4 -46 4 -28 2
-40 -6 -40 -9 0 -10 10 -6 30 5 23 3 30 -9 30 -9 0 -16 6 -16 14 0 8 -7 16
-14 19 -10 4 -16 25 -19 59 -2 29 -4 -4 -5 -74 -1 -71 -6 -128 -10 -128 -5 0
-13 12 -19 28 -10 24 -11 20 -12 -35 -1 -34 4 -65 10 -68 6 -4 8 -13 5 -21 -3
-7 -1 -16 3 -19 12 -7 21 19 21 59 0 25 4 32 20 32 14 0 20 -7 21 -26 1 -14 2
-33 3 -43 1 -19 25 -39 38 -31 4 3 8 22 8 43 0 20 3 41 8 47 4 5 5 99 2 209
-5 152 -6 172 -8 83z"/>
<path d="M7242 4500 c0 -14 2 -19 5 -12 2 6 2 18 0 25 -3 6 -5 1 -5 -13z"/>
<path d="M10466 4485 c-4 -22 -10 -53 -13 -69 -5 -28 -6 -29 -19 -11 -8 10
-14 28 -15 39 -1 52 -16 -23 -22 -109 -5 -79 -4 -84 5 -37 16 86 32 60 39 -64
l6 -109 0 120 c-1 98 3 127 19 160 13 28 17 52 13 80 l-5 40 -8 -40z"/>
<path d="M10880 4400 c0 -73 4 -120 10 -120 6 0 10 29 10 68 0 37 3 91 6 120
6 44 4 52 -10 52 -14 0 -16 -15 -16 -120z"/>
<path d="M10518 4490 c-11 -36 -10 -92 2 -85 5 3 12 -6 16 -20 7 -29 30 -33
38 -7 8 27 0 92 -13 105 -8 8 -11 3 -11 -20 0 -52 -19 -48 -22 4 -2 39 -4 43
-10 23z"/>
<path d="M1649 4487 c-43 -22 -32 -97 14 -97 32 0 47 18 47 57 0 40 -25 57
-61 40z m47 -33 c8 -30 -14 -58 -38 -49 -22 9 -27 25 -17 53 12 31 47 29 55
-4z"/>
<path d="M3143 4493 c-34 -7 -28 -20 7 -15 23 3 30 0 30 -12 0 -10 -9 -16 -22
-16 -33 0 -51 -14 -46 -36 2 -15 13 -19 46 -20 l42 -2 0 38 c0 22 -7 45 -16
54 -8 9 -16 15 -17 15 -1 -1 -12 -4 -24 -6z m35 -70 c-4 -22 -48 -31 -48 -10
0 19 10 27 32 27 13 0 18 -6 16 -17z"/>
<path d="M3736 4491 c-21 -8 -28 -51 -15 -86 6 -15 8 -8 8 23 1 34 5 44 23 51
12 4 17 10 12 13 -5 3 -18 2 -28 -1z"/>
<path d="M5093 4492 c-21 -3 -23 -9 -21 -55 l1 -52 6 45 c5 37 10 46 29 48 20
3 22 -1 22 -43 0 -30 4 -44 11 -40 6 4 8 23 5 44 -3 20 -5 39 -6 42 0 10 -22
15 -47 11z"/>
<path d="M9975 4460 c0 -22 4 -42 8 -46 4 -4 7 -18 7 -31 0 -12 5 -23 10 -23
6 0 10 -14 10 -32 0 -52 7 -28 14 51 7 64 6 73 -7 63 -17 -15 -27 -6 -27 24 0
13 -3 25 -7 27 -5 3 -8 -12 -8 -33z"/>
<path d="M202 4478 c-27 -27 -6 -68 35 -68 16 0 24 7 29 25 11 43 -34 73 -64
43z"/>
<path d="M650 4439 c0 -59 16 -57 22 1 2 27 7 35 23 35 16 0 21 -8 23 -42 2
-24 8 -43 13 -43 6 0 9 21 7 48 l-3 47 -42 3 -43 3 0 -52z"/>
<path d="M824 4464 c-9 -37 10 -74 40 -74 14 0 27 8 31 18 5 14 4 15 -6 5 -20
-20 -39 -15 -49 12 -15 38 -2 58 32 51 18 -3 27 -2 23 4 -3 6 -19 10 -35 10
-23 0 -31 -5 -36 -26z"/>
<path d="M924 4466 c-9 -36 4 -65 32 -72 35 -9 56 12 52 55 -3 34 -5 36 -40
39 -33 3 -38 0 -44 -22z m74 -14 c4 -23 -13 -52 -29 -52 -16 0 -40 47 -33 64
10 26 58 17 62 -12z"/>
<path d="M1041 4438 c1 -29 3 -42 6 -28 9 59 14 70 32 70 14 0 21 -11 29 -47
l10 -48 -1 50 -2 50 -37 3 -38 3 1 -53z"/>
<path d="M1148 4420 c-2 -39 0 -70 5 -70 7 0 9 19 11 98 2 71 -12 47 -16 -28z"/>
<path d="M1190 4466 c0 -14 4 -36 10 -50 8 -21 15 -25 45 -24 l35 1 0 49 c0
59 -18 64 -22 6 -2 -35 -7 -43 -23 -43 -16 0 -21 8 -23 43 -3 44 -22 60 -22
18z"/>
<path d="M1310 4445 c0 -25 5 -45 10 -45 6 0 10 18 10 41 0 36 2 40 23 37 18
-2 23 -11 28 -48 l6 -45 1 53 2 52 -40 0 -40 0 0 -45z"/>
<path d="M1427 4483 c-12 -11 -8 -68 5 -81 16 -16 43 -15 58 3 15 18 -1 20
-18 3 -17 -17 -44 10 -40 41 3 22 8 26 35 25 18 -1 30 2 27 7 -6 10 -57 12
-67 2z"/>
<path d="M1583 4440 c-2 -28 2 -50 7 -50 6 0 10 23 10 50 0 65 -14 65 -17 0z"/>
<path d="M1740 4438 c0 -73 12 -55 19 30 1 8 10 12 24 10 18 -2 23 -10 26 -48
2 -30 5 -39 10 -27 4 10 5 34 3 53 -4 32 -6 34 -43 34 l-39 0 0 -52z"/>
<path d="M1916 4443 c18 -60 22 -63 35 -25 12 35 29 43 29 15 0 -22 17 -50 24
-42 11 10 34 99 26 99 -4 0 -12 -15 -17 -32 l-11 -33 -13 33 c-7 17 -16 32
-19 32 -3 0 -12 -15 -19 -32 l-13 -33 -11 33 c-5 17 -13 32 -17 32 -5 0 -2
-21 6 -47z"/>
<path d="M2063 4440 c0 -30 2 -43 4 -27 2 15 2 39 0 55 -2 15 -4 2 -4 -28z"/>
<path d="M2498 4465 c-9 -19 -8 -29 6 -50 9 -14 23 -25 30 -25 23 0 46 11 46
22 0 6 -6 5 -15 -2 -18 -15 -45 -6 -45 15 0 10 10 15 28 15 36 0 44 8 31 31
-15 29 -67 25 -81 -6z m72 0 c0 -9 -9 -15 -25 -15 -16 0 -25 6 -25 15 0 9 9
15 25 15 16 0 25 -6 25 -15z"/>
<path d="M2673 4440 c0 -30 2 -43 4 -27 2 15 2 39 0 55 -2 15 -4 2 -4 -28z"/>
<path d="M2721 4438 c1 -29 3 -42 6 -28 9 60 14 70 33 70 19 0 24 -10 33 -70
3 -14 5 -1 6 28 l1 52 -40 0 -40 0 1 -52z"/>
<path d="M2837 4483 c-12 -11 -8 -68 5 -81 16 -16 43 -15 58 3 15 18 -1 20
-18 3 -17 -17 -44 10 -40 41 2 21 8 26 31 26 15 -1 27 3 27 7 0 10 -54 11 -63
1z"/>
<path d="M2931 4438 c1 -56 4 -55 14 4 3 23 12 38 23 41 10 3 6 5 -10 6 -27 1
-28 0 -27 -51z"/>
<path d="M2999 4464 c-11 -30 10 -74 35 -74 22 0 46 11 46 21 0 6 -10 4 -22
-2 -18 -10 -24 -8 -35 7 -13 17 -12 19 14 22 49 5 55 10 43 32 -17 31 -68 27
-81 -6z m69 -1 c2 -8 -6 -13 -22 -13 -17 0 -26 5 -26 16 0 19 41 16 48 -3z"/>
<path d="M3225 4480 c-9 -14 3 -30 31 -40 13 -5 24 -16 24 -25 0 -18 -21 -20
-38 -3 -9 9 -12 9 -12 1 0 -18 19 -26 46 -19 35 9 31 41 -6 55 -40 14 -40 35
0 27 19 -3 29 -2 25 4 -8 13 -62 13 -70 0z"/>
<path d="M3333 4440 c0 -30 2 -43 4 -27 2 15 2 39 0 55 -2 15 -4 2 -4 -28z"/>
<path d="M3382 4438 l1 -53 6 45 c5 37 10 46 29 48 20 3 22 -1 22 -42 0 -25 5
-46 10 -46 11 0 13 42 4 78 -5 17 -14 22 -40 22 l-34 0 2 -52z"/>
<path d="M3486 4474 c-16 -43 10 -90 45 -81 12 3 19 0 19 -9 0 -21 -28 -28
-47 -13 -14 12 -16 12 -11 -1 2 -8 15 -16 27 -18 38 -6 51 15 51 79 l0 59 -39
0 c-26 0 -41 -5 -45 -16z m63 -16 c6 -16 4 -28 -6 -40 -26 -29 -57 -2 -46 41
7 28 41 27 52 -1z"/>
<path d="M3784 4464 c-10 -40 11 -76 43 -72 14 2 29 10 31 18 5 13 3 13 -11 1
-20 -16 -47 -8 -47 14 0 11 10 15 35 15 35 0 40 5 29 34 -4 10 -18 16 -40 16
-28 0 -35 -4 -40 -26z m66 1 c0 -9 -9 -15 -25 -15 -16 0 -25 6 -25 15 0 9 9
15 25 15 16 0 25 -6 25 -15z"/>
<path d="M3895 4468 c1 -13 4 -36 5 -53 2 -24 4 -22 9 15 5 37 10 46 28 48 23
3 25 -2 37 -68 2 -14 3 -2 2 25 l-1 50 -41 3 c-38 3 -41 1 -39 -20z"/>
<path d="M4178 4465 c-9 -19 -8 -29 6 -50 37 -56 105 -6 80 59 -4 10 -18 16
-40 16 -27 0 -37 -5 -46 -25z m75 -11 c4 -23 -14 -54 -32 -54 -14 0 -31 24
-31 45 0 27 8 35 36 35 15 0 23 -7 27 -26z"/>
<path d="M4412 4478 c-30 -30 1 -88 46 -88 13 0 22 -8 25 -22 2 -13 5 10 6 50
l1 72 -33 0 c-18 0 -38 -5 -45 -12z m63 -18 c7 -23 -10 -60 -29 -60 -20 0 -38
54 -23 69 17 17 45 13 52 -9z"/>
<path d="M4520 4459 c0 -48 16 -70 50 -67 29 2 30 4 28 53 -1 42 -2 44 -5 13
-8 -70 -53 -76 -53 -7 0 21 -4 39 -10 39 -5 0 -10 -14 -10 -31z"/>
<path d="M4637 4483 c-13 -12 -7 -70 7 -83 19 -15 58 -9 64 10 4 12 3 13 -10
2 -18 -15 -48 -6 -48 14 0 9 12 14 35 14 35 0 40 5 29 34 -6 16 -64 23 -77 9z
m63 -18 c0 -9 -9 -15 -25 -15 -16 0 -25 6 -25 15 0 9 9 15 25 15 16 0 25 -6
25 -15z"/>
<path d="M4750 4469 c0 -13 10 -23 30 -30 17 -6 30 -15 30 -20 0 -17 -30 -22
-47 -8 -14 12 -16 12 -11 -1 3 -9 17 -15 34 -15 23 0 30 5 32 23 3 18 -3 25
-27 33 -40 14 -41 33 -1 26 17 -4 30 -2 30 3 0 6 -16 10 -35 10 -29 0 -35 -4
-35 -21z"/>
<path d="M4913 4440 c0 -30 2 -43 4 -27 2 15 2 39 0 55 -2 15 -4 2 -4 -28z"/>
<path d="M4957 4484 c-11 -12 -8 -69 5 -82 16 -16 53 -15 67 2 7 8 11 30 9 48
-3 30 -6 33 -38 36 -20 2 -39 0 -43 -4z m63 -19 c15 -18 5 -51 -18 -60 -27
-10 -57 47 -35 68 11 12 40 8 53 -8z"/>
<path d="M5180 4469 c0 -13 10 -23 30 -30 17 -6 30 -15 30 -20 0 -17 -30 -22
-47 -8 -14 12 -16 12 -11 -1 6 -21 52 -24 68 -6 10 13 10 19 0 31 -7 8 -18 15
-25 15 -7 0 -19 8 -26 17 -13 15 -11 16 19 10 21 -4 31 -3 27 3 -3 6 -19 10
-36 10 -23 0 -29 -4 -29 -21z"/>
<path d="M7282 4437 c-1 -36 -6 -56 -12 -52 -5 3 -10 18 -10 33 0 15 -5 34
-10 42 -7 11 -10 7 -10 -17 0 -18 -4 -33 -10 -33 -6 0 -10 -28 -10 -62 -1 -36
-7 -74 -15 -88 -13 -24 -14 -21 -15 45 -2 68 -8 126 -15 133 -1 2 -6 -34 -10
-80 -8 -96 -12 -106 -31 -81 -12 16 -13 3 -14 -97 0 -114 0 -115 26 -127 20
-9 26 -9 31 3 3 8 3 20 0 27 -3 8 -2 29 3 48 8 33 8 32 9 -15 1 -63 8 -56 15
14 3 32 12 60 21 66 11 8 15 31 16 80 1 38 4 58 6 44 3 -14 9 -29 14 -34 5 -6
9 -19 10 -30 0 -15 3 -13 10 8 4 17 15 34 24 38 21 12 21 113 1 121 -8 3 -16
21 -19 39 -2 21 -4 11 -5 -25z"/>
<path d="M8743 4415 c0 -38 2 -53 4 -32 2 20 2 52 0 70 -2 17 -4 1 -4 -38z"/>
<path d="M10290 4440 c-13 -47 -3 -191 11 -168 6 9 9 6 9 -11 0 -19 3 -21 14
-12 7 6 14 23 14 38 0 15 5 29 11 31 7 2 11 28 10 65 -1 54 -2 57 -9 28 -4
-18 -14 -40 -22 -48 -13 -12 -15 -6 -17 49 -1 34 -4 64 -6 66 -2 2 -9 -15 -15
-38z m7 -42 c-3 -8 -6 -5 -6 6 -1 11 2 17 5 13 3 -3 4 -12 1 -19z"/>
<path d="M8273 4425 c0 -27 2 -38 4 -22 2 15 2 37 0 50 -2 12 -4 0 -4 -28z"/>
<path d="M8610 4415 c0 -32 2 -56 5 -53 7 7 9 97 2 105 -4 3 -7 -20 -7 -52z"/>
<path d="M10630 4409 c0 -22 4 -48 10 -58 5 -10 11 -46 13 -79 2 -34 7 -65 11
-69 9 -8 0 173 -10 220 -9 41 -24 33 -24 -14z"/>
<path d="M10152 4400 c0 -19 4 -48 8 -65 7 -27 8 -26 8 15 0 25 -3 54 -8 65
-7 16 -9 13 -8 -15z"/>
<path d="M7600 4325 c0 -49 2 -86 5 -83 7 7 8 158 1 165 -3 4 -6 -33 -6 -82z"/>
<path d="M10047 4390 c-20 -28 -23 -76 -5 -82 12 -4 13 -18 16 -165 1 -41 6
-73 12 -73 6 0 10 53 10 138 0 78 4 131 9 124 6 -10 10 -8 14 10 15 52 -2 85
-18 36 -7 -22 -8 -21 -14 7 l-6 30 -18 -25z"/>
<path d="M8870 4308 c0 -50 2 -89 4 -87 2 2 7 43 11 92 5 60 3 87 -4 87 -7 0
-11 -32 -11 -92z"/>
<path d="M9900 4385 c0 -8 -4 -15 -9 -15 -13 0 -26 -121 -13 -129 5 -3 12 -15
15 -26 2 -11 5 1 6 26 1 35 5 48 19 51 16 5 18 14 13 88 -1 23 -31 28 -31 5z"/>
<path d="M10487 4333 c8 -78 13 -80 13 -5 0 34 -4 62 -9 62 -6 0 -7 -25 -4
-57z"/>
<path d="M9962 4330 c0 -19 2 -27 5 -17 2 9 2 25 0 35 -3 9 -5 1 -5 -18z"/>
<path d="M10230 4338 c0 -14 -3 -40 -6 -57 -5 -24 -3 -31 9 -31 10 0 19 -15
25 -42 l10 -43 1 37 c1 35 -23 145 -34 156 -3 3 -5 -6 -5 -20z"/>
<path d="M7376 4317 c-9 -32 -6 -149 4 -172 8 -20 10 -3 15 143 1 48 -9 64
-19 29z"/>
<path d="M10617 4323 c-4 -3 -7 -15 -7 -25 0 -10 -7 -18 -15 -18 -11 0 -15
-12 -15 -49 0 -28 5 -53 10 -56 9 -5 12 1 9 21 0 4 4 10 9 13 9 6 28 121 19
121 -2 0 -7 -3 -10 -7z"/>
<path d="M7062 4204 c-2 -105 -6 -121 -29 -103 -10 9 -13 4 -13 -25 0 -22 4
-35 10 -31 5 3 8 0 5 -7 -2 -7 0 -38 4 -68 6 -39 9 -45 10 -22 2 56 34 35 47
-33 l8 -40 6 49 c4 30 1 64 -6 85 -7 20 -13 59 -14 87 0 27 -4 54 -9 60 -6 5
-12 41 -14 79 -3 59 -3 54 -5 -31z"/>
<path d="M10701 4269 c-14 -40 -14 -69 -1 -69 6 0 10 3 11 8 3 51 5 92 3 92
-1 0 -7 -14 -13 -31z"/>
<path d="M818 4284 c-12 -11 -10 -134 2 -134 6 0 10 12 10 28 l1 27 24 -27
c33 -38 41 -35 16 6 -19 30 -19 35 -6 46 9 7 13 15 11 18 -3 2 -13 -4 -23 -14
-17 -17 -18 -16 -23 20 -3 21 -8 34 -12 30z"/>
<path d="M1090 4270 c0 -14 -7 -20 -23 -20 -30 0 -47 -18 -47 -50 0 -35 17
-50 57 -50 l33 0 0 70 c0 40 -4 70 -10 70 -5 0 -10 -9 -10 -20z m-2 -68 c4
-38 -21 -54 -46 -29 -13 13 -13 21 -4 42 17 37 46 29 50 -13z"/>
<path d="M1418 4272 c-3 -11 -3 -42 0 -71 3 -38 9 -51 21 -51 12 0 13 2 4 8
-8 5 -13 29 -12 65 2 59 -5 82 -13 49z"/>
<path d="M1473 4220 c0 -41 1 -64 4 -50 9 60 14 70 33 70 19 0 23 -8 34 -70 2
-14 3 -2 2 25 -1 49 -2 50 -33 53 -23 2 -33 9 -36 25 -2 12 -4 -12 -4 -53z"/>
<path d="M7322 4235 c-1 -150 30 -248 44 -139 4 39 3 59 -4 62 -6 2 -9 9 -6
17 3 7 -1 29 -10 47 -8 18 -17 42 -19 53 -3 11 -5 -7 -5 -40z"/>
<path d="M2069 4264 c-2 -10 -2 -39 1 -64 4 -35 10 -46 25 -49 20 -3 20 -3 1
17 -15 17 -16 26 -8 51 8 22 7 34 -2 47 -12 16 -13 16 -17 -2z"/>
<path d="M2245 4268 c-9 -24 -1 -111 10 -115 6 -2 9 21 8 58 -2 63 -8 83 -18
57z"/>
<path d="M3028 4268 c-2 -7 -2 -37 0 -65 3 -39 8 -53 19 -53 13 0 13 3 3 15
-8 9 -10 29 -7 53 6 38 -5 78 -15 50z"/>
<path d="M3080 4215 c0 -37 4 -65 10 -65 6 0 10 15 10 33 0 41 13 62 34 54 10
-4 16 -18 16 -41 0 -19 5 -38 10 -41 11 -7 14 53 4 79 -4 10 -18 16 -35 16
-19 0 -29 5 -29 15 0 8 -4 15 -10 15 -6 0 -10 -28 -10 -65z"/>
<path d="M9931 4243 c0 -23 4 -45 9 -48 6 -3 10 0 10 9 0 8 3 22 7 32 4 11 3
15 -5 10 -6 -3 -12 3 -15 16 -2 13 -5 4 -6 -19z"/>
<path d="M10197 4257 c3 -14 -2 -31 -12 -41 -14 -13 -15 -23 -7 -54 6 -24 10
-29 11 -15 2 45 21 34 21 -13 0 -26 2 -45 4 -43 15 15 2 189 -14 189 -4 0 -5
-11 -3 -23z"/>
<path d="M9732 4222 c-7 -23 -10 -47 -7 -52 3 -5 1 -11 -5 -15 -5 -3 -10 -26
-10 -50 0 -24 -4 -47 -10 -50 -6 -4 -10 11 -10 39 l0 45 -40 -4 c-36 -3 -40
-1 -40 18 0 38 -14 49 -33 27 -14 -16 -17 -40 -16 -118 0 -107 17 -103 18 6 1
72 13 81 27 20 8 -39 12 -43 37 -40 15 1 27 -1 27 -6 0 -5 12 -8 28 -7 26 1
27 4 30 55 3 58 22 96 22 46 0 -19 6 -29 20 -33 16 -4 20 -14 20 -44 0 -21 5
-41 10 -44 6 -4 10 15 10 49 0 43 3 56 15 56 11 0 15 -12 16 -42 1 -37 2 -39
9 -18 12 37 12 112 0 105 -6 -4 -10 6 -10 24 0 16 -4 33 -10 36 -9 5 -15 -11
-22 -59 -3 -17 -5 -18 -18 -5 -8 9 -19 15 -25 15 -5 -1 -12 19 -15 44 l-6 45
-12 -43z"/>
<path d="M600 4242 c0 -4 12 -8 27 -7 14 0 28 -6 30 -12 3 -8 -5 -13 -20 -13
-29 0 -52 -23 -43 -45 4 -10 18 -14 46 -13 38 1 40 3 40 34 0 52 -9 64 -46 64
-19 0 -34 -4 -34 -8z m58 -59 c-4 -22 -48 -31 -48 -10 0 19 10 27 32 27 13 0
18 -6 16 -17z"/>
<path d="M707 4236 c-7 -16 8 -30 41 -40 12 -4 22 -12 22 -17 0 -17 -30 -22
-47 -8 -14 12 -16 12 -11 -1 6 -19 45 -25 63 -10 19 16 3 47 -25 52 -29 4 -24
23 6 21 13 -1 22 2 19 8 -9 14 -62 11 -68 -5z"/>
<path d="M922 4238 c-15 -15 -15 -61 0 -76 14 -14 54 -16 63 -3 3 6 -7 9 -22
8 -19 -1 -28 3 -31 16 -3 14 4 17 32 17 23 0 36 5 36 13 0 19 -21 37 -45 37
-12 0 -26 -5 -33 -12z m58 -13 c0 -9 -9 -15 -25 -15 -24 0 -32 10 -18 23 12
13 43 7 43 -8z"/>
<path d="M1198 4200 c-1 -28 0 -50 5 -50 4 0 7 23 7 50 0 65 -7 65 -12 0z"/>
<path d="M1241 4198 l1 -53 11 45 c9 34 17 45 32 45 16 0 21 -8 23 -42 4 -49
22 -59 22 -12 0 49 -16 69 -55 69 l-35 0 1 -52z"/>
<path d="M1592 4238 c-7 -7 -12 -24 -12 -38 0 -31 17 -50 45 -50 38 0 56 39
39 84 -7 19 -55 21 -72 4z m58 -18 c13 -24 -2 -60 -25 -60 -23 0 -38 36 -25
60 6 11 17 20 25 20 8 0 19 -9 25 -20z"/>
<path d="M1697 4243 c-15 -15 -5 -35 23 -44 17 -6 30 -17 30 -25 0 -17 -31
-18 -49 -1 -11 10 -13 9 -9 -3 6 -21 66 -26 74 -6 8 21 -13 46 -37 46 -11 0
-19 7 -19 16 0 12 7 15 25 12 14 -3 25 -1 25 3 0 10 -54 12 -63 2z"/>
<path d="M1801 4236 c-16 -19 -10 -66 10 -79 18 -11 69 -2 69 14 0 6 -7 6 -21
-1 -25 -14 -49 -6 -49 15 0 11 10 15 35 15 35 0 40 5 29 34 -8 20 -57 21 -73
2z m67 -13 c2 -9 -7 -13 -27 -13 -30 0 -39 9 -24 24 11 10 46 3 51 -11z"/>
<path d="M1970 4227 c0 -16 9 -26 32 -35 26 -9 30 -14 20 -24 -10 -10 -17 -10
-33 1 -18 10 -20 10 -17 -1 3 -7 18 -13 34 -13 22 0 30 5 32 21 2 17 -5 24
-29 33 -22 7 -29 15 -25 26 3 8 1 15 -4 15 -6 0 -10 -10 -10 -23z"/>
<path d="M2000 4246 c0 -2 7 -6 15 -10 8 -3 15 -1 15 4 0 6 -7 10 -15 10 -8 0
-15 -2 -15 -4z"/>
<path d="M2135 4240 c-4 -6 6 -7 25 -4 23 5 30 3 30 -10 0 -9 -8 -16 -18 -16
-10 0 -27 -6 -37 -14 -28 -21 -4 -47 41 -43 33 2 34 3 34 50 0 47 0 47 -34 47
-19 0 -38 -4 -41 -10z m65 -49 c0 -16 -30 -33 -46 -27 -13 5 -14 9 -4 21 13
16 50 21 50 6z"/>
<path d="M2302 4230 c-16 -26 -6 -68 19 -75 23 -7 59 2 59 16 0 5 -9 4 -19 -3
-15 -9 -23 -9 -35 1 -22 19 -10 31 30 31 37 0 39 2 24 31 -14 26 -61 25 -78
-1z m66 -7 c2 -8 -6 -13 -22 -13 -25 0 -33 10 -19 24 10 10 36 3 41 -11z"/>
<path d="M2417 4243 c-15 -15 -5 -35 23 -44 43 -15 41 -44 -2 -35 -24 5 -29 3
-21 -5 6 -6 21 -9 34 -7 33 4 34 52 2 56 -13 2 -23 10 -23 19 0 11 6 14 25 9
14 -4 25 -2 25 4 0 11 -53 14 -63 3z"/>
<path d="M2583 4243 c-16 -6 -17 -65 -1 -81 7 -7 21 -12 33 -12 28 0 45 19 45
50 0 42 -34 61 -77 43z m59 -28 c10 -21 9 -29 -5 -43 -31 -31 -75 19 -47 53
19 22 39 18 52 -10z"/>
<path d="M2680 4243 c0 -16 33 -93 40 -93 8 0 40 73 40 91 0 6 -4 7 -10 4 -5
-3 -10 -14 -10 -24 0 -10 -6 -24 -14 -30 -12 -10 -15 -6 -21 18 -6 28 -25 54
-25 34z"/>
<path d="M2788 4225 c-25 -54 36 -103 73 -58 13 15 12 15 -9 4 -28 -15 -52 -8
-52 14 0 11 10 15 35 15 19 0 35 4 35 9 0 47 -62 59 -82 16z m62 0 c0 -9 -9
-15 -25 -15 -24 0 -32 10 -18 23 12 13 43 7 43 -8z"/>
<path d="M2907 4243 c-4 -3 -6 -27 -6 -52 l1 -46 8 39 c4 22 16 45 26 53 17
12 17 13 -2 13 -12 0 -24 -3 -27 -7z"/>
<path d="M3200 4231 c-23 -45 -2 -86 41 -79 12 2 24 10 26 18 4 12 3 12 -5 1
-12 -17 -52 -6 -52 15 0 9 11 14 35 14 35 0 40 5 29 34 -9 23 -61 21 -74 -3z
m60 -6 c0 -9 -9 -15 -25 -15 -24 0 -32 10 -18 23 12 13 43 7 43 -8z"/>
<path d="M3360 4246 c0 -2 7 -20 15 -39 18 -44 19 -84 3 -90 -10 -4 -10 -6 0
-6 14 -1 62 99 61 127 0 9 -6 3 -12 -15 -18 -47 -24 -49 -41 -9 -13 30 -26 47
-26 32z"/>
<path d="M3472 4229 c-13 -35 -2 -68 24 -75 28 -7 54 1 54 16 0 6 -7 6 -19 -2
-15 -9 -23 -9 -35 1 -22 19 -11 31 29 31 31 0 34 2 26 23 -12 32 -68 37 -79 6z
m62 -4 c4 -11 -2 -15 -24 -15 -22 0 -28 4 -24 15 4 8 14 15 24 15 10 0 20 -7
24 -15z"/>
<path d="M3586 4241 c-3 -5 8 -8 25 -7 18 0 34 -5 36 -11 3 -8 -5 -13 -20 -13
-29 0 -52 -23 -43 -45 3 -8 16 -14 28 -14 17 1 18 2 6 6 -22 6 -23 29 -2 37
27 10 35 7 32 -16 -2 -11 3 -23 10 -25 16 -6 17 68 0 85 -14 14 -64 16 -72 3z"/>
<path d="M3702 4198 c1 -47 2 -48 5 -13 2 22 11 46 20 53 15 11 15 12 -5 12
-20 0 -22 -5 -20 -52z"/>
<path d="M3767 4243 c-15 -15 -5 -35 23 -44 17 -6 30 -17 30 -25 0 -17 -32
-18 -48 -2 -9 9 -12 9 -12 0 0 -17 25 -25 56 -18 33 9 28 36 -9 54 -34 17 -36
36 -2 28 14 -4 25 -2 25 4 0 11 -53 14 -63 3z"/>
<path d="M3970 4248 c1 -20 29 -93 37 -95 5 -2 15 11 20 29 l11 33 13 -32 c7
-18 16 -33 20 -33 8 0 32 81 25 87 -3 3 -8 -6 -12 -21 -8 -35 -21 -33 -29 4
-4 17 -10 30 -15 30 -5 0 -11 -13 -15 -30 -4 -16 -11 -30 -16 -30 -5 0 -12 14
-15 30 -4 17 -10 30 -15 30 -5 0 -9 -1 -9 -2z"/>
<path d="M4130 4229 c-17 -30 -4 -68 25 -75 29 -7 55 1 55 16 0 6 -7 6 -19 -2
-15 -9 -23 -9 -35 1 -22 19 -10 31 30 31 37 0 39 2 24 31 -15 27 -66 26 -80
-2z m68 -6 c2 -8 -6 -13 -22 -13 -17 0 -26 5 -26 16 0 19 41 16 48 -3z"/>
<path d="M6500 4180 c0 -5 5 -10 11 -10 5 0 7 5 4 10 -3 6 -8 10 -11 10 -2 0
-4 -4 -4 -10z"/>
<path d="M10370 4155 c0 -22 4 -34 10 -30 6 3 10 17 10 30 0 13 -4 27 -10 30
-6 4 -10 -8 -10 -30z"/>
<path d="M6672 4123 c-1 -34 -6 -65 -12 -68 -5 -3 -11 -16 -11 -28 -1 -12 -5
0 -9 26 -10 57 -15 64 -33 49 -8 -7 -17 -9 -20 -5 -4 3 -7 -14 -7 -40 0 -25
-5 -58 -12 -74 -7 -15 -13 -57 -14 -93 -1 -36 -4 -96 -7 -135 -3 -38 -3 -57 0
-40 3 16 9 32 14 36 5 3 11 23 12 45 2 21 7 46 11 55 4 9 6 20 4 25 -4 11 6
14 32 7 16 -4 20 -14 21 -47 1 -22 11 27 24 109 l22 150 -5 -220 c-3 -121 -2
-217 1 -214 4 3 7 48 8 100 0 52 4 99 8 104 4 6 4 64 1 130 -4 66 -8 116 -10
110 -2 -5 -6 10 -10 35 -7 45 -7 45 -8 -17z"/>
<path d="M10111 4145 c0 -16 4 -39 9 -50 7 -16 9 -14 9 15 0 19 -4 42 -9 50
-7 11 -10 8 -9 -15z"/>
<path d="M10861 4115 l2 -60 7 50 c4 28 3 54 -1 60 -5 5 -8 -16 -8 -50z"/>
<path d="M3875 4150 c3 -5 8 -10 11 -10 2 0 4 5 4 10 0 6 -5 10 -11 10 -5 0
-7 -4 -4 -10z"/>
<path d="M6507 4131 c-10 -49 -9 -129 3 -136 6 -3 10 -23 11 -43 0 -20 2 -32
5 -27 2 6 0 62 -4 125 -5 86 -9 107 -15 81z"/>
<path d="M9292 4055 c0 -16 2 -22 5 -12 2 9 2 23 0 30 -3 6 -5 -1 -5 -18z"/>
<path d="M3160 4030 c-10 -6 -14 -26 -12 -71 3 -74 12 -93 12 -26 0 28 5 47
11 47 8 0 8 4 0 13 -8 10 -7 17 1 25 15 15 7 24 -12 12z"/>
<path d="M10723 3990 c0 -30 2 -43 4 -27 2 15 2 39 0 55 -2 15 -4 2 -4 -28z"/>
<path d="M1627 4010 c-4 -14 -14 -20 -35 -20 -24 0 -31 -5 -36 -26 -10 -38 16
-73 54 -72 l30 1 0 69 c0 70 -4 83 -13 48z m-5 -48 c3 -10 1 -28 -3 -40 -13
-34 -49 -12 -49 28 0 25 4 30 24 30 14 0 26 -7 28 -18z"/>
<path d="M3040 3960 c0 -40 4 -70 10 -70 6 0 10 11 10 25 0 32 7 31 32 -1 26
-32 35 -24 12 11 -14 22 -15 31 -6 46 15 23 5 25 -20 2 -17 -15 -18 -14 -18
20 0 21 -4 37 -10 37 -6 0 -10 -30 -10 -70z"/>
<path d="M10683 3970 c0 -36 2 -50 4 -32 2 17 2 47 0 65 -2 17 -4 3 -4 -33z"/>
<path d="M9693 3965 c0 -27 2 -38 4 -22 2 15 2 37 0 50 -2 12 -4 0 -4 -28z"/>
<path d="M676 3988 c-20 -11 -21 -71 -1 -88 17 -14 65 -6 65 11 0 8 -4 8 -14
0 -16 -14 -46 -4 -46 15 0 9 12 14 35 14 34 0 43 12 27 36 -11 16 -47 23 -66
12z m54 -23 c0 -9 -9 -15 -25 -15 -16 0 -25 6 -25 15 0 9 9 15 25 15 16 0 25
-6 25 -15z"/>
<path d="M890 3980 c-24 -24 -25 -38 -4 -68 18 -27 45 -28 67 -4 23 26 21 58
-5 76 -29 20 -34 20 -58 -4z m58 -31 c4 -34 -22 -57 -43 -39 -16 13 -20 51 -8
64 16 16 48 1 51 -25z"/>
<path d="M1803 3992 c-21 -3 -23 -9 -21 -55 l1 -52 6 45 c5 36 10 46 28 48 20
3 22 -2 25 -45 3 -35 6 -43 12 -30 11 22 -1 84 -17 89 -6 2 -22 2 -34 0z"/>
<path d="M2008 3993 c-15 -4 -18 -14 -17 -56 1 -29 3 -41 6 -27 9 56 14 69 31
72 9 2 13 6 7 9 -5 3 -18 4 -27 2z"/>
<path d="M2193 3990 c-34 -14 -28 -20 13 -13 47 8 43 -17 -5 -29 -26 -7 -32
-13 -29 -31 2 -18 10 -22 43 -23 l40 -1 -4 46 c-4 58 -16 68 -58 51z m45 -62
c-2 -6 -12 -16 -21 -22 -13 -8 -20 -7 -27 4 -12 20 -3 30 26 30 15 0 24 -5 22
-12z"/>
<path d="M2453 3992 c-20 -3 -23 -9 -23 -54 0 -68 17 -51 19 20 1 17 7 22 26
22 23 0 25 -4 25 -46 0 -27 4 -43 10 -39 12 7 13 65 2 81 -10 14 -32 21 -59
16z"/>
<path d="M2883 3989 c-18 -6 -23 -16 -23 -42 0 -42 21 -62 55 -53 25 6 40 38
33 72 -4 22 -37 34 -65 23z m47 -18 c0 -5 3 -16 6 -24 5 -14 -20 -47 -36 -47
-15 0 -31 40 -25 60 6 20 55 29 55 11z"/>
<path d="M3223 3990 c-42 -17 -24 -100 22 -100 43 0 64 79 26 100 -22 11 -19
11 -48 0z m50 -32 c6 -23 -8 -58 -23 -58 -11 0 -40 29 -40 40 0 42 53 57 63
18z"/>
<path d="M3510 3992 c-34 -11 -41 -59 -12 -85 23 -21 46 -22 62 -2 15 18 -1
20 -18 3 -8 -8 -15 -8 -27 2 -24 20 -18 30 21 30 31 0 35 3 32 21 -3 23 -33
39 -58 31z m40 -28 c0 -10 -7 -14 -22 -12 -32 5 -35 28 -4 28 17 0 26 -5 26
-16z"/>
<path d="M590 3946 c0 -25 5 -48 10 -51 6 -4 10 10 10 34 0 28 5 43 18 50 14
9 13 10 -10 11 -26 0 -28 -3 -28 -44z"/>
<path d="M780 3970 c-15 -29 -2 -69 26 -76 25 -6 44 1 44 18 0 7 -6 6 -15 -2
-21 -18 -47 5 -43 39 2 21 8 26 31 26 15 -1 27 3 27 7 0 18 -60 8 -70 -12z"/>
<path d="M990 3945 c0 -25 5 -45 10 -45 6 0 10 18 10 40 0 33 3 40 20 40 17 0
20 -7 20 -40 0 -22 5 -40 10 -40 6 0 10 18 10 40 0 32 4 40 19 40 13 0 20 -10
25 -31 3 -17 3 -35 0 -40 -3 -5 0 -9 6 -9 7 0 10 16 8 43 l-3 42 -67 3 -68 3
0 -46z"/>
<path d="M1161 3938 c1 -56 4 -56 14 5 4 27 11 37 24 37 21 0 30 -18 33 -63 1
-25 2 -23 7 13 5 36 10 45 26 45 16 0 21 -9 26 -45 l7 -45 -2 50 -1 50 -67 3
-68 3 1 -53z"/>
<path d="M1337 3983 c-13 -12 -7 -71 8 -83 17 -14 65 -6 65 11 0 8 -4 8 -14 0
-16 -13 -42 -6 -50 15 -4 10 3 14 29 14 38 0 52 14 35 35 -13 15 -61 20 -73 8z
m61 -15 c-7 -20 -48 -23 -48 -4 0 11 9 16 26 16 16 0 24 -5 22 -12z"/>
<path d="M1451 3938 c1 -29 3 -42 6 -28 9 60 14 70 33 70 19 0 25 -17 21 -62
-1 -9 3 -19 9 -23 8 -5 10 8 8 42 -3 48 -3 48 -40 51 l-38 3 1 -53z"/>
<path d="M1733 3940 c0 -30 2 -43 4 -27 2 15 2 39 0 55 -2 15 -4 2 -4 -28z"/>
<path d="M1886 3974 c-11 -28 -6 -50 12 -67 25 -23 45 -21 61 6 14 21 13 22
-6 4 -24 -21 -49 -14 -56 15 -9 34 3 50 34 46 16 -3 29 -1 29 4 0 16 -68 9
-74 -8z"/>
<path d="M2059 3966 c-23 -49 38 -101 71 -61 15 18 -1 20 -18 3 -8 -8 -15 -8
-27 2 -24 20 -18 30 21 30 31 0 35 3 32 23 -2 17 -11 23 -35 25 -27 3 -35 -1
-44 -22z m61 -1 c0 -16 -35 -21 -44 -6 -8 12 4 21 26 21 10 0 18 -7 18 -15z"/>
<path d="M2286 3981 c-10 -16 5 -41 24 -41 24 0 36 -18 21 -33 -8 -8 -14 -8
-23 1 -17 17 -33 15 -18 -3 15 -18 42 -19 58 -3 20 20 14 35 -18 47 -37 12
-41 35 -5 29 14 -3 25 -1 25 3 0 12 -57 11 -64 0z"/>
<path d="M2382 3946 c-1 -25 2 -47 8 -51 6 -4 10 12 10 44 0 63 -14 68 -18 7z"/>
<path d="M2546 3974 c-17 -44 10 -90 45 -79 13 4 19 2 19 -8 0 -18 -24 -28
-47 -20 -14 5 -16 3 -6 -7 7 -7 22 -10 36 -6 23 5 26 11 29 71 l3 65 -36 0
c-24 0 -39 -5 -43 -16z m62 -27 c2 -18 -2 -29 -13 -33 -23 -9 -46 16 -38 44 8
34 47 26 51 -11z"/>
<path d="M2718 3940 c9 -27 19 -50 23 -50 5 0 11 16 15 37 6 33 8 35 20 18 8
-10 14 -27 14 -37 0 -33 18 -18 34 29 21 60 20 66 -4 23 -19 -36 -19 -36 -35
15 -8 25 -24 17 -34 -17 l-9 -33 -13 33 c-21 50 -29 38 -11 -18z"/>
<path d="M2970 3946 c0 -25 5 -48 10 -51 6 -4 10 10 10 35 0 33 4 42 23 50 20
8 19 9 -10 9 -32 1 -33 0 -33 -43z"/>
<path d="M3316 3981 c-9 -13 -4 -81 6 -81 4 0 8 16 8 35 0 22 6 38 18 44 15 9
15 10 -5 11 -12 0 -24 -4 -27 -9z"/>
<path d="M3384 3964 c-9 -37 10 -74 40 -74 13 0 26 7 30 15 3 8 1 15 -3 15 -5
0 -11 -5 -13 -11 -5 -15 -36 0 -43 21 -10 33 5 52 37 46 18 -3 27 -2 23 4 -3
6 -19 10 -35 10 -23 0 -31 -5 -36 -26z"/>
<path d="M6453 3800 c0 -25 2 -35 4 -22 2 12 2 32 0 45 -2 12 -4 2 -4 -23z"/>
<path d="M6532 3815 c0 -16 2 -22 5 -12 2 9 2 23 0 30 -3 6 -5 -1 -5 -18z"/>
<path d="M10131 3774 c0 -11 3 -14 6 -6 3 7 2 16 -1 19 -3 4 -6 -2 -5 -13z"/>
<path d="M9290 3730 c0 -16 4 -30 8 -30 5 0 7 14 4 30 -2 17 -6 30 -8 30 -2 0
-4 -13 -4 -30z"/>
<path d="M6460 3650 c0 -22 5 -40 10 -40 6 0 10 18 10 40 0 22 -4 40 -10 40
-5 0 -10 -18 -10 -40z"/>
<path d="M6541 3624 c0 -11 3 -14 6 -6 3 7 2 16 -1 19 -3 4 -6 -2 -5 -13z"/>
<path d="M10161 3454 c0 -11 3 -14 6 -6 3 7 2 16 -1 19 -3 4 -6 -2 -5 -13z"/>
<path d="M10801 3454 c0 -11 3 -14 6 -6 3 7 2 16 -1 19 -3 4 -6 -2 -5 -13z"/>
<path d="M11121 3444 c0 -11 3 -14 6 -6 3 7 2 16 -1 19 -3 4 -6 -2 -5 -13z"/>
<path d="M7877 3393 c-9 -9 -9 -41 1 -46 4 -3 7 8 7 24 0 16 0 29 -1 29 0 0
-4 -3 -7 -7z"/>
<path d="M6362 3370 c0 -14 2 -19 5 -12 2 6 2 18 0 25 -3 6 -5 1 -5 -13z"/>
<path d="M8791 3374 c0 -11 3 -14 6 -6 3 7 2 16 -1 19 -3 4 -6 -2 -5 -13z"/>
<path d="M7371 3364 c0 -11 3 -14 6 -6 3 7 2 16 -1 19 -3 4 -6 -2 -5 -13z"/>
<path d="M7316 3355 c-3 -8 -1 -15 4 -15 6 0 10 7 10 15 0 8 -2 15 -4 15 -2 0
-6 -7 -10 -15z"/>
<path d="M9020 3350 c0 -5 5 -10 11 -10 5 0 7 5 4 10 -3 6 -8 10 -11 10 -2 0
-4 -4 -4 -10z"/>
<path d="M6578 3343 c6 -2 18 -2 25 0 6 3 1 5 -13 5 -14 0 -19 -2 -12 -5z"/>
<path d="M7188 3343 c6 -2 18 -2 25 0 6 3 1 5 -13 5 -14 0 -19 -2 -12 -5z"/>
<path d="M7803 3343 c9 -2 23 -2 30 0 6 3 -1 5 -18 5 -16 0 -22 -2 -12 -5z"/>
<path d="M10751 3334 c0 -11 3 -14 6 -6 3 7 2 16 -1 19 -3 4 -6 -2 -5 -13z"/>
<path d="M7640 3260 c0 -11 4 -20 9 -20 5 0 7 9 4 20 -3 11 -7 20 -9 20 -2 0
-4 -9 -4 -20z"/>
<path d="M7700 3270 c0 -5 5 -10 11 -10 5 0 7 5 4 10 -3 6 -8 10 -11 10 -2 0
-4 -4 -4 -10z"/>
<path d="M7745 3260 c3 -5 8 -10 11 -10 2 0 4 5 4 10 0 6 -5 10 -11 10 -5 0
-7 -4 -4 -10z"/>
<path d="M490 3065 c0 -8 2 -15 4 -15 2 0 6 7 10 15 3 8 1 15 -4 15 -6 0 -10
-7 -10 -15z"/>
<path d="M221 3054 c0 -11 3 -14 6 -6 3 7 2 16 -1 19 -3 4 -6 -2 -5 -13z"/>
<path d="M1961 3054 c0 -11 3 -14 6 -6 3 7 2 16 -1 19 -3 4 -6 -2 -5 -13z"/>
<path d="M2060 3059 c0 -5 5 -7 10 -4 6 3 10 8 10 11 0 2 -4 4 -10 4 -5 0 -10
-5 -10 -11z"/>
<path d="M5993 3035 c0 -22 2 -30 4 -17 2 12 2 30 0 40 -3 9 -5 -1 -4 -23z"/>
<path d="M6363 3055 c-3 -9 -3 -18 -1 -21 3 -3 8 4 11 16 6 23 -1 27 -10 5z"/>
<path d="M602 3030 c0 -19 2 -27 5 -17 2 9 2 25 0 35 -3 9 -5 1 -5 -18z"/>
<path d="M1102 3030 c0 -19 2 -27 5 -17 2 9 2 25 0 35 -3 9 -5 1 -5 -18z"/>
<path d="M1231 3044 c0 -11 3 -14 6 -6 3 7 2 16 -1 19 -3 4 -6 -2 -5 -13z"/>
<path d="M1400 3051 c0 -5 5 -13 10 -16 6 -3 10 -2 10 4 0 5 -4 13 -10 16 -5
3 -10 2 -10 -4z"/>
<path d="M2020 3050 c0 -5 5 -10 11 -10 5 0 7 5 4 10 -3 6 -8 10 -11 10 -2 0
-4 -4 -4 -10z"/>
<path d="M6456 3045 c4 -8 8 -15 10 -15 2 0 4 7 4 15 0 8 -4 15 -10 15 -5 0
-7 -7 -4 -15z"/>
<path d="M7422 3040 c0 -14 2 -19 5 -12 2 6 2 18 0 25 -3 6 -5 1 -5 -13z"/>
<path d="M7591 3044 c0 -11 3 -14 6 -6 3 7 2 16 -1 19 -3 4 -6 -2 -5 -13z"/>
<path d="M281 3034 c0 -11 3 -14 6 -6 3 7 2 16 -1 19 -3 4 -6 -2 -5 -13z"/>
<path d="M461 3034 c0 -11 3 -14 6 -6 3 7 2 16 -1 19 -3 4 -6 -2 -5 -13z"/>
<path d="M1141 3034 c0 -11 3 -14 6 -6 3 7 2 16 -1 19 -3 4 -6 -2 -5 -13z"/>
<path d="M1160 3040 c0 -5 5 -10 10 -10 6 0 10 5 10 10 0 6 -4 10 -10 10 -5 0
-10 -4 -10 -10z"/>
<path d="M6500 3039 c0 -5 5 -7 10 -4 6 3 10 8 10 11 0 2 -4 4 -10 4 -5 0 -10
-5 -10 -11z"/>
<path d="M7340 3040 c0 -5 5 -10 10 -10 6 0 10 5 10 10 0 6 -4 10 -10 10 -5 0
-10 -4 -10 -10z"/>
<path d="M11 3024 c0 -11 3 -14 6 -6 3 7 2 16 -1 19 -3 4 -6 -2 -5 -13z"/>
<path d="M1455 3031 c-3 -5 -1 -12 5 -16 5 -3 10 1 10 9 0 18 -6 21 -15 7z"/>
<path d="M1610 3031 c0 -5 5 -13 10 -16 6 -3 10 -2 10 4 0 5 -4 13 -10 16 -5
3 -10 2 -10 -4z"/>
<path d="M6092 3020 c0 -14 2 -19 5 -12 2 6 2 18 0 25 -3 6 -5 1 -5 -13z"/>
<path d="M6592 3020 c0 -14 2 -19 5 -12 2 6 2 18 0 25 -3 6 -5 1 -5 -13z"/>
<path d="M6772 3020 c0 -14 2 -19 5 -12 2 6 2 18 0 25 -3 6 -5 1 -5 -13z"/>
<path d="M7462 3020 c0 -14 2 -19 5 -12 2 6 2 18 0 25 -3 6 -5 1 -5 -13z"/>
<path d="M6851 3004 c0 -11 3 -14 6 -6 3 7 2 16 -1 19 -3 4 -6 -2 -5 -13z"/>
<path d="M7500 3011 c0 -5 5 -13 10 -16 6 -3 10 -2 10 4 0 5 -4 13 -10 16 -5
3 -10 2 -10 -4z"/>
<path d="M11301 2564 c0 -11 3 -14 6 -6 3 7 2 16 -1 19 -3 4 -6 -2 -5 -13z"/>
<path d="M5560 2253 c0 -136 3 -299 7 -360 l6 -113 78 0 77 0 7 133 c3 72 5
233 3 357 l-3 225 -87 3 -88 3 0 -248z"/>
<path d="M10832 2453 c-9 -20 -1 -888 9 -897 6 -6 33 -7 94 -4 17 1 38 -2 47
-6 15 -7 17 4 20 116 2 67 4 276 3 463 l0 340 -82 3 c-71 2 -83 0 -91 -15z"/>
<path d="M8822 2268 c-58 -36 -65 -55 -24 -64 15 -3 41 -9 57 -13 19 -5 35
-18 44 -36 l14 -29 21 26 c26 33 87 58 137 58 49 0 50 16 2 37 -32 13 -45 14
-86 3 -41 -10 -53 -10 -82 4 -23 11 -32 21 -29 31 8 20 7 20 -54 -17z"/>
<path d="M9822 2287 c-6 -7 -9 -23 -5 -35 3 -12 1 -28 -4 -35 -15 -18 -23 -73
-16 -108 5 -28 8 -30 36 -25 47 10 88 56 59 68 -5 2 -20 36 -34 76 -19 57 -27
70 -36 59z"/>
<path d="M9702 2209 c6 -16 12 -28 15 -26 7 7 -8 57 -18 57 -4 0 -3 -14 3 -31z"/>
<path d="M9054 2155 c-8 -20 -18 -33 -23 -31 -8 6 -22 -22 -36 -72 -4 -14 0
-38 10 -59 16 -34 17 -79 1 -115 -7 -14 1 -16 71 -12 43 3 85 7 94 10 16 4 59
93 59 121 0 8 -7 28 -16 45 l-16 30 -23 -22 c-16 -15 -25 -18 -30 -10 -4 7 -2
17 4 23 6 6 11 28 11 49 0 39 -17 58 -68 73 -19 5 -25 1 -38 -30z"/>
<path d="M3805 2140 c-3 -6 1 -7 9 -4 18 7 21 14 7 14 -6 0 -13 -4 -16 -10z"/>
<path d="M9720 2143 c0 -6 6 -23 14 -39 7 -16 17 -62 20 -102 l6 -73 -32 17
c-18 9 -43 24 -55 34 -20 16 -29 15 -158 -11 -76 -15 -141 -31 -146 -36 -5 -5
-6 -46 -2 -94 8 -84 8 -84 38 -87 17 -2 36 -9 43 -15 10 -8 15 -8 20 0 10 16
82 28 82 14 0 -6 -7 -11 -15 -11 -9 0 -20 -10 -25 -22 -4 -13 -22 -34 -39 -46
-19 -15 -33 -37 -37 -59 -6 -30 -14 -38 -52 -55 -36 -16 -46 -18 -53 -7 -7 12
-9 11 -10 -1 -1 -8 -1 -19 0 -23 1 -5 -3 -6 -8 -2 -6 3 -20 -6 -33 -20 -27
-31 -62 -41 -203 -55 -201 -21 -198 -20 -222 -49 -12 -14 -22 -32 -23 -40 0
-7 -18 -50 -41 -95 -22 -44 -38 -88 -36 -98 4 -14 -3 -18 -37 -21 l-41 -4 41
-1 c32 -2 43 -7 54 -26 11 -21 10 -31 -9 -70 -13 -25 -20 -50 -16 -56 3 -5 31
-10 61 -10 53 0 56 -2 67 -30 6 -16 15 -30 19 -30 12 0 10 28 -2 35 -5 3 -10
15 -10 26 0 17 -7 19 -60 19 -57 0 -60 1 -50 20 5 11 14 28 18 38 5 9 7 45 4
79 -3 46 1 74 14 108 l19 45 53 0 c28 0 55 -1 59 -2 4 -2 8 -76 8 -166 0 -179
2 -185 60 -180 24 2 30 7 28 25 -3 25 6 29 100 38 37 4 65 10 62 15 -3 4 -6
28 -6 52 -1 23 -14 83 -30 132 -16 49 -29 97 -29 106 0 18 42 30 108 30 18 0
43 6 55 14 32 21 114 31 132 16 9 -7 26 -9 45 -5 24 5 38 1 72 -24 23 -17 46
-31 50 -31 14 0 135 126 142 147 8 25 -17 96 -42 121 -11 11 -23 38 -27 60 -5
32 -11 42 -28 44 -14 2 -22 10 -22 22 0 10 -13 28 -28 41 l-29 22 54 12 c29 7
63 13 75 14 11 1 20 4 18 7 -2 3 6 17 17 30 l20 25 -6 -27 c-3 -14 -9 -34 -13
-45 -7 -17 -6 -17 12 1 13 12 20 35 22 65 1 25 3 48 4 51 1 3 1 8 1 11 -1 4 7
5 17 2 24 -6 36 24 12 32 -13 4 -20 25 -30 94 -7 52 -19 95 -27 102 -8 6 -14
7 -14 2z m19 -268 c-1 -19 -2 -19 -6 -1 -4 15 -7 16 -13 5 -7 -11 -10 -10 -16
4 -3 9 -3 24 0 34 6 14 8 14 21 -3 8 -10 14 -28 14 -39z"/>
<path d="M3207 2078 l-39 -10 7 -93 c5 -64 4 -99 -5 -114 -6 -13 -10 -24 -8
-26 2 -2 24 1 49 6 56 12 99 55 99 97 0 16 -3 57 -6 91 -7 58 -8 61 -33 60
-14 -1 -43 -6 -64 -11z"/>
<path d="M2800 1980 c0 -9 23 -30 33 -30 4 0 5 5 2 11 -5 7 19 10 79 7 54 -2
86 1 86 7 0 7 -38 10 -100 10 -55 0 -100 -2 -100 -5z"/>
<path d="M7986 1937 c-3 -12 -7 -48 -10 -79 l-4 -57 31 -5 c18 -3 43 -7 57 -8
22 -3 25 -9 28 -45 l3 -43 63 0 c35 0 125 -3 201 -7 l137 -6 -14 29 c-8 16
-23 62 -34 102 -12 50 -25 77 -38 84 -38 21 -153 38 -251 38 -55 0 -115 4
-133 9 -29 9 -32 7 -36 -12z"/>
<path d="M3028 1907 c11 -16 19 -34 16 -41 -3 -7 8 -21 23 -31 28 -18 28 -18
11 2 -10 11 -18 26 -18 35 0 8 -12 25 -27 39 l-27 24 22 -28z"/>
<path d="M2863 1855 c0 -27 2 -38 4 -22 2 15 2 37 0 50 -2 12 -4 0 -4 -28z"/>
<path d="M3730 1830 c19 -13 30 -13 30 0 0 6 -10 10 -22 10 -19 0 -20 -2 -8
-10z"/>
<path d="M3665 1820 c-3 -5 3 -10 14 -10 11 0 23 5 26 10 3 6 -3 10 -14 10
-11 0 -23 -4 -26 -10z"/>
<path d="M3090 1796 c0 -8 5 -18 11 -22 8 -5 6 -10 -7 -18 -21 -12 -30 -36
-13 -36 6 0 8 -11 4 -28 l-6 -29 68 3 c161 7 227 16 251 35 31 24 42 24 42 2
0 -15 2 -15 9 -4 7 10 20 12 52 7 24 -4 58 -7 75 -6 17 0 43 -9 58 -21 15 -12
29 -20 31 -17 2 2 -11 14 -30 27 -26 17 -53 24 -114 28 -45 3 -81 10 -81 14 0
5 3 9 8 9 4 0 19 11 33 24 15 14 39 27 55 29 16 3 -9 3 -56 0 -47 -3 -94 -9
-105 -13 -12 -4 -57 -11 -100 -14 -44 -4 -97 -9 -117 -12 -31 -5 -38 -3 -38
11 0 9 -7 23 -15 31 -13 14 -15 14 -15 0z"/>
<path d="M3593 1803 c9 -2 25 -2 35 0 9 3 1 5 -18 5 -19 0 -27 -2 -17 -5z"/>
<path d="M3757 1789 c4 -13 8 -18 11 -10 2 7 -1 18 -6 23 -8 8 -9 4 -5 -13z"/>
<path d="M2857 1760 c3 -11 7 -20 9 -20 2 0 4 9 4 20 0 11 -4 20 -9 20 -5 0
-7 -9 -4 -20z"/>
<path d="M2888 1743 c6 -2 18 -2 25 0 6 3 1 5 -13 5 -14 0 -19 -2 -12 -5z"/>
<path d="M9630 1735 c0 -8 5 -15 10 -15 6 0 10 7 10 15 0 8 -4 15 -10 15 -5 0
-10 -7 -10 -15z"/>
<path d="M9671 1734 c0 -11 3 -14 6 -6 3 7 2 16 -1 19 -3 4 -6 -2 -5 -13z"/>
<path d="M6822 1685 c0 -16 2 -22 5 -12 2 9 2 23 0 30 -3 6 -5 -1 -5 -18z"/>
<path d="M3405 1690 c-3 -5 1 -10 9 -10 9 0 16 5 16 10 0 6 -4 10 -9 10 -6 0
-13 -4 -16 -10z"/>
<path d="M9711 1693 c-1 -7 -7 -11 -13 -9 -7 1 -10 1 -5 -1 4 -3 7 -19 8 -36
l1 -32 9 33 c6 19 8 39 5 45 -3 9 -5 9 -5 0z"/>
<path d="M7630 1487 c0 -14 -6 -58 -14 -98 -8 -41 -19 -119 -26 -174 -6 -55
-14 -112 -17 -127 -5 -24 -2 -28 16 -28 13 0 29 6 36 14 14 14 177 15 296 1
l55 -7 12 124 c6 68 14 158 18 201 l6 77 -47 0 c-49 0 -288 27 -317 36 -14 4
-18 0 -18 -19z"/>
<path d="M3520 1435 c-14 -16 -144 -22 -154 -7 -4 7 -125 -4 -134 -13 -1 -1 0
-9 4 -18 4 -12 14 -15 35 -10 18 3 38 0 54 -11 27 -18 61 -21 70 -6 21 35 105
-34 105 -86 0 -55 91 -163 138 -164 20 0 22 5 22 45 0 26 -9 63 -20 85 -11 22
-20 45 -20 53 0 8 -9 22 -19 31 -11 10 -29 40 -40 67 -12 27 -23 49 -25 49 -2
0 -9 -7 -16 -15z m110 -215 c0 -5 -4 -10 -10 -10 -5 0 -10 5 -10 10 0 6 5 10
10 10 6 0 10 -4 10 -10z"/>
<path d="M7242 1400 c0 -14 2 -19 5 -12 2 6 2 18 0 25 -3 6 -5 1 -5 -13z"/>
<path d="M6958 995 c-12 -14 -28 -25 -36 -25 -10 0 -8 -9 9 -36 20 -34 21 -36
3 -33 -11 1 -27 -1 -36 -5 -25 -11 -6 -44 27 -48 31 -4 35 -19 7 -33 -38 -20
-49 -35 -44 -60 2 -13 13 -27 23 -30 10 -4 19 -13 19 -21 0 -8 13 -17 30 -20
17 -4 30 -9 30 -13 0 -19 -37 -54 -71 -68 -22 -8 -38 -18 -35 -20 10 -10 82
20 109 46 23 21 29 23 37 11 7 -12 12 -12 22 -2 10 10 10 15 1 20 -7 4 -10 16
-8 27 2 11 4 24 4 29 1 5 7 3 15 -3 16 -13 56 1 56 19 0 13 111 0 137 -16 12
-8 35 -14 51 -14 18 0 38 -10 57 -30 16 -16 32 -30 37 -30 16 0 8 25 -11 35
-11 6 -35 23 -56 39 -25 20 -39 26 -46 19 -14 -14 -67 6 -74 27 -2 8 -13 62
-25 119 -11 58 -23 108 -27 111 -9 8 -130 30 -162 30 -11 0 -31 -11 -43 -25z"/>
<path d="M8918 943 c7 -3 16 -2 19 1 4 3 -2 6 -13 5 -11 0 -14 -3 -6 -6z"/>
<path d="M230 515 c0 -23 2 -24 20 -15 24 13 26 26 4 34 -23 9 -24 8 -24 -19z"/>
<path d="M470 510 c0 -13 7 -20 20 -20 13 0 20 7 20 20 0 13 -7 20 -20 20 -13
0 -20 -7 -20 -20z"/>
<path d="M720 350 c0 -6 91 -10 253 -10 228 0 4230 0 4320 0 20 0 37 5 37 10
0 7 -775 10 -2305 10 -1530 0 -2305 -3 -2305 -10z"/>
<path d="M0 30 l0 -30 2940 0 2940 0 0 30 0 30 -2940 0 -2940 0 0 -30z"/>
</g>
</svg>
