<?xml version="1.0" standalone="no"?>
<!DOCTYPE svg PUBLIC "-//W3C//DTD SVG 20010904//EN"
 "http://www.w3.org/TR/2001/REC-SVG-20010904/DTD/svg10.dtd">
<svg version="1.0" xmlns="http://www.w3.org/2000/svg"
 width="1200.000000pt" height="700.000000pt" viewBox="0 0 1200.000000 700.000000"
 preserveAspectRatio="xMidYMid meet">

<g transform="translate(0.000000,700.000000) scale(0.100000,-0.100000)"
fill="#000000" stroke="none">
<path d="M1500 6671 l0 -330 -40 -3 c-22 -2 -40 -7 -40 -13 0 -5 18 -11 40
-13 l40 -3 0 -475 0 -474 -39 0 c-42 0 -62 -14 -35 -24 9 -3 29 -6 45 -6 l29
0 0 -465 0 -465 -39 0 c-55 0 -61 -18 -9 -22 l43 -3 3 -477 2 -478 -39 0 c-55
0 -62 -18 -9 -22 l43 -3 0 -475 0 -475 -42 -3 c-24 -2 -43 -7 -43 -12 0 -5 19
-10 43 -12 l42 -3 0 -465 0 -465 -42 -3 c-57 -4 -55 -22 2 -22 l45 0 -2 -477
-3 -478 -42 -3 c-57 -4 -55 -22 2 -22 l45 0 0 -240 c0 -153 4 -240 10 -240 7
0 10 1173 10 3500 0 2327 -3 3500 -10 3500 -6 0 -10 -116 -10 -329z"/>
<path d="M9670 6988 c0 -7 -9 -24 -20 -38 -11 -14 -19 -32 -19 -40 1 -19 51
-102 65 -107 5 -2 25 21 43 52 l33 55 -28 45 c-20 31 -36 45 -51 45 -13 0 -23
-6 -23 -12z"/>
<path d="M11830 3500 c0 -2327 3 -3500 10 -3500 7 0 10 1138 10 3393 0 1867 3
3442 7 3500 5 95 4 107 -10 107 -16 0 -17 -252 -17 -3500z"/>
<path d="M10360 6920 c0 -18 6 -20 80 -20 l80 0 0 -180 0 -180 -175 0 -175 0
0 -205 0 -205 370 0 370 0 0 205 0 205 -172 2 -173 3 -3 178 -2 177 86 0 c76
0 85 2 82 18 -3 15 -21 17 -186 20 -177 2 -182 2 -182 -18z m510 -585 l0 -165
-327 2 -328 3 -3 150 c-1 82 0 155 2 162 4 10 74 13 331 13 l325 0 0 -165z"/>
<path d="M11050 6520 c0 -21 3 -21 354 -18 195 2 357 6 361 10 25 24 -23 28
-361 28 -350 0 -354 0 -354 -20z"/>
<path d="M860 6410 c0 -5 15 -10 34 -10 66 0 67 -3 31 -93 -31 -76 -35 -105
-15 -92 13 8 81 185 75 196 -8 12 -125 12 -125 -1z"/>
<path d="M1124 6406 c-11 -29 1 -71 21 -74 51 -7 64 -13 70 -33 11 -34 -20
-69 -61 -69 -21 0 -33 -4 -29 -10 3 -5 22 -10 41 -10 39 0 84 36 84 68 0 29
-37 70 -70 77 -21 5 -30 13 -30 26 0 16 7 19 41 19 24 0 38 4 34 10 -10 16
-95 12 -101 -4z"/>
<path d="M7930 6204 c-16 -26 -30 -56 -30 -66 0 -17 18 -57 31 -68 3 -3 8 -13
12 -22 3 -10 13 -18 21 -18 15 0 56 50 56 69 0 6 5 11 10 11 28 0 -11 93 -53
129 -14 11 -20 7 -47 -35z"/>
<path d="M8794 6223 c-28 -42 -44 -74 -44 -89 0 -7 12 -33 28 -58 35 -59 55
-57 93 10 24 44 26 54 15 75 -52 99 -62 106 -92 62z"/>
<path d="M1032 6229 c2 -6 8 -10 13 -10 5 0 11 4 13 10 2 6 -4 11 -13 11 -9 0
-15 -5 -13 -11z"/>
<path d="M7076 6194 c-14 -26 -26 -52 -26 -58 0 -18 44 -95 57 -100 14 -6 73
74 73 97 0 24 -51 107 -65 107 -7 0 -25 -21 -39 -46z"/>
<path d="M8778 5804 c-34 -56 -35 -71 -3 -118 14 -20 25 -41 25 -46 0 -6 11
-10 25 -10 18 0 25 5 25 19 0 11 3 21 8 23 4 2 15 18 25 36 17 31 17 34 1 65
-9 17 -22 42 -28 54 -18 37 -48 28 -78 -23z"/>
<path d="M7775 5760 c-14 -22 10 -30 86 -30 l79 0 -2 -562 -3 -563 -172 -3
-173 -2 0 -400 0 -400 173 -2 172 -3 3 -562 c2 -446 0 -563 -10 -565 -7 -1
-44 -2 -83 -2 -55 -1 -70 -4 -70 -16 0 -13 28 -15 183 -18 157 -2 182 0 182
13 0 12 -13 15 -57 15 -32 0 -68 3 -81 6 l-22 6 2 562 3 561 173 3 172 2 0
400 0 400 -175 0 -175 0 0 565 0 565 80 0 c73 0 80 2 80 20 0 19 -7 20 -179
20 -109 0 -182 -4 -186 -10z m513 -1367 l-3 -168 -327 -3 -328 -2 0 170 0 170
330 0 330 0 -2 -167z m2 -393 l0 -160 -330 0 -330 0 0 160 0 160 330 0 330 0
0 -160z"/>
<path d="M9482 5753 c3 -15 16 -18 93 -19 l90 -2 0 -178 0 -179 -172 -3 -173
-2 0 -390 c0 -215 -1 -393 -2 -397 -2 -5 160 -9 360 -11 l362 -2 0 400 0 400
-159 0 c-123 0 -161 3 -170 14 -8 9 -11 65 -9 177 l3 164 60 3 c80 3 105 10
105 27 0 13 -30 15 -196 15 -181 0 -195 -1 -192 -17z m516 -585 l-3 -163 -317
-3 -318 -2 -1 137 c-1 76 -3 147 -3 158 -1 11 0 23 2 28 2 4 147 7 323 7 l319
0 -2 -162z m0 -385 l2 -173 -319 0 c-201 0 -321 4 -323 10 -1 5 -2 84 0 175
l3 165 317 -2 317 -3 3 -172z"/>
<path d="M6200 5403 c-17 -26 -30 -50 -30 -55 0 -11 40 -81 55 -97 12 -12 17
-12 29 -1 9 7 16 17 16 22 0 6 10 23 21 40 19 26 20 33 8 56 -22 44 -50 82
-60 82 -5 0 -23 -21 -39 -47z"/>
<path d="M10533 5438 c-5 -7 -20 -32 -33 -54 l-22 -42 27 -46 c15 -25 32 -49
38 -53 11 -7 57 44 57 65 0 6 5 12 10 12 19 0 9 45 -18 84 -31 44 -45 52 -59
34z"/>
<path d="M869 5438 c-6 -23 -8 -78 -2 -79 4 -1 21 -3 36 -5 39 -4 57 -21 57
-54 0 -33 -36 -56 -75 -46 -20 5 -26 3 -23 -6 3 -7 21 -14 41 -16 43 -4 87 32
87 70 0 33 -27 68 -53 68 -32 0 -49 14 -41 33 4 12 18 17 46 17 23 0 37 4 33
10 -5 8 -103 15 -106 8z"/>
<path d="M1131 5414 c-15 -19 -21 -41 -21 -79 0 -93 61 -135 115 -80 36 35 36
120 0 159 -31 34 -67 34 -94 0z m78 -20 c23 -30 26 -56 10 -102 -24 -70 -84
-37 -80 44 1 44 21 84 42 84 4 0 17 -12 28 -26z"/>
<path d="M247 5362 c-23 -25 -21 -75 3 -97 24 -22 91 -25 115 -5 23 19 34 51
28 83 -7 38 -23 34 -23 -6 0 -41 -21 -73 -44 -64 -12 5 -16 19 -16 57 0 46 -2
50 -23 50 -13 0 -31 -8 -40 -18z m39 -89 c-9 -9 -36 25 -36 46 0 11 8 24 18
30 15 8 17 5 20 -31 2 -22 1 -42 -2 -45z"/>
<path d="M6900 5355 c0 -11 19 -15 93 -17 l92 -3 0 -560 0 -560 -175 -5 -175
-5 -3 -402 -2 -403 175 0 c173 0 175 0 180 -22 3 -13 4 -266 3 -563 l-3 -540
-92 -3 c-73 -2 -93 -6 -93 -17 0 -23 32 -26 215 -23 143 3 170 5 170 18 0 12
-18 16 -80 20 l-80 5 0 560 0 560 163 3 c89 1 162 6 162 10 0 26 1 761 0 780
0 22 -1 22 -165 22 l-165 0 2 563 3 562 83 3 c64 2 82 6 82 17 0 13 -31 15
-195 15 -164 0 -195 -2 -195 -15z m510 -1355 l0 -160 -315 0 -315 0 0 160 0
160 315 0 315 0 0 -160z m0 -384 l0 -175 -315 -1 -315 0 0 175 0 175 315 0
315 0 0 -174z"/>
<path d="M8630 5355 c0 -11 18 -15 83 -17 l82 -3 0 -165 0 -165 -167 -3 -168
-2 0 -215 0 -215 160 0 c150 0 160 -1 170 -20 7 -13 10 -78 8 -178 l-3 -157
-80 -5 c-66 -4 -80 -8 -83 -23 -3 -16 9 -17 190 -15 164 3 193 5 193 18 0 12
-18 16 -93 18 l-92 3 2 177 3 177 173 3 172 2 0 215 0 215 -175 0 -175 0 2
168 3 167 93 3 c73 2 92 6 92 17 0 13 -31 15 -195 15 -164 0 -195 -2 -195 -15z
m508 -572 l2 -173 -319 0 -319 0 -1 158 c-1 87 1 166 5 175 5 15 37 16 317 14
l312 -2 3 -172z"/>
<path d="M1030 5250 c0 -5 7 -10 15 -10 8 0 15 5 15 10 0 6 -7 10 -15 10 -8 0
-15 -4 -15 -10z"/>
<path d="M260 5187 c-25 -13 -42 -67 -21 -67 14 0 14 -37 1 -45 -6 -3 -9 -27
-7 -53 l3 -47 77 -3 c63 -2 77 0 77 12 0 11 -15 16 -61 18 -45 2 -65 8 -72 20
-19 30 8 48 74 48 46 0 59 3 59 15 0 11 -12 15 -51 15 -59 0 -89 13 -89 39 0
24 19 31 86 31 41 0 54 4 54 15 0 19 -93 21 -130 2z"/>
<path d="M6045 4990 c-14 -22 10 -30 86 -30 l79 0 -2 -562 -3 -563 -162 -3
-163 -2 0 -413 0 -412 162 0 163 0 0 -565 0 -565 -82 -3 c-65 -2 -83 -6 -83
-17 0 -13 31 -15 200 -15 155 0 199 3 198 13 -2 8 -32 14 -93 17 l-90 5 -3
559 c-2 441 0 561 10 568 7 5 85 8 173 7 l160 -2 3 411 2 412 -172 2 -173 3
-3 563 -2 562 89 0 c67 0 90 3 94 14 3 8 3 17 0 20 -11 11 -381 7 -388 -4z
m513 -1372 c2 -167 2 -168 -20 -173 -13 -3 -156 -4 -318 -3 l-295 3 -3 173 -2
172 317 -2 318 -3 3 -167z m0 -400 l2 -168 -320 0 -320 0 0 170 0 170 318 -2
317 -3 3 -167z"/>
<path d="M170 4904 c0 -8 5 -12 10 -9 6 4 8 11 5 16 -9 14 -15 11 -15 -7z"/>
<path d="M237 4914 c-16 -16 10 -24 79 -24 59 0 74 3 74 15 0 12 -15 15 -73
15 -41 0 -77 -3 -80 -6z"/>
<path d="M190 4778 c0 -56 4 -88 9 -82 5 5 11 23 13 39 l3 30 85 3 c113 4 130
22 22 23 -45 1 -88 2 -94 3 -7 0 -14 18 -16 39 -6 74 -22 35 -22 -55z"/>
<path d="M5190 4585 c0 -12 15 -15 73 -15 39 0 78 -4 85 -8 10 -7 12 -126 10
-563 l-3 -554 -175 -5 -175 -5 0 -400 0 -400 175 -5 175 -5 0 -560 0 -560 -80
-5 c-62 -4 -80 -8 -80 -20 0 -13 27 -15 180 -15 162 0 180 2 183 17 3 15 -8
18 -80 20 l-83 3 0 560 0 560 178 3 177 2 -2 403 -3 402 -178 3 -177 2 2 563
3 562 83 3 c64 2 82 6 82 17 0 13 -30 15 -185 15 -158 0 -185 -2 -185 -15z
m510 -1365 l0 -170 -325 0 -324 0 -3 166 c-2 91 0 168 4 172 4 4 151 6 327 4
l321 -3 0 -169z m-2 -382 c-2 -90 -6 -162 -10 -160 -5 1 -150 2 -323 2 l-315
0 0 160 0 160 325 0 325 0 -2 -162z"/>
<path d="M172 4559 c6 -17 218 -19 218 -2 0 10 -26 13 -111 13 -75 0 -109 -4
-107 -11z"/>
<path d="M172 4478 c3 -9 37 -14 111 -16 91 -2 107 0 107 13 0 13 -18 15 -111
15 -84 0 -110 -3 -107 -12z"/>
<path d="M873 4453 c-7 -2 -13 -11 -13 -18 0 -11 6 -11 29 -2 25 9 33 8 50 -8
12 -10 21 -22 21 -28 0 -5 -22 -35 -50 -67 -27 -32 -50 -63 -50 -69 0 -7 23
-11 60 -11 33 0 60 4 60 10 0 6 -12 10 -27 10 -52 0 -55 13 -13 55 44 45 53
91 22 118 -18 16 -63 21 -89 10z"/>
<path d="M1144 4446 c-3 -8 -4 -27 -2 -42 3 -24 8 -29 36 -30 40 -2 62 -19 62
-50 0 -30 -41 -58 -75 -51 -16 3 -24 0 -22 -7 2 -6 19 -12 38 -14 42 -4 89 34
89 71 0 31 -46 77 -76 77 -17 0 -24 6 -24 20 0 17 7 20 40 20 22 0 40 5 40 10
0 16 -100 12 -106 -4z"/>
<path d="M263 4412 c-23 -2 -30 -7 -26 -18 3 -10 21 -14 57 -14 54 0 76 -12
76 -42 0 -19 -20 -26 -88 -30 -23 -2 -41 -7 -40 -13 4 -14 124 -13 139 2 11
11 15 100 5 110 -6 6 -86 9 -123 5z"/>
<path d="M1056 4283 c-11 -11 -6 -23 9 -23 8 0 15 4 15 9 0 13 -16 22 -24 14z"/>
<path d="M192 4193 l3 -58 98 -3 c89 -2 98 -1 95 14 -2 13 -14 18 -48 18 -45
1 -45 1 -48 39 -2 20 -7 37 -12 37 -5 0 -10 -17 -12 -37 -3 -33 -6 -38 -28
-38 -22 0 -25 5 -28 43 -5 65 -23 51 -20 -15z"/>
<path d="M4320 4190 c0 -19 6 -20 90 -20 l90 0 0 -565 0 -565 -175 0 -175 0 2
-402 3 -403 173 -3 172 -2 -2 -563 -3 -562 -87 -3 c-69 -2 -88 -6 -88 -17 0
-13 30 -15 190 -15 160 0 190 2 190 15 0 11 -18 15 -77 17 l-78 3 -3 563 -2
562 165 0 165 0 0 405 0 405 -165 0 -165 0 0 565 0 564 83 3 c65 2 82 6 82 18
0 13 -29 15 -192 18 -188 2 -193 2 -193 -18z m508 -1352 c2 -157 2 -158 -20
-163 -13 -3 -156 -4 -318 -3 l-295 3 -3 150 c-1 82 0 155 2 162 4 11 68 13
318 11 l313 -3 3 -157z m2 -388 l0 -170 -320 0 -320 0 0 163 c0 90 3 167 7
170 3 4 147 7 320 7 l313 0 0 -170z"/>
<path d="M230 3981 c0 -11 -9 -23 -20 -26 -11 -3 -20 -10 -20 -14 0 -15 51
-32 67 -22 9 4 24 6 33 4 9 -3 35 0 57 6 31 9 42 17 47 37 4 15 5 29 2 31 -8
8 -26 -7 -26 -23 0 -14 -15 -17 -75 -16 -45 0 -45 0 -45 22 0 11 -4 20 -10 20
-5 0 -10 -9 -10 -19z"/>
<path d="M8790 3880 c-7 -16 -18 -35 -26 -41 -25 -20 -12 -68 34 -127 17 -23
52 -23 52 0 0 5 10 23 21 40 29 39 27 66 -6 116 -33 50 -58 54 -75 12z"/>
<path d="M252 3854 c-16 -11 -22 -25 -22 -55 0 -21 5 -39 10 -39 6 0 10 15 10
34 0 22 6 36 16 40 23 9 24 8 24 -24 0 -54 60 -91 90 -55 12 14 13 29 9 88 -1
26 -3 27 -58 27 -35 0 -65 -6 -79 -16z m106 -26 c7 -7 12 -22 12 -35 0 -30
-35 -31 -50 -2 -21 38 9 66 38 37z"/>
<path d="M3460 3815 c0 -11 18 -15 83 -17 l82 -3 0 -565 0 -565 -155 -3 c-85
-1 -161 -5 -167 -7 -10 -3 -13 -94 -13 -409 l0 -406 168 -2 167 -3 3 -562 2
-562 -82 -3 c-66 -2 -83 -6 -83 -18 0 -13 29 -15 193 -18 181 -2 193 -1 190
15 -3 15 -17 19 -93 23 l-90 5 0 560 0 560 178 3 177 2 0 409 0 409 -22 5
c-13 3 -90 6 -173 6 -82 1 -153 5 -158 10 -4 4 -6 257 -5 562 l3 554 93 3 c73
2 92 6 92 17 0 13 -31 15 -195 15 -164 0 -195 -2 -195 -15z m518 -1367 l2
-168 -320 0 -320 0 0 170 0 170 318 -2 317 -3 3 -167z m-6 -383 c4 -88 5 -166
3 -172 -3 -10 -76 -13 -320 -13 l-315 0 0 168 c0 93 3 172 7 175 4 4 144 6
312 5 l306 -3 7 -160z"/>
<path d="M252 3591 c-30 -25 -28 -68 4 -97 42 -40 115 -27 131 23 11 36 5 83
-10 83 -8 0 -11 -13 -9 -38 4 -42 -16 -69 -43 -58 -11 4 -15 20 -15 56 0 42
-3 50 -18 50 -11 0 -29 -8 -40 -19z m38 -51 c0 -41 -7 -49 -28 -28 -15 15 -15
41 0 56 21 21 28 13 28 -28z"/>
<path d="M8797 3503 c-3 -10 -16 -35 -29 -56 l-23 -38 30 -55 c22 -41 35 -54
52 -54 13 0 23 5 23 11 0 6 10 24 21 41 28 39 27 68 -5 122 -28 48 -59 61 -69
29z"/>
<path d="M901 3481 c-41 -41 -35 -140 11 -174 23 -17 31 -18 55 -8 62 26 72
133 17 188 -19 19 -61 16 -83 -6z m73 -23 c18 -25 21 -74 6 -112 -13 -35 -53
-35 -68 -1 -25 53 -4 135 33 135 8 0 21 -10 29 -22z"/>
<path d="M1151 3474 c-37 -47 -21 -160 24 -178 30 -11 46 -6 70 20 21 22 25
37 25 84 0 46 -4 60 -23 78 -32 30 -71 28 -96 -4z m84 -28 c33 -60 -6 -149
-52 -120 -24 15 -34 62 -23 106 16 58 48 64 75 14z"/>
<path d="M376 3405 c-12 -49 -21 -60 -55 -63 -39 -4 -71 21 -71 55 0 12 -4 23
-10 23 -5 0 -10 -15 -10 -34 0 -65 79 -98 132 -56 30 23 37 45 28 80 l-7 25
-7 -30z"/>
<path d="M1050 3315 c0 -8 7 -15 15 -15 8 0 15 7 15 15 0 8 -7 15 -15 15 -8 0
-15 -7 -15 -15z"/>
<path d="M247 3252 c-12 -13 -16 -32 -14 -63 l3 -44 77 -3 c64 -2 77 0 77 13
0 12 -12 15 -59 15 -61 0 -89 16 -78 44 7 18 77 38 112 32 17 -3 25 0 25 10 0
23 -122 20 -143 -4z"/>
<path d="M247 3072 c-35 -38 -13 -100 41 -117 61 -18 118 32 106 94 -9 45 -30
40 -26 -7 4 -42 -16 -69 -43 -58 -11 4 -15 20 -15 56 0 46 -2 50 -23 50 -13 0
-31 -8 -40 -18z m43 -52 c0 -42 -9 -50 -30 -25 -15 19 -5 65 15 65 11 0 15
-11 15 -40z"/>
<path d="M230 2922 c0 -10 5 -23 12 -30 9 -9 9 -12 -1 -12 -7 0 -11 -7 -9 -16
2 -14 17 -17 81 -18 55 -1 77 2 77 12 0 7 -15 12 -39 12 -55 0 -90 15 -101 45
-11 29 -20 32 -20 7z"/>
<path d="M250 2778 c-56 -60 9 -135 97 -112 28 8 53 61 46 97 -8 40 -23 33
-23 -12 0 -41 -20 -67 -45 -57 -11 4 -15 20 -15 56 0 43 -3 50 -20 50 -10 0
-28 -10 -40 -22z m40 -48 c0 -42 -9 -50 -30 -25 -15 19 -5 65 15 65 11 0 15
-11 15 -40z"/>
<path d="M170 2615 c0 -17 9 -29 30 -40 23 -12 30 -22 30 -45 0 -23 -4 -30
-20 -30 -13 0 -20 7 -20 20 0 11 -5 20 -11 20 -20 0 -4 -54 20 -66 13 -7 28
-18 33 -26 7 -10 11 -10 15 0 3 8 28 12 74 12 52 0 69 3 69 14 0 17 -31 26
-91 26 -37 0 -48 4 -52 19 -10 38 10 51 78 51 51 0 65 3 65 15 0 12 -14 15
-65 15 -50 0 -66 4 -74 18 -9 16 -11 16 -24 -2 -15 -20 -37 -14 -37 10 0 8 -4
14 -10 14 -5 0 -10 -11 -10 -25z"/>
<path d="M860 2507 c0 -9 10 -12 30 -9 34 5 60 -12 60 -39 0 -11 -23 -41 -51
-68 -66 -64 -62 -83 16 -79 67 4 77 21 17 28 l-44 5 32 30 c31 30 60 75 60 94
0 6 -10 19 -22 31 -25 23 -98 29 -98 7z"/>
<path d="M1137 2513 c-4 -3 -7 -21 -7 -40 0 -31 2 -33 33 -33 38 0 67 -25 67
-57 0 -30 -25 -46 -65 -41 -41 5 -49 -16 -10 -26 36 -9 93 18 101 48 9 38 -16
79 -56 92 -47 15 -46 38 3 42 20 2 37 7 37 13 0 10 -93 13 -103 2z"/>
<path d="M645 2411 c-8 -13 17 -16 96 -13 38 2 69 8 69 13 0 12 -157 12 -165
0z"/>
<path d="M235 2401 c-16 -15 5 -21 82 -21 52 0 83 4 77 9 -9 9 -152 20 -159
12z"/>
<path d="M170 2390 c0 -5 5 -10 11 -10 5 0 7 5 4 10 -3 6 -8 10 -11 10 -2 0
-4 -4 -4 -10z"/>
<path d="M1040 2335 c0 -8 7 -15 15 -15 8 0 15 7 15 15 0 8 -7 15 -15 15 -8 0
-15 -7 -15 -15z"/>
<path d="M232 2323 c-22 -9 -42 -61 -42 -113 l0 -50 100 0 c114 0 116 2 106
74 -10 66 -43 96 -103 95 -26 0 -54 -3 -61 -6z m116 -39 c16 -11 22 -25 22
-55 l0 -39 -80 0 -80 0 0 33 c0 47 31 77 78 77 21 0 48 -7 60 -16z"/>
<path d="M2612 2253 c4 -20 3 -20 93 -22 l65 -1 0 -125 0 -125 -172 -2 -173
-3 0 -255 0 -255 173 -3 172 -2 0 -180 0 -180 -80 0 c-65 0 -80 -3 -80 -15 0
-13 25 -15 183 -13 115 2 181 7 180 13 -2 6 -38 12 -80 15 l-78 5 -3 178 -2
177 175 0 175 0 0 260 0 260 -175 0 -175 0 0 125 0 124 83 3 c65 2 82 6 82 18
0 13 -28 15 -183 18 -171 2 -183 1 -180 -15z m508 -345 l0 -28 -328 0 c-306 0
-329 1 -329 18 -1 9 0 22 2 27 1 6 119 10 329 10 l326 0 0 -27z m0 -238 l0
-160 -320 0 c-176 0 -323 0 -327 0 -9 0 -15 299 -7 312 3 4 151 8 330 8 l324
0 0 -160z"/>
<path d="M177 2003 c-19 -18 2 -23 103 -23 91 0 110 3 110 15 0 12 -18 15
-103 15 -57 0 -107 -3 -110 -7z"/>
<path d="M275 1923 c-11 -3 -25 -13 -32 -22 -15 -19 -17 -81 -3 -81 6 0 10 13
10 28 0 27 15 52 32 52 4 0 8 -12 8 -28 0 -38 26 -72 55 -72 25 0 58 37 48 53
-3 6 -6 25 -5 44 l1 33 -47 -1 c-26 -1 -56 -4 -67 -6z m83 -35 c17 -17 15 -58
-2 -58 -29 0 -46 13 -46 34 0 36 24 48 48 24z"/>
<path d="M257 1740 c-55 -43 -22 -120 52 -120 51 0 84 27 84 67 0 40 -21 61
-70 69 -30 4 -44 1 -66 -16z m103 -25 c7 -8 10 -25 6 -40 -6 -22 -12 -25 -49
-25 -59 0 -88 35 -55 68 17 17 83 15 98 -3z"/>
<path d="M274 1555 c-3 -14 -3 -33 2 -42 7 -16 8 -15 12 5 4 28 23 36 57 28
21 -5 25 -12 25 -45 0 -31 -6 -44 -26 -60 -32 -25 -55 -26 -94 -6 -33 17 -45
50 -36 95 3 17 2 30 -3 30 -13 0 -21 -27 -21 -69 0 -43 38 -90 74 -93 88 -6
126 25 126 100 -1 63 -17 82 -68 82 -36 0 -42 -3 -48 -25z"/>
<path d="M859 1536 c-3 -3 -3 -22 -1 -43 4 -37 5 -39 37 -35 27 3 36 -1 50
-22 16 -24 16 -28 1 -51 -12 -19 -25 -25 -51 -25 -19 0 -35 -4 -35 -10 0 -16
73 -12 98 6 15 11 22 25 22 50 0 39 -25 66 -68 74 -40 8 -35 34 8 38 60 6 59
22 -1 22 -31 0 -58 -2 -60 -4z"/>
<path d="M1144 1519 c-14 -16 -19 -36 -19 -79 0 -74 22 -102 74 -98 30 3 39 9
54 41 22 43 16 103 -12 136 -24 28 -72 27 -97 0z m77 -15 c16 -20 16 -109 -1
-129 -17 -21 -47 -19 -60 4 -14 27 -13 97 2 121 15 24 41 26 59 4z"/>
<path d="M640 1430 c0 -6 35 -10 85 -10 50 0 85 4 85 10 0 6 -35 10 -85 10
-50 0 -85 -4 -85 -10z"/>
<path d="M1040 1355 c0 -8 7 -15 15 -15 8 0 15 7 15 15 0 8 -7 15 -15 15 -8 0
-15 -7 -15 -15z"/>
<path d="M5363 1163 c-3 -10 -15 -30 -25 -45 -23 -33 -23 -57 2 -88 11 -14 20
-30 20 -36 0 -15 24 -24 36 -16 17 12 54 78 54 97 0 9 -8 29 -18 43 -10 15
-22 35 -25 45 -4 9 -13 17 -22 17 -9 0 -18 -8 -22 -17z"/>
<path d="M4513 778 c-6 -7 -20 -32 -33 -55 -21 -39 -22 -45 -10 -70 25 -48 51
-83 63 -83 16 1 67 86 67 111 0 22 -56 109 -69 109 -5 0 -13 -6 -18 -12z"/>
<path d="M897 583 c-56 -5 -54 -23 4 -23 52 0 52 -4 -2 -127 -23 -52 -23 -55
-2 -51 16 3 74 140 77 183 1 21 -7 23 -77 18z"/>
<path d="M1173 582 c-43 -3 -43 -3 -43 -43 0 -37 1 -39 33 -39 42 -1 67 -21
67 -53 0 -32 -30 -51 -71 -45 -20 3 -29 0 -29 -9 0 -18 79 -17 105 3 14 11 19
26 19 56 -2 43 -16 58 -64 68 -14 3 -26 13 -28 23 -3 13 4 17 30 17 40 0 70
15 41 21 -10 2 -37 3 -60 1z"/>
<path d="M640 470 c0 -6 35 -10 85 -10 50 0 85 4 85 10 0 6 -35 10 -85 10 -50
0 -85 -4 -85 -10z"/>
<path d="M1046 413 c-12 -12 -6 -33 9 -33 8 0 15 6 15 14 0 17 -14 28 -24 19z"/>
</g>
</svg>
