<?xml version="1.0" standalone="no"?>
<!DOCTYPE svg PUBLIC "-//W3C//DTD SVG 20010904//EN"
 "http://www.w3.org/TR/2001/REC-SVG-20010904/DTD/svg10.dtd">
<svg version="1.0" xmlns="http://www.w3.org/2000/svg"
 width="1200.000000pt" height="700.000000pt" viewBox="0 0 1200.000000 700.000000"
 preserveAspectRatio="xMidYMid meet">

<g transform="translate(0.000000,700.000000) scale(0.100000,-0.100000)"
fill="#000000" stroke="none">
<path d="M3953 6953 c3 -26 10 -70 17 -98 21 -93 30 -150 46 -275 8 -69 20
-135 26 -147 6 -12 12 -60 14 -105 1 -46 5 -124 9 -174 6 -80 4 -96 -14 -131
-18 -36 -25 -41 -67 -48 -39 -5 -54 -15 -90 -53 -73 -79 -80 -86 -105 -104
-30 -23 -41 -23 -57 2 -11 18 -19 20 -61 14 -35 -4 -56 -2 -79 10 -21 11 -57
16 -110 16 -47 0 -83 5 -90 12 -7 7 -12 30 -12 53 0 23 -7 50 -15 61 -26 35
-19 66 27 107 42 36 42 38 23 52 -75 56 -106 90 -111 124 -4 20 -18 61 -33 91
-23 48 -31 55 -58 58 -17 2 -45 -4 -62 -12 -43 -23 -98 -21 -106 3 -8 27 -59
37 -87 17 -32 -23 -69 -21 -75 4 -3 11 -9 20 -14 20 -14 0 -11 -17 6 -34 8 -8
15 -22 15 -32 0 -14 -7 -16 -48 -11 -70 8 -76 1 -68 -77 7 -70 4 -74 -38 -55
-35 16 -59 -4 -51 -42 5 -22 2 -30 -15 -39 -12 -6 -28 -27 -36 -45 -17 -41
-59 -75 -93 -75 -14 0 -41 -9 -59 -20 -18 -11 -53 -23 -78 -27 -26 -3 -54 -15
-70 -29 -14 -13 -27 -24 -30 -24 -15 0 -64 43 -64 56 0 8 -15 21 -34 29 -19 8
-37 19 -41 25 -11 17 -22 11 -35 -20 -7 -16 -16 -30 -19 -30 -4 0 -34 -21 -67
-46 -32 -26 -72 -55 -89 -65 -25 -16 -31 -27 -35 -66 -6 -54 -9 -55 -89 -31
-41 12 -44 12 -63 -12 -19 -24 -25 -25 -127 -25 -102 0 -108 -1 -162 -33 -49
-28 -58 -30 -69 -18 -30 37 -122 87 -177 97 -67 13 -107 31 -145 67 -35 32
-36 65 -3 104 30 35 30 39 7 65 -25 30 -76 53 -116 53 -30 0 -36 5 -55 43 -32
65 -63 79 -152 67 -41 -5 -77 -10 -81 -10 -4 0 -30 -20 -58 -45 -47 -42 -55
-45 -105 -45 -30 0 -76 9 -103 19 -49 19 -74 23 -197 25 -49 1 -66 -3 -89 -21
-37 -30 -67 -29 -105 3 l-31 26 0 -1545 0 -1546 70 4 c40 3 80 11 94 20 21 14
25 14 39 0 9 -8 26 -15 38 -15 12 0 19 -3 16 -7 -4 -3 -2 -12 4 -19 13 -16
-48 -26 -166 -29 -44 -1 -83 -3 -87 -4 -5 0 -8 -30 -8 -66 l0 -65 45 0 c37 0
43 -3 38 -16 -4 -12 -2 -15 8 -12 8 3 24 2 35 -3 12 -4 25 -5 28 -2 8 9 168 3
184 -6 14 -8 74 8 89 23 12 12 -28 36 -61 36 -56 0 -16 13 66 21 101 10 147
23 176 49 23 22 32 25 32 11 0 -5 -9 -13 -20 -16 -11 -4 -20 -15 -20 -27 0
-15 -5 -18 -16 -14 -14 5 -15 4 -4 -9 15 -19 75 -21 63 -2 -18 30 -13 47 15
47 16 0 32 8 40 20 7 12 23 20 40 20 l27 -1 -22 -18 c-22 -19 -21 -31 4 -31 7
0 13 7 13 15 0 8 5 15 10 15 16 0 12 15 -13 43 -17 20 -33 27 -62 28 -32 1
-27 3 25 11 36 5 69 13 74 19 15 14 26 11 20 -6 -8 -19 19 -20 34 -2 12 14 82
11 82 -4 0 -5 -3 -9 -7 -10 -5 0 -37 -2 -72 -5 -72 -5 -79 -8 -62 -28 10 -11
9 -21 -3 -45 -21 -39 -21 -38 16 -57 l33 -17 -25 -10 c-36 -13 -92 -18 -85 -7
4 6 14 10 23 10 20 0 5 15 -24 24 -12 4 -28 -1 -40 -11 -11 -10 -26 -19 -34
-21 -8 -2 -21 -7 -30 -12 -9 -6 28 -10 103 -10 87 0 117 3 118 13 0 6 5 0 11
-15 11 -32 21 -34 62 -13 16 9 38 15 50 14 44 -4 66 1 66 16 0 17 -16 20 -25
5 -7 -11 -57 -5 -87 11 -11 6 -22 8 -26 5 -3 -3 1 -6 8 -6 7 0 11 -3 7 -6 -3
-3 -21 5 -41 18 -33 23 -34 25 -18 42 16 16 16 17 -11 11 -21 -6 -27 -4 -27 9
0 20 15 27 64 29 20 1 36 7 36 13 0 7 18 21 41 32 36 18 39 21 22 31 -15 9
-11 11 22 9 22 -2 42 -6 45 -9 3 -3 16 -13 30 -23 l25 -18 -33 4 c-36 5 -131
-15 -116 -24 5 -4 29 -3 53 2 46 8 81 -3 81 -27 0 -15 -19 -27 -28 -18 -3 3
-1 10 7 14 10 6 8 9 -6 13 -28 6 -47 -1 -61 -22 -11 -17 -10 -20 7 -20 20 0
35 -13 25 -23 -3 -3 -19 -1 -35 3 -16 5 -29 5 -29 0 0 -15 70 -24 83 -11 6 6
23 11 38 11 30 0 47 15 27 23 -10 3 -10 7 -1 17 6 7 9 18 6 26 -3 9 8 14 39
17 l43 4 -47 1 c-35 2 -48 6 -48 17 0 10 10 15 29 15 17 0 33 5 36 11 5 7 13
5 25 -6 17 -15 18 -15 16 2 0 10 -12 21 -26 25 -14 4 15 5 63 3 55 -2 96 0
107 7 10 6 26 8 36 3 11 -4 48 -6 83 -5 38 1 61 -2 57 -8 -7 -11 26 -22 66
-22 38 0 44 18 11 32 l-28 12 27 4 c33 4 77 -16 58 -28 -15 -9 37 -20 59 -12
12 4 11 7 -5 13 -13 5 -6 8 24 8 28 1 45 6 48 16 4 8 13 15 21 15 8 0 11 -5 8
-10 -3 -5 -2 -10 4 -10 5 0 17 -3 27 -7 13 -5 16 -3 11 10 -3 9 -3 17 1 17 20
0 154 -29 160 -34 12 -13 -25 -36 -68 -41 -42 -5 -82 -25 -51 -25 11 0 11 -3
1 -15 -12 -15 -55 -15 -78 -1 -12 7 -16 1 -13 -18 1 -4 -16 -6 -39 -4 -22 2
-40 1 -40 -3 0 -3 -21 -12 -47 -19 -27 -6 -57 -16 -68 -21 -29 -13 -148 -49
-162 -49 -7 0 -13 10 -13 21 0 20 -4 21 -47 15 -43 -6 -97 -36 -65 -36 7 0 12
-5 12 -11 0 -7 -11 -8 -30 -4 -17 4 -30 2 -30 -3 0 -11 29 -37 50 -45 8 -3
-10 -4 -40 -2 -30 2 -59 0 -65 -5 -7 -6 -26 -5 -49 1 -20 6 -47 7 -59 4 -16
-5 -18 -4 -8 3 11 8 9 11 -8 17 -23 7 -45 -4 -23 -12 6 -3 12 -9 12 -15 0 -7
-15 -9 -40 -5 -22 3 -43 1 -46 -4 -5 -9 16 -13 44 -10 6 1 12 -3 12 -9 0 -5
-7 -10 -15 -10 -8 0 -15 -4 -15 -9 0 -14 -63 -23 -71 -10 -7 12 -35 13 -91 3
-38 -6 -49 -18 -25 -27 6 -3 0 -6 -14 -6 -14 -1 -29 -4 -33 -8 -3 -4 -21 -12
-39 -18 -35 -12 -117 -1 -117 16 0 5 -7 9 -15 9 -9 0 -12 -6 -9 -15 4 -9 0
-15 -10 -15 -10 0 -13 6 -10 15 7 18 -7 20 -24 3 -9 -9 -15 -9 -24 0 -15 15
-90 16 -105 1 -5 -5 -29 -12 -53 -14 l-43 -4 21 20 c12 10 30 19 42 19 26 0
27 40 1 64 -18 17 -19 17 -25 -2 -6 -19 -17 -22 -68 -24 -17 -1 -28 -6 -28
-15 0 -9 7 -12 25 -7 26 6 31 -1 16 -25 -5 -7 -13 -11 -18 -8 -5 3 -27 0 -49
-8 -58 -21 -68 -18 -39 13 l26 27 -43 9 c-30 7 -43 6 -46 -2 -2 -7 -19 -12
-38 -12 -28 0 -35 4 -40 25 -3 14 -13 25 -21 25 -23 0 -4 20 20 21 14 1 10 4
-13 10 -19 4 -43 6 -52 3 -17 -5 -18 -82 -18 -1425 l0 -1419 6000 0 6000 0 0
334 c0 325 -1 334 -20 339 -11 3 -20 12 -20 21 0 9 8 16 20 16 20 0 20 7 20
1073 0 821 -3 1076 -12 1085 -9 9 -9 12 0 12 7 0 12 14 12 31 0 25 -3 29 -13
21 -16 -14 -32 -3 -33 24 0 16 5 20 23 16 l23 -4 0 381 0 382 -132 -3 -133 -3
-3 24 c-2 13 2 28 10 32 18 12 111 11 144 -1 22 -9 29 -8 36 5 6 9 23 15 43
15 32 0 35 2 35 30 l0 30 -142 1 c-301 2 -587 8 -688 14 -58 3 -137 1 -178 -4
-101 -15 -372 -23 -372 -12 0 5 -12 4 -27 -4 -17 -8 -86 -15 -180 -18 l-151
-6 -16 24 c-9 13 -16 38 -16 55 0 29 2 30 43 31 69 1 92 17 25 18 -37 1 -62 6
-72 16 -19 20 -36 79 -36 129 0 21 -6 44 -13 50 -18 15 -51 150 -43 179 5 23
11 25 98 30 51 3 94 4 96 2 5 -4 -20 -45 -39 -65 -37 -39 -80 -110 -66 -110
14 0 147 145 147 161 0 5 9 9 20 9 11 0 20 -4 20 -9 0 -5 15 -16 33 -25 17 -8
51 -34 75 -56 47 -44 52 -46 52 -26 0 7 -25 37 -56 65 -31 29 -54 54 -53 55 2
2 43 6 90 10 96 8 118 -2 113 -46 -1 -12 -3 -51 -3 -86 -1 -48 -5 -64 -17 -69
-9 -3 -20 0 -25 8 -12 19 -1 -49 13 -77 8 -16 6 -36 -7 -75 -10 -30 -21 -58
-26 -63 -5 -6 -2 -17 8 -28 21 -23 33 -23 33 2 0 11 12 45 26 77 15 32 28 67
30 78 2 18 15 58 34 110 5 11 19 56 32 100 l24 80 35 -3 c19 -2 51 -17 71 -33
37 -29 63 -24 36 8 -12 15 -8 16 42 10 30 -4 67 -7 81 -7 18 0 28 -6 32 -20 6
-23 42 -27 50 -6 4 11 16 11 69 0 34 -7 79 -17 98 -24 19 -6 76 -21 125 -34
124 -32 158 -48 175 -82 8 -16 23 -40 34 -54 l19 -25 -6 47 c-5 32 -3 47 6 50
7 2 57 3 112 1 77 -2 115 2 168 18 l67 20 0 204 c0 134 -4 205 -10 205 -6 0
-14 8 -17 18 -11 27 -63 102 -72 102 -4 0 -28 19 -52 42 -45 43 -279 229 -359
285 -54 38 -228 108 -485 194 -185 63 -188 64 -138 67 36 2 64 -3 90 -16 21
-10 65 -27 98 -37 33 -10 69 -24 80 -31 11 -6 35 -15 53 -19 29 -6 71 -22 112
-44 9 -5 31 -12 50 -16 19 -4 40 -11 45 -15 6 -4 33 -15 60 -23 37 -11 98 -51
223 -146 95 -72 178 -131 183 -131 6 0 37 -20 69 -45 32 -25 61 -45 64 -45 3
0 6 250 6 555 l0 555 -22 0 c-12 0 -39 -12 -60 -26 -35 -25 -38 -30 -32 -61 4
-22 1 -41 -10 -58 -9 -13 -15 -34 -13 -47 2 -21 -3 -23 -47 -26 -27 -2 -60 -1
-73 3 -20 5 -21 8 -10 26 10 18 9 23 -10 36 -18 12 -23 25 -23 62 0 49 -21 91
-46 91 -30 0 -27 31 7 66 33 34 33 36 15 49 -10 8 -24 16 -30 18 -8 3 -7 12 2
31 15 34 9 46 -27 46 -37 0 -49 -16 -49 -68 -1 -49 -10 -82 -22 -82 -9 0 -6
327 6 531 l6 106 -29 6 c-44 10 -54 21 -58 63 -2 22 -11 53 -19 69 -9 17 -16
55 -16 86 0 91 -11 98 -152 101 -81 1 -121 -2 -131 -10 -21 -18 -47 -75 -47
-104 0 -12 -16 -43 -35 -67 -32 -40 -35 -49 -30 -86 5 -31 2 -50 -13 -76 -11
-18 -23 -56 -27 -84 -8 -54 -31 -107 -68 -151 -13 -16 -26 -37 -30 -46 -8 -22
-65 -58 -93 -58 -19 0 -20 -5 -16 -54 4 -51 3 -54 -24 -68 -25 -12 -29 -19
-26 -51 3 -35 1 -38 -28 -43 -17 -4 -33 -10 -36 -15 -5 -9 21 -65 43 -91 8 -9
18 -31 23 -50 5 -18 14 -48 22 -66 12 -31 11 -35 -7 -49 -14 -10 -33 -13 -62
-9 -46 6 -59 -4 -55 -41 5 -32 -55 -103 -85 -103 -12 0 -28 9 -35 19 -13 21
-25 14 -47 -27 -8 -15 -25 -24 -52 -28 -21 -4 -42 -11 -45 -15 -10 -16 -43 -9
-54 10 -5 11 -26 26 -46 33 -30 11 -35 16 -31 37 11 54 -12 75 -105 95 -20 5
-25 10 -21 26 7 25 -11 32 -80 34 l-52 1 -5 50 -5 50 -110 1 c-114 1 -197 -18
-225 -51 -16 -20 -77 -30 -103 -17 -12 5 -35 35 -51 65 -20 39 -39 61 -61 72
-44 20 -54 19 -95 -8 -53 -35 -66 -38 -93 -16 -14 10 -31 19 -39 19 -7 1 -30
7 -51 14 -33 12 -40 12 -61 -5 -14 -11 -30 -35 -36 -54 -14 -41 -35 -55 -84
-55 -32 0 -36 -3 -36 -25 0 -15 7 -40 16 -56 15 -29 14 -34 -13 -95 -20 -46
-33 -64 -46 -64 -33 0 -148 62 -170 92 -27 36 -69 44 -155 28 -73 -13 -92 -27
-85 -64 6 -30 -13 -41 -90 -50 -72 -9 -186 -65 -224 -110 -50 -60 -68 -91 -65
-109 2 -10 -3 -29 -12 -42 -17 -26 -164 -105 -195 -105 -11 0 -32 11 -47 24
-26 22 -27 25 -15 54 17 41 12 52 -29 66 -30 10 -35 16 -43 56 -5 28 -4 71 3
113 16 91 9 115 -28 109 -37 -5 -90 22 -104 53 -15 34 -34 31 -53 -6 -13 -24
-14 -33 -4 -45 15 -18 -3 -64 -25 -64 -22 0 -39 28 -32 55 5 20 2 25 -16 29
-229 44 -304 34 -330 -46 -15 -43 -15 -43 -82 -55 -92 -17 -137 -3 -147 47 -8
39 -40 70 -73 70 -11 0 -32 12 -45 25 -13 14 -27 25 -32 25 -5 0 0 9 10 19 12
12 21 40 26 82 3 35 13 106 22 158 8 51 13 102 10 112 -3 11 -1 34 4 52 6 18
16 93 23 168 9 88 19 145 30 160 10 17 19 68 26 159 10 136 21 227 34 288 l8
32 -119 0 -118 0 -13 -65 c-6 -35 -12 -89 -12 -119 0 -88 -10 -104 -67 -108
-46 -3 -48 -4 -48 -33 0 -25 7 -34 42 -53 49 -27 60 -54 43 -106 -6 -20 -13
-66 -15 -103 -12 -208 -17 -270 -25 -288 -11 -23 -31 -152 -34 -205 -1 -32 -4
-35 -33 -38 -17 -2 -45 4 -61 12 -23 12 -72 15 -253 14 -239 -1 -320 5 -356
29 -23 15 -23 15 -23 -36 0 -28 2 -51 5 -51 3 0 17 7 30 16 21 14 45 15 157 9
73 -3 158 -6 188 -6 47 0 186 -18 272 -35 14 -3 38 -16 52 -29 l25 -23 -19
-40 c-19 -39 -20 -40 -82 -44 -83 -6 -165 -39 -221 -88 -26 -23 -55 -40 -69
-40 -21 0 -25 7 -37 63 -22 109 -22 109 -89 101 -53 -6 -61 -4 -90 21 -21 17
-49 29 -76 32 -39 5 -44 3 -49 -18 -4 -13 -7 -260 -7 -548 0 -288 -3 -522 -6
-518 -3 3 -6 189 -6 414 0 224 -3 503 -6 618 l-7 210 -120 3 c-169 4 -169 4
-285 2 -79 -1 -113 -6 -140 -20 -33 -17 -52 -17 -265 -8 -127 5 -269 16 -316
24 -48 8 -99 14 -114 14 -18 0 -37 11 -58 35 -35 40 -66 45 -104 15 -28 -21
-124 -28 -152 -11 -10 7 -17 38 -21 103 -4 64 -12 101 -24 120 -14 22 -18 58
-23 211 -7 205 -9 197 62 207 l40 5 0 55 0 55 -32 -2 c-18 -2 -43 1 -57 7 -23
8 -26 15 -26 57 -1 27 -6 77 -13 113 l-12 65 -129 3 -128 3 5 -48z m-1223
-903 c0 -5 -2 -10 -4 -10 -3 0 -8 5 -11 10 -3 6 -1 10 4 10 6 0 11 -4 11 -10z
m8843 -142 c2 -7 -1 -22 -6 -33 -6 -11 -13 -99 -15 -200 -3 -113 -8 -172 -13
-158 -6 17 -6 262 1 396 0 12 28 8 33 -5z m-6047 -44 c44 -32 51 -50 30 -73
-19 -21 -18 -40 5 -100 12 -29 12 -35 0 -39 -7 -2 -21 -14 -30 -25 -9 -11 -29
-35 -46 -52 -16 -18 -35 -40 -41 -50 -7 -14 -26 -20 -72 -23 -64 -5 -87 -19
-94 -58 -1 -11 3 -28 10 -37 18 -21 7 -97 -14 -97 -8 0 -42 13 -77 28 -96 44
-165 136 -154 206 5 37 -7 73 -35 103 -17 18 -20 30 -15 67 7 46 -1 56 -44 56
-23 0 -25 15 -4 24 24 9 18 21 -17 37 -46 20 -43 42 7 51 22 3 158 5 302 5
247 -2 263 -3 289 -23z m-2966 6 c17 -11 16 -12 -37 -39 -41 -20 -48 -32 -44
-73 1 -10 -4 -18 -13 -18 -12 0 -16 10 -16 36 0 29 7 43 37 70 39 36 49 39 73
24z m1211 -149 c20 -16 21 -21 10 -35 -18 -22 -38 -20 -51 5 -12 22 -7 49 9
49 5 0 19 -8 32 -19z m-1451 -123 c0 -24 -4 -29 -21 -26 -12 2 -27 11 -33 20
-8 14 -6 20 9 32 27 19 45 9 45 -26z m8397 16 c-3 -3 -12 -4 -19 -1 -8 3 -5 6
6 6 11 1 17 -2 13 -5z m-368 -175 c64 -6 125 -15 136 -19 11 -5 27 -11 35 -14
8 -4 -14 -4 -49 -1 -35 3 -159 5 -275 6 -218 0 -246 10 -81 27 50 5 96 10 104
10 8 1 66 -3 130 -9z m-384 -29 c-3 -5 -15 -10 -26 -10 -10 0 -19 5 -19 10 0
6 12 10 26 10 14 0 23 -4 19 -10z m608 -7 c-7 -2 -19 -2 -25 0 -7 3 -2 5 12 5
14 0 19 -2 13 -5z m84 -9 c-3 -3 -12 -4 -19 -1 -8 3 -5 6 6 6 11 1 17 -2 13
-5z m-1027 -36 c-34 -10 -108 -33 -243 -78 -37 -12 -70 -20 -73 -17 -3 3 8 8
25 12 17 4 31 10 31 15 0 4 16 11 36 15 20 3 44 10 53 14 84 42 111 51 156 50
l50 -1 -35 -10z m-5387 -95 c-13 -2 -33 -2 -45 0 -13 2 -3 4 22 4 25 0 35 -2
23 -4z m5021 -27 c-17 -7 -41 -17 -54 -21 -22 -7 -22 -6 -9 8 16 16 41 24 74
25 14 1 11 -3 -11 -12z m-87 -32 c-3 -3 -12 -4 -19 -1 -8 3 -5 6 6 6 11 1 17
-2 13 -5z m-37 -9 c0 -2 -22 -14 -49 -27 -27 -12 -48 -25 -46 -29 3 -3 -6 -4
-18 -2 -29 5 -88 -42 -69 -55 9 -6 -10 -27 -70 -72 -88 -68 -171 -137 -248
-208 -46 -41 -110 -144 -110 -176 0 -9 -4 -16 -8 -16 -4 0 -14 -16 -21 -35 -7
-19 -27 -57 -46 -85 -22 -32 -29 -50 -20 -50 7 0 15 6 18 13 2 6 8 9 12 5 5
-5 1 -16 -8 -25 -11 -13 -13 -23 -6 -36 8 -14 6 -17 -16 -17 -16 0 -25 -6 -25
-15 0 -8 -4 -15 -10 -15 -5 0 -10 -9 -10 -20 0 -11 -6 -20 -14 -20 -15 0 -28
-68 -14 -76 19 -12 38 7 38 35 0 17 6 31 16 35 9 4 14 13 10 21 -3 10 1 15 14
15 10 0 20 8 22 18 3 9 8 -6 12 -35 4 -30 16 -59 27 -69 10 -9 16 -20 14 -25
-3 -4 4 -10 15 -14 11 -3 25 -15 30 -26 6 -10 17 -19 25 -19 8 0 15 -4 15 -10
0 -5 6 -10 14 -10 8 0 16 -3 18 -7 5 -14 100 -51 182 -73 78 -22 196 -26 258
-9 17 5 33 2 45 -7 16 -13 17 -15 2 -24 -17 -10 -15 -60 2 -60 11 0 29 35 29
58 0 28 37 56 115 84 100 36 157 48 197 42 20 -4 45 -1 57 5 16 9 26 9 43 0
18 -10 30 -7 72 14 28 15 70 31 93 37 26 7 44 18 48 30 7 22 67 45 97 37 11
-3 47 1 79 9 33 8 64 12 69 9 6 -4 21 -28 34 -53 13 -26 37 -72 54 -102 17
-30 42 -89 56 -130 14 -41 32 -95 41 -119 9 -24 12 -47 8 -51 -4 -5 -82 -5
-173 -1 -91 3 -271 3 -400 0 -129 -3 -381 -1 -559 4 -247 7 -333 6 -361 -3
-35 -11 -86 -10 -188 6 -24 3 -48 2 -55 -4 -6 -5 -49 -12 -95 -15 -67 -5 -84
-3 -89 9 -3 8 -18 14 -34 14 -24 0 -29 4 -29 25 0 17 -8 29 -25 37 -14 6 -25
17 -25 25 0 8 -9 33 -20 55 -11 23 -20 54 -20 68 0 14 -4 30 -9 35 -5 6 -11
28 -14 50 -21 150 -21 144 -1 151 33 10 47 20 58 39 6 11 16 24 21 31 35 41
45 55 45 62 0 4 17 30 38 57 20 28 43 62 51 78 8 15 28 42 43 60 16 17 37 48
46 67 23 49 63 90 130 136 31 21 91 63 132 94 41 30 93 68 115 82 22 15 51 38
65 50 55 51 108 87 136 94 16 4 34 11 40 15 21 17 104 44 104 34z m-3333 -247
c18 -15 16 -47 -3 -55 -8 -3 -25 -1 -37 4 -15 7 -30 7 -45 0 -17 -8 -33 -7
-58 2 -23 8 -39 9 -47 3 -14 -11 -156 -10 -174 1 -16 10 -17 29 -1 45 15 15
347 15 365 0z m633 2 c41 0 50 -3 55 -21 10 -31 -4 -39 -83 -44 -55 -3 -75 0
-87 11 -8 9 -15 18 -15 22 1 24 40 44 68 36 8 -2 35 -4 62 -4z m1265 -60 c0
-11 -14 -16 -55 -18 -58 -2 -87 8 -75 27 11 19 130 10 130 -9z m-3826 -36 c51
-9 102 -13 113 -11 11 3 70 -13 130 -35 111 -40 121 -41 208 -23 15 3 33 -1
45 -10 17 -14 18 -18 6 -37 -13 -20 -11 -25 25 -56 21 -19 50 -40 65 -47 51
-27 164 -150 209 -228 41 -70 47 -77 70 -72 14 3 41 8 60 11 19 3 44 10 55 14
11 5 67 18 125 30 58 11 132 34 165 50 86 42 144 57 277 71 l117 13 70 -37
c39 -20 75 -37 80 -37 10 0 157 -65 181 -81 8 -5 29 -16 46 -25 22 -11 30 -22
27 -34 -4 -15 7 -19 75 -29 83 -12 132 -7 209 24 38 15 200 59 283 77 25 5 59
13 76 19 46 14 86 11 113 -10 l23 -18 -29 -21 c-16 -11 -42 -24 -58 -28 -16
-4 -44 -17 -63 -30 -18 -13 -42 -26 -53 -29 -10 -4 -19 -14 -19 -23 0 -10 -9
-23 -20 -30 -35 -21 -15 -112 24 -112 8 0 19 -7 26 -15 7 -9 35 -25 62 -37 67
-29 64 -36 -20 -53 -18 -4 -38 -2 -45 4 -7 5 -62 20 -122 32 -61 12 -114 25
-119 30 -6 5 -26 9 -45 9 -20 0 -56 7 -81 14 l-45 15 45 0 c35 1 48 6 58 22
16 26 12 30 -57 53 -49 17 -77 18 -320 13 -146 -4 -300 -11 -341 -16 -41 -5
-176 -13 -300 -16 -180 -6 -228 -11 -242 -23 -15 -13 -41 -14 -173 -8 -99 4
-155 3 -155 -3 0 -5 -9 -13 -20 -16 -31 -10 -24 -23 18 -31 20 -4 42 -10 47
-14 6 -5 27 -11 48 -15 21 -4 41 -13 44 -20 7 -20 -23 -69 -62 -101 -20 -16
-52 -44 -71 -62 -41 -38 -52 -37 -77 5 l-18 31 30 13 c45 20 65 76 38 109 -16
20 -53 40 -72 40 -8 0 -22 16 -30 36 -19 46 -19 44 8 44 35 0 67 11 61 21 -3
5 -16 9 -30 9 -34 0 -30 14 12 46 l36 28 -24 18 c-28 22 -69 23 -108 3 -28
-15 -29 -14 -67 37 -77 103 -83 113 -81 128 3 22 -19 58 -40 64 -10 4 -38 -1
-62 -9 -31 -11 -47 -12 -54 -5 -8 8 -7 13 2 19 16 9 -10 23 -135 71 -84 32
-91 38 -72 57 8 8 8 17 0 31 -6 11 -10 31 -8 44 2 20 -3 23 -39 26 -51 4 -78
-20 -43 -38 l22 -12 -24 -22 c-21 -20 -35 -22 -130 -23 -63 0 -115 -5 -129
-13 -18 -9 -27 -9 -46 0 -38 21 -17 31 51 24 61 -6 63 -6 81 21 18 28 18 28
-14 56 -18 16 -42 29 -55 29 -36 0 -95 -46 -99 -77 -2 -22 -10 -29 -36 -34
-51 -10 -72 -1 -72 31 0 37 -26 57 -88 65 -45 6 -51 9 -40 22 30 36 132 75
283 106 49 11 220 6 304 -9z m647 -99 c7 -22 14 -41 14 -42 0 -1 -9 -7 -21
-13 -40 -22 -65 32 -38 81 15 28 29 20 45 -26z m-1296 -129 c0 -8 8 -16 18
-19 14 -3 12 -6 -9 -16 -36 -18 -60 -4 -48 27 9 24 39 30 39 8z m-207 -122
c11 -11 -5 -34 -24 -34 -12 0 -19 7 -19 20 0 19 28 28 43 14z m-515 -36 c30
-30 3 -108 -33 -94 -15 6 -22 86 -8 99 10 11 28 8 41 -5z m-210 -69 c3 -53
-17 -81 -43 -59 -30 25 -11 114 23 108 12 -2 18 -16 20 -49z m8356 42 c10 -15
-22 -33 -45 -26 l-21 7 23 13 c30 16 36 17 43 6z m-7554 -21 c0 -5 -5 -10 -11
-10 -5 0 -7 5 -4 10 3 6 8 10 11 10 2 0 4 -4 4 -10z m-70 -30 c0 -10 -39 -24
-47 -17 -3 3 -2 15 2 26 5 17 10 19 26 11 10 -6 19 -15 19 -20z m803 17 c8
-21 -4 -32 -57 -56 -57 -25 -70 -26 -85 -7 -16 19 1 54 32 66 35 14 104 12
110 -3z m3029 -5 c26 -10 50 -21 54 -25 4 -4 15 -7 23 -7 17 0 111 -60 145
-92 11 -10 23 -18 28 -18 9 0 48 -60 48 -74 0 -6 -13 2 -28 17 -15 15 -38 27
-50 27 -32 0 -129 39 -160 64 -15 12 -42 28 -60 35 -47 19 -94 91 -59 91 6 0
33 -8 59 -18z m865 -8 c2 -13 1 -15 -4 -4 -3 8 -11 19 -17 23 -7 6 -6 7 4 4 8
-2 16 -12 17 -23z m-5665 -28 c10 -49 -10 -86 -47 -86 -24 0 -25 3 -25 58 0
67 4 74 39 70 20 -2 27 -11 33 -42z m1587 0 c9 -10 7 -19 -7 -36 -16 -19 -22
-21 -40 -11 -26 14 -28 36 -4 50 24 14 38 13 51 -3z m4181 -1 c0 -8 -4 -15
-10 -15 -5 0 -10 7 -10 15 0 8 5 15 10 15 6 0 10 -7 10 -15z m-6060 -15 c6
-12 10 -39 8 -62 -4 -49 -25 -67 -61 -51 -22 10 -23 15 -17 63 9 67 46 94 70
50z m6230 -46 c25 -57 25 -54 -3 -54 -19 0 -27 8 -37 39 -12 38 -8 61 10 61 5
0 18 -21 30 -46z m-4510 10 c0 -23 -20 -55 -31 -49 -5 4 -9 19 -9 36 0 22 5
29 20 29 11 0 20 -7 20 -16z m-2039 -31 c9 -23 6 -111 -4 -118 -1 -1 -14 -5
-29 -9 -42 -10 -58 14 -53 79 5 69 9 75 46 75 23 0 32 -6 40 -27z m1557 -6
c20 -42 25 -214 7 -251 -20 -40 -19 -47 15 -86 16 -19 29 -45 30 -57 0 -12 5
-25 10 -28 6 -3 10 -21 10 -38 1 -29 11 -40 102 -107 56 -41 109 -78 118 -82
10 -3 28 -17 42 -31 20 -20 38 -25 105 -31 48 -4 97 -15 119 -27 43 -21 92
-24 144 -8 19 5 65 12 102 14 37 3 86 9 110 14 24 6 69 7 101 4 46 -5 62 -11
74 -29 8 -13 13 -30 10 -39 -4 -8 -48 -36 -99 -61 -75 -38 -113 -51 -193 -64
-55 -9 -112 -13 -125 -9 -47 13 -100 10 -106 -6 -5 -12 -10 -13 -20 -4 -7 6
-17 9 -21 6 -4 -3 -46 -1 -91 3 -59 6 -122 23 -214 56 l-130 48 5 31 c4 24 -1
40 -18 61 -20 26 -31 30 -91 34 l-69 5 -48 70 c-93 134 -121 219 -91 277 16
32 12 77 -9 90 -9 5 -6 25 12 75 37 105 51 131 74 137 13 3 36 19 52 36 35 37
65 36 83 -3z m-517 -22 c-3 -46 -9 -58 -22 -50 -5 4 -9 26 -9 51 0 38 3 45 17
42 14 -3 17 -11 14 -43z m229 5 c0 -15 -38 -32 -45 -20 -3 5 -3 15 0 20 8 13
45 13 45 0z m556 -5 c10 -25 -5 -85 -21 -85 -19 0 -31 66 -15 85 16 19 29 19
36 0z m-2238 -4 c9 -5 12 -30 10 -87 -3 -74 -4 -79 -27 -82 -50 -8 -67 5 -79
59 -16 68 -17 65 31 93 47 29 47 29 65 17z m1256 -7 c17 -45 -6 -127 -31 -111
-12 8 -25 91 -17 112 8 20 40 19 48 -1z m842 -35 c10 -17 -23 -46 -38 -31 -8
8 -8 15 2 27 15 18 26 19 36 4z m-1092 -12 c15 -11 17 -21 11 -60 -13 -86 -65
-93 -65 -8 0 79 14 97 54 68z m5796 -38 c0 -21 -4 -39 -10 -39 -5 0 -10 21
-10 46 0 27 4 43 10 39 6 -3 10 -24 10 -46z m-6070 -24 c14 -17 9 -110 -7
-126 -19 -19 -43 15 -50 69 -4 41 -3 56 8 63 20 13 35 11 49 -6z m6240 -84 c0
-19 -40 -34 -56 -20 -18 15 -18 29 2 57 l16 23 19 -25 c10 -13 19 -29 19 -35z
m-2912 43 c34 -7 92 -55 92 -77 0 -11 -21 -16 -87 -20 -80 -5 -90 -3 -135 21
-26 15 -48 30 -48 34 0 3 17 15 38 26 38 21 86 27 140 16z m852 0 c-17 -5 -40
-49 -40 -75 0 -9 -7 -19 -15 -23 -18 -6 -105 9 -135 24 -11 5 -30 15 -42 21
-12 7 -34 15 -48 19 -20 6 -13 9 35 15 33 4 78 11 100 15 41 8 172 11 145 4z
m-4502 -93 c3 -68 -4 -81 -44 -81 -24 0 -34 23 -34 82 0 57 8 70 44 66 31 -3
31 -3 34 -67z m1262 29 c0 -5 -5 -21 -12 -35 -13 -29 -28 -17 -28 23 0 15 6
22 20 22 11 0 20 -4 20 -10z m2840 -52 l41 -42 -25 -13 c-33 -18 -120 5 -182
47 -25 16 -50 30 -57 30 -7 0 -6 4 3 10 8 5 52 10 97 10 l81 0 42 -42z m-4502
-76 c3 -82 3 -82 -25 -93 -49 -19 -70 0 -75 68 -6 88 10 113 72 110 24 -2 25
-4 28 -85z m1246 29 c-1 -21 -6 -46 -11 -55 -9 -17 -11 -17 -27 -1 -13 14 -16
27 -10 59 11 71 50 69 48 -3z m-259 -17 c13 -6 15 -18 10 -78 -9 -100 -13
-116 -29 -110 -16 6 -32 138 -21 173 7 22 13 25 40 15z m5949 -40 c34 -34 16
-84 -29 -84 -38 0 -40 2 -50 48 -6 28 -3 33 17 41 33 14 45 13 62 -5z m-7406
-81 c-2 -45 -7 -77 -13 -76 -25 5 -24 153 1 153 12 0 14 -15 12 -77z m7599 45
c-3 -8 -6 -5 -6 6 -1 11 2 17 5 13 3 -3 4 -12 1 -19z m-6409 -10 c10 -13 1
-162 -10 -174 -3 -2 -16 4 -29 15 -21 16 -24 27 -23 80 1 48 5 65 20 76 24 18
29 18 42 3z m6212 -61 c0 -23 -21 -37 -42 -26 -29 16 -22 39 12 39 18 0 30 -5
30 -13z m3683 3 c34 0 47 -4 47 -14 0 -21 -28 -46 -44 -40 -23 9 -158 -25
-171 -42 -11 -15 -19 -16 -71 -6 -32 6 -101 14 -151 18 -51 4 -93 10 -93 13 1
25 19 32 67 23 30 -5 59 -5 74 1 13 5 53 8 89 8 56 -2 71 2 100 23 26 19 44
24 70 21 19 -3 56 -5 83 -5z m-2378 -10 c3 -5 -1 -10 -9 -10 -8 0 -18 5 -21
10 -3 6 1 10 9 10 8 0 18 -4 21 -10z m1220 -22 c29 -13 31 -27 9 -71 -29 -57
-54 -62 -54 -13 0 19 -4 38 -10 41 -14 9 -12 42 3 48 19 8 24 8 52 -5z m-9057
-55 c2 -38 -3 -63 -19 -94 l-21 -43 -14 25 c-14 25 -19 150 -7 163 4 4 19 6
33 4 23 -3 25 -8 28 -55z m9182 -2 c0 -5 9 -11 20 -14 21 -5 27 -31 10 -42 -6
-4 -3 -17 9 -34 l20 -27 -30 -11 c-28 -11 -29 -10 -49 34 -20 46 -26 84 -13
96 9 10 33 8 33 -2z m-9582 -106 c2 -27 1 -74 -3 -103 -6 -45 -11 -55 -32 -63
-14 -5 -28 -7 -31 -4 -3 3 -9 45 -12 93 -8 103 4 135 48 130 25 -3 27 -7 30
-53z m3762 -115 c-19 -13 -30 -13 -30 0 0 6 10 10 23 10 18 0 19 -2 7 -10z
m3200 -5 c-9 -11 -17 -12 -30 -5 -25 13 -67 13 -75 0 -4 -7 -11 -8 -18 -2 -7
6 -21 12 -32 15 -11 2 22 5 74 6 81 1 92 -1 81 -14z m98 8 c-10 -2 -26 -2 -35
0 -10 3 -2 5 17 5 19 0 27 -2 18 -5z m-6152 -18 c-4 -11 1 -15 19 -15 23 0 42
-16 32 -26 -2 -3 -52 -7 -111 -9 -79 -3 -106 -1 -106 8 0 8 20 12 61 12 52 0
64 3 78 22 18 25 36 30 27 8z m3012 3 c-2 -6 -10 -14 -16 -16 -7 -2 -10 2 -6
12 7 18 28 22 22 4z m-2521 -4 c-3 -3 -12 -4 -19 -1 -8 3 -5 6 6 6 11 1 17 -2
13 -5z m-1034 -11 c-18 -2 -48 -2 -65 0 -18 2 -4 4 32 4 36 0 50 -2 33 -4z
m248 -13 c22 0 49 5 61 11 25 14 33 6 18 -20 -9 -18 -20 -21 -85 -21 -50 0
-75 4 -75 11 0 15 34 40 38 28 2 -5 22 -9 43 -9z m386 14 c-3 -3 -12 -4 -19
-1 -8 3 -5 6 6 6 11 1 17 -2 13 -5z m106 -1 c-7 -2 -19 -2 -25 0 -7 3 -2 5 12
5 14 0 19 -2 13 -5z m409 -17 c28 -4 55 -3 67 3 19 11 41 -2 28 -16 -8 -7 -92
-6 -151 3 -44 6 -47 8 -31 20 11 8 23 10 29 5 6 -5 32 -12 58 -15z m2565 18
c-3 -3 -12 -4 -19 -1 -8 3 -5 6 6 6 11 1 17 -2 13 -5z m388 -30 c-20 -15 -37
-14 -42 2 -4 13 40 32 52 21 6 -5 3 -14 -10 -23z m131 -2 c-11 -10 -96 -6
-101 6 -3 8 6 12 25 12 16 0 31 4 35 10 3 5 14 2 25 -7 11 -9 18 -19 16 -21z
m2124 17 c0 -5 -9 -9 -20 -9 -19 0 -26 11 -14 23 8 8 34 -3 34 -14z m273 -22
c-9 -15 -21 4 -15 25 5 21 6 21 12 2 4 -10 5 -22 3 -27z m-2813 18 c-9 -8 -24
-12 -38 -9 -35 10 -26 24 15 24 33 0 36 -2 23 -15z m108 3 c-7 -19 -68 -21
-68 -3 0 11 11 15 36 15 24 0 34 -4 32 -12z m64 0 c-17 -8 -26 -8 -34 0 -9 9
-4 12 23 11 32 0 33 -1 11 -11z m2528 2 c0 -5 -7 -10 -16 -10 -8 0 -12 5 -9
10 3 6 10 10 16 10 5 0 9 -4 9 -10z m-6630 -10 c0 -13 -30 -13 -50 0 -11 7 -7
10 18 10 17 0 32 -4 32 -10z m3588 -193 c20 1 30 -2 26 -9 -4 -6 0 -15 7 -20
9 -6 -10 -7 -55 -3 -43 4 -75 13 -85 23 -15 14 -14 15 1 9 10 -3 20 -2 24 4 3
6 15 7 27 2 12 -4 37 -7 55 -6z m-4305 -4 c-7 -2 -19 -2 -25 0 -7 3 -2 5 12 5
14 0 19 -2 13 -5z m355 0 c-10 -2 -26 -2 -35 0 -10 3 -2 5 17 5 19 0 27 -2 18
-5z m210 0 c-10 -2 -26 -2 -35 0 -10 3 -2 5 17 5 19 0 27 -2 18 -5z m64 -5
c-9 -9 -15 -9 -24 0 -9 9 -7 12 12 12 19 0 21 -3 12 -12z m112 3 c4 -5 -3 -7
-14 -4 -23 6 -26 13 -6 13 8 0 17 -4 20 -9z m73 3 c-3 -3 -12 -4 -19 -1 -8 3
-5 6 6 6 11 1 17 -2 13 -5z m242 -22 c-19 -30 -80 -52 -126 -45 -29 4 -43 11
-43 21 0 12 9 14 43 9 35 -5 51 -1 82 18 43 25 61 24 44 -3z m48 11 c-9 -9
-20 -13 -24 -9 -4 4 -1 11 7 16 25 16 35 11 17 -7z m156 10 c-7 -2 -19 -2 -25
0 -7 3 -2 5 12 5 14 0 19 -2 13 -5z m312 -3 c-3 -5 -15 -10 -26 -10 -11 0 -17
5 -14 10 3 6 15 10 26 10 11 0 17 -4 14 -10z m185 0 c0 -5 -4 -10 -10 -10 -5
0 -10 5 -10 10 0 6 5 10 10 10 6 0 10 -4 10 -10z m78 3 c-10 -2 -26 -2 -35 0
-10 3 -2 5 17 5 19 0 27 -2 18 -5z m167 -3 c-22 -5 -44 -4 -49 1 -6 5 10 9 40
8 l49 -1 -40 -8z m119 2 c2 -4 -11 -6 -30 -4 -19 2 -34 6 -34 8 0 8 59 4 64
-4z m85 -1 c7 -5 9 -11 4 -14 -14 -9 -54 4 -47 14 7 11 25 11 43 0z m134 2
c-7 -2 -19 -2 -25 0 -7 3 -2 5 12 5 14 0 19 -2 13 -5z m120 0 c-13 -2 -33 -2
-45 0 -13 2 -3 4 22 4 25 0 35 -2 23 -4z m1950 -18 c-3 -8 -14 -15 -26 -15
-19 0 -19 1 -2 20 19 21 37 18 28 -5z m124 19 c-3 -3 -12 -4 -19 -1 -8 3 -5 6
6 6 11 1 17 -2 13 -5z m177 -1 c4 -5 22 -8 39 -8 19 0 31 -5 30 -11 -2 -12 50
-28 80 -25 10 2 25 -3 33 -10 12 -10 17 -9 27 4 7 8 23 18 37 21 14 3 -10 3
-53 1 -69 -4 -77 -3 -63 10 8 8 25 14 38 14 13 -1 51 2 86 6 40 4 62 3 62 -4
0 -5 -4 -13 -10 -16 -5 -3 -9 -14 -9 -23 1 -15 2 -15 6 1 2 9 9 17 14 17 5 0
9 7 9 15 0 12 7 15 33 10 35 -6 215 -17 262 -16 103 3 185 -3 220 -15 22 -9
55 -20 73 -25 30 -9 153 -20 214 -19 15 0 30 -5 33 -10 5 -8 -34 -9 -132 -5
-158 6 -263 6 -275 -1 -30 -19 33 -54 97 -54 25 0 45 -4 45 -10 0 -5 7 -10 15
-10 8 0 15 -4 15 -10 0 -6 -33 -11 -77 -11 -43 -1 -109 -4 -148 -8 l-70 -6 3
-40 c2 -22 6 -42 9 -45 2 -3 80 -5 171 -5 115 0 174 -4 189 -12 25 -15 203
-18 203 -4 0 9 -52 17 -180 27 -41 3 -84 9 -95 14 -11 5 -38 11 -60 12 -22 2
79 4 225 4 146 1 245 -2 220 -6 -35 -5 -41 -8 -27 -14 11 -5 14 -11 8 -15 -6
-4 71 -7 169 -7 170 0 203 -4 186 -21 -4 -4 -96 -13 -204 -20 -173 -12 -214
-15 -269 -21 -7 -1 -13 -6 -13 -12 0 -5 7 -7 15 -4 8 4 15 1 15 -6 0 -10 21
-11 88 -6 48 4 112 7 142 8 30 0 63 4 72 9 9 5 68 11 130 14 102 5 111 4 94
-10 -20 -15 -19 -15 1 -15 11 0 34 7 49 15 35 18 86 19 102 3 9 -9 15 -9 23
-1 7 7 22 8 45 2 20 -6 41 -6 51 -1 10 5 87 10 172 11 85 1 157 4 160 6 2 3
-39 5 -92 5 -53 0 -99 4 -102 10 -4 6 9 10 33 10 23 0 45 6 52 15 10 12 40 15
152 15 100 0 137 -3 132 -11 -3 -6 -1 -15 6 -19 8 -5 -10 -11 -46 -15 -98 -10
-102 -12 -33 -14 46 -1 70 -6 79 -16 15 -18 73 -20 100 -3 16 10 25 9 49 -5
36 -21 91 -23 91 -3 0 16 27 29 42 20 5 -3 7 -12 4 -20 -4 -10 2 -14 20 -14
17 0 28 7 31 20 4 15 14 20 42 21 20 1 76 3 125 5 50 2 92 0 95 -4 4 -5 21
-12 39 -18 51 -14 35 -25 -41 -29 -65 -3 -108 -15 -56 -15 l24 0 -28 -19 c-52
-34 -407 -63 -407 -33 0 6 -7 12 -16 12 -11 0 -14 -5 -10 -16 3 -9 6 -20 6
-25 0 -5 18 -9 40 -9 22 0 40 -4 40 -10 0 -6 -38 -10 -95 -10 -57 0 -95 4 -95
10 0 6 20 10 45 10 25 0 45 5 45 10 0 6 -20 10 -44 10 -25 0 -48 5 -52 11 -4
7 -10 7 -16 1 -13 -13 -38 -4 -38 14 0 8 -7 14 -15 14 -8 0 -15 -5 -15 -11 0
-6 -9 -4 -21 4 -11 8 -30 12 -42 9 l-22 -6 23 -5 c13 -3 22 -10 20 -16 -4 -12
-98 -15 -98 -3 0 4 -7 8 -15 8 -8 0 -15 -4 -15 -10 0 -5 -4 -10 -10 -10 -5 0
-7 6 -4 14 4 9 -5 15 -25 18 -30 4 -30 4 -14 -14 16 -18 15 -18 -23 -13 -23 3
-34 1 -25 -4 20 -13 -3 -23 -36 -15 -15 4 -39 18 -53 31 -28 26 -52 31 -44 8
7 -18 -28 -27 -115 -30 -99 -3 -104 -4 -98 -18 3 -9 -10 -13 -52 -15 -48 -2
-60 1 -83 23 -29 27 -36 45 -17 45 5 0 7 5 4 10 -7 12 -46 14 -44 3 3 -21 -5
-21 -53 -4 -70 26 -138 31 -138 11 0 -5 18 -10 40 -10 28 0 40 -4 40 -14 0 -8
-6 -17 -12 -19 -7 -3 7 -6 32 -6 52 -1 120 -18 120 -30 0 -10 -108 -19 -180
-15 -30 2 -79 3 -107 3 -31 0 -53 4 -53 10 0 7 -21 10 -52 9 l-53 -1 50 -6
c31 -4 45 -9 38 -14 -7 -5 -17 -5 -23 -2 -5 3 -111 6 -235 6 -124 1 -225 4
-225 9 0 4 11 5 25 2 18 -3 25 0 23 9 -4 16 37 19 97 8 22 -4 44 -3 50 2 5 5
55 9 112 9 l103 0 0 35 c0 19 -3 36 -7 36 -5 1 -36 3 -70 4 -61 2 -61 2 -51
-21 6 -13 8 -27 4 -32 -4 -4 -92 -8 -194 -9 -103 -1 -198 -6 -212 -11 l-24 -9
29 -16 c28 -15 21 -15 -135 -16 -598 0 -614 0 -626 17 -17 23 -9 28 21 12 19
-10 28 -11 36 -3 6 6 19 9 28 6 10 -3 7 3 -8 16 -24 22 -48 23 -44 3 2 -6 -4
-9 -13 -5 -8 3 -13 11 -10 18 5 14 -41 8 -61 -7 -8 -7 -38 -6 -85 3 -94 16
-114 26 -70 35 l34 7 -39 14 c-99 38 -109 38 -158 13 -54 -28 -63 -38 -38 -46
29 -9 77 -36 85 -48 5 -7 8 -7 8 2 0 16 31 15 56 -3 12 -8 24 -12 27 -8 10 9
137 -8 137 -19 0 -6 -46 -8 -128 -4 -71 2 -159 1 -195 -4 -37 -4 -80 -4 -95 0
l-27 8 28 1 c16 1 26 5 22 10 -7 12 -149 7 -265 -8 -55 -7 -86 -7 -88 -1 -5
14 -40 12 -45 -2 -5 -16 -261 -12 -291 4 -10 6 -46 8 -80 5 -34 -3 -53 -3 -43
0 20 5 23 22 5 24 -7 1 -38 2 -69 4 -30 1 -70 10 -87 19 -17 9 -35 15 -39 14
-4 -1 -18 3 -30 10 -17 9 -22 9 -26 -1 -8 -22 74 -61 111 -54 17 4 34 2 37 -3
3 -6 19 -10 35 -10 16 0 31 -4 34 -8 5 -9 -174 -7 -319 3 -49 4 -121 8 -159 9
-44 2 -71 8 -77 17 -7 11 -9 10 -9 -5 0 -15 -5 -17 -32 -12 -40 8 -42 10 -28
35 9 17 8 21 -5 21 -8 0 -15 5 -15 10 0 6 9 10 20 10 11 0 20 -4 20 -10 0 -15
43 -12 66 4 29 22 11 30 -82 34 -65 3 -90 0 -109 -12 -13 -8 -42 -18 -64 -22
-23 -4 -41 -11 -41 -16 0 -6 -18 -8 -39 -6 -22 2 -38 1 -35 -1 4 -4 -63 -31
-78 -31 -4 0 -5 7 -2 15 5 12 -2 15 -33 15 -44 0 -80 -28 -69 -55 5 -14 -15
-15 -196 -11 -110 3 -203 8 -206 11 -3 3 25 5 61 5 38 0 67 4 67 10 0 15 -370
13 -371 -3 0 -9 -2 -9 -6 1 -2 6 -11 12 -18 12 -7 0 -16 6 -19 13 -5 9 -7 9
-12 -1 -5 -10 -38 -13 -134 -11 -104 1 -133 -2 -152 -15 -21 -15 -18 -16 56
-9 58 4 77 3 72 -5 -5 -8 -57 -12 -164 -11 -162 0 -214 5 -191 20 7 4 21 3 30
-2 19 -9 104 -2 129 12 13 7 -142 15 -248 12 -24 0 -30 3 -23 10 18 18 12 27
-19 27 -20 0 -30 -5 -30 -15 0 -9 -7 -18 -15 -21 -25 -10 -17 -24 13 -22 15 2
29 -1 32 -7 3 -6 -13 -11 -38 -12 -42 -2 -44 -1 -38 23 6 22 4 24 -34 24 -22
0 -49 6 -60 12 -18 12 -14 14 42 26 122 25 174 33 228 37 30 2 59 4 64 4 5 1
3 8 -4 16 -14 17 -125 22 -134 6 -8 -12 -66 17 -66 32 0 8 -3 8 -12 -1 -8 -8
-15 -9 -25 -1 -24 21 -14 31 24 25 101 -17 162 -26 200 -28 33 -2 43 -7 43
-20 0 -19 25 -25 34 -9 9 14 67 20 116 12 l45 -7 -31 -16 c-20 -11 -35 -13
-45 -7 -8 5 -23 9 -34 9 -19 -1 -19 -2 -3 -14 10 -7 14 -17 10 -21 -4 -4 13
-5 38 -1 25 4 50 13 56 21 6 8 25 15 43 15 17 0 31 5 31 10 0 6 38 10 94 10
92 0 94 0 98 25 4 20 1 26 -19 31 -13 4 -29 2 -35 -4 -7 -7 -16 -7 -30 1 -16
10 -22 9 -33 -7 -12 -16 -27 -18 -116 -17 -63 0 -107 5 -113 12 -8 9 -4 10 18
5 21 -5 44 1 92 25 45 22 71 29 89 25 14 -4 25 -2 25 3 0 4 33 9 73 10 46 1
67 -2 58 -8 -8 -5 -11 -16 -8 -25 11 -27 52 -16 52 14 0 12 17 15 93 16 54 1
88 -3 80 -7 -10 -7 -9 -9 3 -9 14 0 36 29 27 34 -56 29 -60 30 -78 18 -24 -15
-74 -16 -65 -2 3 6 17 10 30 10 32 0 41 17 20 40 -20 22 -4 36 24 20 11 -5 22
-6 25 -2 3 5 32 9 66 9 64 1 130 25 130 47 0 16 22 26 58 26 15 0 49 7 76 15
27 8 62 15 77 15 30 0 63 -26 56 -44 -3 -7 17 -11 59 -12 35 -1 64 2 64 7 0 5
18 9 39 9 24 0 46 7 57 18 14 13 34 17 88 17 83 -1 137 -12 117 -25 -10 -6 -8
-9 8 -15 11 -3 25 -4 30 0 20 12 130 16 150 6 23 -13 505 -20 517 -8 11 11 46
8 39 -3 -4 -6 6 -10 22 -10 19 0 24 3 15 9 -20 12 19 21 96 21 36 0 62 4 62
10 0 6 8 10 18 8 9 -2 16 3 15 10 -2 6 4 12 12 12 8 0 15 -4 15 -9 0 -5 8 -11
18 -14 9 -2 25 -8 35 -12 13 -5 17 -2 17 14 0 13 -5 19 -14 15 -8 -3 -17 0
-22 7 -5 9 9 11 62 6 38 -4 85 -7 104 -8 32 -1 29 -2 -25 -18 -41 -12 -53 -19
-40 -23 37 -9 95 3 106 23 11 21 42 24 123 13 34 -5 46 -11 42 -20 -4 -10 3
-14 24 -14 23 0 30 5 30 19 0 10 6 21 14 24 14 6 100 -16 142 -35 22 -10 261
-5 272 6 3 3 12 6 21 6 9 0 30 7 46 16 17 9 47 16 68 16 21 1 40 5 43 9 6 11
28 12 38 2z m2939 0 c-7 -2 -19 -2 -25 0 -7 3 -2 5 12 5 14 0 19 -2 13 -5z
m-6761 -22 c-5 -3 -11 -15 -13 -25 -4 -20 -18 -24 -104 -31 -98 -8 -168 -6
-178 4 -8 8 2 11 31 11 33 0 40 3 36 15 -8 20 5 19 57 -4 42 -19 65 -19 54 -1
-8 13 29 30 64 30 16 0 33 5 36 10 4 6 11 7 17 4 7 -4 7 -9 0 -13z m78 9 c0
-5 -7 -10 -15 -10 -8 0 -15 5 -15 10 0 6 7 10 15 10 8 0 15 -4 15 -10z m468
-1 c-2 -6 -8 -10 -13 -10 -5 0 -11 4 -13 10 -2 6 4 11 13 11 9 0 15 -5 13 -11z
m45 4 c-7 -2 -19 -2 -25 0 -7 3 -2 5 12 5 14 0 19 -2 13 -5z m180 0 c-13 -2
-33 -2 -45 0 -13 2 -3 4 22 4 25 0 35 -2 23 -4z m5862 -10 c28 -2 59 -8 70
-13 11 -5 47 -13 80 -17 41 -6 60 -13 60 -22 0 -11 -21 -15 -90 -18 -49 -2
-99 -8 -110 -13 -47 -21 -187 -35 -261 -25 -30 3 -54 9 -51 11 2 3 40 8 83 13
l79 8 -75 3 c-95 3 -122 4 -432 2 -182 -2 -258 -5 -258 -13 0 -6 8 -9 18 -7 9
3 38 1 62 -3 26 -5 -16 -6 -101 -3 -81 3 -164 10 -185 15 -22 4 -70 9 -109 9
-107 1 -54 22 63 26 99 3 183 18 217 40 24 15 555 18 555 3 0 -5 12 -9 28 -8
24 0 25 1 7 9 -13 6 7 9 62 9 45 1 93 -4 107 -10 20 -9 29 -9 40 0 8 7 19 10
24 8 4 -3 14 -2 22 4 8 5 22 6 30 2 8 -4 38 -8 65 -10z m-7232 -10 c-13 -2
-33 -2 -45 0 -13 2 -3 4 22 4 25 0 35 -2 23 -4z m100 0 c-7 -2 -21 -2 -30 0
-10 3 -4 5 12 5 17 0 24 -2 18 -5z m189 -5 c-13 -7 -21 -17 -18 -25 3 -8 -5
-18 -19 -25 -14 -6 -25 -15 -25 -20 0 -5 -5 -6 -10 -3 -6 4 -8 11 -4 16 3 6
-3 13 -15 16 -44 11 -19 29 35 24 12 -1 24 5 28 14 3 8 16 15 28 14 l23 0 -23
-11z m3468 2 c0 -5 -4 -10 -10 -10 -5 0 -10 5 -10 10 0 6 5 10 10 10 6 0 10
-4 10 -10z m-4035 -30 c32 -1 37 -3 22 -11 -9 -6 -15 -14 -12 -18 2 -5 -4 -11
-15 -14 -11 -3 -23 -1 -26 4 -3 5 1 9 8 9 8 0 5 5 -5 11 -15 9 -22 7 -33 -10
-12 -16 -25 -20 -63 -20 -27 1 -54 -1 -59 -5 -6 -4 -19 -2 -29 3 -10 5 -27 13
-38 17 -18 6 -17 7 9 15 18 5 35 4 42 -2 20 -16 119 -7 119 11 0 20 17 32 29
20 6 -6 28 -10 51 -10z m365 10 c12 0 12 -2 2 -9 -10 -6 -4 -11 20 -16 l33 -9
-33 -3 c-20 -3 -43 2 -58 12 -31 20 -32 39 -1 31 12 -3 29 -6 37 -6z m55 0 c3
-5 -3 -10 -15 -10 -12 0 -18 5 -15 10 3 6 10 10 15 10 5 0 12 -4 15 -10z
m1330 0 c4 -6 -6 -10 -22 -10 -22 0 -25 2 -13 10 19 12 27 12 35 0z m-1469
-17 c28 -12 34 -18 22 -21 -10 -2 -30 6 -44 17 -32 25 -28 26 22 4z m1339 -3
c3 -5 -1 -10 -10 -10 -9 0 -13 5 -10 10 3 6 8 10 10 10 2 0 7 -4 10 -10z
m6155 -6 c0 -2 -7 -4 -15 -4 -8 0 -15 4 -15 10 0 5 7 7 15 4 8 -4 15 -8 15
-10z m267 -12 c-35 -2 -65 2 -71 8 -8 8 3 9 40 4 34 -4 54 -2 58 5 5 8 11 7
20 -2 11 -10 2 -13 -47 -15z m-7883 12 c16 -6 23 -44 8 -44 -20 0 -72 32 -67
41 7 10 36 12 59 3z m76 -9 c0 -8 -8 -15 -17 -14 -11 0 -13 3 -5 6 6 2 10 9 6
14 -3 5 0 9 5 9 6 0 11 -7 11 -15z m913 -2 c-7 -2 -19 -2 -25 0 -7 3 -2 5 12
5 14 0 19 -2 13 -5z m4794 1 c-3 -3 -12 -4 -19 -1 -8 3 -5 6 6 6 11 1 17 -2
13 -5z m86 -1 c-7 -2 -19 -2 -25 0 -7 3 -2 5 12 5 14 0 19 -2 13 -5z m160 0
c-18 -2 -48 -2 -65 0 -18 2 -4 4 32 4 36 0 50 -2 33 -4z m-6103 -12 c0 -6 -4
-13 -10 -16 -5 -3 -10 1 -10 9 0 9 5 16 10 16 6 0 10 -4 10 -9z m1420 -1 c-19
-13 -30 -13 -30 0 0 6 10 10 23 10 18 0 19 -2 7 -10z m6928 3 c-10 -2 -28 -2
-40 0 -13 2 -5 4 17 4 22 1 32 -1 23 -4z m286 -23 c6 -6 3 -12 -6 -15 -10 -4
-14 -14 -11 -26 4 -15 0 -19 -18 -20 -13 -1 -27 -1 -31 0 -5 0 -7 -5 -5 -11 1
-9 -7 -12 -23 -9 -14 2 -66 5 -117 8 -69 3 -97 1 -115 -10 -26 -17 -235 -30
-244 -16 -3 5 -15 9 -27 9 -12 0 -30 7 -40 14 -16 12 -13 14 25 20 24 3 137 4
252 1 199 -5 248 0 153 16 -38 6 -39 7 -9 8 33 1 43 17 17 27 -8 4 -15 11 -15
16 0 13 201 1 214 -12z m-2454 3 c0 -5 -7 -17 -16 -28 -14 -19 -26 -20 -220
-19 -136 0 -208 4 -216 12 -16 16 14 21 217 30 99 5 192 10 208 10 15 1 27 -1
27 -5z m1858 0 c-27 -2 -69 -2 -95 0 -27 2 -5 3 47 3 52 0 74 -1 48 -3z
m-8361 -9 c-3 -3 -12 -4 -19 -1 -8 3 -5 6 6 6 11 1 17 -2 13 -5z m178 -4 c3
-5 1 -10 -4 -10 -6 0 -11 5 -11 10 0 6 2 10 4 10 3 0 8 -4 11 -10z m8870 -21
c0 -36 44 -38 79 -2 23 23 30 25 47 15 25 -16 66 -15 72 1 7 19 94 20 101 1 7
-17 70 -14 88 4 18 18 49 15 42 -3 -9 -24 -71 -34 -182 -31 -56 2 -105 -1
-108 -5 -3 -5 30 -9 73 -10 l78 -1 -53 -13 c-100 -25 -81 -41 50 -43 51 -1
118 -4 148 -7 45 -5 63 -2 100 18 39 20 58 23 135 20 50 -1 103 -2 118 -3 16
0 26 -4 23 -9 -4 -5 -50 -7 -106 -4 -72 4 -100 3 -100 -6 0 -6 5 -11 11 -11 5
0 8 -4 4 -9 -8 -14 34 -24 48 -13 8 7 28 7 60 0 37 -7 47 -14 45 -26 -3 -14
-15 -17 -66 -15 -48 1 -62 -2 -62 -13 0 -18 -19 -18 -26 0 -6 15 -71 15 -94 1
-15 -9 -12 -25 5 -25 8 0 15 5 15 12 0 9 3 9 11 1 6 -6 18 -9 25 -6 8 3 14 1
14 -5 0 -12 -29 -24 -41 -16 -5 3 -9 0 -9 -5 0 -6 10 -12 23 -12 12 -1 37 -3
55 -5 33 -2 33 -2 12 16 -20 18 -20 18 0 23 40 10 60 -3 60 -39 0 -31 -3 -34
-30 -34 -46 0 -39 -28 8 -32 29 -2 36 -7 34 -20 -2 -10 2 -18 8 -18 6 0 8 -5
5 -10 -4 -7 -135 -10 -381 -10 -304 1 -379 4 -402 16 -38 19 -76 19 -68 -2 5
-13 -9 -15 -118 -11 -68 3 -128 7 -133 10 -4 2 -33 1 -63 -3 -30 -4 -59 -4
-64 0 -5 5 -19 4 -31 -2 -15 -7 -38 -7 -69 0 -26 5 -49 6 -52 1 -11 -19 -51
-9 -64 16 -14 26 -34 33 -45 15 -3 -5 -12 -10 -18 -9 -9 0 -9 2 1 6 6 2 12 11
12 19 0 8 9 14 19 14 11 0 23 5 26 10 8 14 -28 13 -42 -1 -8 -8 -23 -5 -57 11
-46 24 -52 45 -10 37 13 -2 24 0 24 4 0 5 9 9 19 9 27 0 128 54 124 65 -4 14
258 17 274 3 8 -6 33 -8 60 -5 26 3 54 1 62 -3 46 -22 99 -30 208 -30 95 0
123 3 133 15 10 13 9 15 -11 15 -13 0 -31 4 -39 10 -11 7 -9 11 13 19 16 6 39
11 52 11 13 0 27 5 30 10 3 6 15 10 26 10 10 0 19 5 19 11 0 6 -14 9 -32 7
-27 -2 -32 0 -30 15 3 15 -6 17 -68 17 -40 0 -70 -4 -70 -10 0 -5 7 -10 15
-10 8 0 15 -7 15 -16 0 -12 -9 -14 -37 -12 -26 2 -37 7 -35 17 2 9 -3 11 -13
7 -11 -4 -15 -2 -13 6 3 7 13 14 24 16 10 2 29 19 42 38 25 39 47 40 47 3z
m1926 14 c30 -18 39 -48 17 -55 -7 -2 -40 -1 -73 2 -49 4 -55 6 -33 12 14 5
34 5 42 2 12 -4 16 0 16 15 0 16 -6 21 -27 21 -22 0 -25 2 -13 10 22 14 38 12
71 -7z m-2802 -4 c14 -1 4 -5 -24 -9 -27 -5 -104 -5 -170 -2 l-120 7 85 6 c47
4 112 5 144 3 32 -2 71 -5 85 -5z m1426 1 c-3 -5 -10 -10 -16 -10 -5 0 -9 5
-9 10 0 6 7 10 16 10 8 0 12 -4 9 -10z m690 -11 c5 -5 29 -8 55 -8 41 1 42 2
15 9 -27 7 -25 8 18 9 32 1 46 -3 45 -11 -2 -8 13 -12 47 -13 35 0 49 -4 47
-13 -1 -9 9 -12 35 -11 45 3 74 15 70 31 -1 7 6 14 16 16 9 2 17 -1 17 -7 0
-6 -4 -11 -10 -11 -5 0 -10 -4 -10 -10 0 -5 6 -10 13 -10 8 0 20 -11 27 -25
15 -27 43 -32 84 -14 21 10 29 8 52 -10 28 -22 54 -28 54 -12 0 12 58 22 150
26 42 2 60 0 41 -3 -35 -7 -56 -32 -27 -32 9 0 16 -4 16 -10 0 -5 -2 -10 -4
-10 -2 0 -11 -3 -20 -6 -11 -4 -16 -1 -16 10 0 12 -9 16 -34 16 -37 0 -70 -22
-89 -60 -11 -21 -19 -25 -53 -22 l-39 3 27 -15 c42 -22 135 -8 124 20 -3 8 -1
14 4 14 5 0 7 7 4 15 -4 10 0 15 15 15 12 0 21 -4 21 -10 0 -5 -3 -10 -7 -10
-5 0 -9 -14 -10 -31 -2 -28 0 -31 23 -26 13 2 27 0 30 -4 3 -5 -3 -9 -13 -9
-14 0 -15 -2 -4 -9 8 -5 11 -16 8 -25 -5 -13 -17 -15 -69 -9 -62 6 -63 6 -45
-14 11 -13 26 -19 41 -16 13 3 27 0 31 -7 5 -8 0 -11 -16 -8 -13 2 -23 -2 -22
-7 1 -7 -21 -11 -52 -12 -43 -1 -53 2 -48 13 4 11 -4 13 -41 8 -30 -5 -51 -2
-61 6 -12 10 -15 10 -15 -4 0 -12 9 -16 35 -16 19 0 35 -5 35 -11 0 -8 -29
-10 -102 -5 -57 4 -127 8 -155 10 -31 2 -53 0 -53 -6 0 -7 -4 -7 -12 0 -12 9
-53 16 -87 13 -11 -1 -11 -4 -1 -16 11 -13 8 -15 -19 -15 -21 0 -31 5 -31 15
0 10 -11 15 -35 15 -19 0 -35 4 -35 9 0 5 9 7 20 4 26 -7 26 9 0 25 -17 10
-21 10 -26 -2 -3 -8 -12 -12 -21 -9 -11 4 -12 8 -3 13 7 4 9 13 6 19 -9 14
-36 15 -36 1 0 -5 -9 -10 -19 -10 -35 0 -121 23 -121 32 0 5 8 7 18 4 9 -2 26
-7 37 -10 11 -3 27 -1 35 4 13 8 12 11 -5 24 -13 9 -22 11 -26 4 -8 -12 -29
-2 -29 14 0 7 17 9 47 5 26 -3 57 -1 70 4 12 4 24 5 27 1 3 -5 26 -6 53 -3 34
4 48 11 48 21 0 10 -8 14 -22 13 -15 -2 -21 2 -17 11 3 8 1 17 -5 21 -7 3 -11
-2 -11 -14 0 -17 -6 -21 -30 -21 -17 0 -33 7 -38 17 -7 12 -24 17 -58 18 -64
1 -125 15 -118 26 3 5 -3 9 -13 9 -17 1 -17 1 1 15 11 9 30 12 50 8 30 -5 30
-5 11 10 -23 19 -45 22 -45 7 0 -5 -11 -10 -24 -10 -14 0 -28 5 -31 10 -10 15
-25 12 -25 -6 0 -11 -6 -14 -21 -9 -14 5 -25 2 -30 -6 -6 -10 -11 -11 -20 -2
-8 8 -1 14 28 23 21 7 43 16 48 20 6 4 19 4 30 0 26 -9 55 -1 49 14 -3 8 10
16 33 22 45 11 204 6 218 -7z m-10315 -4 c0 -8 -4 -15 -9 -15 -5 0 -11 7 -15
15 -3 9 0 15 9 15 8 0 15 -7 15 -15z m10503 8 c-7 -2 -19 -2 -25 0 -7 3 -2 5
12 5 14 0 19 -2 13 -5z m594 1 c-3 -3 -12 -4 -19 -1 -8 3 -5 6 6 6 11 1 17 -2
13 -5z m143 2 c0 -2 3 -11 6 -19 4 -11 -2 -17 -23 -20 -27 -4 -26 -4 5 -6 19
0 31 -5 27 -11 -8 -13 -44 -13 -82 1 -24 8 -30 15 -26 30 4 15 8 17 19 8 11
-9 15 -8 20 5 5 13 54 24 54 12z m-1482 -13 c-10 -2 -26 -2 -35 0 -10 3 -2 5
17 5 19 0 27 -2 18 -5z m-95 -10 c-7 -2 -19 -2 -25 0 -7 3 -2 5 12 5 14 0 19
-2 13 -5z m1157 -3 c0 -5 -4 -10 -10 -10 -5 0 -10 5 -10 10 0 6 5 10 10 10 6
0 10 -4 10 -10z m298 -8 c2 -7 -7 -12 -23 -12 -24 0 -26 2 -15 15 14 17 31 16
38 -3z m-11043 -2 c8 -13 -5 -13 -25 0 -13 8 -13 10 2 10 9 0 20 -4 23 -10z
m75 -9 c0 -17 -3 -18 -25 -8 -21 10 -22 13 -7 19 27 11 32 9 32 -11z m117 -8
c-21 -9 -37 -23 -39 -34 -3 -18 -5 -18 -31 6 -34 33 -26 49 23 42 21 -2 43 -1
51 3 7 5 17 6 23 3 5 -3 -7 -12 -27 -20z m1593 11 c0 -2 -12 -4 -27 -4 -21 0
-24 3 -14 9 13 8 41 5 41 -5z m6005 -2 c19 -6 29 -15 27 -25 -2 -12 7 -17 33
-19 34 -3 35 -4 21 -23 -13 -18 -28 -20 -169 -23 -150 -4 -155 -3 -162 17 -5
18 -14 21 -59 21 -42 0 -59 5 -82 25 -16 14 -33 26 -39 27 -5 1 19 5 55 9 83
9 336 3 375 -9z m-7475 -2 c-20 -13 -33 -13 -25 0 3 6 14 10 23 10 15 0 15 -2
2 -10z m117 4 c-3 -3 -12 -4 -19 -1 -8 3 -5 6 6 6 11 1 17 -2 13 -5z m6027 0
c30 -12 16 -23 -39 -29 -67 -9 -285 3 -285 16 0 4 44 10 98 12 53 1 123 4 154
5 31 1 63 -1 72 -4z m4816 -9 c-14 -17 -40 -20 -40 -6 0 5 10 12 23 14 12 2
24 5 26 6 2 0 -2 -6 -9 -14z m-2211 -24 c19 -12 5 -31 -23 -31 -25 0 -51 22
-39 33 9 10 45 8 62 -2z m1618 3 c-3 -3 -12 -4 -19 -1 -8 3 -5 6 6 6 11 1 17
-2 13 -5z m-10727 -24 c0 -11 -7 -23 -15 -26 -8 -4 -15 -15 -15 -25 0 -14 -7
-19 -26 -19 -21 0 -24 3 -15 14 6 7 9 21 5 30 -4 11 -1 16 14 16 11 0 22 7 26
15 8 22 26 18 26 -5z m150 5 c7 -8 9 -15 4 -15 -5 0 -19 -3 -31 -6 -20 -6 -23
3 -14 34 3 8 31 0 41 -13z m9780 5 c0 -5 -2 -10 -4 -10 -3 0 -8 5 -11 10 -3 6
-1 10 4 10 6 0 11 -4 11 -10z m1286 -36 c6 6 8 18 6 25 -3 10 2 12 19 8 13 -4
30 -7 37 -7 10 0 8 -5 -4 -17 -17 -17 -17 -18 5 -21 28 -4 22 -26 -8 -30 -22
-3 -22 -4 -4 -18 17 -14 16 -15 -12 -9 -16 4 -41 8 -55 10 -37 5 -37 6 -10 15
l25 8 -24 1 c-15 1 -21 6 -18 15 3 8 3 17 -1 21 -10 10 -9 29 3 37 6 4 14 -5
20 -21 7 -22 13 -26 21 -17z m270 31 c4 -8 12 -15 19 -15 17 0 38 -27 27 -34
-16 -10 -82 27 -82 46 0 22 28 24 36 3z m-351 -3 c-5 -4 -10 -14 -10 -22 0 -8
-9 -15 -20 -16 -15 -1 -16 0 -2 3 21 5 23 23 2 23 -8 0 -15 5 -15 10 0 6 12
10 28 10 15 0 23 -4 17 -8z m-11242 -9 c-7 -2 -13 -11 -13 -19 0 -8 -4 -15
-10 -15 -5 -1 -14 -2 -19 -3 -5 0 -13 -4 -16 -8 -4 -4 -17 -2 -28 4 -20 10
-19 12 14 28 19 10 45 18 59 18 14 0 19 -2 13 -5z m197 -2 c0 -16 -18 -22 -23
-9 -3 10 -7 10 -20 -1 -16 -13 -25 -2 -10 12 10 10 53 8 53 -2z m6863 -6 c18
-8 48 -16 67 -18 19 -2 -50 -5 -155 -6 -104 0 -200 -4 -212 -7 -18 -5 -21 -3
-16 15 4 17 14 21 77 24 170 8 209 7 239 -8z m4407 -21 c0 -8 7 -17 15 -20 8
-4 13 -10 10 -14 -3 -5 14 -7 37 -5 61 4 61 3 54 20 -6 16 9 21 18 7 9 -15 -6
-52 -20 -52 -8 0 -14 -7 -14 -15 0 -8 -6 -15 -12 -15 -7 -1 -3 -9 10 -19 12
-11 22 -21 22 -24 0 -11 -46 7 -57 22 -9 13 -8 17 8 23 34 13 20 28 -25 28
-36 0 -44 3 -42 18 1 12 -5 16 -20 14 -15 -2 -20 2 -19 15 3 40 35 55 35 17z
m-301 -30 c2 -2 -10 -4 -27 -4 -18 0 -32 5 -32 10 0 9 47 4 59 -6z m541 6 c0
-5 -7 -10 -16 -10 -8 0 -12 5 -9 10 3 6 10 10 16 10 5 0 9 -4 9 -10z m-55 -31
c-4 -5 -16 -9 -28 -9 -20 0 -20 0 -2 14 21 15 40 12 30 -5z m-3412 -6 c-7 -2
-21 -2 -30 0 -10 3 -4 5 12 5 17 0 24 -2 18 -5z m1904 1 c-3 -3 -12 -4 -19 -1
-8 3 -5 6 6 6 11 1 17 -2 13 -5z m1558 -4 c-3 -5 -14 -10 -23 -10 -15 0 -15 2
-2 10 20 13 33 13 25 0z m-5328 -6 c-3 -3 -12 -4 -19 -1 -8 3 -5 6 6 6 11 1
17 -2 13 -5z m1251 -1 c-10 -2 -26 -2 -35 0 -10 3 -2 5 17 5 19 0 27 -2 18 -5z
m2377 -3 c3 -5 -3 -10 -14 -10 -12 0 -21 5 -21 10 0 6 6 10 14 10 8 0 18 -4
21 -10z m1201 -1 c4 -6 20 -8 40 -4 21 3 34 2 34 -5 0 -5 14 -10 31 -10 17 0
28 -4 24 -10 -3 -5 -13 -10 -21 -10 -16 0 -44 -23 -44 -36 0 -5 5 -3 12 4 7 7
28 12 47 12 19 0 31 3 28 7 -4 3 10 12 30 19 20 7 39 11 42 9 2 -3 -1 -5 -7
-5 -7 0 -12 -4 -12 -10 0 -5 7 -10 15 -10 9 0 12 -6 9 -15 -8 -20 12 -19 23 0
12 21 70 9 76 -15 4 -15 -1 -17 -34 -13 -25 4 -39 2 -39 -6 0 -6 6 -11 13 -11
8 0 7 -4 -3 -10 -23 -15 -30 -12 -30 10 0 14 -7 20 -21 20 -18 0 -19 -2 -9
-15 10 -12 10 -15 -3 -15 -20 0 -68 26 -67 36 0 5 -8 10 -20 12 -11 2 -20 -1
-20 -7 0 -6 -7 -11 -16 -11 -10 0 -14 -5 -10 -16 6 -16 -5 -12 -34 11 -8 7
-28 15 -43 19 -21 5 -27 11 -23 23 4 8 1 22 -5 29 -6 7 -8 18 -4 24 8 13 32
13 41 -1z m214 1 c0 -5 -4 -10 -10 -10 -5 0 -10 5 -10 10 0 6 5 10 10 10 6 0
10 -4 10 -10z m-3640 -10 c0 -5 -7 -10 -16 -10 -8 0 -12 5 -9 10 3 6 10 10 16
10 5 0 9 -4 9 -10z m495 0 c3 -5 -3 -10 -15 -10 -12 0 -18 5 -15 10 3 6 10 10
15 10 5 0 12 -4 15 -10z m1870 -20 c4 -6 -11 -7 -42 -3 -63 8 -67 13 -10 13
25 0 49 -4 52 -10z m1545 0 c0 -5 -4 -10 -10 -10 -5 0 -10 5 -10 10 0 6 5 10
10 10 6 0 10 -4 10 -10z m-1733 -14 c-6 -16 19 -30 28 -16 9 15 41 12 55 -5 7
-8 23 -15 36 -15 17 0 24 -6 24 -19 0 -11 6 -21 13 -24 8 -3 6 -7 -7 -12 -13
-6 -21 -3 -28 8 -11 21 -38 22 -38 2 0 -8 -4 -15 -9 -15 -5 0 -24 -3 -42 -6
-32 -6 -33 -6 -14 9 11 9 29 17 40 18 18 1 18 2 2 6 -14 4 -16 8 -6 19 9 11 8
15 -6 20 -9 4 -21 2 -28 -5 -8 -8 -8 -11 1 -11 7 0 12 -4 12 -10 0 -17 -38
-11 -52 8 -7 10 -22 22 -33 27 -17 8 -16 9 13 13 17 2 32 7 32 13 0 5 3 9 6 9
3 0 4 -6 1 -14z m1728 -17 c11 -17 -1 -21 -15 -4 -8 9 -8 15 -2 15 6 0 14 -5
17 -11z m-11535 -19 c0 -5 -5 -10 -11 -10 -5 0 -7 5 -4 10 3 6 8 10 11 10 2 0
4 -4 4 -10z m8050 1 c0 -12 -28 -22 -34 -12 -3 5 -3 11 1 15 9 9 33 7 33 -3z
m116 -46 c-20 -21 -32 -25 -81 -25 l-58 0 19 21 c15 17 27 20 61 16 29 -3 46
0 54 9 6 8 15 11 19 9 5 -3 -2 -17 -14 -30z m2914 26 c0 -18 -18 -21 -30 -6
-10 13 -9 15 9 15 11 0 21 -4 21 -9z m360 -1 c0 -5 -9 -10 -21 -10 -11 0 -17
5 -14 10 3 6 13 10 21 10 8 0 14 -4 14 -10z m-415 -10 c4 -6 -6 -10 -24 -10
-16 0 -38 -3 -48 -6 -16 -6 -16 -5 2 9 23 18 61 22 70 7z m485 0 c0 -5 -4 -10
-10 -10 -5 0 -10 5 -10 10 0 6 5 10 10 10 6 0 10 -4 10 -10z m-8800 -20 c0 -5
-7 -10 -15 -10 -8 0 -15 5 -15 10 0 6 7 10 15 10 8 0 15 -4 15 -10z m47 4 c-3
-3 -12 -4 -19 -1 -8 3 -5 6 6 6 11 1 17 -2 13 -5z m2033 -28 c0 -3 -9 -6 -19
-6 -14 0 -18 5 -14 20 4 16 7 17 19 5 8 -7 14 -16 14 -19z m873 27 c-13 -2
-33 -2 -45 0 -13 2 -3 4 22 4 25 0 35 -2 23 -4z m2290 -5 c15 -6 27 -14 27
-19 0 -13 -24 -11 -38 3 -10 10 -15 10 -20 1 -9 -14 -312 -16 -312 -2 0 5 35
9 78 10 42 1 88 4 102 8 39 11 133 11 163 -1z m57 -4 c0 -14 -3 -14 -15 -4 -8
7 -15 14 -15 16 0 2 7 4 15 4 8 0 15 -7 15 -16z m-7480 -4 c0 -5 -4 -10 -10
-10 -5 0 -10 5 -10 10 0 6 5 10 10 10 6 0 10 -4 10 -10z m1940 0 c0 -5 -12
-10 -27 -10 -22 0 -25 2 -13 10 20 13 40 13 40 0z m4615 -20 c-16 -3 -39 -4
-50 -1 l-20 5 20 4 c11 2 24 8 29 13 5 4 18 3 30 -4 20 -11 20 -11 -9 -17z
m160 9 c5 -5 -16 -9 -58 -9 -55 0 -67 3 -67 16 0 13 9 15 58 9 31 -3 61 -11
67 -16z m4105 17 c0 -3 -4 -8 -10 -11 -5 -3 -10 -1 -10 4 0 6 5 11 10 11 6 0
10 -2 10 -4z m-10510 -16 c0 -5 -10 -10 -22 -10 -19 0 -20 2 -8 10 19 13 30
13 30 0z m290 0 c0 -5 -11 -10 -24 -10 -14 0 -28 5 -31 10 -4 6 7 10 24 10 17
0 31 -4 31 -10z m570 -2 c0 -12 -138 -10 -145 2 -4 6 22 9 70 7 41 -1 75 -5
75 -9z m805 2 c3 -5 1 -10 -4 -10 -6 0 -11 5 -11 10 0 6 2 10 4 10 3 0 8 -4
11 -10z m4260 0 c4 -6 -7 -10 -27 -9 -27 0 -30 2 -13 9 27 12 33 12 40 0z
m214 -6 c2 -2 -17 -3 -42 -2 -25 1 -41 6 -35 10 11 6 67 0 77 -8z m2798 10
c-3 -3 -12 -4 -19 -1 -8 3 -5 6 6 6 11 1 17 -2 13 -5z m-8004 -11 c-7 -2 -19
-2 -25 0 -7 3 -2 5 12 5 14 0 19 -2 13 -5z m2457 3 c0 -2 -7 -6 -15 -10 -8 -3
-15 -1 -15 4 0 6 7 10 15 10 8 0 15 -2 15 -4z m2587 -2 c-3 -3 -12 -4 -19 -1
-8 3 -5 6 6 6 11 1 17 -2 13 -5z m4509 -171 c-4 -42 -10 -81 -13 -86 -8 -13
-78 0 -126 25 l-41 21 24 19 c42 32 144 97 154 98 5 0 6 -34 2 -77z m-172
-382 c3 -4 34 -18 68 -31 35 -12 69 -27 76 -32 15 -13 16 -124 1 -239 -15
-118 -49 -141 -154 -105 -64 22 -70 41 -68 190 3 162 17 226 49 226 13 0 25
-4 28 -9z m-22 -487 c22 -11 43 -14 74 -9 42 6 44 5 44 -19 0 -25 -2 -26 -62
-26 -91 0 -108 7 -108 41 0 33 9 35 52 13z"/>
<path d="M8894 5055 c-37 -32 -28 -32 16 0 19 14 29 25 23 25 -5 0 -23 -11
-39 -25z"/>
<path d="M9540 4045 c0 -30 4 -55 9 -55 10 0 23 88 15 101 -14 23 -24 4 -24
-46z"/>
<path d="M8300 4061 c0 -21 5 -31 16 -31 11 0 14 8 12 27 -4 39 -28 42 -28 4z"/>
<path d="M8280 3970 c-5 -36 -5 -90 1 -90 10 0 16 68 7 83 -4 6 -8 10 -8 7z"/>
<path d="M4462 4458 c-30 -30 -2 -72 45 -66 23 2 29 9 31 32 2 16 -2 32 -10
37 -19 12 -52 11 -66 -3z"/>
<path d="M4778 4193 c6 -2 18 -2 25 0 6 3 1 5 -13 5 -14 0 -19 -2 -12 -5z"/>
<path d="M2944 4239 c-10 -18 13 -32 40 -25 37 9 34 36 -3 36 -17 0 -33 -5
-37 -11z"/>
<path d="M2960 3735 c0 -8 7 -15 15 -15 8 0 15 7 15 15 0 8 -7 15 -15 15 -8 0
-15 -7 -15 -15z"/>
<path d="M3935 3510 c-4 -7 -3 -16 3 -22 14 -14 57 -6 57 12 0 18 -50 26 -60
10z"/>
<path d="M3296 3503 c-11 -11 -6 -23 8 -23 8 0 17 4 20 9 7 10 -19 23 -28 14z"/>
<path d="M5755 3170 c-3 -5 1 -10 9 -10 9 0 16 5 16 10 0 6 -4 10 -9 10 -6 0
-13 -4 -16 -10z"/>
<path d="M5920 3170 c0 -5 14 -10 30 -10 17 0 30 5 30 10 0 6 -13 10 -30 10
-16 0 -30 -4 -30 -10z"/>
<path d="M5133 3157 c-18 -6 -33 -14 -33 -20 0 -5 7 -6 18 -1 9 5 38 8 65 8
26 -1 46 1 44 3 -13 12 -67 18 -94 10z"/>
<path d="M2648 3153 c7 -3 16 -2 19 1 4 3 -2 6 -13 5 -11 0 -14 -3 -6 -6z"/>
<path d="M3020 3140 c0 -5 4 -10 9 -10 6 0 13 5 16 10 3 6 -1 10 -9 10 -9 0
-16 -4 -16 -10z"/>
<path d="M3138 3143 c7 -3 16 -2 19 1 4 3 -2 6 -13 5 -11 0 -14 -3 -6 -6z"/>
<path d="M5040 3140 c-19 -12 -7 -22 21 -18 19 2 20 5 8 15 -9 7 -20 9 -29 3z"/>
<path d="M5410 3141 c0 -5 -10 -12 -22 -14 -16 -4 -14 -5 6 -4 27 2 52 27 27
27 -6 0 -11 -4 -11 -9z"/>
<path d="M5950 3135 c0 -17 2 -18 24 -9 18 7 12 24 -10 24 -8 0 -14 -7 -14
-15z"/>
<path d="M5729 3129 c-10 -6 -7 -9 14 -9 29 0 35 5 14 13 -8 3 -20 1 -28 -4z"/>
<path d="M2545 3121 c-13 -5 -20 -18 -21 -37 -1 -16 -2 -35 -3 -41 -1 -7 -13
-13 -28 -12 l-28 0 23 16 c12 8 22 19 22 24 0 12 -47 11 -55 -1 -3 -5 -17 -10
-29 -10 -25 0 -50 -22 -39 -34 4 -4 -2 -9 -14 -12 -14 -4 -19 -12 -16 -24 6
-22 47 -45 67 -37 9 4 17 -1 21 -13 6 -18 7 -18 50 3 24 12 44 28 45 35 0 6 5
12 12 12 6 0 4 8 -7 20 -17 18 -16 19 11 25 16 4 40 11 53 16 13 5 32 7 42 4
11 -4 19 -2 19 3 0 11 -22 21 -53 24 -12 1 8 4 46 7 81 7 90 26 12 27 -30 0
-58 3 -61 7 -9 9 -43 8 -69 -2z m-113 -98 c24 -22 23 -30 -7 -37 -36 -9 -55 5
-24 17 14 5 19 11 12 14 -13 5 -18 23 -6 23 3 0 15 -7 25 -17z"/>
<path d="M5313 3123 c9 -2 25 -2 35 0 9 3 1 5 -18 5 -19 0 -27 -2 -17 -5z"/>
<path d="M5603 3123 c9 -2 25 -2 35 0 9 3 1 5 -18 5 -19 0 -27 -2 -17 -5z"/>
<path d="M5823 3123 c9 -2 23 -2 30 0 6 3 -1 5 -18 5 -16 0 -22 -2 -12 -5z"/>
<path d="M4356 3111 c-4 -5 -15 -55 -27 -112 l-20 -103 23 -17 c36 -28 96 -39
190 -37 48 1 90 -1 94 -5 4 -4 13 1 19 10 10 14 9 20 -6 32 -18 15 -19 23 -9
120 9 84 9 106 -2 112 -18 12 -255 11 -262 0z"/>
<path d="M5938 3063 c6 -2 18 -2 25 0 6 3 1 5 -13 5 -14 0 -19 -2 -12 -5z"/>
<path d="M2290 3045 c-11 -13 -8 -15 25 -15 25 0 35 4 33 13 -7 18 -43 20 -58
2z"/>
<path d="M6108 3053 c12 -2 30 -2 40 0 9 3 -1 5 -23 4 -22 0 -30 -2 -17 -4z"/>
<path d="M1910 2925 c0 -9 5 -15 11 -13 6 2 11 8 11 13 0 5 -5 11 -11 13 -6 2
-11 -4 -11 -13z"/>
<path d="M2048 2933 c7 -3 16 -2 19 1 4 3 -2 6 -13 5 -11 0 -14 -3 -6 -6z"/>
<path d="M2160 2900 c19 -13 30 -13 30 0 0 6 -10 10 -22 10 -19 0 -20 -2 -8
-10z"/>
<path d="M2305 2900 c4 -6 11 -8 16 -5 14 9 11 15 -7 15 -8 0 -12 -5 -9 -10z"/>
<path d="M5954 2882 c13 -15 26 -20 45 -16 18 4 32 0 40 -10 12 -14 16 -14 34
-1 13 9 41 14 72 14 29 -1 38 -4 22 -6 -15 -2 -40 -11 -55 -19 -25 -13 -20
-14 57 -8 63 5 82 4 77 -4 -5 -8 0 -12 13 -12 12 0 21 6 21 13 0 24 -52 40
-155 49 -55 4 -120 11 -145 14 -45 6 -45 6 -26 -14z"/>
<path d="M3314 2878 c-12 -18 17 -26 105 -28 112 -3 126 -3 186 8 42 8 29 10
-85 11 -74 0 -150 5 -167 10 -22 6 -35 6 -39 -1z"/>
<path d="M2190 2870 l-25 -8 24 -1 c15 -1 21 -6 18 -15 -11 -27 49 -25 82 3
l30 26 -52 2 c-28 1 -63 -2 -77 -7z"/>
<path d="M3780 2866 c-34 -12 -34 -13 -13 -24 26 -14 216 -16 193 -2 -13 8
-13 9 0 14 8 2 22 7 30 9 8 3 -19 6 -60 6 -41 1 -84 3 -95 6 -11 2 -36 -2 -55
-9z m120 -16 c0 -5 -21 -10 -47 -9 -36 0 -43 3 -28 9 28 12 75 12 75 0z m37
-6 c-3 -3 -12 -4 -19 -1 -8 3 -5 6 6 6 11 1 17 -2 13 -5z"/>
<path d="M4245 2870 c-28 -5 -29 -7 -10 -17 11 -5 26 -8 33 -6 6 3 12 0 12 -6
0 -6 7 -11 15 -11 20 0 19 14 -2 32 -12 9 -28 12 -48 8z"/>
<path d="M5233 2873 c9 -2 23 -2 30 0 6 3 -1 5 -18 5 -16 0 -22 -2 -12 -5z"/>
<path d="M5296 2865 c-3 -9 -6 -19 -6 -22 0 -5 35 2 64 13 9 3 16 1 16 -4 0
-6 -8 -13 -17 -15 -10 -3 5 -5 32 -5 42 0 45 2 20 8 l-30 7 25 11 25 11 -31 0
c-17 1 -45 4 -61 7 -23 4 -32 2 -37 -11z"/>
<path d="M2120 2860 c0 -12 40 -33 48 -25 4 4 -2 13 -12 21 -23 16 -36 18 -36
4z"/>
<path d="M2510 2860 c24 -4 52 -5 61 -3 9 3 26 0 37 -6 15 -8 28 -8 46 0 20 9
29 9 41 -1 17 -14 50 -6 40 10 -4 6 -59 9 -138 9 -93 -1 -119 -4 -87 -9z"/>
<path d="M2753 2858 c2 -7 11 -11 18 -9 8 3 28 4 46 3 18 -1 35 3 38 8 4 6
-15 10 -50 10 -41 0 -55 -3 -52 -12z"/>
<path d="M2928 2863 c7 -3 16 -2 19 1 4 3 -2 6 -13 5 -11 0 -14 -3 -6 -6z"/>
<path d="M3228 2863 c6 -2 18 -2 25 0 6 3 1 5 -13 5 -14 0 -19 -2 -12 -5z"/>
<path d="M4037 2859 c7 -7 21 -7 44 -1 l34 10 -44 1 c-32 1 -42 -2 -34 -10z"/>
<path d="M4133 2863 c9 -2 23 -2 30 0 6 3 -1 5 -18 5 -16 0 -22 -2 -12 -5z"/>
<path d="M4692 2854 c-14 -10 -14 -14 -3 -28 7 -9 21 -16 31 -16 24 0 71 25
63 33 -3 4 -1 7 5 7 7 0 12 5 12 10 0 14 -88 8 -108 -6z"/>
<path d="M5504 2863 c4 -5 88 -8 186 -8 99 0 172 3 162 7 -23 9 -357 10 -348
1z"/>
<path d="M8257 2849 c-25 -28 -13 -37 22 -16 16 9 38 17 49 17 12 0 24 5 27
10 4 6 -11 10 -37 10 -32 0 -48 -6 -61 -21z"/>
<path d="M5160 2850 c0 -5 7 -10 16 -10 8 0 12 5 9 10 -3 6 -10 10 -16 10 -5
0 -9 -4 -9 -10z"/>
<path d="M6290 2850 c0 -5 17 -10 38 -10 20 0 51 -4 67 -8 40 -12 60 -5 44 14
-14 16 -149 20 -149 4z"/>
<path d="M2040 2841 c-26 -3 -39 -9 -30 -12 20 -8 80 1 80 12 0 5 -1 8 -2 7
-2 0 -23 -4 -48 -7z"/>
<path d="M3664 2839 c-3 -5 9 -9 25 -9 17 0 31 2 31 4 0 8 -51 13 -56 5z"/>
<path d="M8182 2842 c-12 -2 -20 -8 -17 -13 8 -12 55 -12 55 0 0 14 -11 18
-38 13z"/>
<path d="M2868 2833 c7 -3 16 -2 19 1 4 3 -2 6 -13 5 -11 0 -14 -3 -6 -6z"/>
<path d="M4038 2833 c6 -2 18 -2 25 0 6 3 1 5 -13 5 -14 0 -19 -2 -12 -5z"/>
<path d="M5463 2833 c9 -2 23 -2 30 0 6 3 -1 5 -18 5 -16 0 -22 -2 -12 -5z"/>
<path d="M5763 2833 c9 -2 25 -2 35 0 9 3 1 5 -18 5 -19 0 -27 -2 -17 -5z"/>
<path d="M7350 2829 c0 -5 5 -7 10 -4 6 3 10 8 10 11 0 2 -4 4 -10 4 -5 0 -10
-5 -10 -11z"/>
<path d="M3565 2821 c-3 -5 -1 -12 5 -16 5 -3 10 1 10 9 0 18 -6 21 -15 7z"/>
<path d="M6885 2820 c-3 -5 1 -10 9 -10 8 0 18 5 21 10 3 6 -1 10 -9 10 -8 0
-18 -4 -21 -10z"/>
<path d="M7486 2823 c-7 -7 13 -33 25 -33 5 0 9 6 9 14 0 15 -24 28 -34 19z"/>
<path d="M3715 2810 c-19 -8 -19 -9 2 -9 12 -1 25 4 28 9 7 12 -2 12 -30 0z"/>
<path d="M4390 2810 c0 -5 7 -7 15 -4 8 4 15 8 15 10 0 2 -7 4 -15 4 -8 0 -15
-4 -15 -10z"/>
<path d="M1623 2803 c-41 -5 -43 -23 -3 -23 17 0 30 5 30 11 0 6 7 9 15 6 8
-4 17 -2 20 3 6 10 -2 10 -62 3z"/>
<path d="M4175 2800 c3 -5 13 -10 21 -10 8 0 14 5 14 10 0 6 -9 10 -21 10 -11
0 -17 -4 -14 -10z"/>
<path d="M2475 2790 c-3 -5 1 -10 9 -10 9 0 16 5 16 10 0 6 -4 10 -9 10 -6 0
-13 -4 -16 -10z"/>
<path d="M3375 2789 c-10 -14 -1 -21 19 -13 9 3 13 10 10 15 -7 12 -21 11 -29
-2z"/>
<path d="M6529 2793 c-11 -3 -15 -12 -11 -28 l4 -24 24 24 c34 34 30 41 -17
28z"/>
<path d="M6610 2785 c0 -8 5 -15 10 -15 6 0 10 7 10 15 0 8 -4 15 -10 15 -5 0
-10 -7 -10 -15z"/>
<path d="M6670 2790 c0 -5 5 -10 10 -10 6 0 10 5 10 10 0 6 -4 10 -10 10 -5 0
-10 -4 -10 -10z"/>
<path d="M8035 2790 c3 -5 10 -10 16 -10 5 0 9 5 9 10 0 6 -7 10 -16 10 -8 0
-12 -4 -9 -10z"/>
<path d="M2212 2782 c-7 -2 -12 -8 -12 -13 0 -9 56 -7 65 3 7 7 -37 16 -53 10z"/>
<path d="M3834 2775 c8 -8 17 -15 20 -15 3 0 3 7 0 15 -4 8 -13 15 -21 15 -12
0 -12 -2 1 -15z"/>
<path d="M4110 2780 c0 -5 14 -10 31 -10 17 0 28 4 24 10 -3 6 -17 10 -31 10
-13 0 -24 -4 -24 -10z"/>
<path d="M8096 2781 c-3 -4 6 -6 19 -3 14 2 25 6 25 8 0 8 -39 4 -44 -5z"/>
<path d="M1508 2773 c7 -3 16 -2 19 1 4 3 -2 6 -13 5 -11 0 -14 -3 -6 -6z"/>
<path d="M2603 2763 c16 -16 18 -16 34 0 16 16 15 17 -17 17 -32 0 -33 -1 -17
-17z"/>
<path d="M2910 2770 c0 -13 11 -13 30 0 12 8 11 10 -7 10 -13 0 -23 -4 -23
-10z"/>
<path d="M4278 2773 c6 -2 18 -2 25 0 6 3 1 5 -13 5 -14 0 -19 -2 -12 -5z"/>
<path d="M5883 2773 c9 -2 23 -2 30 0 6 3 -1 5 -18 5 -16 0 -22 -2 -12 -5z"/>
<path d="M7028 2772 c-10 -2 -18 -8 -18 -13 0 -13 27 -11 35 2 9 13 4 16 -17
11z"/>
<path d="M7115 2770 c3 -5 17 -10 31 -10 14 0 22 4 19 10 -3 6 -17 10 -31 10
-14 0 -22 -4 -19 -10z"/>
<path d="M8178 2773 c7 -3 16 -2 19 1 4 3 -2 6 -13 5 -11 0 -14 -3 -6 -6z"/>
<path d="M4640 2760 c0 -6 7 -10 15 -10 8 0 15 2 15 4 0 2 -7 6 -15 10 -8 3
-15 1 -15 -4z"/>
<path d="M4790 2750 c0 -5 9 -10 21 -10 11 0 17 5 14 10 -3 6 -13 10 -21 10
-8 0 -14 -4 -14 -10z"/>
<path d="M5585 2752 c-2 -2 -56 -4 -120 -4 -102 0 -114 -2 -96 -14 28 -20 81
-29 81 -15 0 8 6 8 20 -1 16 -11 22 -9 35 7 13 17 16 18 25 5 5 -8 10 -10 10
-4 0 7 19 12 50 12 55 0 61 -4 28 -18 -29 -12 76 -1 110 11 14 5 31 5 41 0 23
-13 131 -8 156 7 16 9 1 11 -75 11 -52 0 -132 2 -178 3 -46 2 -85 1 -87 0z"/>
<path d="M6625 2750 c-3 -5 1 -10 10 -10 9 0 13 5 10 10 -3 6 -8 10 -10 10 -2
0 -7 -4 -10 -10z"/>
<path d="M2700 2740 c0 -5 7 -10 16 -10 8 0 12 5 9 10 -3 6 -10 10 -16 10 -5
0 -9 -4 -9 -10z"/>
<path d="M4090 2740 c0 -5 5 -10 10 -10 6 0 10 5 10 10 0 6 -4 10 -10 10 -5 0
-10 -4 -10 -10z"/>
<path d="M6665 2730 c3 -5 10 -10 16 -10 5 0 9 5 9 10 0 6 -7 10 -16 10 -8 0
-12 -4 -9 -10z"/>
<path d="M7000 2725 c0 -9 9 -15 25 -15 28 0 34 15 9 24 -25 10 -34 7 -34 -9z"/>
<path d="M9150 3084 c0 -11 45 -43 61 -44 12 0 15 7 11 25 -4 21 -10 25 -38
25 -19 0 -34 -3 -34 -6z"/>
<path d="M9653 2933 c9 -2 23 -2 30 0 6 3 -1 5 -18 5 -16 0 -22 -2 -12 -5z"/>
<path d="M9870 2920 c0 -5 5 -10 10 -10 6 0 10 5 10 10 0 6 -4 10 -10 10 -5 0
-10 -4 -10 -10z"/>
<path d="M9901 2926 c12 -10 59 -15 59 -6 0 5 -14 10 -32 10 -17 0 -29 -2 -27
-4z"/>
<path d="M10108 2918 c9 -9 15 -9 24 0 9 9 7 12 -12 12 -19 0 -21 -3 -12 -12z"/>
<path d="M9505 2910 c-3 -5 3 -10 15 -10 12 0 18 5 15 10 -3 6 -10 10 -15 10
-5 0 -12 -4 -15 -10z"/>
<path d="M9636 2902 c-14 -24 6 -37 59 -39 54 -2 67 5 43 25 -19 15 -95 25
-102 14z"/>
<path d="M9838 2903 c7 -3 16 -2 19 1 4 3 -2 6 -13 5 -11 0 -14 -3 -6 -6z"/>
<path d="M9770 2881 c0 -14 6 -21 20 -21 11 0 20 -4 20 -10 0 -5 -5 -10 -12
-10 -7 0 -8 -3 -2 -9 10 -10 124 9 124 21 0 4 -4 8 -10 8 -5 0 -7 7 -3 15 4
13 -3 15 -43 14 -27 -1 -59 2 -71 6 -19 6 -23 4 -23 -14z"/>
<path d="M8753 2873 c9 -2 25 -2 35 0 9 3 1 5 -18 5 -19 0 -27 -2 -17 -5z"/>
<path d="M8897 2860 c5 -17 0 -20 -33 -21 -38 -1 -38 -2 -9 -8 17 -4 34 -4 40
1 5 4 20 8 34 8 l25 0 -22 20 c-12 11 -25 20 -31 20 -5 0 -7 -9 -4 -20z"/>
<path d="M9080 2855 c7 -8 23 -15 36 -15 15 0 24 6 24 15 0 11 -11 15 -36 15
-31 0 -35 -2 -24 -15z"/>
<path d="M9255 2861 c17 -4 29 -13 27 -20 -1 -7 5 -11 15 -9 10 2 18 10 18 18
0 11 -13 15 -45 17 -38 1 -40 0 -15 -6z"/>
<path d="M9548 2863 c6 -2 18 -2 25 0 6 3 1 5 -13 5 -14 0 -19 -2 -12 -5z"/>
<path d="M8980 2850 c0 -5 5 -10 11 -10 5 0 7 5 4 10 -3 6 -8 10 -11 10 -2 0
-4 -4 -4 -10z"/>
<path d="M9170 2850 c0 -5 4 -10 9 -10 6 0 13 5 16 10 3 6 -1 10 -9 10 -9 0
-16 -4 -16 -10z"/>
<path d="M9365 2850 c-3 -5 -1 -10 4 -10 6 0 11 5 11 10 0 6 -2 10 -4 10 -3 0
-8 -4 -11 -10z"/>
<path d="M8665 2820 c-3 -5 -1 -10 4 -10 6 0 11 5 11 10 0 6 -2 10 -4 10 -3 0
-8 -4 -11 -10z"/>
<path d="M9560 2790 c0 -5 16 -10 35 -10 19 0 35 5 35 10 0 6 -16 10 -35 10
-19 0 -35 -4 -35 -10z"/>
<path d="M9740 2793 c0 -5 18 -9 40 -10 22 -2 40 2 40 7 0 6 -18 10 -40 10
-22 0 -40 -3 -40 -7z"/>
<path d="M9860 2790 c0 -5 9 -10 19 -10 11 0 23 5 26 10 4 6 -5 10 -19 10 -14
0 -26 -4 -26 -10z"/>
<path d="M10000 2790 c0 -5 4 -10 9 -10 6 0 13 5 16 10 3 6 -1 10 -9 10 -9 0
-16 -4 -16 -10z"/>
<path d="M8697 2739 c7 -7 15 -10 18 -7 3 3 -2 9 -12 12 -14 6 -15 5 -6 -5z"/>
<path d="M9170 2730 c0 -5 5 -10 10 -10 6 0 10 5 10 10 0 6 -4 10 -10 10 -5 0
-10 -4 -10 -10z"/>
<path d="M9205 2730 c3 -5 15 -10 26 -10 10 0 19 5 19 10 0 6 -12 10 -26 10
-14 0 -23 -4 -19 -10z"/>
<path d="M10742 3013 c4 -19 44 -20 62 -2 16 15 -4 24 -24 11 -12 -7 -20 -8
-20 -2 0 5 -5 10 -11 10 -6 0 -9 -8 -7 -17z"/>
<path d="M10485 3006 c-17 -12 -16 -14 16 -24 64 -19 78 -21 72 -7 -3 10 2 12
16 8 27 -7 93 6 86 16 -10 17 -66 18 -75 2 -7 -14 -10 -14 -27 2 -23 20 -62
22 -88 3z"/>
<path d="M10876 2991 c-4 -6 -2 -11 4 -11 7 0 9 -7 6 -16 -5 -12 0 -15 22 -12
16 2 27 9 27 18 0 9 -7 14 -19 12 -10 -2 -22 2 -26 8 -5 9 -9 9 -14 1z"/>
<path d="M11010 2955 c-7 -8 -24 -15 -39 -15 -41 0 -58 -16 -24 -23 39 -7 81
2 88 21 8 23 -10 36 -25 17z"/>
<path d="M11183 2943 c-7 -2 -13 -12 -13 -21 0 -14 2 -14 9 -3 5 8 16 11 25 8
8 -3 18 -2 21 2 4 7 -20 24 -28 20 -1 0 -8 -3 -14 -6z"/>
<path d="M11113 2933 c9 -2 23 -2 30 0 6 3 -1 5 -18 5 -16 0 -22 -2 -12 -5z"/>
<path d="M10700 2911 c0 -13 34 -28 70 -30 13 -1 17 -6 14 -16 -4 -9 0 -15 9
-15 30 0 117 24 117 32 0 4 -24 8 -53 8 -31 0 -61 6 -73 15 -21 16 -84 20 -84
6z"/>
<path d="M11045 2910 c-3 -5 -24 -10 -46 -10 -40 0 -58 -17 -44 -40 5 -8 11
-8 20 0 21 17 60 8 59 -13 -2 -22 44 -24 52 -2 4 8 15 15 26 15 11 0 18 5 15
13 -2 6 -11 11 -21 9 -9 -2 -16 2 -16 8 0 5 12 10 28 10 21 0 24 2 12 10 -20
13 -77 13 -85 0z"/>
<path d="M10708 2863 c7 -3 16 -2 19 1 4 3 -2 6 -13 5 -11 0 -14 -3 -6 -6z"/>
<path d="M11145 2825 c20 -16 37 -16 36 0 0 6 -13 11 -28 13 -27 2 -27 2 -8
-13z"/>
<path d="M11285 2830 c3 -5 15 -10 26 -10 10 0 19 5 19 10 0 6 -12 10 -26 10
-14 0 -23 -4 -19 -10z"/>
<path d="M10990 2820 c0 -5 5 -10 10 -10 6 0 10 5 10 10 0 6 -4 10 -10 10 -5
0 -10 -4 -10 -10z"/>
<path d="M10930 2791 c0 -6 17 -12 38 -14 20 -2 0 -4 -45 -5 -98 -2 -114 -22
-18 -22 35 0 75 -5 88 -11 17 -8 31 -8 43 -1 16 9 16 10 -4 16 -25 8 -30 26
-7 26 8 0 15 5 15 10 0 6 -25 10 -55 10 -30 0 -55 -4 -55 -9z"/>
<path d="M8475 2730 c3 -5 12 -10 20 -10 8 0 17 5 20 10 4 6 -5 10 -20 10 -15
0 -24 -4 -20 -10z"/>
<path d="M11598 6294 c-3 -5 -9 -28 -13 -51 -5 -35 -4 -43 9 -43 16 0 36 29
36 52 0 20 -26 53 -32 42z"/>
<path d="M11991 6054 c0 -11 3 -14 6 -6 3 7 2 16 -1 19 -3 4 -6 -2 -5 -13z"/>
<path d="M11973 5993 c-18 -7 -16 -30 3 -37 23 -9 24 -8 24 19 0 25 -4 28 -27
18z"/>
<path d="M10941 4294 c0 -11 3 -14 6 -6 3 7 2 16 -1 19 -3 4 -6 -2 -5 -13z"/>
<path d="M11120 4295 c0 -8 7 -15 15 -15 8 0 15 7 15 15 0 8 -7 15 -15 15 -8
0 -15 -7 -15 -15z"/>
<path d="M11164 4233 c-16 -5 -5 -43 12 -43 8 0 14 9 14 19 0 22 -9 30 -26 24z"/>
<path d="M10580 4221 c0 -6 5 -13 10 -16 6 -3 10 1 10 9 0 9 -4 16 -10 16 -5
0 -10 -4 -10 -9z"/>
<path d="M11224 3985 c-3 -8 -1 -27 4 -42 10 -27 10 -26 11 15 1 43 -5 54 -15
27z"/>
<path d="M10388 3958 c8 -8 17 -8 34 0 22 10 21 11 -11 11 -27 1 -32 -2 -23
-11z"/>
<path d="M180 3070 c0 -5 5 -10 10 -10 6 0 10 5 10 10 0 6 -4 10 -10 10 -5 0
-10 -4 -10 -10z"/>
<path d="M1360 3055 c-13 -14 -33 -24 -44 -24 -12 1 -41 1 -66 0 -42 -2 -44
-3 -20 -14 14 -6 27 -15 30 -18 3 -4 19 -10 35 -14 23 -5 27 -4 15 4 -11 8 0
9 44 5 l58 -7 -16 31 c-21 41 -21 42 15 42 17 0 28 4 24 10 -11 18 -51 10 -75
-15z"/>
<path d="M1815 3050 c26 -11 68 -12 61 -2 -3 5 -22 9 -43 10 -29 0 -33 -2 -18
-8z"/>
<path d="M1715 3027 c-26 -20 -4 -29 36 -15 29 10 31 12 13 19 -27 11 -28 11
-49 -4z"/>
<path d="M1463 3016 c4 -14 47 -21 47 -8 0 5 -11 12 -25 15 -16 3 -24 0 -22
-7z"/>
<path d="M1575 3010 c-3 -5 -16 -10 -28 -10 -20 0 -20 -1 -4 -17 15 -16 18
-16 35 0 10 9 24 17 31 17 7 0 9 5 6 10 -3 6 -12 10 -20 10 -8 0 -17 -4 -20
-10z"/>
<path d="M1670 3011 c0 -5 7 -11 14 -14 10 -4 13 -1 9 9 -6 15 -23 19 -23 5z"/>
<path d="M1175 2979 c-10 -15 2 -23 22 -14 10 5 21 9 25 9 23 3 16 16 -10 16
-17 0 -34 -5 -37 -11z"/>
<path d="M1260 2960 c0 -5 5 -10 10 -10 6 0 10 5 10 10 0 6 -4 10 -10 10 -5 0
-10 -4 -10 -10z"/>
<path d="M1210 2950 c0 -5 7 -10 15 -10 8 0 15 5 15 10 0 6 -7 10 -15 10 -8 0
-15 -4 -15 -10z"/>
<path d="M1165 2930 c-3 -5 -1 -10 4 -10 6 0 11 5 11 10 0 6 -2 10 -4 10 -3 0
-8 -4 -11 -10z"/>
<path d="M770 2910 c0 -5 7 -10 15 -10 8 0 15 5 15 10 0 6 -7 10 -15 10 -8 0
-15 -4 -15 -10z"/>
<path d="M505 2900 c-4 -6 -18 -9 -32 -8 -38 4 -39 -18 -1 -36 31 -16 35 -16
70 0 44 20 49 34 12 34 -14 0 -23 4 -19 10 3 6 -1 10 -9 10 -8 0 -18 -5 -21
-10z"/>
<path d="M1085 2890 c3 -5 8 -10 11 -10 2 0 4 5 4 10 0 6 -5 10 -11 10 -5 0
-7 -4 -4 -10z"/>
<path d="M1150 2861 c0 -5 9 -7 20 -4 11 3 20 7 20 9 0 2 -9 4 -20 4 -11 0
-20 -4 -20 -9z"/>
<path d="M1208 2863 c7 -3 16 -2 19 1 4 3 -2 6 -13 5 -11 0 -14 -3 -6 -6z"/>
<path d="M581 2847 c-7 -10 -26 -17 -41 -17 -16 0 -30 -7 -34 -15 -8 -22 42
-20 67 3 15 12 21 14 24 5 5 -15 73 -18 73 -3 0 6 -15 10 -34 10 -24 0 -36 5
-38 17 -3 15 -4 15 -17 0z"/>
<path d="M118 2823 c-22 -5 -22 -10 -3 -30 20 -19 37 -13 42 15 3 22 -4 24
-39 15z"/>
<path d="M310 2820 c0 -5 7 -10 15 -10 8 0 15 5 15 10 0 6 -7 10 -15 10 -8 0
-15 -4 -15 -10z"/>
<path d="M808 2804 c-3 -3 -20 -6 -37 -6 -41 -1 -40 -14 2 -21 23 -4 38 0 52
14 16 15 17 19 4 19 -9 0 -18 -3 -21 -6z"/>
<path d="M472 2780 c0 -14 2 -19 5 -12 2 6 2 18 0 25 -3 6 -5 1 -5 -13z"/>
</g>
</svg>
