<?xml version="1.0" standalone="no"?>
<!DOCTYPE svg PUBLIC "-//W3C//DTD SVG 20010904//EN"
 "http://www.w3.org/TR/2001/REC-SVG-20010904/DTD/svg10.dtd">
<svg version="1.0" xmlns="http://www.w3.org/2000/svg"
 width="1200.000000pt" height="700.000000pt" viewBox="0 0 1200.000000 700.000000"
 preserveAspectRatio="xMidYMid meet">

<g transform="translate(0.000000,700.000000) scale(0.100000,-0.100000)"
fill="#000000" stroke="none">
<path d="M0 3500 l0 -3500 6000 0 6000 0 0 2070 0 2070 -46 -2 c-52 -3 -74 16
-74 62 0 36 20 58 55 62 23 2 31 9 33 26 2 16 8 22 18 18 11 -4 14 12 14 94 0
82 -2 98 -14 94 -12 -4 -16 5 -18 43 -3 40 -6 48 -23 48 -17 0 -20 -8 -23 -47
-2 -34 -7 -48 -18 -48 -11 0 -14 15 -14 65 l0 65 43 0 c36 0 46 -4 55 -22 8
-18 11 25 11 174 l1 198 -5807 2 c-4634 2 -5807 6 -5811 16 -3 9 1163 12 5807
12 l5811 0 0 1000 0 1000 -6000 0 -6000 0 0 -3500z m440 3289 l5 -44 52 -3 52
-3 3 48 c2 35 7 48 18 48 12 0 16 -19 20 -95 6 -119 3 -140 -21 -140 -16 0
-19 8 -19 45 l0 45 -55 0 -55 0 0 -45 c0 -37 -3 -45 -19 -45 -23 0 -31 35 -31
132 0 72 13 112 33 105 7 -2 14 -23 17 -48z m890 16 c0 -35 1 -36 34 -30 27 6
38 2 55 -16 17 -19 21 -35 21 -91 0 -66 -1 -68 -25 -68 -24 0 -25 2 -25 64 0
50 -4 65 -16 70 -30 11 -44 -13 -44 -75 0 -56 -1 -59 -25 -59 l-25 0 0 120 0
120 25 0 c22 0 25 -4 25 -35z m1068 8 c3 -20 -1 -23 -32 -23 l-36 0 0 -95 c0
-95 0 -95 -25 -95 -25 0 -25 0 -25 95 l0 95 -29 0 c-34 0 -44 11 -35 34 5 14
21 16 93 14 81 -3 86 -4 89 -25z m482 8 c0 -27 -19 -36 -37 -18 -18 18 -9 37
18 37 12 0 19 -7 19 -19z m-1650 -26 c5 -14 14 -25 20 -25 5 0 10 -7 10 -15 0
-8 -7 -15 -15 -15 -11 0 -15 -12 -15 -50 0 -36 4 -52 15 -56 26 -10 17 -34
-13 -34 -41 0 -52 17 -52 81 0 41 -4 58 -15 63 -8 3 -15 10 -15 16 0 5 7 10
15 10 9 0 15 9 15 25 0 18 5 25 20 25 13 0 24 -10 30 -25z m1550 6 c0 -11 9
-23 20 -26 11 -3 20 -11 20 -17 0 -5 -9 -12 -20 -15 -16 -4 -20 -14 -20 -49 0
-32 6 -49 20 -61 30 -26 25 -35 -17 -31 l-38 3 -5 61 c-3 34 -12 69 -20 79
-13 15 -12 19 3 30 9 7 17 20 17 29 0 9 8 16 20 16 13 0 20 -7 20 -19z m-2105
-81 c5 -23 15 -42 20 -43 6 -1 16 19 24 46 12 38 19 47 38 47 13 0 23 -3 23
-7 0 -17 -66 -181 -80 -200 -21 -29 -58 -39 -67 -18 -5 16 6 29 32 38 9 3 -8
66 -35 132 -17 41 -19 54 -7 58 23 8 42 -12 52 -53z m259 39 c14 -11 26 -27
26 -34 0 -26 20 -26 30 -1 14 37 53 59 89 51 62 -13 89 -86 54 -145 -29 -50
-112 -46 -139 8 -18 36 -21 36 -39 -2 -13 -27 -24 -36 -44 -37 -63 -3 -66 -4
-66 -29 0 -18 -6 -26 -22 -28 -23 -3 -23 -2 -23 112 l0 115 43 4 c23 2 47 4
53 5 6 1 23 -7 38 -19z m669 -9 c11 -13 17 -31 15 -48 -3 -25 -7 -27 -55 -30
-29 -2 -53 -5 -53 -7 0 -32 44 -47 67 -24 16 16 44 4 37 -15 -8 -21 -59 -36
-95 -29 -62 12 -79 104 -29 155 26 25 36 29 62 24 18 -3 40 -15 51 -26z m162
10 c8 -7 15 -19 15 -26 0 -16 -36 -19 -45 -4 -10 16 -45 12 -45 -5 0 -8 7 -15
15 -15 9 0 29 -7 45 -15 23 -12 30 -23 30 -44 0 -38 -24 -56 -71 -55 -41 1
-69 18 -69 40 0 16 36 19 45 4 9 -14 45 -12 45 3 -1 6 -20 21 -43 32 -50 24
-59 53 -25 85 25 23 75 23 103 0z m148 9 c29 -13 50 -49 45 -75 -2 -15 -15
-20 -58 -24 -57 -5 -68 -15 -38 -33 12 -8 23 -7 42 2 13 8 33 11 42 7 16 -6
16 -8 -3 -28 -15 -15 -33 -20 -64 -20 -55 1 -88 35 -82 85 10 79 56 113 116
86z m188 -8 c20 -16 22 -22 11 -33 -10 -10 -16 -10 -32 0 -26 16 -50 15 -50
-1 0 -7 19 -19 43 -27 36 -13 42 -19 45 -46 4 -40 -17 -57 -69 -57 -28 0 -47
7 -62 21 -19 20 -20 22 -3 28 10 4 27 2 37 -4 25 -16 49 -15 49 1 0 7 -17 19
-37 26 -58 21 -70 54 -33 91 25 25 71 26 101 1z m393 8 c27 -13 52 -60 43 -83
-4 -10 -24 -16 -59 -18 -55 -3 -66 -13 -36 -32 13 -8 23 -8 38 2 29 18 52 15
48 -5 -5 -27 -52 -45 -90 -35 -48 12 -73 65 -56 118 8 23 23 44 38 51 31 16
42 16 74 2z m196 -15 c24 -23 -2 -40 -39 -24 -29 12 -56 6 -46 -10 3 -4 17
-11 32 -15 57 -14 83 -66 47 -96 -26 -22 -90 -17 -116 8 -20 21 -21 23 -4 29
10 4 27 2 37 -4 25 -16 49 -15 49 1 0 7 -17 19 -37 26 -58 21 -70 54 -32 92
17 17 28 20 57 14 21 -3 44 -13 52 -21z m190 -70 c0 -77 -2 -84 -20 -84 -18 0
-20 7 -20 84 0 58 4 86 13 89 23 8 27 -4 27 -89z m169 72 c17 -16 21 -31 21
-88 0 -66 -1 -68 -25 -68 -24 0 -25 3 -25 59 0 42 -5 62 -16 72 -26 21 -54
-21 -54 -82 0 -42 -3 -49 -20 -49 -18 0 -20 7 -20 84 0 58 4 86 12 88 33 11
107 2 127 -16z m135 14 c14 -5 28 -5 31 -1 3 5 14 7 25 4 18 -5 20 -14 20 -87
0 -62 -5 -88 -19 -112 -24 -40 -78 -53 -116 -28 -27 17 -30 52 -4 45 30 -9 82
-6 86 6 3 8 -6 10 -31 6 -30 -5 -40 -1 -66 25 -54 55 -33 124 47 151 1 1 13
-3 27 -9z m924 -659 c-2 -9 -11 -17 -21 -19 -21 -4 -35 27 -17 38 19 12 42 0
38 -19z m-3543 -6 c0 -15 -8 -21 -32 -23 l-33 -3 0 -95 c0 -87 -1 -94 -20 -94
-19 0 -20 7 -20 95 l0 95 -35 0 c-23 0 -38 6 -42 16 -10 26 17 34 102 32 72
-3 80 -5 80 -23z m75 -10 c0 -33 1 -34 30 -28 24 4 37 0 55 -17 22 -21 25 -32
25 -92 0 -66 -1 -68 -25 -68 -24 0 -25 2 -25 64 0 48 -4 65 -15 70 -34 13 -45
-4 -45 -70 0 -62 -1 -64 -25 -64 l-25 0 0 120 0 120 25 0 c22 0 25 -4 25 -35z
m972 3 c3 -31 5 -33 36 -30 51 5 82 -28 82 -88 0 -73 -18 -90 -96 -90 l-64 0
0 120 c0 112 1 120 19 120 15 0 21 -8 23 -32z m818 -88 l0 -120 -62 0 c-50 0
-66 4 -85 22 -30 28 -31 88 -2 130 19 26 27 29 63 26 40 -3 41 -2 44 30 2 24
8 32 23 32 18 0 19 -8 19 -120z m200 116 c0 -2 -7 -20 -15 -39 -19 -47 -19
-173 0 -207 20 -34 18 -50 -4 -50 -29 0 -61 77 -61 149 0 75 30 151 60 151 11
0 20 -2 20 -4z m147 -26 c12 -25 55 -144 68 -187 5 -18 2 -23 -12 -23 -24 0
-43 19 -43 42 0 14 -8 18 -32 18 -40 0 -53 -8 -62 -37 -5 -16 -15 -23 -32 -23
-13 0 -24 2 -24 5 0 3 16 47 35 96 19 50 35 96 35 103 0 18 22 37 39 34 9 -2
21 -14 28 -28z m1593 -27 c25 -68 24 -137 -5 -196 -32 -69 -68 -64 -41 6 20
53 21 143 1 190 -20 47 -19 57 4 57 15 0 25 -15 41 -57z m192 35 c7 -13 23
-48 34 -78 12 -30 25 -55 30 -57 5 -1 23 32 40 75 27 66 35 77 55 77 24 0 24
-1 27 -117 3 -113 2 -118 -18 -118 -18 0 -20 6 -20 60 0 33 -3 60 -8 60 -4 0
-18 -27 -31 -60 -33 -82 -53 -79 -90 10 l-26 65 -3 -67 c-3 -60 -5 -68 -22
-68 -19 0 -20 8 -20 113 0 63 3 117 7 120 13 13 33 7 45 -15z m548 -12 c0 -34
1 -35 35 -29 58 9 75 -14 75 -104 0 -66 -2 -73 -20 -73 -17 0 -20 7 -20 51 0
50 -13 89 -30 89 -24 0 -40 -34 -40 -86 0 -52 -2 -55 -22 -52 -13 2 -22 6 -20
11 1 4 2 57 2 117 0 103 1 110 20 110 16 0 20 -7 20 -34z m490 -85 l0 -119
-62 -1 c-80 -1 -108 21 -108 86 0 62 36 98 91 90 39 -5 39 -5 39 29 0 27 4 34
20 34 19 0 20 -7 20 -119z m-1890 80 c0 -10 9 -21 20 -24 11 -3 20 -10 20 -16
0 -6 -9 -15 -20 -21 -14 -8 -20 -21 -20 -45 0 -22 8 -43 20 -55 28 -28 25 -40
-10 -40 -37 0 -50 23 -50 89 0 28 -4 51 -10 51 -5 0 -10 9 -10 20 0 11 4 20 9
20 5 0 11 9 14 20 7 25 37 26 37 1z m297 -1 c3 -10 14 -22 24 -25 25 -8 24
-25 -1 -32 -17 -4 -20 -14 -20 -54 0 -39 4 -50 21 -60 28 -14 11 -32 -27 -27
-28 3 -29 5 -32 66 -2 44 -7 65 -17 69 -20 7 -19 43 0 43 8 0 15 9 15 20 0 26
30 26 37 0z m1003 1 c0 -10 9 -21 20 -24 11 -3 20 -10 20 -16 0 -6 -9 -15 -20
-21 -15 -8 -20 -21 -20 -50 0 -29 5 -43 20 -52 31 -20 24 -38 -14 -38 -39 0
-46 11 -46 78 0 27 -6 52 -15 63 -14 15 -14 18 0 32 8 9 15 23 15 31 0 9 8 16
20 16 13 0 20 -7 20 -19z m-4100 -48 c12 -15 20 -38 18 -52 -3 -23 -8 -26 -48
-29 -65 -4 -75 -9 -56 -27 18 -18 30 -19 55 -3 10 6 26 8 36 4 17 -6 17 -7 0
-26 -13 -15 -31 -20 -64 -20 -41 0 -49 4 -64 29 -41 70 -5 151 67 151 26 0 40
-7 56 -27z m161 17 c10 -6 26 -27 34 -46 13 -32 13 -40 -1 -72 -19 -45 -29
-52 -82 -52 -37 0 -45 4 -63 33 -50 80 31 180 112 137z m225 -26 c8 -18 14
-43 14 -54 0 -36 18 -21 36 31 19 52 37 70 55 52 8 -8 0 -34 -53 -176 -15 -39
-35 -57 -64 -57 -30 0 -31 23 -2 42 l21 14 -28 75 c-16 41 -30 75 -31 77 -1 2
-16 -4 -33 -13 -29 -15 -31 -19 -31 -76 0 -56 -2 -60 -21 -57 -19 3 -22 11
-26 76 -3 40 -2 79 0 86 4 9 28 13 77 13 l72 0 14 -33z m588 14 c11 -15 16
-45 16 -90 l0 -68 -63 0 c-69 0 -87 10 -87 51 0 33 14 45 63 54 22 4 36 12 34
19 -4 12 -28 12 -64 1 -18 -6 -23 -3 -23 10 0 46 96 63 124 23z m167 1 c28
-28 11 -49 -25 -29 -24 12 -66 7 -52 -8 4 -3 26 -14 49 -22 35 -13 43 -21 45
-45 5 -37 -19 -55 -73 -55 -29 0 -47 6 -60 20 -17 19 -17 20 0 26 10 4 26 2
36 -4 25 -16 49 -15 49 1 0 6 -18 19 -39 28 -54 23 -67 49 -40 83 26 33 79 36
110 5z m161 7 c22 -16 39 -61 32 -80 -4 -10 -23 -16 -55 -18 -50 -3 -63 -15
-35 -33 11 -7 22 -6 36 3 20 12 50 16 50 6 0 -3 -5 -14 -10 -25 -8 -15 -21
-19 -60 -19 -41 0 -52 4 -70 28 -59 74 38 195 112 138z m770 -3 c10 -9 18 -22
18 -30 0 -15 -36 -18 -45 -3 -9 15 -45 12 -45 -4 0 -7 14 -16 32 -20 42 -8 58
-23 58 -55 0 -38 -17 -51 -70 -51 -46 0 -70 13 -70 37 0 15 36 18 45 3 9 -14
45 -12 45 3 0 7 -19 21 -42 32 -48 22 -57 44 -34 80 20 30 79 34 108 8z m89
-35 c8 -26 18 -50 21 -53 3 -3 14 17 24 46 19 52 37 70 55 52 8 -8 -14 -81
-58 -186 -17 -39 -47 -55 -80 -42 -16 6 -14 9 11 30 l29 23 -18 44 c-28 68
-44 126 -37 132 16 17 38 -3 53 -46z m247 39 c9 -7 16 -7 24 1 17 17 59 15 80
-5 14 -13 18 -31 18 -90 0 -66 -2 -73 -20 -73 -17 0 -20 7 -20 53 0 60 -17 92
-43 81 -14 -5 -17 -19 -17 -70 0 -62 -1 -64 -25 -64 -24 0 -25 2 -25 64 0 67
-10 86 -35 66 -10 -8 -15 -32 -15 -72 0 -56 -1 -59 -22 -56 -21 3 -23 9 -26
77 -2 41 -1 79 1 86 6 14 108 17 125 2z m289 -3 c30 -19 39 -83 18 -128 -16
-33 -21 -36 -60 -36 -39 0 -43 -2 -48 -30 -5 -21 -12 -30 -27 -30 -19 0 -20 6
-20 119 l0 118 58 1 c31 0 67 -6 79 -14z m294 -10 c31 -33 33 -102 5 -133 -29
-32 -98 -29 -125 5 -68 86 46 207 120 128z m207 -67 c3 -87 2 -88 -20 -85 -21
3 -23 9 -26 77 -3 86 1 104 25 99 15 -3 18 -17 21 -91z m160 73 c12 -12 22
-25 22 -31 0 -19 -31 -21 -51 -3 -29 26 -54 8 -54 -41 0 -48 25 -68 53 -42 21
19 52 23 52 5 0 -27 -34 -48 -76 -48 -34 0 -47 5 -63 26 -34 43 -22 115 23
146 21 15 72 8 94 -12z m635 6 c19 -15 37 -63 30 -83 -3 -8 -25 -13 -60 -13
-56 0 -66 -11 -30 -34 12 -8 22 -7 37 2 26 16 50 15 50 -2 0 -25 -28 -37 -77
-34 -44 3 -50 6 -67 39 -22 40 -18 71 15 112 23 30 71 36 102 13z m469 3 c30
-16 49 -70 38 -109 -14 -50 -28 -60 -81 -60 -42 0 -51 4 -66 27 -55 84 23 188
109 142z m-3834 -76 c-4 -22 -96 -32 -109 -12 -13 22 0 29 57 29 47 0 55 -3
52 -17z m-200 -601 c3 -97 2 -102 -18 -102 -19 0 -20 6 -20 98 0 54 3 102 7
106 20 19 28 -8 31 -102z m969 92 c7 -18 -17 -38 -31 -24 -11 11 -1 40 14 40
6 0 13 -7 17 -16z m483 0 c0 -9 -8 -23 -17 -30 -17 -13 -17 -13 0 -14 21 0 24
-40 2 -40 -12 0 -15 -13 -15 -55 0 -42 -3 -55 -15 -55 -11 0 -15 13 -15 55 0
41 -4 57 -17 65 -17 10 -17 10 0 20 9 6 17 19 17 28 0 10 5 23 12 30 18 18 48
15 48 -4z m567 0 c9 -23 -11 -38 -26 -20 -13 16 -7 36 10 36 5 0 12 -7 16 -16z
m109 4 c4 -6 -1 -17 -11 -25 -13 -9 -16 -16 -9 -23 14 -14 37 -4 49 22 15 32
41 46 57 30 11 -11 9 -16 -6 -28 -20 -14 -20 -14 0 -29 18 -14 18 -16 2 -29
-13 -9 -18 -28 -18 -65 0 -44 -3 -51 -19 -51 -17 0 -20 8 -23 53 -3 45 -6 52
-25 55 -20 3 -22 -2 -25 -50 -2 -41 -7 -54 -20 -56 -15 -3 -18 4 -18 49 0 37
-5 56 -17 65 -17 13 -17 15 0 28 9 7 17 18 17 24 0 15 29 42 45 42 8 0 17 -5
21 -12z m1061 -4 c7 -18 -17 -38 -31 -24 -11 11 -1 40 14 40 6 0 13 -7 17 -16z
m-4020 -16 c23 -19 15 -65 -17 -101 -16 -19 -30 -37 -30 -40 0 -3 15 -7 33 -9
57 -5 34 -23 -35 -26 -44 -2 -68 1 -68 8 0 6 20 33 45 59 51 54 59 91 21 91
-13 0 -26 -7 -30 -15 -7 -18 -36 -20 -36 -2 0 17 21 43 40 50 19 7 61 -1 77
-15z m1713 -10 c0 -6 8 -17 18 -24 16 -13 16 -15 0 -28 -22 -17 -24 -74 -3
-82 24 -9 18 -34 -8 -34 -34 0 -47 19 -47 65 0 23 -5 46 -11 52 -17 17 23 79
43 67 4 -3 8 -10 8 -16z m1051 3 c19 -16 23 -28 23 -76 0 -76 -21 -95 -105
-95 l-59 0 0 95 0 95 59 0 c43 0 65 -5 82 -19z m-1641 -2 c0 -7 8 -18 18 -25
16 -13 16 -15 0 -28 -22 -17 -24 -74 -3 -82 27 -11 17 -34 -14 -34 -31 0 -41
18 -41 76 0 16 -5 35 -10 40 -14 14 11 64 33 64 9 0 17 -5 17 -11z m210 -4 c0
-7 8 -19 18 -24 16 -10 16 -12 0 -25 -23 -17 -24 -81 -3 -90 25 -9 17 -26 -14
-26 -33 0 -41 14 -41 70 0 21 -5 40 -12 42 -18 6 13 68 34 68 10 0 18 -7 18
-15z m-1129 -25 c10 -6 19 -17 19 -26 0 -12 -8 -13 -35 -8 -23 4 -35 2 -35 -5
0 -6 8 -11 19 -11 10 0 29 -9 42 -19 24 -19 25 -19 48 0 13 10 32 19 42 19 10
0 19 5 19 11 0 7 -12 9 -36 5 -31 -6 -35 -5 -32 11 5 27 62 39 93 19 22 -15
25 -23 25 -76 l0 -60 -37 -1 c-54 -2 -66 1 -86 19 -16 14 -18 14 -30 -2 -18
-24 -100 -19 -105 7 -3 15 2 17 37 11 51 -8 52 1 4 23 -47 22 -59 67 -21 82
31 13 46 13 69 1z m294 0 c4 -7 14 -6 27 1 26 14 65 4 72 -19 5 -16 9 -83 7
-109 -1 -7 -10 -13 -21 -13 -18 0 -20 7 -20 55 0 47 -3 55 -19 55 -23 0 -31
-19 -31 -71 0 -27 -4 -39 -14 -39 -11 0 -16 15 -18 53 -3 45 -6 52 -25 55 -22
3 -23 0 -23 -52 0 -49 -2 -56 -20 -56 -18 0 -20 7 -20 69 0 40 5 71 10 73 26
8 90 7 95 -2z m263 -17 c16 -22 15 -83 -2 -105 -8 -12 -27 -18 -50 -18 -32 0
-36 -3 -36 -25 0 -18 -5 -25 -20 -25 -19 0 -20 7 -20 94 l0 95 33 4 c46 6 80
-1 95 -20z m209 4 c6 -7 13 -23 15 -37 3 -23 0 -25 -45 -28 -32 -2 -47 -7 -44
-15 5 -17 45 -21 62 -7 12 10 16 9 21 -5 9 -22 -11 -35 -55 -35 -46 0 -71 24
-71 69 1 38 15 64 40 74 20 8 62 -1 77 -16z m518 -2 c14 -13 25 -33 25 -45 0
-17 -6 -20 -51 -20 -36 0 -49 -4 -46 -12 3 -9 21 -12 51 -11 44 3 46 2 36 -17
-8 -15 -21 -20 -54 -20 -50 0 -64 13 -73 63 -4 29 -1 40 20 61 33 33 61 33 92
1z m129 15 c14 -5 26 -16 26 -25 0 -12 -9 -14 -42 -10 l-43 5 43 -21 c39 -18
43 -23 40 -52 -2 -27 -8 -33 -33 -37 -41 -8 -64 -1 -76 22 -10 19 -8 20 30 13
51 -8 55 9 6 25 -29 10 -35 16 -35 41 0 21 6 32 23 39 29 12 31 12 61 0z m184
-68 c3 -66 1 -72 -17 -72 -17 0 -20 8 -23 70 -3 66 3 82 27 76 6 -1 11 -35 13
-74z m128 70 c18 -3 34 -50 34 -98 0 -41 -2 -45 -22 -42 -20 3 -23 10 -26 56
-3 48 -5 53 -25 50 -19 -3 -22 -10 -25 -55 -3 -45 -6 -53 -23 -53 -17 0 -19 7
-19 69 0 38 5 71 10 73 10 3 75 3 96 0z m182 -82 c2 -53 -1 -87 -9 -96 -17
-21 -98 -15 -113 8 -15 24 0 34 28 18 14 -7 32 -10 40 -7 26 10 18 22 -15 22
-45 0 -74 40 -65 90 8 42 30 54 91 50 l40 -3 3 -82z m309 68 c7 -6 13 -19 13
-30 0 -10 5 -16 10 -13 6 3 10 17 10 31 0 18 5 24 23 24 12 0 32 3 45 6 32 9
30 -24 -3 -36 -22 -8 -25 -15 -25 -60 0 -43 -3 -50 -20 -50 -15 0 -20 7 -20
28 0 42 -12 47 -24 10 -10 -30 -15 -33 -54 -36 -51 -4 -67 7 -76 48 -7 39 8
78 36 90 25 10 66 4 85 -12z m433 -59 c0 -62 -2 -69 -20 -69 -18 0 -20 7 -20
69 0 46 4 71 13 74 23 8 27 -4 27 -74z m298 75 c24 -7 57 -58 47 -74 -3 -6
-26 -10 -51 -10 -24 0 -44 -5 -44 -10 0 -17 30 -23 55 -12 29 13 43 -1 25 -23
-17 -20 -79 -19 -102 2 -34 30 -20 111 22 126 21 7 22 8 48 1z m150 -16 c2
-11 -5 -18 -20 -20 -20 -3 -23 -9 -26 -55 -3 -45 -6 -53 -23 -53 -17 0 -19 7
-19 68 0 38 2 71 5 74 3 3 22 4 42 3 26 0 39 -6 41 -17z m116 1 c15 -12 26
-30 26 -45 0 -22 -4 -24 -50 -24 -41 0 -48 -3 -43 -16 5 -13 15 -15 50 -9 43
6 44 6 33 -14 -14 -27 -90 -30 -111 -5 -23 28 -17 93 10 115 30 24 52 24 85
-2z m166 1 c5 -8 10 -41 10 -72 0 -51 -2 -58 -20 -58 -18 0 -20 7 -20 56 0 52
-1 55 -22 52 -20 -3 -23 -10 -26 -55 -3 -45 -6 -53 -23 -53 -17 0 -19 7 -19
68 0 38 2 71 4 73 2 2 27 4 56 4 34 0 54 -5 60 -15z m138 4 c40 -28 24 -58
-17 -32 -28 17 -51 3 -51 -32 0 -37 21 -48 56 -30 28 16 43 6 28 -18 -8 -12
-25 -17 -55 -17 -38 0 -45 4 -62 33 -18 30 -18 34 -3 66 22 46 64 58 104 30z
m159 -6 c7 -6 13 -23 13 -39 0 -28 -2 -29 -46 -29 -32 0 -44 -4 -41 -12 3 -8
19 -12 46 -10 22 1 41 -1 41 -6 0 -19 -27 -32 -65 -32 -50 0 -68 25 -63 85 2
30 9 43 28 52 26 14 65 9 87 -9z m143 -59 c0 -62 -2 -69 -20 -69 -18 0 -20 7
-20 68 0 73 4 84 26 75 10 -4 14 -24 14 -74z m126 72 c18 -2 34 -49 34 -97 0
-41 -2 -45 -22 -42 -20 3 -23 10 -26 56 -3 43 -6 52 -21 52 -23 0 -31 -19 -31
-71 0 -32 -3 -39 -20 -39 -18 0 -20 7 -20 69 0 38 5 71 10 73 10 3 72 3 96 -1z
m229 -1 c6 -2 20 -1 32 4 12 4 31 2 43 -4 17 -9 20 -21 20 -75 0 -51 -3 -65
-15 -65 -12 0 -15 13 -15 55 0 52 -1 55 -25 55 -24 0 -25 -3 -25 -55 0 -48 -3
-55 -19 -55 -17 0 -20 8 -23 52 -2 41 -7 54 -20 56 -15 3 -18 -5 -18 -52 0
-53 -1 -56 -25 -56 -24 0 -25 2 -25 69 0 38 4 71 10 73 13 4 92 2 105 -2z
m229 -11 c15 -12 26 -30 26 -45 0 -22 -4 -24 -50 -24 -41 0 -48 -3 -43 -16 5
-13 15 -15 49 -9 26 3 44 2 44 -3 0 -20 -30 -33 -72 -30 -36 2 -45 8 -57 32
-17 37 -4 86 29 103 34 17 43 16 74 -8z m162 -7 c9 -10 13 -37 11 -67 l-2 -50
-60 0 -60 0 0 35 c0 31 4 36 32 45 50 16 53 28 6 20 -48 -8 -56 4 -20 30 26
19 74 13 93 -13z m146 10 c7 -7 13 -38 13 -70 0 -46 -3 -57 -17 -60 -15 -3
-18 5 -18 52 0 53 -1 56 -25 56 -24 0 -25 -3 -25 -55 0 -52 -1 -55 -25 -55
-24 0 -25 2 -25 69 0 38 4 71 10 73 25 8 101 1 112 -10z m-3652 -59 c0 -11
-11 -13 -47 -11 -46 3 -71 23 -36 30 35 7 83 -4 83 -19z m-1020 -713 c0 -15 7
-20 28 -20 34 0 52 -31 52 -90 0 -29 -4 -40 -15 -40 -11 0 -15 12 -15 44 0 31
-5 46 -16 50 -26 10 -34 -2 -34 -50 0 -32 -4 -44 -15 -44 -12 0 -15 16 -15 85
0 69 3 85 15 85 8 0 15 -9 15 -20z m122 5 c0 -5 -5 -11 -11 -13 -6 -2 -11 4
-11 13 0 9 5 15 11 13 6 -2 11 -8 11 -13z m228 -5 c0 -15 7 -20 28 -20 41 0
52 -17 52 -78 0 -68 -24 -67 -28 1 -5 75 -52 53 -52 -23 0 -21 -4 -30 -12 -28
-14 5 -23 106 -13 145 7 28 25 30 25 3z m597 0 c4 -14 14 -20 33 -20 32 0 50
-32 50 -90 0 -29 -4 -40 -15 -40 -11 0 -15 11 -15 38 0 45 -13 67 -34 59 -11
-5 -16 -19 -16 -52 0 -33 -4 -45 -15 -45 -12 0 -15 16 -15 85 0 55 4 85 11 85
6 0 13 -9 16 -20z m1265 5 c0 -5 -5 -11 -11 -13 -6 -2 -11 4 -11 13 0 9 5 15
11 13 6 -2 11 -8 11 -13z m56 -73 c2 -68 0 -82 -13 -82 -12 0 -15 15 -15 86 0
64 3 85 13 82 8 -3 13 -32 15 -86z m52 3 c0 -50 -4 -85 -10 -85 -6 0 -10 35
-10 85 0 50 4 85 10 85 6 0 10 -35 10 -85z m120 65 c0 -15 7 -20 29 -20 50 0
74 -51 49 -105 -10 -22 -17 -25 -60 -25 l-48 0 0 78 c0 43 3 82 7 85 12 13 23
7 23 -13z m562 5 c0 -5 -5 -11 -11 -13 -6 -2 -11 4 -11 13 0 9 5 15 11 13 6
-2 11 -8 11 -13z m1568 -70 c0 -69 -3 -85 -15 -85 -12 0 -15 15 -15 78 0 43 3
82 7 85 18 18 23 0 23 -78z m1687 65 c4 -13 14 -20 30 -20 30 0 56 -54 47
-100 -9 -43 -28 -32 -34 21 -4 31 -10 45 -22 47 -14 3 -17 -6 -20 -44 -2 -27
-8 -49 -15 -52 -10 -3 -13 18 -13 82 0 56 4 86 11 86 6 0 13 -9 16 -20z m393
-66 l0 -85 -47 3 c-41 3 -50 7 -61 31 -23 48 7 97 59 97 22 0 29 5 29 20 0 11
5 20 10 20 6 0 10 -35 10 -86z m58 74 c-6 -18 -28 -21 -28 -4 0 9 7 16 16 16
9 0 14 -5 12 -12z m82 4 c0 -4 -5 -13 -12 -20 -9 -9 -9 -12 0 -12 7 0 12 -7
12 -15 0 -8 -4 -15 -10 -15 -5 0 -10 -22 -10 -50 0 -38 -4 -50 -15 -50 -11 0
-15 12 -15 49 0 28 -4 53 -10 56 -10 6 6 43 25 57 13 10 35 10 35 0z m80 0 c0
-4 -5 -13 -12 -20 -9 -9 -9 -12 0 -12 7 0 12 -7 12 -15 0 -8 -4 -15 -10 -15
-5 0 -10 -22 -10 -50 0 -38 -4 -50 -15 -50 -11 0 -15 12 -15 49 0 28 -4 53
-10 56 -10 6 6 43 25 57 13 10 35 10 35 0z m817 -12 c3 -12 14 -20 26 -20 33
0 57 -29 57 -70 0 -47 -14 -60 -67 -60 l-43 0 0 85 c0 55 4 85 11 85 6 0 13
-9 16 -20z m1021 -3 c19 -14 15 -37 -14 -74 -27 -35 -25 -53 7 -53 10 0 19 -4
19 -10 0 -5 -25 -10 -55 -10 -34 0 -55 4 -55 11 0 7 18 31 40 55 22 24 40 48
40 53 0 18 -22 23 -46 10 -26 -13 -41 -8 -29 11 17 27 62 31 93 7z m122 7 c0
-9 -5 -14 -12 -12 -18 6 -21 28 -4 28 9 0 16 -7 16 -16z m260 -69 l0 -85 -45
0 c-34 0 -47 5 -55 19 -26 49 0 111 46 111 14 0 25 8 29 20 14 44 25 15 25
-65z m660 0 l0 -85 -43 0 c-54 0 -67 13 -67 65 0 48 13 65 52 65 21 0 28 5 28
20 0 11 7 20 15 20 12 0 15 -16 15 -85z m980 0 c0 -69 -3 -85 -15 -85 -12 0
-15 16 -15 85 0 69 3 85 15 85 12 0 15 -16 15 -85z m252 70 c0 -5 -5 -11 -11
-13 -6 -2 -11 4 -11 13 0 9 5 15 11 13 6 -2 11 -8 11 -13z m-11307 -76 c0 -59
-3 -74 -15 -74 -11 0 -16 15 -18 64 -3 71 2 95 21 88 8 -2 12 -27 12 -78z
m1217 20 c-15 -23 -16 -66 -2 -74 18 -11 10 -26 -12 -23 -19 2 -23 10 -26 48
-2 25 -7 49 -12 54 -5 5 -2 19 7 33 l16 24 20 -22 c16 -18 18 -25 9 -40z
m2709 31 c24 0 32 -6 40 -30 14 -37 27 -39 31 -2 4 38 31 35 43 -5 l11 -33 13
35 c7 19 17 35 22 35 12 0 11 -14 -3 -77 -9 -38 -17 -53 -29 -53 -18 0 -29 20
-29 51 0 29 -16 14 -23 -21 -4 -16 -13 -30 -21 -30 -14 0 -36 48 -36 80 0 19
-17 30 -37 23 -19 -7 -16 -72 2 -79 21 -8 19 -24 -4 -24 -27 0 -37 18 -44 77
-5 42 -2 56 11 70 16 15 17 15 20 0 2 -11 13 -17 33 -17z m1229 -35 c-12 -23
-11 -39 5 -77 5 -14 2 -18 -14 -18 -13 0 -22 8 -25 23 -13 61 -14 102 -5 119
11 20 11 20 31 -2 18 -19 19 -25 8 -45z m179 35 c16 0 14 -15 -4 -30 -8 -7
-15 -23 -15 -35 0 -12 7 -28 15 -35 22 -18 18 -30 -10 -30 -14 0 -25 1 -25 3
0 1 -4 28 -10 60 -7 43 -6 64 3 78 10 17 13 17 23 4 6 -8 16 -15 23 -15z m722
-34 c-11 -19 -11 -32 -2 -57 6 -17 11 -34 11 -35 0 -4 -40 -5 -40 -1 0 1 -4
28 -10 60 -7 43 -6 64 3 78 11 18 12 18 31 -1 17 -17 18 -22 7 -44z m324 -31
c0 -55 -3 -65 -17 -65 -14 0 -18 9 -18 40 0 22 -6 50 -12 61 -10 17 -10 23 0
26 6 3 12 12 12 21 0 15 2 15 17 -1 13 -13 17 -34 18 -82z m139 42 c-19 -11
-18 -66 3 -89 15 -17 15 -18 -9 -18 -29 0 -38 16 -38 64 0 18 -5 37 -11 43 -8
8 -6 16 7 31 l17 21 23 -22 c19 -18 20 -23 8 -30z m1775 23 c16 0 14 -15 -4
-30 -8 -7 -15 -23 -15 -35 0 -12 7 -28 15 -35 22 -18 18 -30 -9 -30 -21 0 -25
6 -35 61 -8 46 -7 65 2 80 10 17 13 17 23 4 6 -8 16 -15 23 -15z m-8049 10 c0
-5 7 -10 15 -10 8 0 15 -4 15 -9 0 -5 -7 -14 -15 -21 -8 -7 -15 -23 -15 -35 0
-12 7 -28 15 -35 22 -18 18 -30 -9 -30 -21 0 -25 6 -35 62 -8 45 -8 65 0 75
13 15 29 17 29 3z m5402 -10 c19 -17 19 -20 5 -26 -22 -8 -22 -62 0 -86 15
-17 15 -18 -9 -18 -29 0 -38 16 -38 65 0 35 -14 54 -25 35 -3 -5 -17 -7 -31
-4 -33 9 -30 -7 6 -28 33 -19 38 -39 16 -57 -19 -16 -78 -10 -84 8 -4 11 2 13
27 8 23 -5 31 -3 31 8 0 7 -10 15 -21 17 -30 4 -47 33 -33 56 13 21 60 28 79
12 11 -9 17 -7 27 9 16 26 23 26 50 1z m135 4 c13 -13 14 -20 5 -35 -15 -23
-16 -66 -2 -74 17 -10 11 -25 -10 -25 -12 0 -21 8 -24 23 -23 111 -11 153 31
111z m4620 0 c12 -11 13 -18 4 -27 -14 -14 -15 -74 -1 -82 18 -11 10 -26 -12
-23 -19 2 -24 10 -26 48 -2 24 -8 50 -14 57 -7 8 -6 17 4 27 17 20 26 20 45 0z
m845 -4 c19 -17 19 -20 5 -26 -22 -8 -23 -72 -2 -80 23 -9 18 -24 -9 -24 -27
0 -36 16 -36 65 0 19 -4 37 -10 40 -10 6 9 45 23 45 4 0 17 -9 29 -20z
m-11121 -38 c14 -47 9 -87 -11 -87 -11 0 -16 13 -18 48 -3 39 -6 48 -20 45
-13 -2 -18 -16 -20 -51 -2 -33 -7 -47 -18 -47 -11 0 -14 15 -14 65 l0 65 45 0
c43 0 45 -1 56 -38z m327 -30 c2 -51 0 -62 -13 -62 -12 0 -15 13 -15 66 0 48
3 65 13 62 7 -3 13 -28 15 -66z m110 45 c3 -14 -1 -17 -21 -12 -14 4 -28 2
-31 -4 -4 -6 1 -11 12 -11 28 0 55 -34 47 -60 -6 -18 -13 -21 -48 -18 -24 2
-42 9 -45 17 -4 11 2 13 27 8 38 -8 45 17 7 27 -29 7 -40 31 -25 57 14 26 72
23 77 -4z m249 -19 l19 -41 13 41 c8 23 20 42 28 42 18 0 17 -6 -12 -86 -23
-63 -45 -94 -67 -94 -4 0 -8 7 -8 15 0 8 5 15 10 15 15 0 12 46 -5 87 -8 19
-15 42 -15 49 0 28 20 13 37 -28z m185 25 c21 -19 25 -82 6 -101 -7 -7 -25
-12 -40 -12 -17 0 -28 -5 -28 -14 0 -7 -7 -19 -15 -26 -13 -11 -15 -1 -15 79
l0 91 37 0 c20 0 45 -7 55 -17z m130 0 c21 -19 23 -70 4 -95 -16 -22 -69 -24
-86 -3 -6 8 -12 30 -12 50 0 20 6 42 12 50 17 20 59 19 82 -2z m342 -5 c28
-40 21 -58 -24 -58 -22 0 -40 -4 -40 -10 0 -11 11 -13 55 -10 26 2 28 0 15
-15 -21 -25 -81 -16 -98 15 -12 22 -12 30 1 63 13 31 21 37 46 37 20 0 35 -8
45 -22z m115 9 c15 -19 3 -28 -25 -21 -34 9 -29 -9 7 -25 24 -11 30 -18 27
-40 -3 -23 -8 -26 -44 -29 -31 -2 -43 1 -48 14 -5 14 -2 16 23 11 44 -9 48 10
6 27 -36 16 -46 41 -23 64 16 16 63 15 77 -1z m123 -4 c10 -9 18 -27 18 -40 0
-20 -5 -23 -40 -23 -22 0 -40 -4 -40 -9 0 -14 23 -19 56 -13 26 5 28 4 15 -11
-16 -20 -71 -23 -89 -5 -7 7 -12 28 -12 47 0 61 51 91 92 54z m116 5 c21 -21
13 -30 -18 -23 -39 9 -39 -7 1 -22 25 -10 30 -16 27 -40 -3 -25 -7 -28 -44
-31 -31 -2 -43 1 -48 14 -5 14 -2 16 23 11 40 -8 50 11 13 24 -33 11 -47 44
-29 65 15 17 59 18 75 2z m182 -7 c5 -11 10 -30 11 -43 0 -17 5 -11 16 20 8
23 19 42 24 42 5 0 15 -15 23 -32 l14 -33 12 33 c12 31 39 40 31 11 -2 -8 -8
-34 -15 -59 -14 -55 -41 -66 -51 -21 -8 38 -23 40 -27 4 -2 -20 -9 -28 -22
-28 -14 0 -22 12 -32 50 -7 28 -13 56 -14 63 0 19 18 14 30 -7z m238 7 c7 -7
12 -25 12 -40 0 -26 -3 -28 -41 -28 -35 0 -40 -2 -29 -15 8 -9 22 -12 41 -8
24 5 28 3 23 -11 -8 -21 -62 -21 -86 1 -38 35 -11 113 41 113 15 0 32 -5 39
-12z m122 -29 c0 -10 5 -21 10 -24 6 -3 10 4 10 18 0 27 23 52 40 42 5 -3 10
-18 10 -32 0 -21 2 -24 15 -13 8 7 15 21 15 31 0 11 7 19 15 19 18 0 19 2 -2
-71 -19 -68 -41 -76 -57 -20 l-10 34 -11 -34 c-17 -50 -38 -48 -53 6 -7 25
-12 55 -12 66 0 18 2 19 15 9 8 -7 15 -21 15 -31z m175 -24 c0 -38 -4 -60 -12
-62 -10 -4 -13 13 -13 62 0 49 3 66 13 63 8 -3 12 -25 12 -63z m419 43 c27
-39 21 -58 -20 -58 -24 0 -34 -4 -31 -12 2 -8 17 -12 37 -10 30 3 32 2 21 -12
-16 -19 -72 -21 -89 -4 -17 17 -15 78 5 100 22 25 59 23 77 -4z m126 -21 c0
-24 5 -48 12 -55 20 -20 38 6 38 54 0 44 12 58 24 28 3 -9 6 -38 6 -65 l0 -49
-43 0 c-24 0 -48 5 -55 12 -13 13 -17 100 -5 111 15 16 23 4 23 -36z m180 39
c0 -2 3 -12 6 -21 5 -13 2 -15 -20 -9 -16 4 -26 2 -26 -5 0 -6 6 -11 13 -11 8
0 22 -9 33 -21 14 -15 16 -24 7 -37 -13 -21 -84 -24 -91 -3 -4 11 2 13 27 8
23 -5 31 -3 31 8 0 8 -8 15 -18 15 -22 0 -42 19 -42 40 0 24 21 40 52 40 15 0
28 -2 28 -4z m68 -64 c2 -51 0 -62 -13 -62 -12 0 -15 13 -15 66 0 48 3 65 13
62 7 -3 13 -28 15 -66z m120 43 c7 -14 12 -44 12 -66 0 -33 -3 -40 -17 -37
-14 2 -17 12 -15 38 3 42 -10 65 -32 57 -11 -5 -16 -19 -16 -52 0 -33 -4 -45
-15 -45 -12 0 -15 14 -15 65 l0 65 43 0 c37 0 46 -4 55 -25z m140 -47 c2 -57
0 -70 -18 -88 -11 -11 -28 -20 -38 -20 -25 0 -58 35 -42 45 8 5 7 14 -4 31
-20 30 -20 54 0 82 13 19 24 22 57 20 l42 -3 3 -67z m182 43 c6 -16 10 -44 8
-62 -3 -34 -4 -34 -53 -34 -49 0 -50 1 -50 30 0 25 5 32 33 40 40 12 42 30 2
22 -21 -5 -30 -3 -30 7 0 20 11 26 45 26 26 0 35 -6 45 -29z m430 14 c6 -8 12
-30 12 -50 0 -44 -16 -65 -50 -65 -55 0 -83 70 -45 112 19 22 66 24 83 3z
m179 2 c15 -19 3 -28 -25 -21 -15 4 -24 2 -24 -5 0 -6 6 -11 13 -11 27 -1 50
-29 43 -54 -5 -22 -12 -26 -45 -26 -27 0 -41 5 -45 16 -5 14 -1 16 23 11 44
-9 48 10 6 27 -36 16 -46 41 -23 64 16 16 63 15 77 -1z m121 -6 c5 -11 10 -40
10 -66 l0 -46 -47 3 c-41 3 -48 6 -51 26 -5 30 14 52 45 52 15 0 22 4 17 11
-3 6 -16 8 -29 5 -27 -7 -39 3 -24 21 17 20 67 16 79 -6z m192 5 c11 -17 9
-116 -2 -116 -5 0 -10 17 -10 38 0 45 -13 67 -34 59 -11 -5 -16 -19 -16 -52 0
-33 -4 -45 -15 -45 -11 0 -15 12 -15 50 0 36 -4 50 -14 50 -17 0 -26 -22 -26
-67 0 -54 -24 -35 -28 22 -2 26 -1 53 2 61 6 17 147 17 158 0z m130 -3 c21
-19 25 -82 6 -101 -7 -7 -25 -12 -40 -12 -17 0 -28 -5 -28 -14 0 -7 -7 -19
-15 -26 -13 -11 -15 -1 -15 79 l0 91 37 0 c20 0 45 -7 55 -17z m184 0 c7 -10
14 -28 14 -40 0 -20 -5 -23 -40 -23 -22 0 -40 -4 -40 -9 0 -14 23 -19 56 -13
26 5 28 4 15 -11 -19 -24 -77 -22 -91 2 -25 48 2 111 47 111 14 0 32 -8 39
-17z m429 9 c46 -33 40 -72 -12 -72 -23 0 -33 -4 -30 -12 2 -8 17 -12 35 -10
26 3 31 0 26 -12 -4 -11 -19 -16 -44 -16 -32 0 -39 4 -50 29 -12 29 -7 64 12
89 11 13 47 16 63 4z m476 -8 c7 -9 13 -31 13 -49 0 -42 -19 -65 -55 -65 -31
0 -59 31 -59 65 0 54 69 87 101 49z m263 0 c9 -8 16 -26 16 -40 0 -21 -5 -24
-34 -24 -36 0 -56 -14 -33 -23 7 -3 26 -2 43 1 26 5 28 4 15 -11 -19 -24 -77
-22 -91 2 -36 68 34 146 84 95z m122 2 c18 -19 3 -29 -31 -20 -15 4 -25 2 -25
-5 0 -6 9 -11 19 -11 29 0 53 -38 40 -62 -8 -14 -19 -18 -46 -16 -20 2 -38 9
-41 17 -3 10 3 12 27 6 24 -5 31 -3 31 9 0 9 -8 16 -18 16 -22 0 -42 19 -42
40 0 37 57 54 86 26z m468 -8 c27 -39 21 -58 -20 -58 -24 0 -34 -4 -31 -12 2
-8 16 -12 32 -10 19 2 26 -1 23 -10 -6 -17 -65 -23 -84 -7 -19 15 -18 69 2 97
8 12 26 22 39 22 13 0 31 -10 39 -22z m266 -43 c0 -51 -3 -65 -15 -65 -12 0
-15 14 -15 65 0 51 3 65 15 65 12 0 15 -14 15 -65z m264 43 c27 -39 21 -58
-20 -58 -24 0 -34 -4 -31 -12 2 -8 17 -12 37 -10 30 3 32 2 21 -12 -19 -23
-78 -21 -91 3 -24 47 2 111 45 111 13 0 31 -10 39 -22z m106 7 c0 -8 -6 -15
-14 -15 -17 0 -26 -22 -26 -67 0 -54 -24 -35 -28 22 -2 26 -1 54 2 61 7 20 66
18 66 -1z m98 3 c7 -7 12 -25 12 -40 0 -25 -3 -28 -36 -28 -24 0 -34 -4 -31
-12 2 -8 17 -12 37 -10 23 3 31 0 28 -10 -3 -7 -21 -14 -40 -16 -28 -2 -40 2
-52 20 -20 28 -20 57 0 86 17 24 62 30 82 10z m130 0 c18 -18 16 -118 -3 -118
-11 0 -15 12 -15 44 0 25 -5 48 -12 52 -16 10 -38 -25 -38 -63 0 -18 -4 -33
-10 -33 -6 0 -10 28 -10 65 l0 65 38 0 c21 0 43 -5 50 -12z m136 -10 c14 -23
0 -35 -24 -20 -26 16 -50 5 -50 -23 0 -33 23 -49 49 -33 25 15 39 4 21 -17
-13 -15 -46 -20 -74 -9 -24 9 -31 69 -12 100 14 19 24 24 48 22 17 -2 36 -11
42 -20z m122 -3 c23 -35 12 -55 -31 -55 -19 0 -35 -4 -35 -10 0 -11 11 -13 55
-10 26 2 28 0 15 -15 -20 -25 -81 -16 -96 14 -13 26 -3 79 18 93 25 15 58 8
74 -17z m316 8 c10 -9 18 -27 18 -40 0 -20 -5 -23 -40 -23 -22 0 -40 -4 -40
-9 0 -14 23 -19 56 -13 26 5 28 4 15 -11 -16 -20 -71 -23 -89 -5 -7 7 -12 28
-12 47 0 61 51 91 92 54z m149 -42 c0 -21 4 -18 16 17 15 44 35 51 41 16 7
-36 21 -39 33 -5 11 30 38 39 30 10 -2 -8 -8 -34 -15 -59 -14 -55 -41 -66 -51
-21 -8 38 -23 40 -27 4 -2 -20 -9 -28 -22 -28 -15 0 -22 12 -32 55 -7 30 -10
59 -7 64 9 14 33 -24 34 -53z m227 47 c7 -7 12 -25 12 -40 0 -25 -3 -28 -36
-28 -24 0 -34 -4 -31 -12 2 -8 17 -12 37 -10 23 3 31 0 28 -10 -7 -20 -67 -22
-89 -2 -39 35 -12 114 40 114 15 0 32 -5 39 -12z m124 -5 c10 -9 18 -27 18
-40 0 -20 -5 -23 -40 -23 -22 0 -40 -4 -40 -9 0 -14 23 -19 56 -13 26 5 28 4
15 -11 -17 -21 -74 -22 -91 -1 -19 22 -16 70 5 94 22 24 52 26 77 3z m134 0
c19 -26 18 -113 -1 -113 -11 0 -15 11 -15 38 0 45 -13 67 -34 59 -11 -5 -16
-19 -16 -52 0 -33 -4 -45 -15 -45 -12 0 -15 14 -15 65 l0 65 41 0 c28 0 46 -6
55 -17z m314 -48 c0 -51 -3 -65 -15 -65 -12 0 -15 14 -15 65 0 51 3 65 15 65
12 0 15 -14 15 -65z m120 46 c16 -31 13 -111 -4 -111 -11 0 -16 14 -18 48 -3
39 -6 47 -23 47 -17 0 -20 -8 -23 -47 -2 -34 -7 -48 -18 -48 -10 0 -14 14 -14
58 0 32 3 62 7 65 3 4 23 7 44 7 28 0 41 -5 49 -19z m268 -14 c17 -35 9 -47
-34 -47 -24 0 -34 -4 -31 -12 2 -8 17 -12 37 -10 23 3 31 0 28 -10 -7 -19 -72
-22 -87 -4 -17 20 -17 82 0 102 20 25 72 14 87 -19z m132 18 c16 -20 17 -80 1
-99 -8 -9 -26 -16 -42 -16 -22 0 -29 -5 -29 -20 0 -11 -7 -20 -15 -20 -12 0
-15 15 -15 78 0 43 3 82 7 85 12 13 81 7 93 -8z m124 -7 c27 -38 21 -58 -18
-58 -19 0 -38 -4 -41 -10 -7 -11 4 -13 50 -10 26 2 27 0 16 -14 -16 -19 -72
-21 -89 -4 -16 16 -15 73 0 98 17 27 63 26 82 -2z m136 -4 c16 -40 13 -104 -4
-104 -11 0 -16 14 -18 48 -3 39 -6 47 -23 47 -17 0 -20 -8 -23 -47 -2 -34 -7
-48 -18 -48 -11 0 -14 15 -14 65 l0 65 45 0 c40 0 47 -3 55 -26z m252 9 c10
-9 18 -27 18 -40 0 -20 -5 -23 -40 -23 -22 0 -40 -4 -40 -9 0 -14 23 -19 56
-13 26 5 28 4 15 -11 -16 -20 -71 -23 -89 -5 -7 7 -12 28 -12 47 0 61 51 91
92 54z m134 0 c19 -25 18 -113 0 -113 -11 0 -16 14 -18 48 -3 39 -6 47 -23 47
-17 0 -20 -8 -23 -47 -2 -34 -7 -48 -18 -48 -11 0 -14 15 -14 65 l0 65 41 0
c28 0 46 -6 55 -17z m272 5 c7 -7 12 -30 12 -53 0 -48 -13 -65 -52 -65 -21 0
-28 -5 -28 -20 0 -11 -7 -20 -15 -20 -12 0 -15 16 -15 85 l0 85 43 0 c24 0 48
-5 55 -12z m130 0 c7 -7 12 -30 12 -53 0 -23 -5 -46 -12 -53 -20 -20 -76 -15
-88 7 -15 29 -12 72 7 93 18 20 63 24 81 6z m130 0 c26 -22 33 -57 17 -89 -13
-24 -22 -29 -50 -29 -28 0 -35 -4 -35 -20 0 -11 -4 -20 -10 -20 -6 0 -10 34
-10 83 l0 84 37 1 c20 1 43 -4 51 -10z m72 -42 c3 -25 8 -46 13 -46 4 0 11 0
17 0 5 0 12 23 16 50 9 71 24 62 24 -16 l0 -65 -47 3 -48 3 -3 64 c-2 48 0 62
10 59 7 -3 15 -26 18 -52z m238 42 c7 -7 12 -36 12 -66 l0 -53 -47 3 c-41 3
-48 6 -51 26 -5 30 14 52 45 52 15 0 22 4 17 11 -3 6 -16 8 -29 5 -27 -7 -39
3 -24 21 14 16 61 17 77 1z m147 -53 c0 -38 -4 -60 -12 -62 -10 -4 -13 13 -13
62 0 49 3 66 13 63 8 -3 12 -25 12 -63z m117 48 c21 -19 23 -70 4 -95 -17 -22
-69 -23 -87 -2 -16 19 -15 79 1 99 17 20 59 19 82 -2z m-6162 -48 c0 -11 -11
-15 -40 -15 -29 0 -40 4 -40 15 0 11 11 15 40 15 29 0 40 -4 40 -15z m-3382
-67 c-3 -35 -28 -52 -28 -20 0 28 10 52 22 52 5 0 8 -14 6 -32z m-1030 -246
c2 -60 6 -74 23 -82 22 -13 17 -30 -10 -30 -28 0 -40 21 -47 86 -4 32 -13 65
-21 72 -19 19 -6 33 25 29 26 -4 27 -6 30 -75z m130 5 c3 -59 6 -69 27 -83 29
-19 24 -34 -10 -34 -31 0 -45 27 -45 86 0 29 -6 54 -16 65 -20 22 -10 41 19
37 20 -3 22 -10 25 -71z m680 61 c7 -7 12 -39 12 -75 0 -52 3 -64 20 -73 24
-13 18 -30 -10 -30 -34 0 -50 28 -50 87 0 40 -5 59 -17 68 -9 7 -13 17 -9 23
9 15 39 15 54 0z m1889 -1 c10 -16 10 -18 12 -83 1 -47 4 -57 21 -61 26 -7 20
-27 -9 -31 -33 -5 -50 25 -51 87 0 38 -5 57 -17 66 -9 7 -13 16 -10 21 8 14
45 15 54 1z m1226 4 c4 -1 7 -32 7 -71 0 -59 3 -71 20 -80 24 -13 18 -30 -10
-30 -34 0 -50 28 -50 87 0 41 -5 59 -17 69 -15 11 -16 15 -4 23 7 5 21 7 30 6
9 -2 19 -4 24 -4z m135 -68 c3 -64 5 -71 28 -82 30 -13 23 -31 -11 -31 -32 0
-55 44 -55 103 0 28 -6 49 -15 57 -19 16 -2 31 30 26 17 -3 20 -12 23 -73z
m672 7 c5 -70 13 -90 36 -90 8 0 14 -7 14 -15 0 -10 -10 -15 -28 -15 -36 0
-52 31 -52 100 0 36 -5 52 -17 59 -16 9 -16 12 -3 21 33 22 45 7 50 -60z
m-5503 43 c3 -7 -10 -13 -33 -15 -48 -4 -57 -26 -12 -30 45 -4 45 -32 1 -36
-30 -3 -33 -6 -33 -36 0 -38 -6 -47 -26 -39 -10 4 -14 24 -14 73 0 97 3 102
63 98 28 -2 52 -8 54 -15z m466 -3 c3 -12 14 -20 26 -20 31 0 55 -43 48 -87
-8 -44 -21 -54 -67 -51 l-35 3 -3 88 c-2 70 0 87 11 87 8 0 17 -9 20 -20z
m734 -50 c12 -36 22 -75 22 -87 1 -29 -25 -31 -32 -3 -3 13 -14 20 -30 20 -16
0 -26 -7 -30 -20 -6 -25 -37 -27 -37 -2 0 18 36 137 46 154 15 24 40 -1 61
-62z m214 58 c1 -7 1 -16 0 -20 0 -5 9 -8 22 -8 13 0 28 -5 35 -12 14 -14 16
-128 3 -128 -16 0 -25 23 -22 56 3 35 -16 55 -30 33 -5 -8 -9 -25 -8 -39 2
-42 0 -50 -16 -50 -12 0 -15 17 -15 90 0 73 3 90 15 90 8 0 16 -6 16 -12z
m1277 -90 l-3 -73 -44 1 c-49 1 -71 21 -71 63 1 36 23 61 54 61 20 0 29 7 37
28 9 24 12 25 20 10 5 -10 9 -50 7 -90z m286 87 c4 -12 -3 -15 -34 -15 -51 0
-57 -27 -7 -32 43 -4 44 -32 0 -36 -29 -3 -32 -7 -35 -40 -2 -25 -8 -37 -18
-37 -12 0 -16 16 -18 74 -2 41 -1 80 2 88 8 19 102 18 110 -2z m951 0 c0 -5
-17 -11 -37 -13 -46 -4 -54 -32 -9 -32 16 0 31 -6 34 -14 8 -19 -1 -26 -34
-26 -25 0 -28 -4 -31 -37 -2 -26 -8 -38 -18 -38 -12 0 -16 16 -18 74 -4 101
-3 103 60 99 29 -2 53 -7 53 -13z m465 -5 c0 -15 7 -20 24 -20 29 0 56 -34 56
-70 0 -44 -26 -70 -71 -70 l-39 0 0 90 c0 73 3 90 15 90 8 0 15 -9 15 -20z
m718 -7 c6 -16 13 -39 17 -53 3 -14 11 -35 17 -47 12 -24 5 -53 -13 -53 -6 0
-13 9 -16 20 -7 27 -47 26 -65 -2 -23 -35 -37 -15 -24 36 7 25 15 48 19 52 4
4 7 17 7 29 0 47 42 60 58 18z m232 7 c0 -13 7 -20 19 -20 36 0 52 -28 49 -84
-2 -37 -7 -51 -18 -51 -11 0 -16 13 -18 48 -2 32 -8 47 -17 47 -9 0 -15 -15
-17 -47 -2 -35 -7 -48 -18 -48 -15 0 -15 3 -11 158 1 24 31 22 31 -3z m2570 5
c0 -8 -5 -15 -11 -15 -8 0 -7 -5 2 -16 9 -11 10 -17 1 -22 -6 -4 -12 -30 -14
-57 -4 -64 -21 -61 -28 4 -7 61 -10 65 -44 50 -22 -10 -26 -18 -26 -56 0 -32
-4 -43 -15 -43 -12 0 -15 13 -15 60 l0 60 44 0 c36 0 47 5 60 25 18 28 46 34
46 10z m450 0 c0 -8 -4 -15 -9 -15 -13 0 -22 16 -14 24 11 11 23 6 23 -9z
m1228 -14 c3 -16 8 -20 22 -16 32 10 60 -28 60 -80 0 -33 -4 -45 -15 -45 -11
0 -15 11 -15 38 0 41 -15 63 -36 55 -9 -3 -14 -21 -14 -49 0 -32 -4 -44 -15
-44 -12 0 -15 16 -15 86 0 64 3 85 13 82 6 -3 13 -15 15 -27z m529 6 c6 -12
20 -23 33 -24 34 -3 50 -22 50 -63 0 -46 -20 -64 -71 -65 l-39 -1 0 88 c0 88
8 107 27 65z m-9767 -1 c0 -8 9 -16 20 -18 29 -4 30 -21 3 -33 -33 -14 -31
-58 4 -74 33 -15 18 -34 -23 -29 -27 3 -29 7 -32 48 -2 26 -10 48 -18 53 -19
11 -18 37 1 37 8 0 15 7 15 15 0 8 7 15 15 15 8 0 15 -6 15 -14z m950 0 c0 -8
9 -16 20 -18 29 -4 30 -21 3 -33 -34 -15 -31 -62 4 -76 34 -13 18 -32 -23 -27
-27 3 -29 7 -32 48 -2 32 -9 50 -25 62 l-22 18 23 6 c12 4 22 13 22 20 0 8 7
14 15 14 8 0 15 -6 15 -14z m540 -1 c0 -8 9 -15 19 -15 31 0 34 -18 7 -35 -30
-20 -30 -52 1 -72 27 -18 22 -33 -11 -33 -31 0 -46 19 -46 58 0 21 -7 40 -17
48 -17 13 -17 15 0 28 9 7 17 18 17 25 0 6 7 11 15 11 8 0 15 -7 15 -15z
m2437 2 c4 -7 19 -18 33 -24 l25 -11 -27 -12 c-38 -18 -39 -65 -3 -82 29 -13
17 -28 -22 -28 -26 0 -43 27 -43 66 0 15 -8 32 -17 39 -16 12 -15 15 7 39 28
29 36 31 47 13z m949 -1 c3 -8 14 -16 25 -19 25 -7 24 -24 -1 -32 -28 -9 -28
-65 0 -72 26 -7 20 -27 -9 -31 -35 -5 -51 16 -51 65 0 25 -4 42 -9 38 -22 -13
-21 17 1 40 26 28 36 31 44 11z m540 0 c3 -8 14 -16 25 -19 25 -7 24 -27 -1
-34 -30 -8 -24 -73 7 -73 26 0 8 -25 -20 -28 -30 -4 -38 9 -41 58 -1 16 -9 37
-18 47 -16 16 -16 18 5 39 26 26 36 29 43 10z m584 -30 c0 -11 4 -28 9 -35 8
-12 12 -9 21 15 19 46 26 58 36 61 11 4 34 -53 34 -82 0 -31 18 -4 27 39 9 44
33 61 33 25 0 -13 -8 -49 -17 -81 -21 -70 -41 -73 -61 -10 -16 50 -28 47 -37
-8 -8 -49 -41 -57 -51 -12 -3 15 -10 38 -14 52 -9 24 -13 56 -11 74 2 17 31
-17 31 -38z m1051 15 c13 -12 17 -21 10 -26 -14 -8 -14 -82 0 -91 16 -10 -5
-26 -24 -18 -12 4 -17 18 -17 48 0 23 -5 47 -11 53 -8 8 -7 17 3 32 16 25 14
25 39 2z m1745 -2 c14 -16 15 -23 7 -26 -16 -6 -17 -79 -2 -89 16 -10 -5 -26
-24 -18 -11 4 -17 18 -18 40 -2 42 -3 46 -12 61 -7 12 11 53 24 53 3 0 14 -10
25 -21z m320 0 c14 -16 15 -23 7 -26 -15 -6 -17 -79 -3 -88 19 -12 0 -25 -21
-15 -13 8 -19 21 -19 48 0 20 -4 43 -9 51 -6 9 -5 21 2 33 15 23 20 23 43 -3z
m-9354 -16 c20 -18 24 -73 8 -104 -15 -28 -74 -26 -94 3 -48 68 27 155 86 101z
m142 -18 c28 -57 5 -105 -50 -105 -27 0 -36 6 -49 30 -26 50 4 110 55 110 22
0 31 -8 44 -35z m400 22 c14 -10 19 -28 20 -68 l1 -54 -43 -3 c-49 -4 -72 10
-72 43 0 28 16 42 55 48 28 4 28 4 -6 6 -42 1 -53 9 -38 28 15 17 60 17 83 0z
m1092 -12 c23 -35 12 -55 -32 -55 -24 0 -34 -4 -31 -12 2 -7 18 -12 36 -12 24
2 31 -2 31 -17 0 -15 -7 -19 -33 -19 -48 0 -77 24 -77 66 0 66 72 100 106 49z
m268 12 c11 -8 17 -23 14 -38 -2 -20 -9 -25 -40 -27 -21 -2 -38 -7 -38 -13 0
-9 9 -12 50 -13 45 -2 30 -31 -17 -34 -33 -2 -44 1 -57 20 -22 31 -20 67 6 95
24 26 55 30 82 10z m134 -9 c3 -14 -4 -18 -30 -19 -21 -1 -26 -3 -13 -6 48
-12 70 -58 41 -82 -21 -17 -91 -10 -91 9 0 10 8 14 27 12 35 -3 45 14 13 22
-37 9 -51 43 -29 67 23 25 77 22 82 -3z m260 6 c18 -12 22 -25 22 -63 0 -47
-1 -49 -34 -55 -39 -7 -62 -1 -70 20 -7 17 10 53 24 55 6 1 15 3 20 4 6 1 16
3 23 4 9 1 9 3 -1 10 -7 4 -24 6 -38 3 -28 -5 -32 12 -6 27 24 14 34 13 60 -5z
m687 -10 c23 -35 13 -54 -30 -54 -19 0 -35 -4 -35 -9 0 -13 25 -20 49 -14 16
4 21 1 21 -16 0 -18 -6 -21 -37 -21 -48 0 -73 24 -73 68 0 69 70 99 105 46z
m144 12 c18 -21 10 -121 -9 -121 -11 0 -17 15 -21 50 l-6 50 -1 -52 c-2 -40
-6 -53 -17 -53 -16 0 -18 7 -15 56 1 18 -4 35 -10 39 -8 5 -11 -7 -9 -41 3
-38 0 -49 -11 -49 -11 0 -16 16 -18 68 l-3 67 54 0 c35 0 59 -5 66 -14z m119
-2 c20 -14 23 -23 20 -67 l-3 -52 -46 -3 c-56 -4 -77 15 -63 56 7 20 18 29 44
33 l35 6 -37 2 c-36 1 -49 16 -31 34 12 12 58 7 81 -9z m276 -3 c28 -31 17
-55 -27 -59 -37 -3 -49 -15 -23 -25 8 -3 23 -3 34 0 24 6 40 -16 21 -28 -27
-17 -77 -10 -93 13 -49 70 32 161 88 99z m405 -5 c17 -18 20 -31 16 -57 -8
-46 -22 -59 -61 -59 -38 0 -54 21 -54 71 0 64 57 90 99 45z m143 -14 c29 -59
-7 -112 -68 -100 -26 5 -48 49 -41 80 17 66 80 77 109 20z m399 22 c7 -9 13
-39 14 -68 l0 -51 -46 -3 c-56 -4 -77 15 -63 56 6 18 19 29 39 33 l30 7 -32 1
c-31 1 -43 17 -26 34 13 13 71 7 84 -9z m1086 4 c6 -7 13 -23 15 -35 6 -24 -7
-33 -53 -33 -16 0 -29 -4 -29 -9 0 -14 29 -22 57 -15 21 6 24 3 21 -12 -5 -30
-70 -31 -97 -3 -27 29 -27 59 0 93 22 28 69 36 86 14z m271 0 c7 -7 12 -25 12
-40 0 -25 -3 -28 -35 -28 -19 0 -35 -4 -35 -9 0 -13 25 -20 50 -14 18 5 21 2
18 -13 -4 -23 -71 -32 -94 -13 -19 16 -18 88 3 111 18 20 63 24 81 6z m140
-11 c3 -14 -2 -18 -20 -17 -41 4 -44 0 -10 -16 35 -18 43 -52 18 -73 -20 -17
-81 -10 -81 9 0 10 8 14 28 12 15 -1 27 2 27 8 0 5 -5 10 -12 10 -18 0 -48 31
-48 51 0 39 91 53 98 16z m710 5 c13 -13 18 -32 17 -67 -1 -46 -2 -48 -30 -51
-50 -3 -65 5 -65 36 0 27 13 44 35 45 6 0 11 5 12 10 1 6 -9 9 -22 7 -31 -4
-33 16 -2 28 32 13 35 12 55 -8z m196 8 c21 -8 26 -16 26 -45 0 -29 -4 -36
-17 -34 -36 3 -54 -1 -48 -12 4 -6 19 -7 36 -4 16 4 29 3 29 -2 0 -15 -23 -33
-42 -33 -25 0 -68 44 -68 70 0 12 11 32 25 45 28 29 26 28 59 15z m347 -27
c21 -56 0 -96 -50 -96 -59 0 -83 74 -36 111 32 25 73 18 86 -15z m396 16 c7
-7 13 -24 11 -38 -2 -20 -9 -26 -28 -28 -14 0 -31 -1 -38 -2 -7 -1 -10 -6 -7
-11 4 -6 21 -8 41 -4 39 7 47 -9 13 -26 -49 -27 -107 27 -87 80 17 47 58 59
95 29z m284 2 c44 -36 21 -120 -33 -121 -63 -1 -78 112 -18 133 24 9 27 8 51
-12z m101 -12 c-16 -12 -22 -28 -22 -58 0 -30 -4 -41 -15 -41 -12 0 -15 13
-15 59 0 54 2 60 23 63 40 7 53 -3 29 -23z m202 -32 c7 -35 6 -51 -3 -60 -16
-16 -31 7 -31 51 0 25 -4 32 -20 32 -17 0 -20 -7 -20 -45 0 -33 -4 -45 -15
-45 -11 0 -15 12 -15 45 0 38 -3 45 -20 45 -17 0 -20 -7 -20 -45 0 -33 -4 -45
-15 -45 -12 0 -15 13 -15 59 0 58 1 60 28 63 15 2 52 1 82 -2 l55 -5 9 -48z
m51 -7 c0 -50 -3 -60 -17 -60 -15 0 -18 9 -18 58 0 61 4 74 23 66 7 -2 12 -28
12 -64z m438 53 c4 -2 7 -28 7 -57 0 -52 -1 -54 -32 -60 -40 -8 -78 15 -71 43
3 11 21 26 41 35 l37 15 -32 0 c-33 1 -47 24 -20 34 12 5 54 -1 70 -10z m175
9 c18 -3 15 -20 -13 -56 -30 -40 -31 -46 -6 -46 27 0 35 -17 12 -25 -19 -6
-69 0 -79 9 -2 3 7 21 22 40 31 41 33 56 7 56 -23 0 -37 16 -19 23 12 3 40 3
76 -1z m294 -16 c4 -6 8 -24 8 -39 0 -25 -3 -28 -30 -25 -16 2 -29 -1 -29 -7
0 -5 13 -9 30 -7 31 2 37 -6 17 -26 -31 -31 -98 6 -98 55 0 35 45 76 73 67 12
-4 25 -12 29 -18z m99 14 c27 -15 24 -33 -5 -26 -37 9 -40 -7 -4 -24 38 -17
46 -41 23 -64 -20 -20 -45 -20 -71 -2 -25 19 -11 32 20 18 19 -8 26 -8 29 1 2
7 -9 17 -25 24 -39 17 -47 42 -19 65 27 21 27 21 52 8z m419 -25 c20 -37 6
-58 -35 -53 -22 2 -34 0 -32 -6 2 -6 18 -10 36 -8 35 2 41 -12 11 -28 -33 -17
-68 -2 -80 35 -25 75 64 127 100 60z m82 4 c-16 -12 -22 -28 -22 -58 0 -34 -3
-41 -20 -41 -18 0 -20 7 -20 59 0 58 1 60 28 63 45 6 58 -3 34 -23z m418 21
c40 -22 49 -83 11 -79 -34 3 -52 -1 -46 -12 4 -6 19 -7 36 -4 35 8 40 -11 6
-26 -33 -15 -77 4 -78 33 -2 46 3 63 23 81 24 20 24 20 48 7z m398 -13 c14
-11 17 -107 3 -107 -5 0 -22 -3 -38 -6 -29 -6 -63 14 -63 36 0 16 43 50 64 50
15 0 17 3 8 9 -7 4 -24 6 -38 3 -27 -5 -33 12 -8 26 18 10 51 5 72 -11z m122
-8 c0 -7 -10 -9 -24 -5 -30 7 -45 -10 -16 -19 31 -10 49 -33 43 -55 -7 -25
-44 -36 -72 -20 -32 16 -26 33 9 25 39 -9 39 9 -1 25 -24 10 -29 18 -27 39 2
17 11 27 28 32 27 6 60 -5 60 -22z m460 21 c11 0 31 -60 24 -72 -4 -5 -22 -8
-40 -6 -21 3 -33 0 -31 -6 2 -6 18 -10 36 -8 17 1 31 -2 31 -6 0 -14 -24 -32
-42 -32 -25 0 -68 44 -68 70 0 28 46 74 66 66 9 -3 19 -6 24 -6z m-8720 -26
c6 -14 10 -41 10 -60 0 -28 -4 -35 -17 -32 -18 3 -20 7 -22 58 -1 23 -6 30
-21 30 -17 0 -20 -7 -20 -45 0 -33 -4 -45 -15 -45 -12 0 -15 13 -15 60 l0 60
45 0 c40 0 47 -3 55 -26z m4070 12 c6 -8 10 -25 8 -38 -2 -19 -11 -24 -43 -28
-27 -3 -36 -8 -27 -13 7 -5 24 -6 38 -3 28 7 35 -18 8 -28 -58 -22 -106 45
-74 105 13 23 71 26 90 5z m280 5 c0 -5 -9 -12 -19 -16 -15 -5 -21 -17 -23
-53 -4 -68 -22 -58 -26 16 l-3 62 36 0 c19 0 35 -4 35 -9z m300 -10 c16 -31
13 -101 -5 -101 -10 0 -15 10 -15 29 0 42 -10 61 -31 61 -16 0 -19 -8 -19 -45
0 -33 -4 -45 -15 -45 -12 0 -15 13 -15 60 l0 60 45 0 c34 0 47 -5 55 -19z
m398 7 c7 -7 12 -28 12 -48 0 -43 -29 -75 -59 -67 -15 3 -21 -1 -23 -16 -2
-11 -9 -22 -15 -25 -10 -3 -13 18 -13 82 l0 86 43 0 c24 0 48 -5 55 -12z m886
-4 c3 -9 6 -36 6 -60 0 -32 -4 -44 -15 -44 -11 0 -15 12 -15 45 0 37 -3 45
-19 45 -21 0 -31 -19 -31 -61 0 -19 -5 -29 -15 -29 -12 0 -15 13 -15 60 l0 60
49 0 c35 0 51 -4 55 -16z m136 -59 c0 -63 -3 -76 -19 -85 -43 -23 -98 3 -72
34 9 10 8 16 -4 26 -18 15 -20 71 -3 88 7 7 31 12 55 12 l43 0 0 -75z m1372
51 c16 -37 5 -56 -32 -51 -22 3 -30 -1 -30 -12 0 -12 7 -14 36 -8 28 5 35 3
32 -7 -3 -7 -16 -17 -31 -22 -57 -20 -100 48 -65 104 19 30 75 27 90 -4z m446
12 c21 -21 13 -29 -22 -23 -28 6 -35 4 -40 -13 -4 -10 -4 -27 0 -36 7 -18 39
-22 50 -5 4 8 10 7 18 -1 8 -8 6 -15 -8 -26 -56 -41 -120 28 -85 92 14 27 65
34 87 12z m62 -32 c0 -25 5 -48 10 -51 20 -12 40 17 40 57 0 26 4 38 12 36 8
-3 11 -23 9 -59 -1 -30 -4 -55 -5 -56 -1 -2 -16 -6 -33 -9 -43 -9 -63 15 -63
77 0 37 4 49 15 49 11 0 15 -12 15 -44z m428 32 c7 -7 12 -25 12 -41 0 -27 -2
-29 -28 -24 -34 7 -63 -7 -37 -17 9 -3 27 -3 41 0 29 7 32 -11 5 -26 -29 -15
-49 -12 -71 10 -24 24 -26 57 -4 88 17 24 62 30 82 10z m119 -18 c7 -37 23
-50 23 -18 0 13 4 29 9 37 12 19 41 6 41 -19 0 -28 18 -25 26 5 3 14 12 25 20
25 18 0 18 -2 -3 -67 -19 -61 -37 -67 -57 -20 l-14 32 -7 -32 c-9 -39 -40 -45
-48 -10 -3 12 -10 39 -15 60 -8 30 -7 37 4 37 8 0 17 -14 21 -30z m-1973 -16
c25 -10 8 -24 -29 -24 -33 0 -51 11 -38 24 8 8 46 8 67 0z m-2846 -62 c2 -7
-5 -12 -17 -12 -14 0 -19 5 -14 15 6 17 25 15 31 -3z m-5394 -285 c-2 -40 -4
-75 -4 -79 0 -5 -4 -8 -10 -8 -11 0 -14 162 -3 173 14 14 20 -16 17 -86z m256
73 c0 -13 -5 -18 -15 -14 -12 5 -13 10 -4 20 15 19 19 18 19 -6z m1434 -60
c-1 -19 -2 -50 -3 -67 -1 -31 -3 -33 -38 -33 -45 0 -73 24 -73 63 0 37 25 67
57 67 16 0 27 8 35 28 l11 27 6 -25 c4 -13 6 -40 5 -60z m300 49 c-10 -16 -24
-9 -24 12 0 18 2 19 15 9 8 -7 12 -16 9 -21z m254 0 c-16 -10 -33 5 -23 21 5
8 11 8 21 -1 12 -10 12 -14 2 -20z m-3091 2 c3 -14 15 -21 37 -23 31 -3 31 -3
34 -65 2 -37 -1 -63 -7 -63 -10 0 -23 30 -20 46 6 33 -2 55 -18 52 -13 -2 -19
-16 -23 -48 -8 -74 -25 -52 -28 38 -2 56 1 82 9 82 6 0 13 -9 16 -19z m2003
-66 l0 -85 -43 0 c-54 0 -67 13 -67 65 0 48 13 65 52 65 21 0 28 5 28 20 0 11
7 20 15 20 12 0 15 -16 15 -85z m340 0 l0 -85 -43 0 c-54 0 -67 13 -67 65 0
48 13 65 52 65 21 0 28 5 28 20 0 11 7 20 15 20 12 0 15 -16 15 -85z m-2391
45 c16 0 14 -17 -4 -24 -20 -7 -20 -75 0 -82 19 -8 9 -24 -15 -24 -21 0 -30
19 -30 64 0 18 -5 37 -12 44 -9 9 -7 16 7 32 17 19 21 20 31 6 6 -9 16 -16 23
-16z m1092 -34 c-13 -24 -12 -39 4 -78 5 -14 2 -18 -14 -18 -21 0 -39 39 -27
59 3 5 2 21 -4 35 -7 19 -6 32 2 46 13 20 13 20 32 0 17 -17 18 -22 7 -44z
m570 11 c-14 -14 -15 -74 -1 -82 18 -11 10 -26 -12 -23 -19 2 -24 10 -26 48
-2 24 -8 50 -13 57 -7 8 -5 18 7 32 l18 20 19 -20 c14 -15 16 -24 8 -32z
m1413 32 c13 -15 15 -24 7 -32 -14 -14 -14 -74 -1 -82 17 -10 11 -25 -9 -25
-21 0 -31 19 -31 56 0 14 -5 34 -10 44 -8 14 -7 25 2 40 16 25 19 25 42 -1z
m-2826 -42 c17 -36 9 -47 -35 -47 -30 0 -34 -2 -23 -15 9 -11 17 -12 32 -4 23
12 33 6 25 -16 -8 -18 -67 -21 -85 -3 -16 16 -15 91 0 106 22 22 71 10 86 -21z
m198 1 l17 -33 15 33 c13 27 21 32 49 32 28 0 36 -5 49 -34 14 -29 15 -37 3
-62 -24 -49 -89 -43 -108 10 -7 18 -9 17 -27 -12 -15 -26 -25 -32 -51 -32 -27
0 -33 -4 -33 -21 0 -12 -5 -19 -12 -17 -13 5 -24 128 -14 155 3 8 22 13 50 13
41 0 47 -3 62 -32z m256 15 c39 -35 10 -113 -43 -113 -22 0 -29 -5 -29 -20 0
-24 -15 -27 -24 -4 -8 21 -8 139 1 147 13 13 77 7 95 -10z m68 -37 c3 -25 8
-46 13 -46 4 0 12 0 17 0 6 0 10 17 10 38 0 40 14 71 27 59 4 -5 8 -34 8 -65
l0 -57 -46 -3 c-39 -3 -47 0 -55 20 -6 13 -10 41 -9 63 3 49 2 48 18 43 6 -3
14 -26 17 -52z m238 42 c7 -7 12 -36 12 -65 l0 -53 -45 0 c-40 0 -45 3 -51 27
-8 29 14 53 48 53 10 0 18 5 18 11 0 7 -11 9 -30 6 -29 -6 -41 8 -23 26 11 11
58 8 71 -5z m142 -54 c0 -48 -3 -65 -12 -62 -13 5 -23 89 -14 114 13 35 26 9
26 -52z m131 30 c17 -30 16 -33 -2 -63 -33 -55 -109 -31 -109 34 0 67 78 87
111 29z m117 24 c17 -17 16 -121 0 -116 -7 3 -14 24 -16 47 -6 75 -52 65 -52
-11 0 -59 -18 -45 -22 17 -1 30 -1 60 0 65 5 14 76 12 90 -2z m187 -8 c0 -10
-8 -14 -27 -12 -16 2 -28 -1 -28 -7 0 -6 8 -11 18 -11 11 0 27 -9 36 -19 26
-29 6 -61 -38 -61 -37 0 -67 24 -43 33 8 3 20 1 27 -3 8 -5 18 -6 22 -4 13 8
9 24 -5 24 -29 0 -50 26 -43 54 6 24 11 27 44 24 25 -2 37 -8 37 -18z m193 8
c7 -7 12 -36 12 -66 l0 -53 -46 3 c-58 4 -78 26 -50 57 11 12 30 21 43 21 12
0 23 5 23 11 0 7 -11 9 -30 6 -29 -6 -41 8 -23 26 11 11 58 8 71 -5z m132 -7
c16 -31 13 -111 -4 -111 -11 0 -16 14 -18 48 -3 39 -6 47 -23 47 -17 0 -20 -8
-23 -48 -5 -71 -26 -55 -30 21 l-3 62 45 0 c35 0 48 -5 56 -19z m260 0 c5 -11
10 -40 10 -66 l0 -46 -46 3 c-58 4 -78 26 -50 57 11 12 27 21 37 21 10 0 21 5
25 11 4 7 -4 10 -25 8 -17 -2 -31 0 -31 4 0 4 0 12 0 17 0 6 16 10 35 10 24 0
37 -6 45 -19z m100 8 c0 -6 -9 -13 -20 -16 -17 -4 -20 -14 -20 -54 0 -37 -4
-49 -15 -49 -12 0 -15 14 -15 65 l0 65 35 0 c19 0 35 -5 35 -11z m427 3 c7 -4
16 -22 19 -40 6 -31 6 -32 -30 -32 -20 0 -36 -4 -36 -8 0 -17 12 -21 35 -12
13 5 26 6 29 3 12 -12 -17 -33 -47 -33 -49 0 -70 45 -47 104 7 19 17 26 37 26
16 0 34 -4 40 -8z m73 -33 c13 -40 14 -40 26 -17 8 13 13 31 14 41 0 9 7 17
15 17 19 0 19 -5 -4 -70 -13 -37 -25 -55 -36 -55 -11 0 -23 18 -36 55 -23 65
-23 70 -6 70 8 0 20 -18 27 -41z m115 -24 c0 -38 -4 -60 -12 -62 -10 -4 -13
13 -13 62 0 49 3 66 13 63 8 -3 12 -25 12 -63z m115 45 c6 -12 10 -40 8 -63
l-3 -42 -45 0 c-43 0 -45 1 -48 33 -3 29 0 33 27 38 17 4 31 11 31 16 0 6 -11
8 -24 4 -28 -7 -40 2 -25 21 18 21 67 16 79 -7z m140 -46 c0 -48 -3 -65 -12
-62 -13 5 -23 89 -14 114 13 35 26 9 26 -52z m118 53 c39 -47 15 -117 -40
-117 -36 0 -57 23 -58 63 0 42 20 67 56 67 17 0 36 -6 42 -13z m132 -6 c5 -11
10 -41 10 -66 0 -61 -23 -56 -30 6 -4 36 -9 44 -25 44 -17 0 -20 -8 -23 -48
-5 -71 -26 -55 -30 21 l-3 62 45 0 c35 0 48 -5 56 -19z m70 -96 c0 -8 -7 -15
-15 -15 -8 0 -15 7 -15 15 0 8 7 15 15 15 8 0 15 -7 15 -15z m-1860 -450 c0
-8 -7 -15 -15 -15 -16 0 -20 12 -8 23 11 12 23 8 23 -8z m920 -4 c0 -12 11
-23 30 -30 32 -11 34 -19 24 -83 -4 -24 -12 -38 -21 -38 -12 0 -14 9 -9 44 5
32 3 45 -7 49 -23 9 -34 -5 -42 -50 -5 -33 -11 -43 -26 -43 -16 0 -17 4 -9 26
6 14 10 38 10 54 0 16 5 32 10 35 6 3 10 17 10 31 0 15 6 24 15 24 8 0 15 -9
15 -19z m834 -7 c-3 -38 -24 -128 -32 -136 -15 -15 -83 -12 -93 3 -29 46 17
127 65 115 20 -5 25 -1 30 20 8 29 32 27 30 -2z m506 -6 c0 -14 5 -18 16 -14
25 10 44 -13 44 -52 l0 -35 23 21 c13 12 33 22 46 22 12 0 19 4 16 10 -3 6
-17 7 -31 4 -26 -7 -32 7 -10 25 17 14 62 5 70 -15 3 -8 3 -35 -1 -59 -5 -40
-9 -45 -32 -47 -46 -2 -64 2 -77 20 -13 16 -13 16 -14 0 0 -11 -8 -18 -20 -18
-17 0 -18 3 -10 26 17 44 13 66 -12 62 -16 -2 -24 -12 -29 -34 -8 -40 -17 -54
-35 -54 -11 0 -12 5 -6 18 5 9 13 40 17 67 8 58 22 88 36 80 5 -4 9 -15 9 -27z
m1680 13 c0 -12 9 -21 25 -25 13 -3 29 -15 35 -26 10 -18 11 -18 35 6 38 38
85 23 85 -27 0 -28 -8 -34 -39 -30 -7 2 -20 0 -29 -4 -25 -9 6 -26 35 -18 16
3 23 1 23 -10 0 -20 -45 -30 -71 -17 -11 6 -22 25 -26 41 -7 34 -23 21 -23
-18 0 -14 -6 -23 -16 -23 -14 0 -15 7 -10 45 6 40 5 45 -12 45 -20 0 -42 -37
-42 -70 0 -12 -7 -20 -16 -20 -12 0 -15 7 -11 28 15 75 27 124 32 133 10 16
25 10 25 -10z m845 -9 c-2 -9 -9 -45 -16 -79 -7 -41 -17 -63 -25 -63 -8 0 -14
3 -14 8 0 17 28 141 35 151 9 16 24 4 20 -17z m263 10 c2 -7 -3 -12 -12 -12
-9 0 -16 7 -16 16 0 17 22 14 28 -4z m-6600 -43 c15 -63 15 -109 1 -109 -6 0
-13 9 -16 20 -4 14 -14 20 -35 20 -21 0 -31 -6 -35 -20 -3 -11 -14 -20 -25
-20 -19 0 -18 3 8 48 49 84 69 112 80 112 6 0 16 -23 22 -51z m3612 33 c0 -10
-7 -27 -15 -38 -14 -18 -14 -17 -15 12 0 17 3 34 7 37 12 13 23 7 23 -11z
m-2131 -14 c12 -19 11 -23 -4 -34 -14 -10 -17 -22 -12 -54 5 -38 4 -41 -16
-38 -20 3 -22 9 -22 58 0 32 6 62 14 73 18 22 23 22 40 -5z m923 2 c18 -17 19
-20 5 -26 -21 -8 -41 -64 -27 -78 16 -16 12 -26 -10 -26 -27 0 -35 22 -22 59
7 20 7 32 -1 40 -8 8 -5 16 9 30 24 25 21 25 46 1z m332 -4 c9 -13 7 -19 -6
-27 -21 -12 -24 -69 -6 -87 9 -9 6 -12 -15 -12 -25 0 -26 3 -29 58 -4 77 28
115 56 68z m942 7 c17 -23 17 -33 0 -33 -18 0 -29 -69 -14 -88 10 -11 8 -13
-12 -10 -23 3 -25 8 -25 50 0 25 -3 49 -7 53 -4 4 3 16 15 26 27 23 27 23 43
2z m1471 -2 c10 -15 9 -22 -1 -31 -20 -16 -28 -57 -15 -81 9 -18 8 -20 -13
-17 -21 3 -23 8 -23 58 0 32 6 62 14 73 18 22 23 21 38 -2z m271 -2 c11 -17
11 -23 -1 -32 -17 -14 -28 -65 -16 -73 18 -11 8 -25 -13 -22 -21 3 -23 9 -23
58 0 32 6 62 14 73 18 22 23 22 39 -4z m1110 1 c10 -17 10 -21 -2 -26 -19 -7
-30 -72 -15 -90 9 -11 8 -14 -8 -14 -31 0 -43 18 -31 51 6 18 6 34 0 45 -7 12
-5 22 7 35 21 23 34 23 49 -1z m-6417 -10 c28 -15 24 -33 -5 -26 -34 8 -41 -8
-11 -24 52 -28 16 -91 -39 -70 -37 14 -33 33 4 25 37 -8 41 11 5 27 -30 13
-34 52 -7 67 22 13 29 13 53 1z m193 -9 c18 -21 21 -39 11 -74 -14 -52 -94
-56 -110 -7 -19 61 59 125 99 81z m246 -1 c0 -5 -8 -11 -18 -15 -21 -6 -42
-45 -42 -75 0 -11 -7 -20 -15 -20 -18 0 -18 4 -4 69 8 39 15 51 32 53 26 5 47
-1 47 -12z m154 4 c18 -18 20 -51 6 -88 -8 -23 -15 -26 -54 -26 -32 0 -46 5
-50 17 -9 22 31 63 61 63 13 0 21 4 18 10 -3 5 -19 7 -36 3 -24 -4 -28 -3 -23
10 3 9 15 18 27 20 12 2 25 5 29 6 4 0 14 -6 22 -15z m114 4 c19 -19 14 -31
-12 -24 -36 9 -39 -8 -5 -28 16 -9 29 -23 29 -30 0 -28 -55 -50 -84 -34 -27
15 -19 30 14 23 37 -8 38 -1 4 29 -20 16 -25 28 -20 43 9 30 53 42 74 21z
m100 6 c12 -4 22 -13 22 -21 0 -11 -7 -13 -24 -9 -36 9 -39 -5 -6 -25 18 -11
30 -27 30 -39 0 -27 -41 -43 -75 -30 -35 13 -32 34 4 27 41 -8 46 3 11 24 -33
21 -38 40 -14 63 17 18 20 18 52 10z m251 -3 c8 -6 24 -6 38 0 38 14 53 2 53
-46 0 -52 -8 -75 -25 -75 -9 0 -11 13 -7 45 4 37 2 45 -12 45 -11 0 -20 -15
-28 -45 -7 -27 -18 -45 -26 -45 -15 0 -13 30 4 73 6 15 3 18 -17 15 -19 -2
-25 -11 -32 -45 -5 -29 -13 -43 -24 -43 -11 0 -14 7 -10 23 3 12 9 39 12 59 5
27 13 38 29 41 11 2 23 5 26 5 3 1 11 -2 19 -7z m223 -13 c28 -45 -18 -124
-66 -112 -21 5 -26 2 -32 -20 -3 -15 -11 -25 -18 -23 -12 5 -12 15 7 102 10
50 16 60 37 66 33 8 62 3 72 -13z m258 2 c24 -24 25 -41 5 -79 -18 -35 -52
-45 -82 -25 -30 19 -31 69 -1 101 26 28 52 29 78 3z m128 6 c13 -7 16 -73 6
-100 -12 -31 -30 -17 -26 19 2 19 1 42 -2 52 -6 15 -8 15 -22 1 -9 -9 -19 -31
-23 -49 -8 -40 -31 -51 -31 -15 0 15 5 43 12 64 10 33 15 37 43 37 17 -1 36
-4 43 -9z m371 -21 c6 -34 -21 -95 -43 -97 -49 -3 -75 8 -76 33 0 18 41 49 64
49 15 0 24 4 21 10 -3 5 -19 7 -35 3 -36 -7 -42 13 -8 26 31 11 72 -2 77 -24z
m111 -1 c0 -11 -5 -11 -25 -2 -29 13 -49 1 -23 -13 31 -17 47 -39 41 -55 -13
-34 -93 -39 -93 -7 0 11 7 13 24 9 36 -9 38 4 6 31 -24 20 -28 28 -20 43 18
34 90 29 90 -6z m379 17 c11 -11 18 -28 16 -38 -15 -72 -14 -71 -52 -76 -60
-7 -80 20 -44 61 11 13 30 22 47 22 19 0 25 3 16 9 -7 4 -24 6 -38 3 -28 -5
-32 12 -6 27 25 15 40 13 61 -8z m441 -1 c36 -36 20 -67 -32 -61 -21 2 -28 -2
-28 -14 0 -13 6 -15 30 -10 37 8 41 -11 5 -27 -19 -9 -29 -8 -50 6 -44 29 -30
99 25 119 25 9 29 8 50 -13z m328 -2 c18 -15 15 -72 -5 -90 -50 -43 -98 -24
-96 38 2 63 53 89 101 52z m123 12 c31 -17 19 -120 -15 -120 -11 0 -12 6 -4
34 6 19 8 42 5 51 -10 24 -47 1 -47 -30 0 -34 -10 -55 -27 -55 -11 0 -14 7
-10 23 3 12 9 39 12 59 7 35 11 39 58 47 5 0 17 -4 28 -9z m687 -23 c16 -33 2
-58 -28 -50 -11 3 -28 2 -37 -1 -27 -11 5 -26 39 -19 37 7 37 -14 1 -28 -57
-21 -101 33 -72 88 26 49 76 54 97 10z m182 13 c22 -22 26 -45 10 -55 -5 -3
-10 -17 -10 -29 0 -19 -7 -25 -32 -29 -39 -6 -68 7 -68 30 0 25 30 53 57 53
13 0 22 4 19 9 -3 4 -17 6 -31 3 -27 -5 -33 6 -13 26 18 18 45 15 68 -8z m121
1 c27 -22 18 -41 -11 -23 -24 15 -47 6 -56 -20 -9 -30 18 -53 44 -39 23 12 39
-1 19 -17 -27 -22 -73 -18 -87 8 -15 29 5 89 34 100 30 12 31 12 57 -9z m113
9 c14 -5 26 -16 26 -25 0 -17 -9 -19 -29 -6 -24 16 -53 -6 -49 -37 3 -27 15
-31 51 -17 12 5 17 2 17 -9 0 -33 -72 -42 -92 -12 -16 23 -7 67 17 91 28 29
26 28 59 15z m128 -2 c22 -18 32 -55 16 -64 -6 -4 -25 -8 -40 -8 -15 -1 -28
-5 -27 -11 0 -5 13 -9 30 -7 36 3 38 -15 3 -29 -65 -24 -104 66 -48 110 31 24
44 26 66 9z m119 2 c30 -17 23 -33 -11 -26 -17 3 -30 1 -30 -4 0 -6 4 -10 9
-10 4 0 19 -11 32 -23 26 -26 75 -42 83 -29 3 5 -5 15 -18 22 -44 23 -37 67
11 75 22 3 53 -12 53 -26 0 -7 -12 -8 -30 -4 -37 8 -38 -1 -5 -27 52 -41 9
-96 -51 -66 -24 11 -34 11 -54 1 -30 -14 -66 -8 -74 14 -5 13 0 14 29 9 40 -8
46 5 11 24 -36 19 -41 42 -16 62 26 21 34 22 61 8z m385 -15 c21 -31 10 -80
-21 -101 -36 -23 -79 -1 -83 43 -6 63 72 107 104 58z m586 13 c8 -7 21 -22 27
-33 10 -20 11 -20 17 3 4 14 18 25 38 31 37 10 62 -1 71 -30 25 -78 -81 -134
-115 -61 l-12 27 -14 -28 c-14 -27 -28 -32 -71 -28 -15 1 -22 -5 -25 -20 -2
-13 -9 -24 -17 -27 -11 -4 -12 5 -7 44 13 86 27 123 50 127 38 8 42 7 58 -5z
m288 -49 c0 -29 -6 -42 -27 -59 -15 -11 -33 -18 -42 -15 -9 4 -24 -5 -37 -22
l-23 -28 -1 35 c0 19 5 58 12 87 11 47 15 52 43 55 53 6 75 -10 75 -53z m297
47 c8 -7 5 -88 -5 -102 -13 -20 -70 -25 -87 -8 -8 9 -15 19 -15 24 0 18 44 50
69 50 18 0 22 3 13 9 -7 4 -24 6 -38 3 -31 -6 -32 15 -1 28 17 7 53 5 64 -4z
m146 -12 c-6 -65 -17 -104 -29 -104 -17 0 -18 26 -2 85 12 44 35 58 31 19z
m253 4 c3 -5 3 -31 -1 -58 -5 -35 -11 -50 -22 -50 -12 0 -14 8 -9 45 6 40 5
45 -12 45 -20 0 -42 -37 -42 -70 0 -12 -7 -20 -16 -20 -13 0 -15 7 -9 43 13
77 18 83 64 79 23 -2 44 -8 47 -14z m-6460 -32 c-4 -25 -3 -47 3 -50 15 -10
40 21 47 59 4 22 12 35 21 35 12 0 14 -7 9 -27 -3 -16 -9 -42 -12 -60 -5 -25
-12 -32 -38 -36 -60 -9 -75 15 -60 92 4 18 13 31 21 31 12 0 14 -9 9 -44z
m617 -6 c-5 -40 -3 -50 9 -50 21 0 38 21 38 46 0 33 10 54 27 54 9 0 12 -7 9
-17 -2 -10 -7 -37 -11 -59 -6 -38 -10 -42 -38 -47 -61 -9 -76 15 -61 92 4 17
12 31 20 31 10 0 12 -12 7 -50z m547 35 c0 -36 -25 -105 -38 -105 -10 0 -12 7
-9 23 3 12 9 39 12 60 7 36 35 54 35 22z m371 -22 l0 -38 17 38 c19 41 45 46
50 9 4 -24 22 -31 22 -8 0 16 28 41 37 33 10 -10 -46 -117 -61 -117 -8 0 -18
14 -22 33 l-7 32 -15 -33 c-25 -51 -46 -38 -50 31 -2 46 0 57 13 57 11 0 15
-11 16 -37z m931 0 l4 -38 17 38 c21 45 57 53 57 12 0 -14 4 -25 9 -25 5 0 12
11 15 25 4 14 13 25 21 25 20 0 19 -2 -11 -66 -18 -38 -31 -54 -45 -54 -14 0
-19 7 -19 25 0 14 -4 25 -9 25 -5 0 -12 -11 -15 -25 -4 -16 -13 -25 -25 -25
-16 0 -20 9 -23 56 -1 31 -1 58 1 60 12 12 20 0 23 -33z m1201 -2 l8 -33 18
33 c20 37 57 55 43 22 -20 -50 -57 -103 -73 -103 -16 0 -29 42 -29 98 0 34 22
22 33 -17z m2150 -11 c-4 -32 -2 -50 5 -50 17 0 42 30 42 50 0 29 11 50 26 50
15 0 11 -41 -8 -91 -14 -40 -89 -48 -102 -12 -9 22 15 103 30 103 10 0 12 -12
7 -50z m505 38 c34 -34 -3 -110 -53 -110 -50 0 -71 54 -39 100 17 25 71 31 92
10z m-5778 -533 c0 -8 -9 -15 -20 -15 -11 0 -20 7 -20 15 0 8 9 15 20 15 11 0
20 -7 20 -15z m280 0 c0 -8 -6 -15 -12 -16 -10 0 -10 -2 0 -6 8 -3 12 -27 12
-69 0 -60 -1 -64 -23 -64 -22 0 -23 4 -22 55 1 30 5 58 8 62 4 3 4 17 1 29 -5
20 -2 24 15 24 12 0 21 -6 21 -15z m-1180 -9 c0 -7 -9 -16 -20 -19 -17 -4 -20
-14 -20 -66 0 -58 -1 -61 -25 -61 -23 0 -24 4 -27 63 -3 56 -5 62 -25 65 -23
3 -29 13 -16 25 3 4 35 7 70 7 47 0 63 -4 63 -14z m322 -48 c-15 -15 -16 -64
-2 -73 21 -13 9 -26 -22 -23 -31 3 -33 6 -38 48 -3 25 -9 50 -12 56 -4 6 2 21
14 33 l21 23 25 -26 c21 -20 24 -28 14 -38z m192 40 c15 -24 0 -34 -28 -19
-13 8 -30 10 -37 6 -8 -6 2 -15 32 -29 48 -23 59 -48 35 -81 -20 -27 -92 -27
-112 0 -12 17 -12 20 2 28 10 6 20 5 27 -2 15 -15 50 -14 45 2 -3 6 -13 14
-24 16 -45 8 -69 49 -48 80 13 18 24 21 56 19 25 -2 45 -10 52 -20z m98 -40
c-15 -15 -16 -64 -2 -73 20 -12 9 -26 -17 -23 -21 2 -30 10 -36 33 -5 17 -12
42 -17 57 -6 20 -3 31 13 47 l21 21 25 -25 c20 -19 23 -27 13 -37z m219 25
c11 -21 11 -27 2 -30 -15 -5 -18 -63 -3 -63 6 0 10 -7 10 -16 0 -11 -8 -14
-27 -12 -25 3 -28 7 -31 46 -2 23 -7 42 -13 42 -14 0 -11 18 7 45 18 28 36 24
55 -12z m281 -25 c-15 -15 -16 -64 -2 -73 18 -11 11 -25 -13 -25 -32 0 -47 18
-47 56 0 18 -4 36 -10 39 -15 9 -12 19 11 44 l22 23 25 -26 c21 -20 24 -28 14
-38z m-1013 7 c12 -14 19 -29 17 -34 -3 -4 -7 -20 -10 -35 -7 -38 -10 -40 -53
-39 -62 2 -87 70 -41 113 29 27 60 25 87 -5z m121 10 c6 -8 9 -22 6 -32 -3
-10 -1 -25 4 -32 21 -35 -39 -73 -80 -51 -22 12 -27 40 -8 40 9 0 9 3 0 12
-18 18 -15 55 6 67 25 15 58 13 72 -4z m514 -7 c9 -12 16 -42 16 -65 l0 -43
-55 0 c-61 0 -78 16 -57 51 7 10 9 25 6 32 -7 20 22 47 51 47 13 0 31 -10 39
-22z m168 -27 c4 -65 0 -81 -23 -81 -17 0 -19 7 -19 58 0 60 4 72 26 72 7 0
13 -19 16 -49z m108 34 c7 -8 9 -22 6 -32 -4 -9 -1 -20 5 -24 7 -4 9 -17 5
-32 -7 -29 -43 -41 -80 -27 -28 10 -32 20 -15 37 8 8 8 13 0 17 -17 11 -13 54
7 65 25 15 58 13 72 -4z m281 5 c10 -6 19 -18 19 -26 0 -13 -7 -15 -35 -10
-34 7 -35 6 -35 -24 0 -30 1 -31 35 -24 28 5 35 3 35 -10 0 -21 -44 -38 -76
-30 -32 8 -48 39 -40 77 10 49 53 70 97 47z m87 -23 c2 -12 -3 -17 -17 -17
-12 0 -21 6 -21 13 0 31 32 34 38 4z m0 -80 c2 -12 -3 -17 -17 -17 -12 0 -21
6 -21 13 0 31 32 34 38 4z m5568 -429 c3 -4 -19 -8 -48 -8 -38 0 -49 3 -38 10
17 11 79 10 86 -2z m484 2 c11 -7 -2 -10 -43 -10 -36 0 -56 4 -52 10 8 13 75
13 95 0z m-475 -55 c0 -13 -8 -21 -22 -23 -18 -3 -23 -10 -23 -34 0 -30 0 -31
20 -13 16 14 20 15 20 4 0 -27 -23 -39 -72 -39 -40 0 -48 3 -48 18 0 25 11 34
26 21 9 -7 14 -2 19 21 8 37 1 48 -20 30 -22 -19 -31 -4 -11 19 12 13 29 18
64 17 40 -1 47 -4 47 -21z m408 11 c3 -7 3 -33 0 -57 -6 -39 -4 -43 9 -31 9 7
19 28 22 47 7 35 19 50 35 41 12 -7 -18 -117 -37 -139 -24 -27 -48 -38 -66
-31 -17 7 -22 39 -7 49 11 6 3 74 -11 91 -5 8 -3 18 7 28 20 20 41 21 48 2z
m-148 -46 c-3 -5 -39 -10 -80 -10 -41 0 -77 5 -80 10 -4 6 25 10 80 10 55 0
84 -4 80 -10z m-1118 -66 c3 -8 0 -27 -8 -42 l-13 -27 -4 28 c-3 22 -8 28 -25
25 -17 -2 -24 -16 -38 -71 -16 -62 -16 -68 0 -77 11 -7 -1 -9 -44 -9 -39 1
-52 3 -36 8 19 5 27 17 36 56 6 28 15 60 19 73 11 33 -27 29 -53 -5 -15 -21
-20 -24 -21 -11 0 9 5 29 12 43 11 24 15 25 90 25 62 0 80 -3 85 -16z m263
-84 c0 -6 -37 -10 -90 -10 -53 0 -90 4 -90 10 0 6 37 10 90 10 53 0 90 -4 90
-10z m1400 -20 c0 -7 -218 -10 -635 -10 -417 0 -635 3 -635 10 0 7 218 10 635
10 417 0 635 -3 635 -10z m-1405 -30 c4 -6 -27 -10 -85 -10 -58 0 -89 4 -85
10 3 6 42 10 85 10 43 0 82 -4 85 -10z m1385 -50 c0 -6 -170 -11 -476 -12
l-476 -3 -27 -85 c-31 -93 -106 -332 -116 -367 -13 -45 -25 -28 -59 84 -9 28
-16 59 -16 67 0 9 -7 16 -15 16 -20 0 -19 13 4 34 18 17 20 17 29 -1 5 -10 15
-40 23 -66 16 -55 39 -83 39 -48 0 12 4 29 9 39 6 9 24 64 41 122 41 135 63
202 73 218 10 15 967 18 967 2z m-740 -55 c10 -12 10 -21 2 -40 -8 -17 -8 -25
-1 -25 6 0 7 -4 4 -10 -9 -15 -45 -12 -45 4 0 7 7 19 15 26 17 14 20 40 5 40
-5 0 -10 -5 -10 -11 0 -5 -5 -7 -10 -4 -8 5 -7 11 1 21 15 18 23 18 39 -1z
m634 9 c19 -7 21 -45 4 -62 -9 -9 -9 -12 0 -12 7 0 12 -4 12 -10 0 -5 -11 -10
-25 -10 -29 0 -30 7 -10 34 21 27 20 53 0 36 -12 -10 -15 -10 -15 2 0 13 9 28
16 28 1 0 9 -3 18 -6z m-703 -117 c-6 -27 -12 -32 -39 -35 -24 -2 -32 1 -32
12 0 9 5 16 11 16 6 0 9 7 5 15 -3 8 4 21 16 29 30 21 47 5 39 -37z m640 0
c-6 -27 -12 -32 -39 -35 -24 -2 -32 1 -32 12 0 9 5 16 10 16 6 0 10 11 10 24
0 15 7 26 18 28 28 7 40 -9 33 -45z m-579 -42 c2 -35 0 -45 -12 -45 -11 0 -15
10 -13 42 2 52 1 48 12 48 5 0 11 -20 13 -45z m654 -3 c1 -38 -2 -42 -23 -42
-26 0 -30 12 -8 30 8 7 15 22 15 34 0 17 -2 18 -10 6 -5 -8 -12 -11 -15 -8
-11 11 6 29 23 26 13 -2 17 -15 18 -46z m-374 -19 c3 -37 4 -38 48 -44 38 -4
41 -6 20 -12 -14 -3 -34 -8 -45 -9 -14 -2 -21 -12 -23 -36 -4 -42 -20 -41 -24
1 -2 26 -8 33 -28 35 -49 6 -56 16 -15 21 38 6 40 8 43 44 2 20 7 37 12 37 5
0 10 -17 12 -37z m-264 -50 c-38 -2 -98 -2 -135 0 -38 2 -7 3 67 3 74 0 105
-1 68 -3z m640 0 c-38 -2 -98 -2 -135 0 -38 2 -7 3 67 3 74 0 105 -1 68 -3z
m-708 -102 c0 -9 3 -26 6 -38 5 -19 2 -23 -16 -23 -19 0 -22 4 -18 30 6 40
-18 40 -27 0 -8 -37 -25 -49 -25 -18 0 13 -5 29 -12 36 -16 16 -1 29 37 34 40
5 55 -1 55 -21z m643 -13 c2 -18 2 -39 -1 -46 -8 -23 -27 -7 -30 26 -4 40 -21
41 -28 2 -9 -44 -29 -37 -30 10 l-1 40 42 0 c41 0 43 -2 48 -32z m-571 -54 c2
-20 -1 -29 -11 -29 -14 0 -23 68 -12 89 5 12 18 -21 23 -60z m646 13 c3 -40 0
-47 -16 -47 -28 0 -33 10 -17 34 17 23 19 37 6 34 -5 -2 -9 0 -10 5 -3 22 1
28 17 25 13 -2 18 -15 20 -51z m-4872 -408 c3 -6 0 -16 -7 -21 -11 -8 -12 -11
-1 -15 11 -4 10 -8 -2 -22 -8 -9 -16 -36 -18 -61 -4 -58 -22 -58 -26 0 -2 24
-8 51 -15 58 -8 11 -7 16 6 23 9 6 17 16 17 24 0 12 13 22 32 24 4 1 10 -4 14
-10z m422 -91 c-2 -46 -7 -73 -15 -76 -10 -3 -13 18 -13 81 0 46 3 87 7 91 15
14 24 -27 21 -96z m1260 0 c-2 -40 -7 -73 -13 -73 -11 0 -19 139 -10 164 13
34 26 -18 23 -91z m1762 11 c0 -68 -3 -90 -12 -87 -28 9 -19 178 8 178 2 0 4
-41 4 -91z m1328 -11 c-2 -40 -7 -73 -13 -73 -11 0 -19 139 -10 164 13 34 26
-18 23 -91z m-7110 78 c3 -3 -20 -6 -52 -6 -31 0 -55 3 -53 8 6 8 96 6 105 -2z
m447 -72 l0 -79 -42 -3 c-34 -2 -44 2 -57 20 -35 49 -13 108 39 108 29 0 35 4
35 21 0 12 5 19 13 17 8 -3 12 -29 12 -84z m782 66 c4 -14 14 -20 33 -20 21 0
30 -7 40 -29 15 -38 10 -96 -10 -96 -10 0 -14 8 -12 24 6 39 -7 71 -28 71 -16
0 -19 -8 -22 -47 -2 -30 -8 -48 -15 -48 -7 0 -13 3 -13 8 0 4 0 41 0 82 0 48
4 75 11 75 6 0 13 -9 16 -20z m1249 -46 c9 -24 20 -44 24 -44 4 0 17 23 28 50
12 30 27 50 36 50 13 0 16 -14 16 -80 0 -80 -13 -106 -25 -50 -4 17 -10 30
-14 30 -3 0 -12 -13 -18 -30 -15 -40 -31 -38 -50 8 l-17 37 -5 -34 c-4 -19
-12 -36 -18 -39 -10 -3 -13 17 -13 76 0 43 3 82 7 85 11 12 31 -13 49 -59z
m859 -20 l0 -79 -43 -3 c-52 -4 -71 14 -72 69 0 42 15 59 51 59 19 0 28 6 32
21 3 12 12 19 19 17 9 -3 13 -27 13 -84z m189 65 c-3 -5 -21 -9 -40 -9 -27 0
-34 -4 -34 -20 0 -16 7 -20 35 -20 24 0 35 -5 35 -15 0 -10 -10 -15 -34 -15
-32 0 -35 -3 -38 -32 -6 -62 -23 -33 -26 44 -2 66 0 77 15 80 30 6 93 -4 87
-13z m936 1 c0 -15 7 -20 28 -20 40 0 52 -17 52 -77 0 -40 -4 -53 -14 -53 -11
0 -16 14 -18 48 -3 39 -6 47 -23 47 -17 0 -20 -8 -23 -47 -2 -34 -7 -48 -18
-48 -11 0 -14 18 -14 85 0 69 3 85 15 85 8 0 15 -9 15 -20z m130 -66 c0 -64
-3 -85 -12 -82 -8 3 -14 29 -16 73 -3 72 1 95 18 95 6 0 10 -34 10 -86z m2220
71 c0 -9 -6 -12 -15 -9 -8 4 -15 10 -15 15 0 5 7 9 15 9 8 0 15 -7 15 -15z
m-6182 -2 c-16 -2 -40 -2 -55 0 -16 2 -3 4 27 4 30 0 43 -2 28 -4z m534 -15
c19 -19 20 -22 5 -33 -21 -15 -22 -58 -2 -75 21 -17 19 -30 -5 -30 -23 0 -40
28 -40 67 0 15 -4 34 -9 42 -6 9 -3 20 7 32 20 23 18 23 44 -3z m3235 -36
c-15 -18 -13 -60 3 -76 16 -16 12 -26 -10 -26 -23 0 -27 8 -33 61 -3 20 -8 42
-12 49 -4 6 1 20 10 30 16 18 17 18 37 -2 17 -17 18 -22 5 -36z m388 38 c14
-16 16 -23 7 -32 -15 -15 -16 -74 -2 -83 18 -11 10 -26 -12 -23 -19 2 -24 10
-26 48 -2 24 -9 51 -15 59 -9 11 -9 15 1 18 6 3 12 11 12 19 0 20 14 17 35 -6z
m195 -11 c0 -38 -24 -35 -28 4 -2 19 1 27 12 27 11 0 16 -10 16 -31z m1769
-33 c-10 -21 -10 -34 -1 -59 13 -36 8 -46 -16 -31 -21 14 -35 110 -20 137 10
19 10 19 30 0 17 -17 17 -23 7 -47z m-6751 6 c2 -15 -2 -22 -12 -22 -9 0 -16
6 -17 13 0 11 -27 -48 -28 -65 -2 -15 27 -8 33 7 3 8 10 15 15 15 7 0 6 -9 -1
-25 -10 -22 -18 -25 -58 -25 -50 0 -83 21 -58 36 7 5 20 9 28 9 9 0 16 11 18
28 3 26 -11 37 -23 17 -4 -6 -11 -8 -16 -4 -6 4 -4 13 6 24 11 12 29 17 63 16
41 -1 47 -4 50 -24z m180 -40 l3 -63 -42 3 c-49 3 -71 27 -53 56 6 9 20 19 30
20 10 2 24 9 29 14 7 7 0 9 -22 5 -24 -5 -33 -3 -33 7 0 21 12 27 50 24 l35
-3 3 -63z m126 52 c3 -9 6 -38 6 -66 0 -65 -24 -61 -28 5 -2 38 -7 47 -21 47
-22 0 -31 -19 -31 -66 0 -21 -4 -33 -10 -29 -5 3 -10 33 -10 66 l0 59 44 0
c31 0 46 -5 50 -16z m285 2 c9 -11 9 -20 2 -35 -6 -11 -11 -29 -11 -41 0 -35
24 -17 40 30 21 60 43 66 34 8 -10 -63 -35 -111 -68 -126 -24 -12 -30 -12 -43
1 -9 8 -12 20 -9 26 9 14 36 14 36 0 0 -5 5 -7 10 -4 17 10 11 25 -10 25 -17
0 -20 7 -20 40 0 22 -4 40 -10 40 -14 0 -13 23 2 38 16 16 33 15 47 -2z m227
-8 c13 -37 14 -52 8 -80 -5 -25 -10 -28 -50 -28 -39 0 -44 3 -50 27 -8 29 14
53 48 53 10 0 18 5 18 11 0 7 -11 9 -30 6 -21 -5 -30 -3 -30 7 0 20 11 26 46
26 25 0 34 -5 40 -22z m104 12 c0 -6 -11 -15 -25 -20 -22 -8 -25 -16 -25 -56
0 -32 -4 -44 -12 -42 -13 5 -23 89 -14 114 6 16 76 19 76 4z m98 -2 c7 -7 12
-25 12 -40 0 -26 -3 -28 -41 -28 -27 0 -38 -4 -33 -11 4 -7 21 -9 40 -6 35 6
42 -1 22 -21 -17 -17 -58 -15 -80 5 -22 20 -23 70 -1 95 18 20 63 24 81 6z
m402 -7 c5 -11 10 -29 10 -40 0 -18 -6 -21 -41 -21 -27 0 -38 -4 -33 -11 3 -6
19 -9 34 -5 33 6 44 -2 29 -21 -16 -18 -59 -16 -81 4 -21 19 -24 64 -6 93 17
27 73 27 88 1z m256 -5 c8 -33 1 -101 -11 -99 -5 2 -11 23 -13 48 -3 37 -7 46
-20 43 -13 -2 -18 -16 -20 -51 -4 -63 -26 -58 -30 7 -3 38 -6 47 -20 44 -12
-2 -18 -16 -22 -48 -7 -66 -25 -55 -28 17 l-3 62 81 0 c75 -1 80 -2 86 -23z
m122 12 c7 -7 12 -25 12 -40 0 -25 -3 -28 -35 -28 -19 0 -35 -4 -35 -9 0 -14
27 -20 38 -9 6 6 15 7 22 3 18 -11 -9 -35 -40 -35 -35 0 -54 23 -54 65 0 18 6
40 13 49 16 19 62 21 79 4z m120 0 c7 -7 12 -36 12 -65 l0 -53 -43 0 c-44 0
-67 13 -67 38 0 20 30 41 58 42 12 0 22 5 22 11 0 7 -12 10 -30 7 -28 -4 -40
9 -23 25 11 11 58 8 71 -5z m132 -8 c13 -25 9 -105 -5 -105 -5 0 -11 22 -13
48 -3 43 -5 48 -25 45 -19 -3 -22 -10 -25 -51 -5 -71 -26 -55 -30 21 l-3 62
45 0 c35 0 48 -4 56 -20z m195 -10 c26 -49 -2 -100 -54 -100 -32 0 -57 36 -53
77 3 38 20 53 58 53 27 0 36 -6 49 -30z m454 16 c7 -8 11 -36 9 -63 l-3 -48
-42 -3 c-33 -2 -44 1 -52 17 -15 28 -3 51 30 58 35 7 39 26 4 21 -13 -2 -24 0
-25 5 0 4 0 12 0 17 0 15 66 12 79 -4z m179 2 c7 -7 12 -25 12 -40 0 -25 -3
-28 -35 -28 -19 0 -35 -4 -35 -9 0 -14 27 -20 38 -9 16 16 36 0 21 -18 -30
-37 -99 -1 -99 51 0 51 65 86 98 53z m182 -8 c6 -12 10 -40 8 -63 -3 -42 -3
-42 -45 -45 -33 -2 -44 1 -52 17 -15 28 -3 51 30 58 35 7 39 26 4 21 -13 -2
-24 0 -25 5 0 4 0 12 0 17 0 6 16 10 35 10 24 0 37 -6 45 -20z m138 -17 c12
-43 5 -96 -12 -90 -6 2 -12 25 -14 50 -3 38 -7 47 -22 47 -15 0 -19 -9 -22
-47 -2 -35 -7 -48 -18 -48 -11 0 -16 13 -18 49 -4 69 0 76 51 76 42 0 44 -2
55 -37z m445 10 c19 -38 11 -53 -29 -53 -19 0 -34 -5 -34 -11 0 -6 12 -10 28
-9 42 3 45 1 32 -15 -31 -37 -100 -5 -100 47 0 44 20 68 57 68 25 0 36 -6 46
-27z m198 6 c13 -25 8 -101 -8 -106 -8 -3 -13 12 -15 44 -3 40 -6 48 -23 48
-17 0 -20 -8 -23 -48 -4 -63 -26 -58 -30 6 -5 78 -41 54 -42 -26 0 -18 -4 -27
-12 -25 -8 3 -14 28 -16 66 l-3 61 81 0 c69 0 82 -3 91 -20z m117 -46 l3 -63
-40 0 c-30 0 -43 5 -51 19 -14 28 -2 51 31 58 16 3 29 10 29 16 0 5 -13 7 -30
4 -21 -5 -30 -3 -30 7 0 21 12 27 50 24 l35 -3 3 -62z m184 43 c16 -37 4 -56
-37 -56 -24 0 -34 -4 -29 -11 3 -6 19 -9 34 -5 33 6 44 -2 29 -21 -16 -18 -59
-16 -81 4 -21 19 -24 64 -6 93 19 30 75 27 90 -4z m176 12 c7 -7 12 -36 12
-66 l0 -53 -46 3 c-58 4 -78 26 -50 57 11 12 30 21 43 21 12 0 23 5 23 11 0 6
-13 9 -30 7 -16 -1 -30 1 -30 5 0 4 0 12 0 17 0 14 64 12 78 -2z m390 0 c7 -7
12 -25 12 -40 0 -26 -3 -28 -41 -28 -26 0 -38 -4 -33 -11 4 -6 20 -8 40 -4 35
6 43 -2 22 -23 -33 -33 -98 2 -98 53 0 51 65 86 98 53z m212 -12 c19 -36 7
-56 -35 -56 -19 0 -35 -4 -35 -9 0 -15 23 -19 43 -9 22 11 32 5 24 -17 -8 -18
-56 -20 -80 -2 -21 15 -26 80 -7 102 20 25 74 19 90 -9z m178 3 c2 -12 -4 -15
-28 -11 -38 5 -39 -6 -1 -19 34 -12 42 -26 30 -56 -12 -34 -89 -30 -89 4 0 10
5 13 18 8 9 -4 23 -9 30 -12 6 -3 12 1 12 9 0 7 -13 19 -30 25 -22 8 -30 18
-30 35 0 33 8 39 50 36 22 -2 36 -9 38 -19z m180 0 c2 -12 -4 -15 -28 -11 -39
6 -39 -14 0 -23 54 -12 35 -75 -22 -75 -17 0 -31 7 -35 15 -8 22 4 30 21 16
15 -12 36 -8 36 7 0 4 -13 13 -30 19 -22 8 -30 18 -30 35 0 33 8 39 50 36 22
-2 36 -9 38 -19z m116 5 c3 -9 6 -38 6 -65 l0 -50 -47 3 c-46 3 -48 5 -48 32
0 28 8 36 50 52 16 7 12 9 -18 12 -32 3 -36 6 -26 18 16 19 75 18 83 -2z m192
1 c10 -25 9 -100 -1 -105 -6 -3 -12 15 -15 40 -4 37 -9 45 -25 45 -17 0 -20
-8 -23 -48 -4 -63 -26 -58 -30 6 -2 32 -8 47 -17 47 -9 0 -15 -15 -17 -47 -2
-26 -9 -48 -15 -51 -10 -3 -13 14 -13 62 l0 65 76 0 c52 0 77 -4 80 -14z m132
3 c7 -7 12 -30 12 -53 0 -48 -13 -65 -51 -65 -18 0 -28 -6 -32 -20 -3 -11 -10
-20 -16 -20 -7 0 -11 30 -11 85 l0 85 43 0 c24 0 48 -5 55 -12z m180 0 c7 -7
12 -25 12 -40 0 -26 -3 -28 -41 -28 -26 0 -38 -4 -33 -11 4 -6 20 -8 40 -4 35
6 43 -2 22 -23 -33 -33 -98 2 -98 53 0 51 65 86 98 53z m172 2 c0 -6 -11 -15
-25 -20 -22 -8 -25 -16 -25 -56 0 -72 -24 -51 -28 24 l-3 62 41 0 c22 0 40 -5
40 -10z m98 -2 c7 -7 12 -25 12 -40 0 -26 -3 -28 -41 -28 -26 0 -38 -4 -33
-11 4 -6 20 -8 40 -4 35 6 43 -2 22 -23 -17 -17 -58 -15 -80 5 -22 20 -23 70
-1 95 18 20 63 24 81 6z m119 -5 c3 -7 -9 -13 -29 -15 l-33 -3 38 -17 c55 -25
47 -78 -12 -78 -38 0 -59 16 -43 32 9 9 15 9 24 0 16 -16 28 -15 28 1 0 7 -13
18 -30 24 -32 12 -40 39 -18 61 16 16 70 12 75 -5z m136 -9 l14 -26 16 26 c12
18 26 26 45 26 36 0 52 -17 52 -52 0 -25 -3 -28 -35 -28 -19 0 -35 -5 -35 -11
0 -8 12 -10 36 -6 29 5 35 3 32 -11 -2 -12 -15 -18 -40 -20 -31 -3 -40 1 -54
23 l-17 27 -14 -26 c-11 -21 -21 -26 -49 -26 -19 0 -33 -4 -30 -8 2 -4 0 -14
-5 -22 -15 -24 -29 7 -29 65 0 85 6 95 56 95 37 0 45 -4 57 -26z m255 -2 c3
-21 1 -22 -17 -13 -30 17 -49 13 -56 -10 -11 -33 17 -56 50 -41 20 9 25 9 25
-1 0 -42 -69 -51 -94 -12 -20 31 -20 54 0 83 12 18 24 22 52 20 30 -2 38 -7
40 -26z m132 -38 c0 -48 -3 -65 -12 -62 -8 3 -14 28 -16 66 -2 51 0 62 13 62
12 0 15 -13 15 -66z m60 24 l13 -43 15 43 c9 23 22 42 29 42 17 0 16 -4 -7
-70 -27 -79 -44 -78 -73 5 -21 60 -21 65 -4 65 8 0 20 -19 27 -42z m181 15
c14 -39 5 -53 -36 -53 -24 0 -34 -4 -29 -11 4 -6 19 -9 36 -5 24 5 29 3 26
-12 -5 -28 -62 -28 -82 0 -35 49 -14 108 40 108 28 0 36 -5 45 -27z m114 -9
c17 -40 30 -38 38 6 4 17 13 30 21 30 11 0 13 -6 6 -27 -20 -70 -46 -127 -62
-137 -23 -14 -32 -2 -17 22 10 16 9 29 -4 70 -20 59 -21 72 -7 72 5 0 16 -16
25 -36z m125 10 c0 -8 -7 -14 -15 -14 -15 0 -21 21 -9 33 10 9 24 -2 24 -19z
m-7629 6 c39 -22 12 -87 -31 -72 -32 11 -39 42 -14 66 18 19 20 19 45 6z
m7624 -107 c-13 -55 -42 -58 -30 -4 4 18 13 31 22 31 12 0 14 -7 8 -27z
m-6347 -502 c-3 -75 -3 -76 -32 -79 -48 -6 -75 6 -83 36 -15 57 2 89 50 94 25
2 33 8 35 26 3 19 6 21 18 11 11 -9 14 -31 12 -88z m1720 4 l-3 -79 -39 -4
c-46 -4 -66 14 -66 61 0 44 17 67 49 67 23 0 30 6 35 26 13 51 27 8 24 -71z
m340 -1 l-3 -79 -41 -3 c-48 -4 -61 8 -65 59 -4 43 14 69 47 69 17 0 28 8 35
27 17 46 30 11 27 -73z m200 1 l-3 -78 -42 -4 c-34 -3 -44 0 -57 19 -33 46 -7
108 45 108 21 0 29 5 29 18 0 10 3 22 7 25 16 17 24 -15 21 -88z m302 74 c0
-5 -7 -9 -15 -9 -15 0 -20 12 -9 23 8 8 24 -1 24 -14z m250 6 c0 -8 -7 -15
-15 -15 -16 0 -20 12 -8 23 11 12 23 8 23 -8z m1008 -87 c-2 -40 -7 -73 -13
-73 -11 0 -19 139 -10 164 13 34 26 -18 23 -91z m352 81 c0 -5 -7 -9 -15 -9
-15 0 -20 12 -9 23 8 8 24 -1 24 -14z m520 7 c0 -8 -6 -17 -12 -19 -10 -4 -10
-8 1 -15 12 -9 12 -13 -2 -27 -11 -10 -17 -33 -17 -62 0 -67 -24 -50 -31 23
-4 48 -2 64 13 87 21 29 48 36 48 13z m780 -7 c0 -5 -7 -9 -15 -9 -15 0 -20
12 -9 23 8 8 24 -1 24 -14z m830 -75 l0 -84 -44 0 c-52 0 -68 16 -68 65 0 45
17 65 53 65 21 0 29 5 29 18 0 10 3 22 6 25 17 16 24 -11 24 -89z m-4984 61
c4 -8 13 -15 22 -15 13 0 13 -2 -1 -18 -23 -25 -22 -78 1 -91 16 -9 16 -10 -1
-16 -25 -10 -47 12 -47 47 0 16 -5 38 -10 48 -8 14 -7 25 2 40 15 24 27 26 34
5z m1436 -37 c-15 -15 -16 -64 -2 -73 17 -11 11 -35 -9 -35 -19 0 -31 25 -31
71 0 14 -5 30 -12 37 -9 9 -7 16 7 32 l19 21 20 -21 c16 -15 18 -22 8 -32z
m2656 34 c16 -16 17 -22 5 -37 -16 -23 -17 -49 -1 -75 15 -24 3 -38 -20 -24
-28 18 -34 154 -7 154 3 0 13 -8 23 -18z m-6380 -39 c2 -14 -2 -23 -10 -23
-10 0 -9 -3 2 -10 11 -7 12 -15 4 -37 -8 -23 -16 -29 -47 -31 -40 -3 -61 18
-38 41 6 6 11 22 11 35 0 49 72 71 78 25z m380 14 c6 -5 12 -21 12 -38 0 -16
4 -29 10 -29 6 0 5 -10 -2 -25 -8 -18 -18 -25 -32 -23 -22 3 -26 29 -11 76 5
16 3 22 -7 22 -22 0 -38 -21 -38 -51 0 -32 -27 -60 -36 -36 -3 8 -4 21 -3 28
1 8 -1 27 -6 43 -5 18 -4 31 3 35 15 9 94 8 110 -2z m311 -1 c7 -8 11 -36 9
-63 -3 -42 -6 -48 -27 -51 -12 -2 -34 -1 -48 3 -19 4 -24 11 -21 32 3 25 11
33 53 49 16 7 12 9 -18 12 -32 3 -36 6 -26 18 15 18 63 18 78 0z m136 -30 c8
-51 4 -79 -10 -80 -5 -1 -12 19 -15 44 -4 32 -10 46 -22 48 -14 3 -17 -6 -20
-44 -2 -27 -8 -49 -15 -52 -10 -3 -13 14 -13 62 l0 66 44 0 45 0 6 -44z m322
28 c3 -8 1 -20 -5 -26 -7 -7 -8 -17 -2 -28 6 -11 4 -24 -6 -39 -22 -31 -78
-26 -82 7 -2 12 1 22 7 22 6 0 11 13 11 30 0 43 62 71 77 34z m380 3 c4 -6 6
-24 5 -38 -2 -19 3 -29 14 -31 14 -3 14 -6 -3 -27 -13 -16 -26 -22 -37 -18
-14 6 -16 15 -10 52 5 36 3 45 -9 45 -14 0 -33 -35 -39 -74 -2 -11 -9 -21 -17
-24 -11 -4 -13 6 -8 49 3 30 3 48 0 42 -2 -7 -9 -13 -14 -13 -12 0 -12 23 1
36 14 14 109 14 117 1z m312 -1 c7 -8 11 -36 9 -63 l-3 -48 -41 -3 c-27 -2
-45 2 -53 12 -19 23 -4 56 30 63 41 8 49 26 10 22 -17 -2 -31 0 -31 4 0 4 0
12 0 17 0 15 66 12 79 -4z m101 3 c0 -6 -9 -13 -19 -16 -16 -4 -21 -15 -23
-52 -4 -67 -23 -56 -26 17 l-3 62 36 0 c19 0 35 -5 35 -11z m106 -14 c23 -35
12 -55 -31 -55 -23 0 -34 -4 -30 -11 4 -6 19 -7 37 -4 25 6 29 4 26 -12 -4
-22 -62 -31 -84 -12 -17 14 -19 90 -2 107 21 21 66 14 84 -13z m184 10 c14
-16 7 -19 -39 -15 -14 1 -21 -2 -17 -9 4 -6 13 -11 20 -11 7 0 21 -9 30 -19
36 -40 -25 -82 -74 -51 -12 7 -12 12 -3 21 9 9 15 9 27 0 10 -9 16 -9 21 -1 8
13 9 12 -27 28 -27 11 -39 48 -21 65 12 13 71 7 83 -8z m188 3 c7 -7 12 -36
12 -66 l0 -53 -47 3 c-41 3 -48 6 -51 26 -4 28 14 52 39 52 10 0 21 5 25 11 5
8 -3 10 -25 7 -29 -4 -41 8 -24 25 11 11 58 8 71 -5z m131 -2 c14 -17 11 -111
-4 -111 -5 0 -11 22 -13 48 -3 43 -5 48 -25 45 -19 -3 -22 -10 -25 -51 -5 -71
-26 -55 -30 21 l-3 62 44 0 c26 0 49 -6 56 -14z m260 0 c7 -8 11 -36 9 -63
l-3 -48 -42 -3 c-33 -2 -44 1 -52 17 -15 28 -3 51 30 58 16 3 29 10 29 15 0 6
-11 8 -25 6 -27 -6 -41 5 -30 22 9 15 71 12 84 -4z m101 3 c0 -6 -9 -13 -19
-16 -16 -4 -21 -15 -23 -52 -4 -67 -23 -56 -26 17 l-3 62 36 0 c19 0 35 -5 35
-11z m440 -8 c5 -11 10 -29 10 -40 0 -18 -6 -21 -41 -21 -27 0 -38 -4 -33 -11
3 -6 19 -9 34 -5 33 6 44 -2 29 -21 -16 -18 -59 -16 -81 4 -20 18 -24 64 -8
94 7 13 21 19 45 19 24 0 38 -6 45 -19z m57 -11 c11 -41 26 -42 38 -2 5 17 15
32 22 32 14 0 18 -32 6 -44 -5 -4 -13 -24 -18 -44 -13 -47 -35 -47 -56 -2 -26
57 -32 90 -14 90 8 0 18 -14 22 -30z m121 -32 c-2 -35 -7 -63 -13 -63 -5 0
-11 28 -13 63 -2 51 0 62 13 62 13 0 15 -11 13 -62z m116 46 c3 -9 6 -38 6
-65 l0 -49 -39 0 c-35 0 -71 19 -71 37 0 16 36 43 57 43 12 0 23 5 23 11 0 7
-12 10 -30 7 -28 -4 -40 9 -23 25 13 14 71 7 77 -9z m136 -50 c0 -48 -3 -65
-12 -62 -8 3 -14 28 -16 66 -2 51 0 62 13 62 12 0 15 -13 15 -66z m118 54 c16
-16 16 -90 0 -106 -17 -17 -58 -15 -80 5 -21 19 -24 64 -6 93 14 23 67 27 86
8z m136 -4 c3 -9 6 -38 6 -66 0 -65 -24 -61 -28 5 -2 33 -7 47 -18 47 -16 0
-34 -39 -34 -76 0 -14 -4 -22 -10 -19 -5 3 -10 33 -10 66 l0 59 44 0 c31 0 46
-5 50 -16z m244 -5 c2 -12 -4 -15 -28 -11 -38 5 -39 -6 -1 -19 34 -12 42 -26
30 -56 -10 -27 -59 -32 -79 -8 -17 21 -7 29 18 16 27 -14 32 -14 32 4 0 8 -6
15 -12 15 -29 1 -51 28 -44 55 6 23 11 26 44 23 24 -2 38 -8 40 -19z m122 1
c6 -12 10 -40 8 -63 -3 -41 -4 -42 -41 -45 -21 -2 -45 2 -53 9 -24 20 -13 53
23 64 45 15 54 28 16 24 -18 -2 -33 0 -33 4 0 4 0 12 0 17 0 6 16 10 35 10 24
0 37 -6 45 -20z m196 -4 c8 -33 1 -101 -11 -99 -5 2 -11 23 -13 48 -3 36 -7
45 -22 45 -15 0 -19 -9 -22 -47 -4 -61 -21 -62 -28 -3 -4 32 -10 46 -22 48
-14 3 -17 -6 -20 -44 -2 -27 -8 -49 -15 -52 -10 -3 -13 14 -13 62 l0 65 80 0
c75 0 80 -2 86 -23z m125 8 c7 -9 13 -31 13 -49 0 -43 -19 -65 -55 -65 -22 0
-29 -5 -29 -20 0 -11 -7 -20 -15 -20 -12 0 -15 16 -15 85 l0 85 44 0 c28 0 48
-6 57 -16z m185 -9 c23 -35 12 -55 -31 -55 -24 0 -34 -4 -29 -11 3 -6 19 -9
35 -5 31 6 37 -2 17 -22 -18 -18 -53 -14 -73 8 -20 22 -23 74 -4 96 19 23 66
17 85 -11z m179 15 c11 -18 -5 -31 -25 -20 -13 7 -21 7 -25 0 -4 -6 7 -15 24
-21 17 -6 31 -15 31 -20 0 -5 5 -9 10 -9 6 0 10 18 10 40 0 29 4 40 15 40 12
0 15 -13 15 -59 0 -60 -17 -92 -27 -52 l-6 22 -19 -21 c-23 -24 -73 -27 -82
-4 -9 23 -2 28 22 15 19 -10 32 -6 32 11 0 4 -6 8 -13 8 -29 0 -50 26 -43 53
5 23 12 27 41 27 18 0 37 -4 40 -10z m175 -3 c0 -7 -11 -29 -25 -49 -14 -20
-25 -39 -25 -42 0 -4 11 -6 25 -6 14 0 25 -4 25 -10 0 -5 -20 -10 -45 -10 -51
0 -57 12 -26 52 27 34 30 52 7 53 -11 0 -21 6 -23 13 -3 8 9 12 41 12 31 0 46
-4 46 -13z m114 -6 c28 -31 17 -55 -29 -62 -30 -4 -36 -7 -22 -13 9 -5 24 -5
33 -2 23 9 37 -3 23 -20 -15 -18 -66 -18 -85 0 -17 18 -19 87 -2 104 18 18 63
14 82 -7z m196 0 c27 -51 0 -111 -51 -111 -45 0 -70 77 -38 116 18 21 76 18
89 -5z m240 9 c0 -5 -9 -14 -19 -20 -14 -7 -21 -23 -23 -53 -5 -64 -23 -50
-26 21 l-3 62 36 0 c19 0 35 -4 35 -10z m105 -14 c22 -34 10 -56 -32 -56 -21
0 -32 -4 -28 -11 4 -6 19 -7 36 -4 22 5 29 3 29 -9 0 -18 -40 -31 -68 -22 -11
4 -25 20 -32 35 -28 68 56 127 95 67z m142 -8 c15 -28 18 -30 21 -13 7 33 23
45 58 45 28 0 36 -5 45 -27 l10 -28 21 28 c21 29 64 37 86 15 20 -20 13 -27
-25 -25 -35 2 -38 0 -41 -26 -4 -32 21 -46 50 -28 24 15 36 6 22 -17 -6 -9
-25 -18 -43 -20 -26 -3 -34 2 -49 27 -10 18 -23 29 -30 26 -8 -3 -27 -5 -43
-5 -20 0 -28 -4 -23 -11 4 -6 19 -9 36 -5 24 5 29 3 26 -12 -2 -12 -14 -18
-39 -20 -32 -3 -38 1 -51 28 l-15 32 -22 -31 c-16 -23 -30 -31 -52 -31 -23 0
-29 -4 -29 -21 0 -12 -5 -19 -12 -17 -9 3 -14 32 -16 86 l-3 82 50 0 c47 0 52
-2 68 -32z m383 -26 c0 -61 -4 -74 -23 -66 -18 7 -9 124 9 124 10 0 14 -15 14
-58z m57 28 c10 -39 26 -39 37 -1 10 34 36 43 36 13 0 -10 -3 -22 -7 -26 -5
-4 -13 -24 -18 -44 -11 -38 -32 -48 -45 -22 -14 27 -29 65 -35 88 -5 16 -2 22
9 22 9 0 19 -13 23 -30z m181 -3 c17 -35 9 -47 -34 -47 -22 0 -33 -4 -29 -11
4 -6 19 -7 37 -4 25 6 29 4 26 -12 -4 -23 -56 -29 -81 -9 -22 17 -26 78 -6
102 20 25 72 14 87 -19z m202 10 c0 -37 12 -40 26 -7 11 25 18 30 49 30 29 0
37 -5 46 -27 14 -39 5 -53 -36 -53 -24 0 -34 -4 -29 -11 3 -6 19 -9 35 -5 38
7 40 -21 2 -30 -31 -8 -54 4 -68 34 -14 32 -25 27 -25 -12 0 -40 -22 -66 -55
-66 -30 0 -62 29 -44 40 9 6 8 14 -5 31 -20 29 -20 48 0 77 12 17 25 22 60 22
39 0 44 -2 44 -23z m251 -4 c12 -32 8 -98 -6 -98 -5 0 -12 20 -15 45 -4 37 -9
45 -25 45 -16 0 -21 -8 -25 -45 -7 -66 -25 -55 -28 18 l-3 62 46 0 c40 0 47
-3 56 -27z m257 15 c7 -7 12 -25 12 -40 0 -25 -3 -28 -35 -28 -19 0 -35 -5
-35 -11 0 -7 12 -9 35 -5 36 7 44 -1 23 -22 -35 -35 -98 2 -98 57 0 49 65 82
98 49z m102 2 c0 -5 -9 -14 -19 -20 -14 -7 -21 -23 -23 -53 -5 -64 -23 -50
-26 21 l-3 62 36 0 c19 0 35 -4 35 -10z m98 -9 c3 -10 -2 -13 -22 -9 -40 8
-41 -9 -1 -26 54 -23 43 -76 -16 -76 -31 0 -57 24 -39 35 7 4 17 2 23 -4 15
-15 27 -14 27 2 0 6 -13 18 -30 25 -31 14 -42 55 -17 66 22 9 70 1 75 -13z
m-7894 -4 c26 -19 18 -61 -12 -65 -44 -7 -67 32 -36 62 19 19 25 20 48 3z
m386 -76 c0 -28 5 -53 11 -57 8 -5 6 -10 -5 -16 -19 -11 -56 5 -37 16 14 9 15
76 1 76 -5 0 -10 7 -10 15 0 8 9 15 20 15 17 0 20 -7 20 -49z m400 0 c0 -28 5
-53 11 -57 18 -10 -6 -25 -27 -17 -15 7 -19 19 -20 66 -1 49 1 57 17 57 16 0
19 -8 19 -49z m776 24 c4 -17 1 -32 -10 -44 -20 -22 -20 -32 0 -24 12 4 15 1
12 -13 -2 -12 -12 -18 -30 -19 -45 -3 -50 8 -22 47 18 26 24 43 19 55 -8 17
-8 17 -12 1 -5 -21 -33 -24 -33 -5 0 20 10 27 41 27 22 0 30 -6 35 -25z m395
9 c10 -13 10 -20 -4 -44 -20 -33 -21 -41 -6 -38 6 2 13 -2 16 -8 5 -14 -58
-26 -71 -14 -4 5 4 25 19 45 26 34 27 37 12 53 -16 15 -17 15 -17 -1 0 -9 -4
-17 -10 -17 -5 0 -10 9 -10 20 0 15 7 20 29 20 16 0 34 -7 42 -16z m-1466 -34
c11 -17 -6 -70 -21 -70 -12 0 -12 4 -4 20 7 14 7 20 0 20 -5 0 -10 9 -10 20 0
21 24 28 35 10z m1153 -18 c4 -26 -16 -65 -29 -56 -6 4 -6 11 2 20 9 11 9 17
-1 29 -13 16 -4 38 13 32 7 -2 13 -13 15 -25z m2757 -9 c-13 -55 -42 -58 -30
-4 4 18 13 31 22 31 12 0 14 -7 8 -27z"/>
<path d="M872 6732 c-25 -8 -34 -52 -17 -78 20 -31 41 -30 59 3 21 41 -5 88
-42 75z"/>
<path d="M1034 6715 c-14 -21 -15 -31 -6 -51 24 -51 72 -38 72 20 0 57 -38 74
-66 31z"/>
<path d="M1520 6725 c-11 -13 -8 -15 20 -15 21 0 30 4 28 13 -7 18 -33 20 -48
2z"/>
<path d="M1860 6725 c-11 -13 -8 -15 20 -15 28 0 31 2 20 15 -7 8 -16 15 -20
15 -4 0 -13 -7 -20 -15z"/>
<path d="M2437 6733 c-15 -14 -6 -23 24 -23 27 0 30 2 19 15 -13 16 -32 19
-43 8z"/>
<path d="M3148 6729 c-22 -12 -24 -62 -3 -79 38 -32 84 32 50 70 -21 23 -23
23 -47 9z"/>
<path d="M1633 6022 c-23 -14 -25 -57 -5 -82 17 -21 22 -22 36 -11 21 18 22
87 0 95 -19 7 -16 7 -31 -2z"/>
<path d="M2321 6016 c-17 -21 -9 -77 12 -90 15 -9 21 -7 33 8 37 50 -7 128
-45 82z"/>
<path d="M2742 6038 c-19 -19 -14 -48 8 -48 17 0 19 4 14 28 -9 34 -8 34 -22
20z"/>
<path d="M5492 6018 c-17 -17 -15 -73 2 -87 11 -9 20 -10 35 -1 36 18 24 100
-14 100 -6 0 -16 -5 -23 -12z"/>
<path d="M827 6024 c-15 -15 -6 -24 24 -24 20 0 29 4 27 13 -5 14 -40 21 -51
11z"/>
<path d="M1002 6018 c-24 -24 -7 -98 22 -98 7 0 20 8 29 18 40 44 -9 122 -51
80z"/>
<path d="M1807 5953 c-14 -13 -6 -33 12 -33 16 0 31 18 31 36 0 7 -36 5 -43
-3z"/>
<path d="M2147 6023 c-14 -13 -6 -23 17 -23 30 0 42 15 20 24 -20 8 -29 8 -37
-1z"/>
<path d="M3532 6018 c-17 -17 -15 -73 3 -88 36 -30 78 34 50 76 -17 26 -35 30
-53 12z"/>
<path d="M3822 6018 c-17 -17 -15 -73 4 -89 20 -17 45 -2 58 34 16 43 -32 85
-62 55z"/>
<path d="M4837 6024 c-14 -14 -6 -24 19 -24 16 0 24 5 22 13 -5 14 -31 21 -41
11z"/>
<path d="M5299 6006 c-14 -30 -5 -72 16 -80 23 -9 55 16 55 42 0 58 -50 85
-71 38z"/>
<path d="M3175 5396 c-9 -60 -4 -80 23 -84 33 -5 62 25 62 63 0 36 -26 65 -58
65 -17 0 -22 -8 -27 -44z"/>
<path d="M800 5325 c0 -8 6 -15 14 -15 8 0 16 7 20 15 4 10 -1 15 -14 15 -11
0 -20 -7 -20 -15z"/>
<path d="M1184 5376 c-11 -29 1 -61 23 -64 24 -4 38 25 28 58 -7 23 -43 27
-51 6z"/>
<path d="M1410 5380 c0 -5 6 -10 14 -10 8 0 18 5 21 10 3 6 -3 10 -14 10 -12
0 -21 -4 -21 -10z"/>
<path d="M1930 5380 c0 -5 9 -10 20 -10 11 0 20 5 20 10 0 6 -9 10 -20 10 -11
0 -20 -4 -20 -10z"/>
<path d="M2524 5376 c-11 -29 0 -51 26 -51 21 0 25 5 25 30 0 24 -5 31 -23 33
-13 2 -24 -3 -28 -12z"/>
<path d="M2844 5376 c-9 -23 -1 -48 19 -60 14 -9 21 -7 32 7 7 10 12 26 10 35
-2 9 -4 20 -4 25 -2 13 -52 7 -57 -7z"/>
<path d="M3620 5380 c0 -5 9 -10 20 -10 11 0 20 5 20 10 0 6 -9 10 -20 10 -11
0 -20 -4 -20 -10z"/>
<path d="M3860 5380 c0 -5 9 -10 20 -10 11 0 20 5 20 10 0 6 -9 10 -20 10 -11
0 -20 -4 -20 -10z"/>
<path d="M4315 5380 c3 -5 12 -10 20 -10 8 0 17 5 20 10 4 6 -5 10 -20 10 -15
0 -24 -4 -20 -10z"/>
<path d="M5050 5380 c0 -5 9 -10 20 -10 11 0 20 5 20 10 0 6 -9 10 -20 10 -11
0 -20 -4 -20 -10z"/>
<path d="M5207 5333 c-13 -12 -7 -23 13 -23 11 0 20 7 20 15 0 15 -21 21 -33
8z"/>
<path d="M3194 4566 c-7 -30 1 -46 25 -46 20 0 30 23 23 53 -5 26 -41 21 -48
-7z"/>
<path d="M7321 4571 c-12 -22 -6 -47 14 -55 19 -7 37 18 33 46 -4 29 -33 35
-47 9z"/>
<path d="M8447 4584 c-12 -13 -8 -62 6 -67 23 -9 39 9 35 39 -3 27 -26 43 -41
28z"/>
<path d="M9767 4584 c-12 -13 -8 -62 6 -67 23 -9 39 9 35 39 -3 27 -26 43 -41
28z"/>
<path d="M10427 4584 c-13 -13 -7 -62 7 -67 20 -8 38 17 34 45 -3 22 -27 35
-41 22z"/>
<path d="M1367 4584 c-12 -13 -8 -62 6 -67 23 -9 39 9 35 39 -3 27 -26 43 -41
28z"/>
<path d="M1492 4574 c-20 -35 14 -78 38 -49 16 19 9 59 -12 63 -9 2 -21 -4
-26 -14z"/>
<path d="M1830 4580 c0 -5 9 -10 20 -10 11 0 20 5 20 10 0 6 -9 10 -20 10 -11
0 -20 -4 -20 -10z"/>
<path d="M2075 4580 c-3 -5 3 -10 14 -10 12 0 21 5 21 10 0 6 -6 10 -14 10 -8
0 -18 -4 -21 -10z"/>
<path d="M2610 4580 c0 -5 9 -10 21 -10 11 0 17 5 14 10 -3 6 -13 10 -21 10
-8 0 -14 -4 -14 -10z"/>
<path d="M3325 4580 c-4 -6 5 -10 20 -10 15 0 24 4 20 10 -3 6 -12 10 -20 10
-8 0 -17 -4 -20 -10z"/>
<path d="M3942 4558 c3 -36 31 -50 42 -22 10 26 -3 54 -25 54 -17 0 -20 -6
-17 -32z"/>
<path d="M3945 4480 c3 -5 13 -10 21 -10 8 0 14 5 14 10 0 6 -9 10 -21 10 -11
0 -17 -4 -14 -10z"/>
<path d="M4133 4528 c2 -7 10 -13 17 -13 7 0 15 6 18 13 2 7 -5 12 -18 12 -13
0 -20 -5 -17 -12z"/>
<path d="M4567 4583 c-13 -12 -7 -50 9 -64 14 -11 18 -10 30 6 8 11 12 26 9
33 -3 8 -5 18 -5 23 0 10 -33 12 -43 2z"/>
<path d="M4870 4524 c0 -9 5 -14 12 -12 18 6 21 28 4 28 -9 0 -16 -7 -16 -16z"/>
<path d="M5197 4584 c-12 -13 -8 -62 6 -67 23 -9 39 9 35 39 -3 27 -26 43 -41
28z"/>
<path d="M5375 4580 c-3 -5 3 -10 14 -10 12 0 21 5 21 10 0 6 -6 10 -14 10 -8
0 -18 -4 -21 -10z"/>
<path d="M5820 4580 c0 -5 9 -10 21 -10 11 0 17 5 14 10 -3 6 -13 10 -21 10
-8 0 -14 -4 -14 -10z"/>
<path d="M6277 4583 c-12 -12 -7 -50 8 -63 30 -25 61 30 33 58 -13 13 -31 16
-41 5z"/>
<path d="M6550 4580 c0 -5 9 -10 20 -10 11 0 20 5 20 10 0 6 -9 10 -20 10 -11
0 -20 -4 -20 -10z"/>
<path d="M7140 4580 c0 -5 7 -10 15 -10 8 0 15 5 15 10 0 6 -7 10 -15 10 -8 0
-15 -4 -15 -10z"/>
<path d="M7670 4580 c0 -5 7 -10 15 -10 8 0 15 5 15 10 0 6 -7 10 -15 10 -8 0
-15 -4 -15 -10z"/>
<path d="M7875 4580 c-3 -5 3 -10 14 -10 12 0 21 5 21 10 0 6 -6 10 -14 10 -8
0 -18 -4 -21 -10z"/>
<path d="M8250 4580 c0 -5 9 -10 20 -10 11 0 20 5 20 10 0 6 -9 10 -20 10 -11
0 -20 -4 -20 -10z"/>
<path d="M8575 4580 c-3 -5 3 -10 14 -10 12 0 21 5 21 10 0 6 -6 10 -14 10 -8
0 -18 -4 -21 -10z"/>
<path d="M8950 4580 c0 -5 9 -10 21 -10 11 0 17 5 14 10 -3 6 -13 10 -21 10
-8 0 -14 -4 -14 -10z"/>
<path d="M9075 4580 c-3 -5 3 -10 14 -10 12 0 21 5 21 10 0 6 -6 10 -14 10 -8
0 -18 -4 -21 -10z"/>
<path d="M9905 4580 c-3 -5 3 -10 15 -10 12 0 18 5 15 10 -3 6 -10 10 -15 10
-5 0 -12 -4 -15 -10z"/>
<path d="M10034 4576 c-10 -27 1 -51 24 -54 21 -3 23 0 20 30 -3 35 -33 52
-44 24z"/>
<path d="M10165 4580 c-4 -6 5 -10 20 -10 15 0 24 4 20 10 -3 6 -12 10 -20 10
-8 0 -17 -4 -20 -10z"/>
<path d="M10555 4580 c-3 -5 3 -10 14 -10 12 0 21 5 21 10 0 6 -6 10 -14 10
-8 0 -18 -4 -21 -10z"/>
<path d="M10957 4583 c-12 -11 -8 -61 6 -66 24 -8 37 6 37 39 0 26 -4 34 -18
34 -10 0 -22 -3 -25 -7z"/>
<path d="M11087 4584 c-12 -13 -8 -62 6 -67 23 -9 39 9 35 39 -3 27 -26 43
-41 28z"/>
<path d="M11227 4584 c-12 -12 -8 -51 6 -62 20 -17 39 2 35 34 -3 27 -26 43
-41 28z"/>
<path d="M11535 4531 c-7 -12 12 -24 25 -16 11 7 4 25 -10 25 -5 0 -11 -4 -15
-9z"/>
<path d="M11790 4582 c0 -6 -3 -17 -6 -25 -3 -8 2 -22 11 -31 14 -13 20 -14
32 -5 22 19 12 63 -14 67 -13 2 -23 -1 -23 -6z"/>
<path d="M980 4201 c0 -21 5 -31 16 -31 11 0 14 8 12 27 -4 39 -28 42 -28 4z"/>
<path d="M1657 4224 c-8 -8 1 -24 14 -24 5 0 9 7 9 15 0 15 -12 20 -23 9z"/>
<path d="M3115 4209 c-5 -14 -1 -27 10 -38 15 -15 17 -15 30 2 17 23 8 57 -15
57 -10 0 -22 -10 -25 -21z"/>
<path d="M4900 4201 c0 -37 27 -50 36 -16 7 28 -1 45 -22 45 -9 0 -14 -10 -14
-29z"/>
<path d="M5580 4215 c0 -8 5 -15 10 -15 6 0 10 7 10 15 0 8 -4 15 -10 15 -5 0
-10 -7 -10 -15z"/>
<path d="M10641 4230 c-7 -4 -11 -20 -9 -36 2 -21 8 -29 23 -29 15 0 21 8 23
31 3 33 -14 49 -37 34z"/>
<path d="M563 4214 c-7 -18 8 -49 23 -49 5 0 10 15 12 33 2 24 -1 32 -13 32
-8 0 -18 -7 -22 -16z"/>
<path d="M700 4200 c0 -19 5 -30 14 -30 17 0 25 18 18 43 -8 29 -32 20 -32
-13z"/>
<path d="M1115 4179 c-4 -6 -5 -13 -2 -16 7 -7 27 6 27 18 0 12 -17 12 -25 -2z"/>
<path d="M2198 4223 c6 -2 18 -2 25 0 6 3 1 5 -13 5 -14 0 -19 -2 -12 -5z"/>
<path d="M2468 4223 c6 -2 18 -2 25 0 6 3 1 5 -13 5 -14 0 -19 -2 -12 -5z"/>
<path d="M2869 4180 c-11 -7 -10 -10 4 -16 10 -4 23 -2 28 3 14 14 -13 24 -32
13z"/>
<path d="M3548 4223 c6 -2 18 -2 25 0 6 3 1 5 -13 5 -14 0 -19 -2 -12 -5z"/>
<path d="M3815 4179 c-4 -6 -5 -13 -2 -16 7 -7 27 6 27 18 0 12 -17 12 -25 -2z"/>
<path d="M4088 4223 c6 -2 18 -2 25 0 6 3 1 5 -13 5 -14 0 -19 -2 -12 -5z"/>
<path d="M4487 4218 c-8 -23 11 -58 28 -52 23 9 20 64 -4 64 -10 0 -21 -6 -24
-12z"/>
<path d="M4625 4211 c-7 -23 4 -53 19 -48 18 6 20 67 2 67 -8 0 -17 -8 -21
-19z"/>
<path d="M5035 4180 c-3 -5 1 -10 9 -10 9 0 16 5 16 10 0 6 -4 10 -9 10 -6 0
-13 -4 -16 -10z"/>
<path d="M6128 4223 c6 -2 18 -2 25 0 6 3 1 5 -13 5 -14 0 -19 -2 -12 -5z"/>
<path d="M6398 4223 c6 -2 18 -2 25 0 6 3 1 5 -13 5 -14 0 -19 -2 -12 -5z"/>
<path d="M7263 4183 c-18 -7 -16 -23 2 -23 8 0 15 7 15 15 0 8 -1 15 -2 14 -2
0 -9 -3 -15 -6z"/>
<path d="M7458 4223 c6 -2 18 -2 25 0 6 3 1 5 -13 5 -14 0 -19 -2 -12 -5z"/>
<path d="M7776 4224 c-19 -18 -19 -20 -6 -45 14 -25 37 -24 45 1 5 17 -9 60
-20 60 -2 0 -11 -7 -19 -16z"/>
<path d="M8179 4229 c-10 -6 -7 -9 14 -9 29 0 35 5 14 13 -8 3 -20 1 -28 -4z"/>
<path d="M8460 4200 c0 -36 24 -50 47 -27 22 22 8 57 -23 57 -20 0 -24 -5 -24
-30z"/>
<path d="M9250 4170 c0 -5 6 -10 14 -10 8 0 18 5 21 10 3 6 -3 10 -14 10 -12
0 -21 -4 -21 -10z"/>
<path d="M9728 4223 c6 -2 18 -2 25 0 6 3 1 5 -13 5 -14 0 -19 -2 -12 -5z"/>
<path d="M10241 4231 c-9 -6 -7 -10 8 -14 12 -3 21 -1 21 3 0 14 -15 19 -29
11z"/>
<path d="M10768 4223 c6 -2 18 -2 25 0 6 3 1 5 -13 5 -14 0 -19 -2 -12 -5z"/>
<path d="M11145 4180 c-19 -7 -19 -8 -2 -15 10 -4 23 -3 29 3 14 14 -3 21 -27
12z"/>
<path d="M11738 4223 c6 -2 18 -2 25 0 6 3 1 5 -13 5 -14 0 -19 -2 -12 -5z"/>
<path d="M7073 4223 c9 -2 23 -2 30 0 6 3 -1 5 -18 5 -16 0 -22 -2 -12 -5z"/>
<path d="M8051 4230 c-7 -4 -11 -20 -9 -36 2 -21 8 -29 23 -29 15 0 21 8 23
31 3 33 -14 49 -37 34z"/>
<path d="M9061 4230 c-21 -12 -9 -55 17 -58 18 -3 22 1 22 26 0 31 -18 46 -39
32z"/>
<path d="M9060 4130 c0 -5 9 -10 20 -10 11 0 20 5 20 10 0 6 -9 10 -20 10 -11
0 -20 -4 -20 -10z"/>
<path d="M10448 4223 c6 -2 18 -2 25 0 6 3 1 5 -13 5 -14 0 -19 -2 -12 -5z"/>
<path d="M11379 4229 c-10 -6 -7 -9 14 -9 29 0 35 5 14 13 -8 3 -20 1 -28 -4z"/>
<path d="M2954 3866 c-9 -25 0 -51 20 -54 23 -5 34 12 28 44 -5 27 -39 34 -48
10z"/>
<path d="M2422 3848 c2 -26 8 -34 26 -36 21 -3 23 0 20 30 -2 26 -8 34 -26 36
-21 3 -23 0 -20 -30z"/>
<path d="M2767 3874 c-13 -13 -7 -62 7 -67 20 -8 38 17 34 45 -3 22 -27 35
-41 22z"/>
<path d="M640 3870 c0 -5 7 -10 15 -10 8 0 15 5 15 10 0 6 -7 10 -15 10 -8 0
-15 -4 -15 -10z"/>
<path d="M815 3859 c-9 -26 16 -55 40 -45 25 9 16 60 -12 64 -15 2 -23 -3 -28
-19z"/>
<path d="M954 3866 c-10 -26 1 -51 22 -54 24 -3 38 20 29 49 -7 22 -43 25 -51
5z"/>
<path d="M1088 3857 c-6 -32 1 -47 22 -47 21 0 33 25 25 51 -9 27 -42 24 -47
-4z"/>
<path d="M1400 3822 c0 -14 11 -21 26 -15 21 8 17 23 -6 23 -11 0 -20 -4 -20
-8z"/>
<path d="M1654 3866 c-9 -25 0 -51 20 -54 26 -5 40 12 32 42 -7 29 -43 36 -52
12z"/>
<path d="M2170 3820 c0 -5 9 -10 20 -10 11 0 20 5 20 10 0 6 -9 10 -20 10 -11
0 -20 -4 -20 -10z"/>
<path d="M2550 3821 c0 -16 28 -20 40 -5 10 12 8 14 -14 14 -14 0 -26 -4 -26
-9z"/>
<path d="M3100 3870 c0 -5 7 -10 15 -10 8 0 15 5 15 10 0 6 -7 10 -15 10 -8 0
-15 -4 -15 -10z"/>
<path d="M3390 3815 c0 -9 6 -12 15 -9 8 4 15 10 15 15 0 5 -7 9 -15 9 -8 0
-15 -7 -15 -15z"/>
<path d="M3647 3873 c-11 -10 -8 -48 4 -60 20 -20 39 -3 39 33 0 26 -4 34 -18
34 -10 0 -22 -3 -25 -7z"/>
<path d="M3715 3274 c-17 -17 -20 -50 -5 -59 17 -11 50 15 50 39 0 30 -24 40
-45 20z"/>
<path d="M4423 3233 c-18 -6 -16 -23 1 -23 17 0 30 16 19 23 -5 2 -14 2 -20 0z"/>
<path d="M6105 3280 c-3 -5 3 -10 15 -10 12 0 18 5 15 10 -3 6 -10 10 -15 10
-5 0 -12 -4 -15 -10z"/>
<path d="M456 3284 c-8 -20 0 -32 14 -18 5 5 5 15 1 22 -6 11 -10 10 -15 -4z"/>
<path d="M742 3268 c-15 -15 -15 -31 0 -46 17 -17 48 4 48 33 0 27 -27 34 -48
13z"/>
<path d="M1145 3229 c-4 -6 -4 -13 -1 -16 8 -8 36 5 36 17 0 13 -27 13 -35 -1z"/>
<path d="M1832 3274 c-26 -18 -29 -49 -5 -59 26 -9 56 30 43 56 -13 23 -10 23
-38 3z"/>
<path d="M2087 3273 c-10 -10 -8 -51 2 -57 19 -12 41 7 41 35 0 21 -5 29 -18
29 -10 0 -22 -3 -25 -7z"/>
<path d="M2575 3229 c-4 -6 -5 -13 -2 -16 7 -7 27 6 27 18 0 12 -17 12 -25 -2z"/>
<path d="M3086 3230 c-15 -5 -16 -9 -7 -14 7 -5 18 -3 24 3 14 14 6 20 -17 11z"/>
<path d="M3525 3280 c-3 -5 3 -10 15 -10 12 0 18 5 15 10 -3 6 -10 10 -15 10
-5 0 -12 -4 -15 -10z"/>
<path d="M3837 3261 c-2 -10 0 -26 5 -35 13 -24 48 -3 48 29 0 20 -5 25 -24
25 -15 0 -26 -7 -29 -19z"/>
<path d="M4665 3280 c-3 -5 3 -10 15 -10 12 0 18 5 15 10 -3 6 -10 10 -15 10
-5 0 -12 -4 -15 -10z"/>
<path d="M4835 3231 c-7 -12 12 -24 25 -16 11 7 4 25 -10 25 -5 0 -11 -4 -15
-9z"/>
<path d="M5220 3280 c-12 -8 -10 -10 8 -10 13 0 20 4 17 10 -7 12 -6 12 -25 0z"/>
<path d="M5697 3274 c-13 -13 -7 -52 8 -58 18 -7 47 21 43 43 -3 17 -39 27
-51 15z"/>
<path d="M6308 3279 c-19 -10 -25 -54 -9 -63 15 -10 40 4 47 26 8 28 -15 50
-38 37z"/>
<path d="M6435 3274 c-19 -19 -19 -38 -1 -53 17 -14 46 10 46 39 0 24 -26 33
-45 14z"/>
<path d="M6573 3282 c-19 -13 -24 -49 -8 -62 12 -10 18 -10 30 0 30 25 10 82
-22 62z"/>
<path d="M6871 3231 c-8 -5 -9 -11 -3 -15 13 -8 42 3 42 15 0 11 -21 11 -39 0z"/>
<path d="M7135 3274 c-20 -21 -19 -50 2 -58 19 -8 43 17 43 45 0 24 -26 31
-45 13z"/>
<path d="M568 2693 c7 -3 16 -2 19 1 4 3 -2 6 -13 5 -11 0 -14 -3 -6 -6z"/>
<path d="M560 2650 c0 -5 10 -10 23 -10 18 0 19 2 7 10 -19 13 -30 13 -30 0z"/>
<path d="M698 2693 c7 -3 16 -2 19 1 4 3 -2 6 -13 5 -11 0 -14 -3 -6 -6z"/>
<path d="M688 2643 c7 -3 16 -2 19 1 4 3 -2 6 -13 5 -11 0 -14 -3 -6 -6z"/>
<path d="M1208 2693 c7 -3 16 -2 19 1 4 3 -2 6 -13 5 -11 0 -14 -3 -6 -6z"/>
<path d="M1208 2643 c7 -3 16 -2 19 1 4 3 -2 6 -13 5 -11 0 -14 -3 -6 -6z"/>
<path d="M1488 2693 c7 -3 16 -2 19 1 4 3 -2 6 -13 5 -11 0 -14 -3 -6 -6z"/>
<path d="M1478 2643 c7 -3 16 -2 19 1 4 3 -2 6 -13 5 -11 0 -14 -3 -6 -6z"/>
<path d="M7856 2025 c4 -8 10 -15 14 -15 4 0 10 7 14 15 4 10 -1 15 -14 15
-13 0 -18 -5 -14 -15z"/>
<path d="M1337 944 c-13 -13 -7 -55 9 -61 24 -9 51 23 38 45 -12 19 -36 27
-47 16z"/>
<path d="M4224 936 c-10 -26 1 -51 24 -54 19 -3 22 1 22 32 0 30 -4 36 -20 36
-11 0 -23 -6 -26 -14z"/>
<path d="M1090 885 c0 -9 6 -12 15 -9 8 4 15 10 15 15 0 5 -7 9 -15 9 -8 0
-15 -7 -15 -15z"/>
<path d="M1720 890 c0 -5 9 -10 20 -10 11 0 20 5 20 10 0 6 -9 10 -20 10 -11
0 -20 -4 -20 -10z"/>
<path d="M1930 940 c0 -5 9 -10 20 -10 11 0 20 5 20 10 0 6 -9 10 -20 10 -11
0 -20 -4 -20 -10z"/>
<path d="M2330 940 c0 -5 6 -10 14 -10 8 0 18 5 21 10 3 6 -3 10 -14 10 -12 0
-21 -4 -21 -10z"/>
<path d="M2710 940 c0 -5 6 -10 14 -10 8 0 18 5 21 10 3 6 -3 10 -14 10 -12 0
-21 -4 -21 -10z"/>
<path d="M2830 891 c0 -18 18 -21 30 -6 10 13 9 15 -9 15 -11 0 -21 -4 -21 -9z"/>
<path d="M3141 936 c-9 -11 -10 -20 -1 -36 17 -31 44 -21 48 18 3 26 0 32 -16
32 -11 0 -25 -6 -31 -14z"/>
<path d="M3605 890 c3 -5 13 -10 21 -10 8 0 14 5 14 10 0 6 -9 10 -21 10 -11
0 -17 -4 -14 -10z"/>
<path d="M3790 940 c0 -5 7 -10 15 -10 8 0 15 5 15 10 0 6 -7 10 -15 10 -8 0
-15 -4 -15 -10z"/>
<path d="M3970 885 c0 -9 6 -12 15 -9 8 4 15 10 15 15 0 5 -7 9 -15 9 -8 0
-15 -7 -15 -15z"/>
<path d="M4550 940 c0 -5 9 -10 20 -10 11 0 20 5 20 10 0 6 -9 10 -20 10 -11
0 -20 -4 -20 -10z"/>
<path d="M4870 885 c0 -9 6 -12 15 -9 8 4 15 10 15 15 0 5 -7 9 -15 9 -8 0
-15 -7 -15 -15z"/>
<path d="M5050 940 c0 -5 6 -10 14 -10 8 0 18 5 21 10 3 6 -3 10 -14 10 -12 0
-21 -4 -21 -10z"/>
<path d="M5220 896 c0 -2 6 -9 14 -15 10 -9 16 -8 26 4 11 13 8 15 -14 15 -14
0 -26 -2 -26 -4z"/>
<path d="M5620 940 c0 -5 6 -10 14 -10 8 0 18 5 21 10 3 6 -3 10 -14 10 -12 0
-21 -4 -21 -10z"/>
<path d="M5820 940 c0 -5 9 -10 20 -10 11 0 20 5 20 10 0 6 -9 10 -20 10 -11
0 -20 -4 -20 -10z"/>
<path d="M6300 890 c0 -5 6 -10 14 -10 8 0 18 5 21 10 3 6 -3 10 -14 10 -12 0
-21 -4 -21 -10z"/>
<path d="M6622 918 c2 -25 8 -34 26 -36 19 -3 22 1 22 32 0 32 -3 36 -26 36
-23 0 -25 -3 -22 -32z"/>
<path d="M6810 940 c0 -5 7 -10 15 -10 8 0 15 5 15 10 0 6 -7 10 -15 10 -8 0
-15 -4 -15 -10z"/>
<path d="M7080 940 c0 -5 9 -10 20 -10 11 0 20 5 20 10 0 6 -9 10 -20 10 -11
0 -20 -4 -20 -10z"/>
<path d="M7321 932 c-11 -21 3 -52 24 -52 22 0 39 38 24 56 -16 19 -36 18 -48
-4z"/>
<path d="M7455 940 c3 -5 13 -10 21 -10 8 0 14 5 14 10 0 6 -9 10 -21 10 -11
0 -17 -4 -14 -10z"/>
<path d="M7960 940 c0 -5 7 -10 15 -10 8 0 15 5 15 10 0 6 -7 10 -15 10 -8 0
-15 -4 -15 -10z"/>
<path d="M1821 352 c-11 -21 3 -52 24 -52 19 0 34 28 28 51 -7 24 -39 25 -52
1z"/>
<path d="M3552 338 c2 -25 8 -33 23 -33 16 0 20 7 20 30 0 24 -5 31 -23 33
-21 3 -23 0 -20 -30z"/>
<path d="M3890 335 c0 -32 3 -36 23 -33 17 2 22 10 22 33 0 23 -5 31 -22 33
-20 3 -23 -1 -23 -33z"/>
<path d="M4084 356 c-10 -26 1 -51 22 -54 24 -3 38 20 29 49 -7 22 -43 25 -51
5z"/>
<path d="M8125 349 c-9 -26 16 -55 40 -45 25 9 16 60 -12 64 -15 2 -23 -3 -28
-19z"/>
<path d="M880 305 c0 -9 5 -15 11 -13 6 2 11 8 11 13 0 5 -5 11 -11 13 -6 2
-11 -4 -11 -13z"/>
<path d="M1570 310 c0 -5 6 -10 14 -10 8 0 18 5 21 10 3 6 -3 10 -14 10 -12 0
-21 -4 -21 -10z"/>
<path d="M2020 305 c0 -8 7 -15 15 -15 8 0 15 7 15 15 0 8 -7 15 -15 15 -8 0
-15 -7 -15 -15z"/>
<path d="M2715 310 c3 -5 12 -10 20 -10 8 0 17 5 20 10 4 6 -5 10 -20 10 -15
0 -24 -4 -20 -10z"/>
<path d="M2925 360 c3 -5 13 -10 21 -10 8 0 14 5 14 10 0 6 -9 10 -21 10 -11
0 -17 -4 -14 -10z"/>
<path d="M3300 310 c0 -5 6 -10 14 -10 8 0 18 5 21 10 3 6 -3 10 -14 10 -12 0
-21 -4 -21 -10z"/>
<path d="M3685 310 c3 -5 12 -10 20 -10 8 0 17 5 20 10 4 6 -5 10 -20 10 -15
0 -24 -4 -20 -10z"/>
<path d="M4230 360 c0 -5 6 -10 14 -10 8 0 18 5 21 10 3 6 -3 10 -14 10 -12 0
-21 -4 -21 -10z"/>
<path d="M4520 310 c0 -5 6 -10 14 -10 8 0 18 5 21 10 3 6 -3 10 -14 10 -12 0
-21 -4 -21 -10z"/>
<path d="M4774 356 c-10 -26 1 -51 21 -51 15 0 21 8 23 33 3 27 0 32 -18 32
-11 0 -23 -6 -26 -14z"/>
<path d="M5275 310 c3 -5 12 -10 20 -10 8 0 17 5 20 10 4 6 -5 10 -20 10 -15
0 -24 -4 -20 -10z"/>
<path d="M5594 356 c-10 -26 1 -51 22 -54 22 -3 33 18 26 51 -4 21 -40 23 -48
3z"/>
<path d="M5788 358 c9 -9 15 -9 24 0 9 9 7 12 -12 12 -19 0 -21 -3 -12 -12z"/>
<path d="M6255 360 c3 -5 13 -10 21 -10 8 0 14 5 14 10 0 6 -9 10 -21 10 -11
0 -17 -4 -14 -10z"/>
<path d="M6435 349 c-8 -26 16 -54 39 -46 10 4 16 18 16 37 0 25 -4 30 -24 30
-16 0 -27 -7 -31 -21z"/>
<path d="M6790 360 c0 -5 9 -10 20 -10 11 0 20 5 20 10 0 6 -9 10 -20 10 -11
0 -20 -4 -20 -10z"/>
<path d="M6920 355 c-17 -21 -2 -50 26 -50 14 0 19 7 19 30 0 34 -24 45 -45
20z"/>
<path d="M7060 360 c0 -5 4 -10 9 -10 6 0 13 5 16 10 3 6 -1 10 -9 10 -9 0
-16 -4 -16 -10z"/>
<path d="M7558 358 c9 -9 15 -9 24 0 9 9 7 12 -12 12 -19 0 -21 -3 -12 -12z"/>
<path d="M7737 356 c-10 -26 4 -47 27 -44 15 2 21 10 21 28 0 29 -38 41 -48
16z"/>
<path d="M7880 360 c0 -5 7 -10 15 -10 8 0 15 5 15 10 0 6 -7 10 -15 10 -8 0
-15 -4 -15 -10z"/>
<path d="M7750 270 c-12 -8 -11 -10 7 -10 12 0 25 5 28 10 8 13 -15 13 -35 0z"/>
<path d="M8270 360 c0 -5 9 -10 20 -10 11 0 20 5 20 10 0 6 -9 10 -20 10 -11
0 -20 -4 -20 -10z"/>
<path d="M11920 4225 c-15 -18 -5 -65 14 -65 21 0 38 27 31 49 -8 25 -31 33
-45 16z"/>
</g>
</svg>
