<?xml version="1.0" standalone="no"?>
<!DOCTYPE svg PUBLIC "-//W3C//DTD SVG 20010904//EN"
 "http://www.w3.org/TR/2001/REC-SVG-20010904/DTD/svg10.dtd">
<svg version="1.0" xmlns="http://www.w3.org/2000/svg"
 width="1200.000000pt" height="700.000000pt" viewBox="0 0 1200.000000 700.000000"
 preserveAspectRatio="xMidYMid meet">

<g transform="translate(0.000000,700.000000) scale(0.100000,-0.100000)"
fill="#000000" stroke="none">
<path d="M648 6973 c-19 -43 -16 -230 4 -274 22 -50 83 -116 132 -142 35 -19
57 -22 146 -22 94 0 110 3 155 26 60 32 113 95 132 158 18 60 20 162 4 229
l-13 52 -78 0 -78 0 15 -31 c18 -37 28 -132 19 -192 -20 -129 -149 -197 -240
-126 -68 53 -94 186 -59 292 l20 57 -74 0 c-71 0 -74 -1 -85 -27z"/>
<path d="M1330 6770 l0 -230 55 0 55 0 2 189 3 189 126 -186 125 -187 60 0 59
0 3 228 2 227 -55 0 -55 0 0 -116 c0 -77 -3 -113 -10 -109 -10 6 -57 74 -131
187 l-24 37 -107 1 -108 0 0 -230z"/>
<path d="M1952 6773 l3 -228 198 -3 198 -2 -3 47 -3 48 -127 3 -128 3 0 179 0
180 -70 0 -70 0 2 -227z"/>
<path d="M2430 6770 l0 -230 65 0 65 0 0 230 0 230 -65 0 -65 0 0 -230z"/>
<path d="M2700 6769 l0 -230 53 3 52 3 3 189 2 188 87 -128 c47 -71 106 -157
130 -191 l44 -63 60 0 59 0 0 230 0 230 -55 0 -55 0 0 -115 c0 -63 -3 -115 -7
-115 -5 0 -22 22 -39 48 -17 26 -50 77 -75 114 l-44 67 -107 0 -108 1 0 -231z"/>
<path d="M3320 6770 l0 -230 198 2 197 3 0 45 0 45 -127 3 -128 3 0 84 0 84
98 3 97 3 3 34 c2 20 -2 37 -10 42 -7 5 -52 9 -100 9 l-88 0 0 50 0 50 -70 0
-70 0 0 -230z"/>
<path d="M4080 6769 l0 -231 153 4 c159 4 190 12 230 56 25 27 36 74 30 121
-6 46 -49 96 -100 118 -18 7 -33 15 -33 17 0 2 16 13 35 25 37 21 75 74 75
104 0 14 -10 17 -65 17 -59 0 -65 -2 -65 -21 0 -34 -53 -79 -94 -79 l-36 0 0
50 0 50 -65 0 -65 0 0 -231z m237 5 c27 -21 33 -32 33 -64 0 -50 -27 -70 -92
-70 l-48 0 0 80 0 80 37 0 c23 0 48 -9 70 -26z"/>
<path d="M4656 6872 c-27 -70 -62 -161 -79 -202 -16 -41 -31 -88 -34 -103 -5
-28 -5 -28 42 -25 l48 3 26 65 c14 36 30 71 34 78 6 8 41 12 116 12 75 0 112
-4 119 -12 5 -7 17 -35 26 -62 29 -86 29 -86 101 -86 38 0 65 4 65 10 0 6 -16
52 -36 103 -20 50 -52 133 -71 182 -19 50 -41 107 -50 128 l-17 37 -120 0
-121 0 -49 -128z m198 13 l34 -90 -75 -3 c-41 -2 -77 -1 -79 1 -2 2 13 47 34
100 20 52 40 93 44 89 4 -4 23 -47 42 -97z"/>
<path d="M5192 6773 l3 -228 53 -3 52 -3 0 185 c0 103 3 186 8 186 4 0 63 -83
131 -185 l124 -185 58 0 59 0 0 230 0 230 -55 0 -54 0 -3 -117 -3 -118 -79
118 -79 117 -109 0 -108 0 2 -227z"/>
<path d="M5820 6770 l0 -230 60 0 60 0 0 130 c0 76 4 130 10 130 5 0 55 -58
110 -130 l101 -130 79 0 c44 0 80 3 80 7 0 6 -77 109 -105 139 -5 7 -19 24
-30 39 -11 16 -39 53 -62 83 -24 30 -43 59 -43 64 0 5 21 36 46 69 l45 59 -60
0 -61 0 -47 -60 c-52 -67 -63 -65 -63 13 l0 47 -60 0 -60 0 0 -230z"/>
<path d="M6400 6770 l0 -230 64 0 c49 0 65 4 70 16 8 21 8 290 -1 377 l-6 67
-63 0 -64 0 0 -230z"/>
<path d="M6672 6773 l3 -228 53 -3 52 -3 0 192 c0 225 -19 227 149 -23 l112
-168 60 0 59 0 0 230 0 230 -55 0 -54 0 -3 -119 -3 -119 -80 119 -80 119 -108
0 -107 0 2 -227z"/>
<path d="M7278 6973 c-7 -16 -12 -75 -13 -133 0 -86 4 -113 21 -150 25 -55 72
-104 127 -132 53 -27 192 -36 288 -19 l69 13 0 134 0 135 -62 -3 -63 -3 -5
-95 c-5 -94 -5 -95 -32 -98 -83 -10 -175 56 -197 141 -19 79 -14 131 24 220 6
15 0 17 -69 17 -74 0 -77 -1 -88 -27z"/>
<path d="M8140 6993 c0 -30 26 -93 48 -116 15 -16 61 -49 102 -75 101 -62 110
-70 110 -106 0 -37 -7 -49 -39 -66 -27 -14 -110 -7 -171 15 -44 15 -50 9 -50
-48 0 -59 6 -61 152 -62 128 0 134 1 175 27 54 36 77 79 76 145 -1 87 -30 120
-197 222 -30 18 -58 42 -61 52 -5 16 -16 19 -76 19 -38 0 -69 -3 -69 -7z"/>
<path d="M8660 6996 c0 -2 27 -51 60 -109 l60 -104 0 -122 0 -121 65 0 65 0 0
124 0 123 60 99 c33 54 60 102 60 106 0 4 -24 8 -54 8 -54 0 -54 0 -81 -45
-14 -25 -30 -43 -36 -40 -5 4 -18 24 -29 46 l-20 39 -75 0 c-41 0 -75 -2 -75
-4z"/>
<path d="M9160 6975 c0 -61 41 -109 150 -174 86 -52 110 -76 110 -110 0 -59
-68 -83 -166 -58 -32 8 -66 17 -74 19 -12 2 -15 -8 -15 -52 l0 -54 45 -9 c25
-4 86 -6 135 -5 148 6 215 60 215 172 0 92 -33 131 -183 215 -32 18 -65 44
-74 57 -13 21 -23 24 -79 24 -62 0 -64 -1 -64 -25z"/>
<path d="M9800 6770 l0 -230 65 0 65 0 0 230 0 230 -65 0 -65 0 0 -230z"/>
<path d="M10210 6770 l0 -230 198 2 197 3 3 24 c2 12 1 34 -2 47 -6 24 -8 24
-137 24 l-130 0 3 83 3 82 98 3 98 3 -3 42 -3 42 -96 3 -96 3 5 49 5 50 -72 0
-71 0 0 -230z"/>
<path d="M10700 6769 l0 -230 53 3 52 3 3 200 3 200 60 -175 c33 -96 63 -178
68 -183 4 -4 30 -7 57 -5 55 3 45 -14 126 215 23 67 46 119 50 117 5 -3 8 -88
8 -190 l0 -185 58 3 57 3 3 228 2 228 -101 -3 -102 -3 -41 -117 c-22 -64 -44
-119 -47 -122 -3 -3 -13 18 -23 47 -10 28 -29 85 -43 125 l-26 72 -108 0 -109
0 0 -231z"/>
<path d="M3573 4745 c-18 -13 -23 -26 -23 -64 0 -62 21 -83 81 -79 53 4 67 28
15 28 -40 0 -67 29 -58 63 7 29 20 37 60 37 48 0 36 24 -14 28 -24 2 -48 -4
-61 -13z"/>
<path d="M3707 4753 c-4 -3 -7 -39 -7 -80 0 -66 2 -73 19 -73 15 0 21 8 23 33
l4 32 19 -32 c18 -30 43 -42 58 -27 3 4 -4 19 -16 36 -18 24 -19 32 -9 48 17
28 15 48 -7 60 -22 11 -74 14 -84 3z m54 -46 c-13 -13 -26 -3 -16 12 3 6 11 8
17 5 6 -4 6 -10 -1 -17z"/>
<path d="M3847 4753 c-5 -8 -10 -85 -8 -130 1 -21 6 -23 66 -23 54 0 66 3 75
20 13 24 70 29 70 6 0 -19 17 -29 36 -22 11 4 12 10 4 23 -5 10 -19 44 -31 76
-30 83 -51 75 -93 -35 -13 -34 -19 -38 -50 -38 -29 0 -36 4 -36 19 0 13 8 21
23 23 12 2 22 8 22 13 0 6 -10 11 -22 13 -32 5 -29 30 5 34 15 2 27 8 27 13 0
12 -81 19 -88 8z m173 -69 c0 -8 -5 -12 -10 -9 -6 4 -8 11 -5 16 9 14 15 11
15 -7z"/>
<path d="M4094 4749 c-3 -5 2 -11 10 -14 9 -3 23 -7 32 -10 12 -4 15 -17 13
-62 -3 -52 -1 -58 17 -58 16 0 19 8 22 61 3 56 5 62 27 66 23 5 24 3 27 -61
l3 -66 49 0 c31 0 51 5 54 13 2 8 -7 12 -26 12 -21 0 -31 6 -35 20 -4 16 0 20
19 20 15 0 24 6 24 15 0 9 -9 15 -25 15 -18 0 -23 4 -19 15 4 8 17 15 30 15
14 0 24 6 24 15 0 12 -21 14 -120 13 -66 0 -123 -4 -126 -9z"/>
<path d="M8436 4751 c-5 -7 21 -84 44 -131 11 -22 46 -24 53 -3 3 10 15 43 26
73 l20 55 0 -73 c1 -70 2 -73 24 -70 21 3 22 8 22 78 l0 75 -38 1 c-33 1 -40
-3 -48 -25 -25 -69 -25 -69 -48 -18 -19 43 -42 60 -55 38z"/>
<path d="M8650 4680 l0 -80 55 0 c41 0 55 4 55 14 0 9 -12 16 -32 18 -42 4
-54 38 -14 38 32 0 35 27 4 32 -13 2 -22 6 -20 11 1 4 3 7 5 6 1 0 14 4 29 10
25 9 27 8 33 -22 19 -95 26 -108 48 -105 15 2 24 12 28 33 l6 30 13 -32 c21
-56 44 -43 65 35 22 85 22 84 7 89 -7 3 -18 -10 -26 -29 -15 -34 -15 -34 -31
17 -8 27 -33 16 -47 -21 l-12 -35 -12 33 c-11 33 -11 33 -82 36 l-72 3 0 -81z"/>
<path d="M5828 4166 c-16 -5 -28 -13 -28 -17 0 -4 -55 -8 -122 -9 -68 -1 -150
-5 -183 -9 -35 -5 192 -9 548 -10 398 -1 606 2 602 9 -4 6 -49 8 -113 6 -59
-2 -138 0 -177 5 -233 31 -480 43 -527 25z"/>
<path d="M6694 4129 c-3 -5 176 -9 413 -8 230 0 414 2 408 4 -24 8 -816 12
-821 4z"/>
<path d="M4155 3989 c-18 -9 -45 -51 -45 -71 0 -4 6 -8 14 -8 8 0 17 15 20 34
5 26 13 35 39 44 20 6 25 10 12 10 -11 0 -29 -4 -40 -9z"/>
<path d="M5403 3973 c-3 -10 -12 -33 -20 -52 -7 -19 -10 -37 -7 -40 4 -3 9 0
11 7 7 18 54 15 70 -5 12 -16 13 -15 7 12 -17 80 -47 117 -61 78z m33 -52
c-13 -20 -26 -11 -26 16 0 25 1 26 16 11 9 -9 13 -21 10 -27z"/>
<path d="M5502 3933 l3 -58 34 3 c42 5 61 22 61 56 0 30 -33 56 -73 56 -28 0
-28 0 -25 -57z m74 12 c7 -29 -10 -55 -37 -55 -15 0 -19 8 -19 40 0 36 3 40
25 40 18 0 26 -7 31 -25z"/>
<path d="M5630 3936 l0 -56 34 0 c40 0 66 22 66 53 0 35 -14 48 -59 54 l-41 6
0 -57z m78 5 c4 -27 -14 -51 -39 -51 -15 0 -19 7 -19 38 0 21 3 41 6 45 12 12
49 -11 52 -32z"/>
<path d="M5835 3978 c-26 -73 -33 -98 -25 -98 6 0 10 5 10 10 0 15 58 12 63
-2 2 -7 7 -11 9 -8 3 3 -1 29 -10 58 -14 49 -37 69 -47 40z m25 -37 c0 -11 -4
-23 -10 -26 -6 -4 -10 5 -10 19 0 14 5 26 10 26 6 0 10 -9 10 -19z"/>
<path d="M5942 3978 c-22 -22 -15 -76 13 -94 23 -15 27 -15 51 1 30 19 26 33
-4 14 -28 -18 -52 -5 -52 29 0 40 22 57 51 42 17 -10 20 -9 17 2 -6 17 -60 22
-76 6z"/>
<path d="M6066 3968 c-23 -32 -20 -54 10 -77 15 -12 29 -21 33 -21 15 1 44 31
36 37 -4 5 -10 2 -12 -4 -6 -16 -35 -17 -51 -1 -32 32 3 88 42 66 21 -12 36
-1 16 12 -26 16 -58 11 -74 -12z"/>
<path d="M6208 3979 c-28 -16 -24 -75 7 -95 23 -15 27 -15 50 0 19 12 25 25
25 51 0 47 -40 69 -82 44z m57 -23 c20 -30 6 -66 -25 -66 -36 0 -48 60 -16 82
18 12 25 9 41 -16z"/>
<path d="M6320 3950 c0 -27 7 -47 20 -60 24 -24 29 -24 58 -4 17 12 22 25 22
60 0 59 -18 57 -22 -3 -3 -44 -5 -48 -28 -48 -23 0 -25 4 -28 48 -4 57 -22 63
-22 7z"/>
<path d="M6460 3935 c0 -30 5 -55 10 -55 6 0 10 14 10 30 0 17 2 30 5 30 3 0
20 -17 40 -37 l34 -38 1 63 c0 35 -4 62 -10 62 -5 0 -10 -13 -10 -30 0 -16 -4
-30 -10 -30 -5 0 -19 14 -32 30 -12 17 -25 30 -30 30 -4 0 -8 -25 -8 -55z"/>
<path d="M6590 3980 c0 -5 3 -9 8 -9 22 4 28 -4 24 -30 -2 -16 1 -37 7 -48 8
-15 10 -9 11 30 0 44 6 52 33 48 4 0 7 4 7 9 0 6 -20 10 -45 10 -25 0 -45 -4
-45 -10z"/>
<path d="M4234 3965 c11 -11 13 -26 9 -48 -3 -18 -7 -33 -8 -35 -2 -2 -24 -4
-49 -5 -50 -1 -60 -11 -21 -21 39 -10 69 2 88 36 15 26 16 35 5 59 -7 16 -19
29 -26 29 -10 0 -10 -4 2 -15z"/>
<path d="M8071 3964 c0 -11 3 -14 6 -6 3 7 2 16 -1 19 -3 4 -6 -2 -5 -13z"/>
<path d="M8070 3244 l0 -589 107 3 c60 2 122 7 138 12 l30 8 -28 1 c-28 1 -51
31 -29 39 14 4 16 82 2 82 -6 0 -10 26 -10 59 0 33 -4 62 -8 65 -16 10 -35
144 -29 205 4 45 1 65 -9 76 -8 7 -14 25 -14 38 0 14 -7 38 -15 53 -8 16 -15
44 -15 63 0 61 -42 189 -66 202 -23 12 -24 21 -40 194 -3 39 -8 72 -10 74 -2
2 -4 -261 -4 -585z"/>
<path d="M4102 3379 c-28 -62 -35 -89 -24 -89 6 0 12 7 16 15 3 8 17 15 31 15
14 0 28 -7 31 -15 4 -8 12 -15 20 -15 11 0 9 11 -7 53 -32 82 -44 88 -67 36z
m38 -30 c0 -5 -7 -9 -15 -9 -15 0 -20 12 -9 23 8 8 24 -1 24 -14z"/>
<path d="M4711 3377 c-28 -66 -34 -87 -21 -87 6 0 13 7 16 15 4 8 17 15 30 15
14 0 27 -7 30 -15 4 -8 12 -15 20 -15 10 0 8 13 -8 60 -28 76 -43 82 -67 27z
m39 -28 c0 -5 -7 -9 -15 -9 -15 0 -20 12 -9 23 8 8 24 -1 24 -14z"/>
<path d="M4810 3355 c0 -51 3 -65 15 -65 11 0 15 11 15 36 0 28 3 35 17 32 10
-2 18 -10 19 -18 3 -43 5 -50 14 -50 11 0 14 49 4 74 -3 9 -17 16 -30 16 -17
0 -24 6 -24 20 0 11 -7 20 -15 20 -12 0 -15 -14 -15 -65z"/>
<path d="M5038 3403 c7 -3 16 -2 19 1 4 3 -2 6 -13 5 -11 0 -14 -3 -6 -6z"/>
<path d="M4200 3321 c0 -57 13 -81 26 -47 3 8 19 16 35 20 28 5 30 9 27 43 -3
37 -4 38 -45 41 l-43 3 0 -60z m66 24 c7 -18 -14 -47 -27 -39 -5 3 -9 16 -9
30 0 27 27 34 36 9z"/>
<path d="M4310 3335 c0 -53 26 -66 28 -14 0 17 9 37 19 45 16 12 15 13 -14 14
-32 0 -33 -1 -33 -45z"/>
<path d="M4386 3371 c-4 -5 3 -7 14 -4 13 4 20 0 20 -10 0 -8 -9 -17 -20 -20
-12 -3 -20 -14 -20 -26 0 -18 6 -21 39 -21 32 0 38 3 36 18 -14 70 -15 72 -40
72 -13 0 -26 -4 -29 -9z m34 -51 c0 -5 -4 -10 -10 -10 -5 0 -10 5 -10 10 0 6
5 10 10 10 6 0 10 -4 10 -10z"/>
<path d="M4475 3358 c-8 -35 -2 -68 12 -68 7 0 13 11 13 24 0 33 10 57 21 50
5 -3 9 -21 9 -40 0 -24 5 -34 15 -34 9 0 15 6 14 13 -4 33 2 57 16 57 10 0 15
-11 15 -35 0 -19 5 -35 11 -35 6 0 9 17 7 43 l-3 42 -62 3 c-58 2 -63 1 -68
-20z"/>
<path d="M4920 3351 c0 -49 9 -61 46 -61 34 0 34 1 34 45 0 52 -17 61 -22 13
-2 -21 -8 -33 -18 -33 -10 0 -16 12 -18 33 -4 40 -22 43 -22 3z"/>
<path d="M5030 3325 c0 -30 -4 -55 -10 -55 -5 0 -10 -4 -10 -10 0 -15 16 -12
34 6 22 21 22 114 1 114 -12 0 -15 -13 -15 -55z"/>
<path d="M5090 3371 c0 -6 6 -8 14 -5 8 3 17 1 21 -5 3 -6 -5 -15 -19 -21 -16
-6 -26 -17 -26 -30 0 -17 6 -20 46 -20 36 0 44 3 36 13 -6 6 -12 26 -14 42 -2
24 -8 31 -30 33 -16 2 -28 -1 -28 -7z m40 -49 c0 -13 -12 -22 -22 -16 -10 6
-1 24 13 24 5 0 9 -4 9 -8z"/>
<path d="M4431 2664 c-18 -13 -22 -24 -19 -61 3 -53 26 -75 56 -57 25 16 29
95 4 117 -17 15 -20 15 -41 1z m37 -57 c3 -42 1 -47 -17 -47 -26 0 -38 42 -22
77 17 37 36 23 39 -30z"/>
<path d="M4105 2661 c-3 -6 -1 -11 4 -11 6 0 11 -20 11 -45 0 -25 -4 -45 -10
-45 -5 0 -10 -4 -10 -10 0 -5 14 -10 30 -10 17 0 30 5 30 10 0 6 -4 10 -9 10
-6 0 -11 23 -13 52 -3 49 -18 72 -33 49z"/>
<path d="M4202 2658 c-15 -15 -16 -72 -2 -99 24 -44 74 -11 72 48 -2 55 -39
82 -70 51z m47 -12 c7 -8 11 -30 9 -48 -2 -25 -8 -34 -25 -36 -21 -3 -23 1
-23 41 0 57 14 73 39 43z"/>
<path d="M4311 2656 c-18 -21 -10 -97 12 -110 28 -18 52 4 55 53 3 46 -10 71
-38 71 -10 0 -23 -6 -29 -14z m50 -23 c14 -37 4 -73 -21 -73 -12 0 -22 9 -25
23 -7 26 10 77 25 77 6 0 15 -12 21 -27z"/>
<path d="M4521 2642 c-15 -32 -14 -54 5 -80 41 -58 99 22 64 89 -14 26 -56 21
-69 -9z m57 -30 c2 -32 -1 -44 -13 -49 -31 -11 -49 59 -23 85 20 20 33 8 36
-36z"/>
<path d="M8070 1731 c0 -490 4 -892 8 -895 9 -5 22 186 22 311 0 71 8 102 21
81 7 -11 11 -10 19 2 5 8 9 24 7 35 -2 18 5 20 61 23 79 4 72 22 -9 22 -53 0
-78 12 -47 22 7 3 14 32 16 76 2 40 8 72 13 72 5 0 9 14 9 30 0 17 4 30 9 30
5 0 14 33 21 73 6 39 18 93 26 118 7 26 13 73 12 105 0 33 4 120 10 193 6 74
9 139 6 143 -3 4 0 8 5 8 6 0 11 9 11 20 0 11 5 20 10 20 15 0 12 57 -2 64
-10 5 -10 7 0 12 6 3 12 17 12 31 0 13 7 31 15 39 17 18 22 154 5 154 -5 0
-10 9 -10 20 0 11 5 20 10 20 6 0 10 9 10 20 0 11 -6 20 -12 20 -9 0 -8 4 2
10 10 7 -30 10 -122 10 l-138 0 0 -889z m50 -451 c0 -5 -5 -10 -11 -10 -5 0
-7 5 -4 10 3 6 8 10 11 10 2 0 4 -4 4 -10z"/>
<path d="M2140 2042 c-20 -7 -9 -22 15 -22 24 0 25 -2 25 -65 0 -58 2 -65 20
-65 18 0 20 7 20 65 0 63 1 65 25 65 14 0 25 4 25 9 0 9 -110 19 -130 13z"/>
<path d="M9505 2040 c-9 -15 4 -30 26 -30 16 0 19 -7 19 -44 0 -57 8 -76 31
-76 16 0 19 8 19 59 0 55 2 59 25 63 25 5 25 4 25 -58 0 -61 1 -64 24 -64 19
0 25 6 28 28 l4 27 12 -27 c10 -24 17 -28 51 -28 31 0 41 4 46 20 9 28 55 27
62 0 5 -18 12 -21 52 -18 44 3 46 4 49 37 l3 34 25 -37 c24 -35 63 -49 65 -23
5 53 -2 131 -13 138 -19 12 -28 1 -28 -34 l0 -32 -34 40 c-46 54 -62 40 -59
-53 l3 -67 -18 30 c-10 17 -23 49 -30 71 -7 23 -20 45 -29 48 -22 9 -50 -19
-59 -58 -3 -17 -12 -39 -19 -49 -12 -18 -14 -17 -28 4 -14 19 -14 24 -1 45 14
21 14 24 -4 42 -16 16 -35 19 -130 20 -64 1 -114 -2 -117 -8z m215 -40 c0 -5
-4 -10 -10 -10 -5 0 -10 5 -10 10 0 6 5 10 10 10 6 0 10 -4 10 -10z"/>
<path d="M10106 2035 c-9 -9 -16 -19 -16 -21 0 -13 25 -50 42 -62 27 -19 22
-32 -12 -32 -19 0 -30 -5 -30 -14 0 -32 102 -25 108 8 7 33 -8 67 -35 79 l-26
12 24 5 c13 3 24 12 24 20 0 22 -59 25 -79 5z"/>
<path d="M10227 2043 c-4 -3 -7 -39 -7 -80 0 -71 1 -73 25 -73 21 0 25 5 25
30 0 25 4 30 25 30 18 0 25 5 25 20 0 15 -7 20 -25 20 -14 0 -25 5 -25 10 0 6
8 10 19 10 21 0 45 23 34 33 -8 9 -88 9 -96 0z"/>
<path d="M10353 2044 c-9 -4 -13 -30 -13 -80 l0 -74 85 1 85 1 1 32 0 31 16
-32 c11 -22 24 -33 38 -33 34 0 37 11 9 47 -14 18 -20 33 -15 33 17 0 25 49
11 65 -7 8 -27 15 -45 15 -60 0 -65 -6 -65 -74 l0 -62 -35 4 c-26 3 -35 9 -35
23 0 14 7 19 25 19 16 0 25 6 25 15 0 9 -9 15 -25 15 -34 0 -32 18 3 22 44 5
34 33 -13 35 -22 1 -46 0 -52 -3z m177 -44 c0 -5 -4 -10 -10 -10 -5 0 -10 5
-10 10 0 6 5 10 10 10 6 0 10 -4 10 -10z"/>
<path d="M1670 1965 l0 -75 38 0 c75 0 102 24 102 89 0 42 -28 61 -88 61 l-52
0 0 -75z m76 47 c34 -22 21 -92 -16 -92 -17 0 -20 7 -20 50 0 49 9 60 36 42z"/>
<path d="M1830 1965 l0 -75 56 0 c40 0 55 4 52 13 -3 6 -19 13 -36 15 -24 2
-32 8 -32 23 0 14 7 19 25 19 16 0 25 6 25 15 0 9 -10 15 -26 15 -34 0 -26 24
9 28 47 6 29 22 -23 22 l-50 0 0 -75z"/>
<path d="M1950 1964 l0 -75 46 3 c55 4 77 26 57 57 -7 11 -10 34 -6 55 l6 36
-52 0 -51 0 0 -76z m60 36 c0 -5 -4 -10 -10 -10 -5 0 -10 5 -10 10 0 6 5 10
10 10 6 0 10 -4 10 -10z m8 -63 c2 -10 -3 -17 -12 -17 -10 0 -16 9 -16 21 0
24 23 21 28 -4z"/>
<path d="M2072 1968 c3 -67 5 -73 26 -76 21 -3 22 0 22 72 0 75 0 76 -25 76
-26 0 -26 -1 -23 -72z"/>
<path d="M5283 1927 c-10 -11 -43 -104 -43 -116 0 -3 9 5 19 18 14 19 24 22
45 17 14 -3 26 -13 26 -21 0 -8 5 -15 10 -15 13 0 13 1 -11 64 -22 61 -32 72
-46 53z m27 -59 c0 -5 -7 -8 -15 -8 -15 0 -20 21 -8 33 7 7 23 -11 23 -25z"/>
<path d="M5377 1933 c-4 -3 -7 -33 -7 -65 l0 -58 35 0 c42 0 75 29 75 65 0 14
-9 34 -20 45 -19 19 -69 27 -83 13z m73 -33 c15 -27 4 -59 -23 -69 -31 -12
-37 -5 -37 45 0 40 2 44 25 44 14 0 29 -8 35 -20z"/>
<path d="M5510 1876 l0 -66 33 0 c41 0 67 26 67 66 0 42 -12 55 -59 61 l-41 6
0 -67z m80 19 c11 -30 4 -52 -21 -66 -29 -15 -39 -3 -39 47 0 40 2 44 25 44
18 0 28 -7 35 -25z"/>
<path d="M5695 1931 c-3 -7 2 -11 14 -11 19 0 21 -6 21 -55 0 -30 5 -55 10
-55 6 0 10 25 10 55 0 50 2 55 22 55 34 0 13 12 -31 17 -22 3 -42 0 -46 -6z"/>
<path d="M5817 1922 c-38 -42 -10 -112 45 -112 31 0 46 16 54 57 11 58 -61 97
-99 55z m67 -14 c9 -12 16 -29 16 -37 0 -16 -28 -51 -41 -51 -16 0 -39 32 -39
55 0 23 23 55 40 55 5 0 16 -10 24 -22z"/>
<path d="M6023 1922 c-3 -9 -14 -37 -24 -61 -21 -49 -17 -67 7 -33 19 27 50
28 64 2 23 -43 28 -17 8 40 -22 61 -44 82 -55 52z m27 -42 c0 -11 -7 -20 -15
-20 -18 0 -19 12 -3 28 16 16 18 15 18 -8z"/>
<path d="M6130 1920 c-42 -42 -13 -110 46 -110 19 0 34 5 34 11 0 7 -9 9 -22
6 -14 -4 -29 0 -40 10 -38 34 -9 100 38 89 14 -4 24 -2 24 4 0 18 -59 11 -80
-10z"/>
<path d="M6255 1926 c-22 -16 -25 -77 -5 -101 14 -16 80 -21 80 -6 0 6 -12 9
-27 8 -19 -1 -31 5 -42 24 -13 24 -13 29 3 54 14 21 23 25 42 21 14 -4 24 -2
24 4 0 15 -53 12 -75 -4z"/>
<path d="M6378 1929 c-23 -13 -24 -81 -2 -103 36 -37 94 -6 94 51 0 50 -48 78
-92 52z m56 -15 c21 -20 20 -68 0 -85 -35 -29 -69 34 -44 81 13 24 23 25 44 4z"/>
<path d="M6501 1893 c0 -28 2 -58 5 -67 7 -19 55 -21 72 -4 15 15 17 122 2
113 -5 -3 -10 -26 -10 -49 0 -85 -47 -81 -60 5 l-8 54 -1 -52z"/>
<path d="M6622 1873 c1 -49 3 -56 5 -25 2 23 8 42 12 42 5 0 20 -18 35 -40 15
-23 31 -38 37 -34 6 3 8 28 5 57 -7 75 -8 77 -15 27 l-6 -45 -28 43 c-15 23
-32 42 -37 42 -6 0 -9 -29 -8 -67z"/>
<path d="M6744 1929 c-2 -4 6 -9 18 -11 20 -3 23 -9 23 -48 0 -25 5 -46 10
-47 6 -2 10 18 10 44 1 37 5 49 18 51 9 2 17 8 17 13 0 11 -89 9 -96 -2z"/>
<path d="M4000 1458 c1 -13 2 -52 1 -88 l-1 -65 -77 1 c-43 1 -58 0 -33 -2 25
-2 59 -6 75 -9 l30 -5 -4 -171 c-1 -95 0 -205 4 -245 6 -65 10 -77 41 -109 18
-20 39 -33 44 -30 6 4 294 6 640 6 l630 -1 0 319 c0 296 -1 320 -17 324 -17 4
-17 5 0 6 13 1 17 10 17 46 l0 45 -48 0 c-48 0 -48 0 -44 -29 2 -16 -1 -32 -7
-35 -14 -9 -14 -93 0 -98 6 -2 12 -16 12 -31 0 -15 3 -30 8 -33 26 -16 -18
-49 -51 -39 -29 9 -24 26 5 19 26 -6 31 1 15 26 -6 9 -5 17 3 22 7 5 1 8 -15
8 -16 0 -28 4 -28 10 0 17 -41 33 -53 21 -8 -8 -6 -11 5 -11 18 0 34 -18 24
-27 -3 -3 -12 0 -21 7 -12 10 -15 10 -15 -3 0 -9 10 -17 23 -19 30 -4 35 -43
8 -58 -17 -8 -24 -7 -40 9 -19 19 -19 19 -24 0 -3 -12 -14 -19 -30 -19 -27 0
-85 -64 -67 -75 9 -6 116 -8 150 -4 34 5 50 -2 50 -20 0 -14 5 -18 20 -14 23
6 27 23 5 23 -8 0 -15 5 -15 11 0 6 14 9 33 7 29 -3 32 -6 29 -35 -2 -24 2
-33 16 -37 11 -4 23 -17 27 -29 11 -32 5 -109 -9 -132 -7 -11 -13 -24 -14 -29
-1 -13 -24 -26 -50 -26 -13 0 -20 -4 -17 -10 4 -6 8 -23 11 -38 l4 -27 -16 28
c-8 15 -19 25 -25 22 -5 -4 -7 -11 -4 -16 4 -5 1 -9 -4 -9 -6 0 -12 12 -12 28
-1 20 -3 22 -6 7 -2 -12 -13 -26 -24 -33 -19 -12 -19 -11 -9 8 9 17 8 20 -8
20 -10 0 -23 5 -30 12 -9 9 -12 7 -12 -13 0 -13 -4 -19 -8 -13 -7 11 -45 34
-56 34 -3 0 -6 -10 -6 -22 0 -17 -3 -19 -9 -9 -5 7 -14 10 -20 6 -7 -4 -17 -2
-24 3 -16 14 -59 18 -75 8 -7 -4 -26 -3 -41 3 -30 13 -71 3 -105 -27 -11 -9
-16 -12 -13 -6 4 7 -5 17 -23 24 -28 12 -49 45 -35 58 3 3 14 1 25 -5 15 -10
19 -9 24 3 3 9 1 24 -5 35 -25 47 -15 93 28 130 10 9 24 25 32 37 11 16 19 18
36 12 18 -7 29 -2 59 27 20 19 36 41 36 47 0 7 7 21 15 31 23 30 84 135 79
135 -3 0 4 12 16 27 20 26 20 28 4 40 -24 17 -34 16 -34 -3 0 -8 -4 -13 -8
-10 -11 6 -3 64 9 72 19 11 8 24 -22 24 -26 0 -30 -3 -24 -17 22 -53 13 -93
-22 -93 -18 0 -46 66 -38 91 6 18 -1 19 -222 19 -222 0 -229 -1 -242 -21 -9
-16 -10 -23 -1 -29 11 -7 5 -71 -9 -95 -3 -5 -6 -15 -7 -22 -1 -6 -6 -18 -11
-27 -8 -15 -12 -15 -35 3 -28 22 -43 55 -53 114 -6 35 -25 53 -25 22 0 -26
-42 -56 -75 -53 -29 3 -30 4 -28 56 l2 52 -95 0 c-93 0 -95 -1 -94 -22z m731
-49 c23 -23 20 -32 -18 -37 -20 -2 -24 0 -19 13 3 9 6 23 6 31 0 19 6 18 31
-7z m-482 -147 c7 -16 24 -35 37 -41 14 -6 22 -16 19 -21 -3 -6 1 -7 9 -4 9 3
16 10 16 15 0 5 7 9 15 9 11 0 15 -11 15 -36 0 -27 -3 -35 -14 -31 -10 4 -13
1 -9 -9 3 -7 9 -14 14 -14 5 0 9 -12 8 -27 0 -26 -1 -27 -12 -9 -7 11 -28 37
-47 57 -58 63 -80 96 -80 124 0 32 13 26 29 -13z m666 -23 c4 -22 4 -43 1 -46
-3 -4 -6 0 -6 8 0 8 -6 26 -14 41 -13 25 -12 38 5 38 4 0 10 -18 14 -41z
m-132 -6 c-11 -32 -15 -34 -29 -16 -19 26 -17 33 11 33 19 0 23 -4 18 -17z
m-573 -283 c9 -16 8 -18 -5 -14 -8 4 -15 12 -15 20 0 20 7 17 20 -6z m314 -56
c20 -19 20 -33 1 -40 -20 -8 -45 13 -45 37 0 23 23 25 44 3z m-479 -84 c3 -5
-3 -10 -14 -10 -12 0 -21 5 -21 10 0 6 6 10 14 10 8 0 18 -4 21 -10z m1265 -6
c0 -17 -22 -14 -28 4 -2 7 3 12 12 12 9 0 16 -7 16 -16z m0 -34 c0 -5 -2 -10
-4 -10 -3 0 -8 5 -11 10 -3 6 -1 10 4 10 6 0 11 -4 11 -10z"/>
<path d="M4918 1455 c-10 -10 7 -58 21 -63 11 -4 12 2 7 24 -8 32 -19 47 -28
39z"/>
<path d="M4383 1345 c-17 -19 -16 -25 2 -25 8 0 15 6 15 14 0 8 6 17 13 19 8
4 7 6 -3 6 -8 0 -21 -6 -27 -14z"/>
<path d="M5100 1265 c0 -8 4 -15 10 -15 5 0 7 7 4 15 -4 8 -8 15 -10 15 -2 0
-4 -7 -4 -15z"/>
<path d="M5142 1238 c6 -18 28 -21 28 -4 0 9 -7 16 -16 16 -9 0 -14 -5 -12
-12z"/>
<path d="M5070 1224 c0 -8 5 -12 10 -9 6 3 10 10 10 16 0 5 -4 9 -10 9 -5 0
-10 -7 -10 -16z"/>
<path d="M4992 1100 c0 -14 2 -19 5 -12 2 6 2 18 0 25 -3 6 -5 1 -5 -13z"/>
<path d="M8066 805 c-3 -8 -1 -15 4 -15 6 0 10 7 10 15 0 8 -2 15 -4 15 -2 0
-6 -7 -10 -15z"/>
<path d="M8021 750 c-17 -15 -19 -20 -7 -20 8 0 20 9 26 20 13 25 11 25 -19 0z"/>
<path d="M4245 710 c3 -5 12 -7 20 -3 21 7 19 13 -6 13 -11 0 -18 -4 -14 -10z"/>
<path d="M4345 710 c33 -4 116 -8 185 -9 69 -1 132 -5 139 -10 9 -6 22 -6 34
1 13 6 23 6 29 0 6 -6 21 -7 38 -2 21 6 32 4 41 -6 10 -13 15 -12 36 1 21 14
38 15 136 5 110 -11 150 -20 89 -20 -20 0 -32 -5 -32 -14 0 -10 41 -15 188
-22 171 -7 2469 -12 2677 -5 l90 3 -63 10 c-34 5 -60 14 -56 19 3 5 14 9 25 9
37 0 18 19 -23 23 -24 2 -13 3 23 2 43 -1 72 3 84 11 16 12 -274 14 -1841 13
-1022 -1 -1832 -5 -1799 -9z m1058 -17 c-7 -2 -19 -2 -25 0 -7 3 -2 5 12 5 14
0 19 -2 13 -5z"/>
<path d="M6098 566 c-10 -7 -18 -16 -18 -20 0 -8 98 -8 129 1 22 6 22 6 -9 19
-40 17 -80 17 -102 0z"/>
<path d="M6258 573 c-10 -2 -18 -11 -18 -18 0 -11 31 -15 143 -19 236 -9 337
-17 337 -27 0 -5 36 -9 80 -9 47 0 80 4 80 10 0 6 33 10 80 10 47 0 80 -4 80
-10 0 -15 137 -13 143 3 4 9 8 8 16 -3 8 -11 13 -12 19 -4 4 7 70 14 182 18
227 8 334 16 340 26 3 5 32 13 65 18 40 6 -209 9 -735 9 -437 1 -803 -1 -812
-4z"/>
<path d="M6900 490 c0 -5 14 -10 30 -10 17 0 30 5 30 10 0 6 -13 10 -30 10
-16 0 -30 -4 -30 -10z"/>
<path d="M5863 3 c15 -2 37 -2 50 0 12 2 0 4 -28 4 -27 0 -38 -2 -22 -4z"/>
<path d="M5988 3 c6 -2 18 -2 25 0 6 3 1 5 -13 5 -14 0 -19 -2 -12 -5z"/>
<path d="M6078 3 c7 -3 16 -2 19 1 4 3 -2 6 -13 5 -11 0 -14 -3 -6 -6z"/>
<path d="M6138 3 c6 -2 18 -2 25 0 6 3 1 5 -13 5 -14 0 -19 -2 -12 -5z"/>
<path d="M6213 3 c20 -2 54 -2 75 0 20 2 3 4 -38 4 -41 0 -58 -2 -37 -4z"/>
<path d="M6408 3 c12 -2 32 -2 45 0 12 2 2 4 -23 4 -25 0 -35 -2 -22 -4z"/>
<path d="M6503 3 c15 -2 37 -2 50 0 12 2 0 4 -28 4 -27 0 -38 -2 -22 -4z"/>
</g>
</svg>
