<?xml version="1.0" standalone="no"?>
<!DOCTYPE svg PUBLIC "-//W3C//DTD SVG 20010904//EN"
 "http://www.w3.org/TR/2001/REC-SVG-20010904/DTD/svg10.dtd">
<svg version="1.0" xmlns="http://www.w3.org/2000/svg"
 width="1200.000000pt" height="700.000000pt" viewBox="0 0 1200.000000 700.000000"
 preserveAspectRatio="xMidYMid meet">

<g transform="translate(0.000000,700.000000) scale(0.100000,-0.100000)"
fill="#000000" stroke="none">
<path d="M288 5545 c3 -66 6 -75 23 -75 15 0 19 7 19 35 0 46 27 49 32 3 2
-26 8 -34 26 -36 21 -3 22 -1 15 25 -4 15 -7 46 -5 67 2 47 -8 56 -68 56 l-45
0 3 -75z m72 40 c0 -16 -6 -25 -15 -25 -9 0 -15 9 -15 25 0 16 6 25 15 25 9 0
15 -9 15 -25z"/>
<path d="M748 5597 c-15 -15 -16 -70 -2 -114 4 -15 44 -18 44 -3 0 6 -4 10
-10 10 -14 0 -12 64 2 78 8 8 9 12 1 12 -6 0 -13 8 -15 17 -3 15 -4 15 -20 0z"/>
<path d="M452 5564 c-36 -25 -25 -94 16 -94 10 0 12 6 7 18 -12 29 -11 65 3
69 6 3 12 -2 12 -11 0 -9 7 -16 15 -16 22 0 19 27 -4 40 -25 13 -22 13 -49 -6z"/>
<path d="M660 5572 c-38 -11 -51 -59 -24 -86 19 -20 51 -22 37 -3 -13 16 -15
77 -2 77 5 0 9 -7 9 -15 0 -8 9 -15 20 -15 17 0 19 3 11 19 -12 22 -30 30 -51
23z"/>
<path d="M536 5555 c-11 -29 -7 -36 24 -46 17 -6 30 -15 30 -21 0 -5 5 -6 10
-3 20 13 10 45 -17 56 -15 6 -30 15 -34 20 -4 6 -9 4 -13 -6z"/>
<path d="M535 5480 c3 -5 8 -10 11 -10 2 0 4 5 4 10 0 6 -5 10 -11 10 -5 0 -7
-4 -4 -10z"/>
<path d="M343 5063 c-8 -3 -13 -23 -13 -50 0 -53 7 -54 13 -2 2 19 7 40 11 47
8 13 7 13 -11 5z"/>
<path d="M852 5020 c1 -30 3 -44 5 -30 6 35 22 48 33 30 6 -8 8 -20 5 -27 -2
-7 0 -15 5 -18 6 -4 10 7 10 24 0 17 -4 32 -10 33 -5 0 -16 1 -22 2 -7 1 -16
10 -20 21 -3 11 -6 -5 -6 -35z"/>
<path d="M1791 5022 c-1 -52 -1 -53 27 -50 23 3 27 8 27 33 0 23 -5 31 -22 33
-12 2 -24 11 -26 20 -3 9 -5 -7 -6 -36z m44 -18 c0 -10 -8 -20 -17 -22 -18 -3
-26 27 -11 42 12 11 28 0 28 -20z"/>
<path d="M1873 5020 c0 -30 2 -43 4 -27 2 15 2 39 0 55 -2 15 -4 2 -4 -28z"/>
<path d="M2582 5020 c0 -51 0 -53 9 -22 12 39 31 37 41 -4 6 -27 6 -27 5 6 -2
28 -7 36 -24 38 -12 2 -24 11 -26 20 -3 9 -5 -8 -5 -38z"/>
<path d="M3102 5023 c-2 -50 -1 -53 23 -53 15 0 28 7 32 16 7 19 -7 47 -25 50
-7 1 -8 0 -2 -3 16 -8 12 -53 -4 -53 -11 0 -16 14 -19 48 l-3 47 -2 -52z"/>
<path d="M3573 5020 c0 -30 2 -43 4 -27 2 15 2 39 0 55 -2 15 -4 2 -4 -28z"/>
<path d="M3615 5060 c-3 -6 1 -7 9 -4 18 7 21 14 7 14 -6 0 -13 -4 -16 -10z"/>
<path d="M3733 5020 c0 -30 2 -43 4 -27 2 15 2 39 0 55 -2 15 -4 2 -4 -28z"/>
<path d="M4282 5053 c-4 -10 -5 -34 -1 -53 l6 -35 3 33 c1 17 3 37 4 42 0 6 8
15 16 20 13 8 13 10 -2 10 -10 0 -21 -8 -26 -17z"/>
<path d="M6665 5040 c-19 -37 -28 -38 -43 -5 -18 40 -32 29 -31 -22 2 -45 2
-46 8 -13 l6 35 18 -25 18 -25 19 25 18 24 5 -34 c3 -27 4 -23 5 18 1 28 0 52
-3 52 -2 0 -11 -13 -20 -30z"/>
<path d="M6827 5063 c-14 -14 -6 -45 13 -50 11 -3 20 -12 20 -20 0 -10 -7 -14
-20 -10 -11 3 -20 1 -20 -5 0 -5 10 -8 23 -6 30 4 36 44 7 53 -24 8 -21 31 3
29 9 -1 14 2 11 7 -6 11 -28 12 -37 2z"/>
<path d="M6898 5063 c6 -2 12 -22 12 -43 0 -21 5 -42 10 -45 6 -4 10 11 10 39
0 26 5 46 13 49 6 3 -4 5 -23 5 -19 0 -29 -2 -22 -5z"/>
<path d="M293 5015 c0 -27 2 -38 4 -22 2 15 2 37 0 50 -2 12 -4 0 -4 -28z"/>
<path d="M1677 5046 c-11 -27 4 -76 22 -76 13 0 13 2 2 9 -8 5 -12 19 -9 34 6
31 -6 57 -15 33z"/>
<path d="M2538 5048 c-10 -26 4 -78 21 -78 13 0 13 2 2 9 -8 5 -12 19 -9 34 6
29 -6 57 -14 35z"/>
<path d="M3258 5048 c-10 -26 4 -78 21 -78 13 0 13 2 2 9 -8 5 -12 19 -9 34 6
29 -6 57 -14 35z"/>
<path d="M4102 5015 c0 -48 0 -48 9 -17 10 33 24 41 32 20 3 -8 6 -6 6 5 1 10
-6 17 -18 17 -11 0 -22 6 -24 13 -3 6 -5 -10 -5 -38z"/>
<path d="M4478 5047 c-11 -27 -10 -65 3 -72 14 -10 15 -6 9 45 -4 33 -7 40
-12 27z"/>
<path d="M4557 5045 c-7 -28 -2 -68 9 -72 6 -2 8 13 6 34 -5 53 -8 61 -15 38z"/>
<path d="M5752 5019 c2 -24 8 -44 16 -45 7 -1 8 0 2 3 -12 6 -13 36 -1 49 6 5
4 14 -5 22 -13 12 -15 8 -12 -29z"/>
<path d="M6721 5030 c0 -20 4 -41 11 -48 16 -16 48 -15 52 1 12 36 14 77 6 77
-6 0 -10 -16 -10 -35 0 -23 -6 -38 -15 -42 -21 -7 -27 0 -35 44 l-8 38 -1 -35z"/>
<path d="M1447 5043 c-11 -18 6 -73 22 -73 13 0 13 2 2 9 -8 6 -12 19 -9 35 5
25 -6 45 -15 29z"/>
<path d="M3025 5039 c-4 -6 -3 -15 3 -21 6 -6 11 -4 15 6 7 18 -9 31 -18 15z"/>
<path d="M3680 5011 c0 -31 4 -41 16 -41 13 0 14 3 4 15 -6 8 -9 23 -5 34 3
10 1 22 -5 26 -6 4 -10 -9 -10 -34z"/>
<path d="M445 5021 c-8 -26 -20 -27 -35 -3 -10 14 -10 13 -5 -8 4 -14 7 -33 6
-42 0 -10 2 -18 4 -18 8 0 47 82 42 87 -3 2 -8 -5 -12 -16z"/>
<path d="M474 5026 c-3 -8 -4 -23 -2 -33 5 -25 51 -25 56 0 7 36 -42 65 -54
33z m40 -12 c8 -20 -1 -34 -20 -34 -8 0 -14 10 -14 25 0 28 24 34 34 9z"/>
<path d="M685 5023 c-5 -14 -12 -20 -23 -16 -12 5 -14 2 -9 -11 4 -10 7 -20 7
-22 0 -14 19 0 24 19 l7 22 9 -23 c12 -27 30 -20 30 11 0 18 -2 19 -10 7 -7
-12 -11 -10 -19 10 -10 25 -10 25 -16 3z"/>
<path d="M763 5005 c0 -22 2 -30 4 -17 2 12 2 30 0 40 -3 9 -5 -1 -4 -23z"/>
<path d="M793 5024 c-4 -10 1 -20 13 -27 17 -10 17 -11 -1 -18 -19 -7 -18 -8
3 -8 26 -1 30 23 5 38 -16 9 -16 12 -3 21 11 7 11 10 2 10 -7 0 -15 -7 -19
-16z"/>
<path d="M950 5030 c0 -5 7 -10 15 -10 8 0 15 5 15 10 0 6 -7 10 -15 10 -8 0
-15 -4 -15 -10z"/>
<path d="M1009 5024 c-16 -19 -1 -49 26 -49 28 0 42 30 22 49 -20 20 -31 20
-48 0z m39 -22 c2 -14 -2 -22 -12 -22 -19 0 -28 14 -20 35 9 21 28 14 32 -13z"/>
<path d="M1120 5030 c-8 -5 -12 -11 -10 -14 3 -2 14 2 24 10 22 15 10 19 -14
4z"/>
<path d="M1170 5025 c-18 -22 -8 -50 20 -52 24 -3 24 -2 3 6 -15 7 -20 16 -16
30 5 21 23 29 23 11 0 -5 5 -10 11 -10 8 0 8 5 -1 15 -16 19 -24 19 -40 0z"/>
<path d="M1236 5025 c-3 -8 3 -19 14 -25 28 -15 37 -12 14 5 -16 13 -17 16 -4
25 13 8 13 10 -1 10 -9 0 -19 -7 -23 -15z"/>
<path d="M1301 5026 c-16 -19 3 -56 27 -55 16 1 16 2 0 6 -21 5 -25 49 -5 56
7 4 8 6 1 6 -6 1 -17 -5 -23 -13z"/>
<path d="M1370 5030 c0 -5 5 -10 10 -10 6 0 10 5 10 10 0 6 -4 10 -10 10 -5 0
-10 -4 -10 -10z"/>
<path d="M1500 5023 c0 -15 2 -16 10 -3 11 18 26 5 33 -30 3 -17 5 -13 4 10
-2 28 -6 36 -24 38 -17 3 -23 -2 -23 -15z"/>
<path d="M1580 5025 c-18 -22 -8 -50 20 -52 25 -3 25 -3 3 7 -23 9 -22 36 1
52 8 5 8 8 0 8 -6 0 -17 -7 -24 -15z"/>
<path d="M1743 5030 c21 -14 23 -50 1 -50 -8 0 -12 5 -9 10 3 6 1 10 -4 10 -6
0 -11 -7 -11 -15 0 -9 10 -15 26 -15 23 0 25 3 22 32 -2 24 -9 34 -23 36 -18
2 -18 2 -2 -8z"/>
<path d="M1910 5025 c-18 -22 -8 -50 20 -52 25 -3 25 -3 3 7 -23 9 -22 36 1
52 8 5 8 8 0 8 -6 0 -17 -7 -24 -15z"/>
<path d="M2040 5025 c13 -16 7 -45 -9 -45 -5 0 -12 12 -14 28 -2 16 -4 10 -5
-18 0 -25 2 -39 5 -32 2 6 10 12 18 12 24 0 37 27 25 49 -6 12 -16 21 -22 21
-7 0 -6 -5 2 -15z"/>
<path d="M2081 5000 c1 -27 3 -29 6 -10 2 14 11 30 20 37 13 10 13 12 -6 10
-17 -1 -21 -7 -20 -37z"/>
<path d="M2142 5028 c-19 -19 -14 -46 9 -53 11 -4 23 -4 26 -1 4 3 -1 6 -10 6
-11 0 -17 8 -17 25 0 29 26 35 34 8 4 -14 4 -14 3 2 -3 23 -27 31 -45 13z"/>
<path d="M2212 5027 c-8 -10 -5 -16 11 -26 21 -14 21 -14 2 -22 -16 -6 -17 -8
-3 -8 26 -1 32 19 12 34 -17 13 -17 16 -4 25 8 5 10 10 4 10 -6 0 -16 -6 -22
-13z"/>
<path d="M2273 5024 c-4 -10 1 -20 13 -27 17 -10 17 -11 -1 -18 -16 -6 -17 -8
-3 -8 26 -1 32 19 12 34 -17 13 -17 16 -4 25 11 7 11 10 2 10 -7 0 -15 -7 -19
-16z"/>
<path d="M2360 5025 c-19 -23 -8 -50 20 -50 19 0 26 6 28 24 5 35 -26 53 -48
26z m38 -23 c2 -14 -2 -22 -12 -22 -19 0 -29 17 -22 36 8 22 30 12 34 -14z"/>
<path d="M2443 5033 c-7 -2 -13 -19 -12 -36 l1 -32 9 33 c12 39 31 37 41 -4 6
-27 6 -27 5 6 -2 34 -16 45 -44 33z"/>
<path d="M2672 5031 c-21 -13 -11 -56 13 -57 16 -1 17 0 2 3 -13 3 -16 10 -11
26 4 12 12 25 18 29 16 11 -6 10 -22 -1z"/>
<path d="M2771 5031 c-7 -5 -12 -14 -10 -20 3 -7 11 -3 21 9 18 21 13 26 -11
11z"/>
<path d="M2890 5021 c0 -10 8 -22 18 -26 16 -7 15 -8 -3 -15 -16 -7 -17 -9 -3
-9 26 -1 32 19 12 34 -17 13 -17 16 -4 25 13 8 13 10 -2 10 -11 0 -18 -8 -18
-19z"/>
<path d="M2954 5026 c-11 -28 1 -51 26 -53 22 -1 22 -1 3 4 -28 6 -32 49 -5
56 16 4 16 5 -1 6 -10 0 -20 -5 -23 -13z"/>
<path d="M3304 5024 c3 -9 6 -24 6 -35 0 -11 7 -19 18 -19 13 0 14 2 3 9 -8 5
-12 19 -9 35 4 18 1 26 -9 26 -10 0 -13 -6 -9 -16z"/>
<path d="M3362 5031 c-8 -4 -12 -19 -10 -32 2 -18 9 -24 28 -24 19 0 26 6 28
24 3 20 -11 41 -28 41 -3 0 -11 -4 -18 -9z m33 -27 c0 -10 -8 -20 -17 -22 -18
-3 -26 27 -11 42 12 11 28 0 28 -20z"/>
<path d="M3431 5001 c1 -36 1 -36 8 -6 3 17 13 30 21 30 8 0 18 -13 21 -30 6
-29 7 -29 8 -4 1 29 -14 46 -41 46 -14 0 -18 -8 -17 -36z"/>
<path d="M3600 5033 c0 -5 4 -14 9 -21 6 -10 10 -9 14 7 3 14 0 21 -9 21 -8 0
-14 -3 -14 -7z"/>
<path d="M3758 5028 c7 -7 12 -22 12 -35 0 -13 5 -23 10 -23 6 0 10 10 10 23
0 24 -17 47 -34 47 -6 0 -5 -5 2 -12z"/>
<path d="M3813 5005 c0 -22 2 -30 4 -17 2 12 2 30 0 40 -3 9 -5 -1 -4 -23z"/>
<path d="M3843 5024 c-4 -10 1 -20 13 -27 17 -10 17 -11 -1 -18 -19 -7 -18 -8
3 -8 26 -1 29 17 5 35 -16 12 -16 15 -3 24 11 7 11 10 2 10 -7 0 -15 -7 -19
-16z"/>
<path d="M3964 5028 c-4 -6 0 -16 9 -23 22 -16 21 -22 0 -28 -14 -4 -13 -5 4
-6 41 -2 40 25 -2 43 -6 3 -3 9 5 15 9 7 10 11 3 11 -6 0 -15 -5 -19 -12z"/>
<path d="M4052 5008 c2 -17 9 -33 16 -34 7 -1 8 0 2 3 -14 7 -13 36 2 51 9 9
8 12 -6 12 -13 0 -17 -7 -14 -32z"/>
<path d="M4182 5027 c-17 -21 -3 -57 22 -56 17 1 17 2 4 6 -11 3 -18 14 -18
28 0 14 7 25 18 28 14 4 14 5 1 6 -9 0 -21 -5 -27 -12z"/>
<path d="M4414 5029 c-3 -6 -1 -16 6 -22 10 -9 11 -9 5 2 -4 8 -2 17 6 22 9 6
10 9 2 9 -6 0 -15 -5 -19 -11z"/>
<path d="M4668 5018 c5 -22 22 -24 22 -2 0 26 25 9 32 -22 6 -27 6 -27 5 6 -2
32 -5 35 -33 35 -25 1 -30 -3 -26 -17z"/>
<path d="M4770 5036 c0 -2 7 -9 15 -16 13 -11 14 -10 9 4 -5 14 -24 23 -24 12z"/>
<path d="M4922 5031 c-8 -4 -12 -19 -10 -32 2 -18 9 -24 28 -24 19 0 26 6 28
24 3 20 -11 41 -28 41 -3 0 -11 -4 -18 -9z m33 -27 c0 -10 -8 -20 -17 -22 -18
-3 -26 27 -11 42 12 11 28 0 28 -20z"/>
<path d="M5111 5031 c-7 -5 -12 -14 -10 -20 3 -7 11 -3 21 9 18 21 13 26 -11
11z"/>
<path d="M5160 5025 c-18 -22 -8 -50 20 -52 25 -3 25 -3 3 7 -23 9 -22 36 1
52 8 5 8 8 0 8 -6 0 -17 -7 -24 -15z"/>
<path d="M5417 5029 c6 -8 13 -25 16 -39 4 -17 5 -15 4 9 -1 21 -8 36 -17 39
-12 4 -13 2 -3 -9z"/>
<path d="M5497 5029 c6 -8 13 -25 16 -39 4 -17 5 -15 4 9 -1 21 -8 36 -17 39
-12 4 -13 2 -3 -9z"/>
<path d="M5608 5028 c7 -7 12 -23 13 -37 0 -15 3 -20 6 -13 7 19 -6 62 -19 62
-9 0 -9 -3 0 -12z"/>
<path d="M5657 5033 c-9 -16 -6 -83 4 -83 6 0 7 5 4 10 -4 6 -1 17 5 25 9 11
9 15 1 15 -6 0 -11 7 -11 15 0 18 11 19 29 3 11 -11 13 -10 9 2 -5 17 -34 26
-41 13z"/>
<path d="M5801 5003 c1 -35 2 -36 8 -9 9 42 29 44 34 4 l5 -33 -2 35 c-1 28
-5 36 -23 38 -21 3 -23 -1 -22 -35z"/>
<path d="M5917 5033 c-10 -10 -8 -33 3 -33 5 0 7 6 4 14 -3 8 2 16 13 19 14 4
14 5 2 6 -9 0 -19 -2 -22 -6z"/>
<path d="M6033 5028 c11 -8 16 -20 11 -31 -10 -26 -32 -20 -37 11 -2 16 -4 10
-5 -18 0 -25 2 -39 5 -32 2 6 13 12 24 12 37 0 36 57 -2 68 -8 3 -7 -1 4 -10z"/>
<path d="M6098 5029 c17 -18 15 -49 -4 -49 -8 0 -12 5 -9 10 3 6 1 10 -4 10
-6 0 -11 -7 -11 -15 0 -9 10 -15 26 -15 22 0 25 4 22 32 -2 17 -10 33 -18 36
-12 4 -13 2 -2 -9z"/>
<path d="M6147 5033 c-2 -5 -5 -25 -5 -46 -1 -36 0 -38 25 -35 30 3 44 28 16
28 -15 0 -16 -2 -3 -10 12 -8 11 -10 -7 -10 -27 0 -30 15 -5 29 16 10 16 10
-1 11 -11 0 -17 5 -14 13 2 6 11 11 20 11 9 -1 14 2 11 7 -6 11 -31 12 -37 2z"/>
<path d="M6220 5025 c-18 -22 -8 -50 20 -52 24 -3 24 -2 3 6 -15 7 -20 16 -16
30 6 24 23 28 23 5 0 -8 5 -12 10 -9 8 5 7 11 -1 21 -15 18 -23 18 -39 -1z"/>
<path d="M6417 5023 c-19 -22 -6 -53 24 -53 24 0 36 27 22 48 -14 23 -28 25
-46 5z m38 -19 c0 -10 -8 -20 -17 -22 -18 -3 -26 27 -11 42 12 11 28 0 28 -20z"/>
<path d="M6530 5010 c0 -20 -5 -30 -15 -30 -8 0 -15 9 -15 19 0 11 -5 23 -11
26 -7 5 -9 -3 -7 -21 2 -23 9 -30 31 -32 25 -3 27 -1 27 32 0 20 -2 36 -5 36
-3 0 -5 -13 -5 -30z"/>
<path d="M7074 5028 c-4 -6 0 -16 9 -23 22 -16 21 -22 0 -28 -14 -4 -13 -5 4
-6 31 -1 36 13 12 35 -19 17 -19 19 -2 25 16 7 16 8 1 8 -9 1 -20 -4 -24 -11z"/>
<path d="M7140 5025 c-17 -21 -3 -55 23 -54 l22 0 -22 9 c-15 6 -20 15 -16 29
6 24 23 28 23 5 0 -8 5 -12 10 -9 8 5 7 11 -1 21 -15 18 -23 18 -39 -1z"/>
<path d="M7248 5033 c-13 -3 -18 -14 -17 -36 1 -21 3 -25 6 -12 3 11 12 28 21
38 8 9 13 16 11 16 -2 -1 -12 -3 -21 -6z"/>
<path d="M7291 5022 c-14 -26 8 -56 35 -49 17 4 16 5 -3 6 -18 1 -23 7 -23 26
0 29 26 35 34 8 4 -14 4 -14 3 2 -3 26 -33 31 -46 7z"/>
<path d="M7367 5033 c-11 -10 -8 -33 4 -33 5 0 7 5 3 11 -3 6 0 15 7 20 8 5 9
9 3 9 -6 0 -14 -3 -17 -7z"/>
<path d="M7431 5026 c-18 -21 -9 -51 14 -52 17 -1 17 0 2 3 -12 3 -16 10 -13
20 3 8 6 19 6 24 0 15 18 10 23 -6 4 -12 5 -11 3 1 -2 23 -20 28 -35 10z"/>
<path d="M7493 5020 c1 -11 4 -20 8 -20 4 0 9 9 12 20 3 13 0 20 -8 20 -8 0
-13 -9 -12 -20z"/>
<path d="M1615 5021 c-3 -5 -1 -12 5 -16 5 -3 10 1 10 9 0 18 -6 21 -15 7z"/>
<path d="M2861 5014 c0 -11 3 -14 6 -6 3 7 2 16 -1 19 -3 4 -6 -2 -5 -13z"/>
<path d="M3932 5000 c0 -19 2 -27 5 -17 2 9 2 25 0 35 -3 9 -5 1 -5 -18z"/>
<path d="M4350 4998 c0 -36 4 -35 14 5 4 16 2 27 -4 27 -5 0 -10 -14 -10 -32z"/>
<path d="M4602 5000 c0 -19 2 -27 5 -17 2 9 2 25 0 35 -3 9 -5 1 -5 -18z"/>
<path d="M4637 5011 c-2 -10 -1 -25 4 -32 6 -10 9 -4 9 19 0 36 -5 42 -13 13z"/>
<path d="M4744 5015 c-8 -19 13 -45 35 -44 11 0 9 3 -6 9 -15 6 -20 15 -16 29
6 24 -5 29 -13 6z"/>
<path d="M4854 5002 c9 -18 14 -37 11 -42 -3 -6 -4 -10 -1 -10 6 0 36 67 36
79 0 3 -5 -2 -11 -12 -10 -18 -11 -18 -31 0 l-21 18 17 -33z"/>
<path d="M4994 5000 c1 -20 7 -26 29 -28 25 -3 27 -1 26 30 -1 30 -2 31 -8 8
-9 -33 -38 -39 -44 -8 -4 21 -4 21 -3 -2z"/>
<path d="M5201 5014 c0 -11 3 -14 6 -6 3 7 2 16 -1 19 -3 4 -6 -2 -5 -13z"/>
<path d="M5252 5000 c0 -16 4 -30 9 -30 5 0 9 14 9 30 0 17 -4 30 -8 30 -5 0
-9 -13 -10 -30z"/>
<path d="M5460 5000 c0 -16 2 -30 4 -30 2 0 6 14 8 30 3 17 1 30 -4 30 -4 0
-8 -13 -8 -30z"/>
<path d="M5542 5000 c0 -19 2 -27 5 -17 2 9 2 25 0 35 -3 9 -5 1 -5 -18z"/>
<path d="M5582 5000 c0 -19 2 -27 5 -17 2 9 2 25 0 35 -3 9 -5 1 -5 -18z"/>
<path d="M5878 5005 c-3 -14 -1 -28 3 -31 5 -3 9 9 9 25 0 38 -6 40 -12 6z"/>
<path d="M6340 5029 c0 -4 6 -21 13 -39 l14 -32 13 31 c7 18 10 34 6 38 -3 3
-6 -1 -6 -10 0 -22 -9 -22 -26 1 -7 9 -14 14 -14 11z"/>
<path d="M7001 5003 c-1 -30 2 -33 29 -33 27 0 30 3 30 32 0 27 -13 33 -16 7
-1 -5 -2 -13 -3 -19 -3 -22 -30 -8 -34 18 -4 25 -4 25 -6 -5z"/>
<path d="M1335 5010 c3 -5 8 -10 11 -10 2 0 4 5 4 10 0 6 -5 10 -11 10 -5 0
-7 -4 -4 -10z"/>
<path d="M2810 5007 c0 -20 22 -37 45 -36 17 1 16 2 -5 8 -16 5 -24 13 -22 24
2 9 -2 17 -8 17 -5 0 -10 -6 -10 -13z"/>
<path d="M550 4988 c0 -13 8 -18 25 -18 14 0 25 4 25 10 0 5 -7 7 -16 3 -9 -3
-20 0 -25 8 -7 11 -9 11 -9 -3z"/>
<path d="M960 4987 c0 -10 8 -17 18 -17 9 0 13 4 7 8 -5 4 -13 11 -17 16 -5 5
-8 2 -8 -7z"/>
<path d="M1376 4985 c4 -8 11 -15 16 -15 6 0 5 6 -2 15 -7 8 -14 15 -16 15 -2
0 -1 -7 2 -15z"/>
<path d="M3030 4985 c0 -8 4 -15 10 -15 5 0 7 7 4 15 -4 8 -8 15 -10 15 -2 0
-4 -7 -4 -15z"/>
<path d="M3180 4988 c0 -13 8 -18 25 -18 16 0 25 6 25 16 0 14 -3 14 -16 3
-13 -10 -17 -10 -25 2 -7 11 -9 11 -9 -3z"/>
<path d="M4440 4991 c0 -5 -8 -12 -17 -14 -14 -4 -12 -5 5 -6 13 -1 22 5 22
14 0 8 -2 15 -5 15 -3 0 -5 -4 -5 -9z"/>
<path d="M5311 4988 c-1 -13 7 -18 23 -18 27 0 42 15 26 25 -5 3 -10 1 -10 -4
0 -15 -27 -14 -33 2 -3 7 -6 5 -6 -5z"/>
<path d="M5940 4991 c0 -5 -8 -12 -17 -14 -14 -4 -13 -5 4 -6 24 -1 39 14 23
24 -5 3 -10 2 -10 -4z"/>
<path d="M7390 4991 c0 -5 -8 -12 -17 -14 -14 -4 -12 -5 5 -6 13 -1 22 5 22
14 0 8 -2 15 -5 15 -3 0 -5 -4 -5 -9z"/>
<path d="M7500 4980 c0 -6 7 -10 15 -10 8 0 15 2 15 4 0 2 -7 6 -15 10 -8 3
-15 1 -15 -4z"/>
<path d="M1238 4973 c6 -2 18 -2 25 0 6 3 1 5 -13 5 -14 0 -19 -2 -12 -5z"/>
<path d="M5683 4965 c0 -8 4 -15 9 -15 4 0 8 7 8 15 0 8 -4 15 -8 15 -5 0 -9
-7 -9 -15z"/>
<path d="M332 3621 c-7 -19 -7 -31 -1 -31 17 0 9 -30 -8 -31 -13 0 -12 -3 5
-10 13 -5 26 -18 29 -29 3 -13 14 -20 29 -20 l23 0 -25 68 c-32 84 -39 91 -52
53z"/>
<path d="M480 3625 c0 -17 -5 -25 -18 -25 -24 0 -42 -19 -42 -46 0 -45 10 -54
59 -54 l46 0 -3 75 c-3 66 -6 75 -23 75 -14 0 -19 -7 -19 -25z m0 -75 c0 -22
-4 -40 -10 -40 -5 0 -10 18 -10 40 0 22 5 40 10 40 6 0 10 -18 10 -40z"/>
<path d="M600 3625 c0 -17 -5 -25 -18 -25 -24 0 -42 -19 -42 -46 0 -45 10 -54
59 -54 l46 0 -3 75 c-3 66 -6 75 -23 75 -14 0 -19 -7 -19 -25z m0 -75 c0 -22
-4 -40 -10 -40 -5 0 -10 18 -10 40 0 22 5 40 10 40 6 0 10 -18 10 -40z"/>
<path d="M855 3575 c0 -75 0 -75 27 -75 21 0 25 4 21 20 -3 11 -2 27 1 36 5
13 9 14 21 4 12 -10 15 -9 15 4 0 10 -8 16 -21 16 -16 0 -20 5 -17 28 3 25 7
27 40 19 3 -1 8 3 10 8 1 6 -19 11 -47 13 l-50 3 0 -76z"/>
<path d="M1680 3625 c-7 -20 -8 -31 0 -39 15 -15 12 -26 -7 -26 -13 0 -11 -4
7 -13 14 -7 24 -21 24 -30 -1 -12 6 -17 27 -17 l29 0 -16 38 c-9 20 -21 51
-26 67 -16 46 -26 51 -38 20z"/>
<path d="M1914 3625 c4 -14 3 -25 -1 -25 -5 0 -8 -22 -8 -50 0 -46 2 -50 23
-50 18 0 22 4 17 19 -3 10 -6 44 -6 75 -1 43 -5 56 -16 56 -11 0 -14 -7 -9
-25z"/>
<path d="M2268 3575 c-3 -72 -2 -75 20 -75 21 0 22 4 22 75 0 67 -2 75 -19 75
-17 0 -20 -9 -23 -75z"/>
<path d="M1188 3618 c-3 -7 -2 -35 1 -63 5 -44 9 -50 31 -53 20 -3 23 -1 13 9
-7 7 -13 28 -13 46 0 29 3 33 25 33 23 0 25 -4 25 -45 l0 -45 83 0 83 0 -4 35
c-4 32 -2 35 19 33 16 -2 24 2 24 12 0 11 -13 16 -45 18 l-45 3 4 -47 c2 -36
0 -45 -10 -42 -9 3 -14 20 -13 47 1 35 -2 41 -20 41 -18 0 -21 -6 -21 -37 0
-21 -4 -38 -10 -38 -5 0 -10 17 -10 38 0 36 -1 37 -38 37 -24 0 -40 5 -43 15
-7 18 -30 20 -36 3z"/>
<path d="M713 3593 c-7 -2 -13 -12 -13 -20 0 -11 7 -14 25 -9 14 4 25 2 25 -3
0 -5 -10 -11 -22 -13 -15 -2 -24 -11 -26 -25 -3 -21 0 -23 47 -23 l51 0 -7 33
c-12 62 -34 79 -80 60z"/>
<path d="M976 3584 c-19 -18 -21 -55 -4 -72 7 -7 26 -11 42 -11 24 1 26 3 9 6
-19 4 -23 11 -23 44 0 21 5 39 10 39 6 0 10 -9 10 -20 0 -20 24 -28 35 -11 8
13 -23 41 -45 41 -10 0 -26 -7 -34 -16z"/>
<path d="M1081 3591 c-19 -12 -3 -33 20 -26 10 4 19 2 19 -4 0 -5 -10 -11 -22
-13 -15 -2 -24 -11 -26 -25 -3 -21 1 -23 45 -23 l49 0 -4 38 c-2 20 -9 43 -14
50 -12 14 -42 17 -33 2 3 -5 2 -10 -4 -10 -5 0 -11 4 -13 10 -2 5 -9 6 -17 1z"/>
<path d="M1496 3584 c-19 -18 -21 -55 -4 -72 7 -7 26 -12 43 -11 27 0 28 1 9
9 -17 7 -22 17 -22 44 0 20 4 36 9 36 5 0 9 -9 9 -20 0 -22 24 -27 36 -8 8 13
-22 38 -47 38 -10 0 -25 -7 -33 -16z"/>
<path d="M1775 3550 l0 -50 55 0 56 0 -4 38 c-6 50 -14 57 -64 59 l-43 2 0
-49z m65 -5 c0 -19 -4 -35 -10 -35 -5 0 -10 16 -10 35 0 19 5 35 10 35 6 0 10
-16 10 -35z"/>
<path d="M1965 3550 l0 -50 85 0 85 0 -3 45 c-2 25 -7 45 -11 46 -3 0 -40 3
-81 5 l-75 4 0 -50z m65 -5 c0 -19 -4 -35 -10 -35 -5 0 -10 16 -10 35 0 19 5
35 10 35 6 0 10 -16 10 -35z m60 0 c0 -19 -4 -35 -10 -35 -5 0 -10 16 -10 35
0 19 5 35 10 35 6 0 10 -16 10 -35z"/>
<path d="M2164 3587 c-8 -21 2 -35 16 -21 5 5 6 15 0 24 -8 12 -10 12 -16 -3z"/>
<path d="M2197 3576 c4 -20 0 -25 -18 -28 -16 -2 -25 -11 -27 -25 -3 -21 1
-23 45 -23 l49 0 -4 38 c-5 40 -17 62 -37 62 -8 0 -10 -9 -8 -24z"/>
<path d="M298 3185 c-10 -25 -13 -45 -7 -45 5 0 12 14 16 30 6 33 23 41 23 11
0 -10 7 -24 15 -31 11 -9 15 -9 15 -1 0 19 -28 81 -37 81 -5 0 -16 -20 -25
-45z"/>
<path d="M683 3185 c0 -27 2 -38 4 -22 2 15 2 37 0 50 -2 12 -4 0 -4 -28z"/>
<path d="M710 3187 c0 -26 3 -47 8 -47 9 0 8 77 -1 87 -4 3 -7 -15 -7 -40z"/>
<path d="M761 3230 c-2 -3 -3 -25 -4 -50 -1 -38 2 -45 19 -48 33 -5 68 30 61
60 -4 14 -13 28 -21 31 -11 5 -12 0 -3 -23 8 -22 8 -32 -2 -44 -25 -29 -40
-18 -44 32 -2 26 -5 45 -6 42z"/>
<path d="M381 3161 c1 -35 2 -35 8 -7 8 38 31 47 31 12 0 -14 5 -26 11 -26 6
0 9 12 7 28 -2 22 -8 27 -30 28 -26 1 -28 -2 -27 -35z"/>
<path d="M463 3165 c0 -22 2 -30 4 -17 2 12 2 30 0 40 -3 9 -5 -1 -4 -23z"/>
<path d="M490 3170 c0 -16 4 -30 10 -30 5 0 7 6 5 13 -3 6 0 19 5 27 9 13 11
13 21 0 8 -11 12 -12 16 -2 8 21 23 13 23 -13 0 -14 5 -25 11 -25 6 0 9 12 7
28 -3 25 -7 27 -50 30 -47 2 -48 2 -48 -28z"/>
<path d="M623 3193 c11 -3 17 -15 18 -36 0 -26 2 -28 8 -12 12 30 2 55 -23 54
-17 -1 -17 -2 -3 -6z"/>
<path d="M607 3157 c-3 -9 -2 -19 4 -23 15 -9 18 -2 9 20 -6 17 -7 18 -13 3z"/>
<path d="M301 2836 c-24 -55 -26 -65 -9 -48 16 16 55 15 61 0 2 -7 6 -11 9 -8
3 3 -5 27 -18 55 l-23 49 -20 -48z m27 -25 c-15 -5 -21 7 -13 26 7 17 8 17 15
-2 4 -11 3 -22 -2 -24z"/>
<path d="M393 2843 c-8 -3 -13 -22 -13 -46 0 -41 1 -41 13 -17 7 14 9 27 5 28
-17 8 -7 24 12 19 11 -3 20 -2 20 3 0 11 -22 18 -37 13z"/>
<path d="M460 2835 c-17 -20 -8 -50 15 -51 15 -1 16 0 3 3 -21 5 -24 43 -4 43
8 0 16 -5 18 -12 3 -7 7 -8 11 -2 3 5 -3 15 -13 22 -14 9 -21 8 -30 -3z"/>
<path d="M416 2775 c4 -8 10 -12 15 -9 11 6 2 24 -11 24 -5 0 -7 -7 -4 -15z"/>
<path d="M297 2523 c-14 -14 -6 -41 14 -46 24 -7 20 -33 -5 -31 -9 1 -16 -2
-16 -7 0 -15 22 -10 43 8 18 17 19 17 28 0 6 -9 18 -17 27 -17 15 0 15 2 2 10
-19 12 -22 50 -3 50 8 0 11 -4 8 -10 -3 -5 -1 -10 4 -10 17 0 13 20 -5 27 -8
3 -23 -1 -31 -10 -21 -21 -67 -2 -60 25 5 19 4 22 -6 11z"/>
<path d="M465 2490 c-3 -5 -11 -7 -18 -4 -7 2 -12 -5 -12 -20 0 -15 4 -21 9
-16 6 6 15 3 23 -8 13 -15 13 -14 3 6 -9 18 -8 27 1 38 6 8 9 14 6 14 -3 0 -8
-4 -12 -10z"/>
<path d="M1163 2135 c0 -38 2 -53 4 -32 2 20 2 52 0 70 -2 17 -4 1 -4 -38z"/>
<path d="M623 2130 c0 -30 2 -43 4 -27 2 15 2 39 0 55 -2 15 -4 2 -4 -28z"/>
<path d="M733 2173 c-14 -5 -18 -43 -5 -43 5 0 17 -6 28 -14 18 -14 18 -15 -6
-25 l-25 -11 25 3 c31 3 39 33 11 42 -12 4 -21 15 -21 27 0 14 5 18 16 14 8
-3 12 -2 9 4 -7 11 -13 11 -32 3z"/>
<path d="M290 2125 c0 -27 3 -46 6 -42 3 3 6 22 6 42 0 20 -3 39 -6 42 -3 4
-6 -15 -6 -42z"/>
<path d="M359 2165 c-1 -3 -2 -8 -3 -12 -1 -5 -4 -12 -7 -18 -3 -5 0 -21 7
-35 13 -24 14 -23 14 23 0 26 -2 47 -5 47 -3 0 -6 -2 -6 -5z"/>
<path d="M543 2120 c0 -25 2 -35 4 -22 2 12 2 32 0 45 -2 12 -4 2 -4 -23z"/>
<path d="M570 2121 c0 -31 4 -41 16 -41 13 0 14 3 4 15 -6 8 -9 23 -5 34 3 10
1 22 -5 26 -6 4 -10 -9 -10 -34z"/>
<path d="M795 2150 c-4 -6 -3 -16 3 -22 6 -6 12 -6 17 2 4 6 3 16 -3 22 -6 6
-12 6 -17 -2z"/>
<path d="M922 2124 c2 -23 9 -39 18 -41 12 -4 13 -3 1 5 -9 6 -11 19 -7 35 3
15 1 29 -5 32 -7 5 -9 -6 -7 -31z"/>
<path d="M480 2141 c0 -6 4 -11 9 -11 6 0 9 -9 8 -20 -1 -11 -7 -20 -15 -20
-7 0 -10 5 -7 10 3 6 1 10 -4 10 -6 0 -11 -7 -11 -15 0 -9 9 -15 25 -15 20 0
25 5 25 24 0 13 -7 29 -15 36 -10 9 -15 9 -15 1z"/>
<path d="M640 2140 c0 -5 5 -10 10 -10 6 0 10 -11 10 -25 0 -14 5 -25 10 -25
14 0 13 43 -2 58 -15 15 -28 16 -28 2z"/>
<path d="M865 2140 c-3 -5 -1 -10 4 -10 6 0 11 -11 11 -25 0 -14 5 -25 10 -25
6 0 10 11 10 24 0 27 -24 53 -35 36z"/>
<path d="M392 2113 c2 -22 9 -28 28 -30 22 -1 22 -1 2 4 -17 3 -21 10 -18 29
3 13 0 24 -5 24 -6 0 -9 -12 -7 -27z"/>
<path d="M423 2125 c0 -8 4 -15 9 -15 4 0 8 4 8 9 0 6 -4 12 -8 15 -5 3 -9 -1
-9 -9z"/>
<path d="M1010 2115 c0 -32 -27 -34 -33 -2 -4 19 -4 18 -6 -5 -1 -24 3 -28 24
-28 21 0 25 5 25 30 0 17 -2 30 -5 30 -3 0 -5 -11 -5 -25z"/>
<path d="M1046 2133 c-11 -12 -6 -21 17 -28 l22 -7 -25 -8 c-23 -7 -24 -8 -3
-9 12 -1 24 2 26 7 7 10 -29 53 -37 45z"/>
<path d="M800 2097 c0 -10 8 -17 18 -17 9 0 13 4 7 8 -5 4 -13 11 -17 16 -5 5
-8 2 -8 -7z"/>
<path d="M845 2101 c-6 -11 13 -26 22 -17 4 3 1 6 -6 6 -7 0 -9 5 -6 10 3 6 4
10 1 10 -3 0 -7 -4 -11 -9z"/>
<path d="M702 1773 c-2 -52 -1 -53 26 -52 23 0 24 1 7 8 -14 6 -22 21 -26 52
l-6 44 -1 -52z"/>
<path d="M291 1788 c-9 -23 0 -51 20 -63 18 -12 57 4 64 25 7 24 -2 60 -16 60
-6 0 -6 -8 1 -20 14 -26 -3 -60 -30 -60 -21 0 -37 38 -26 65 3 8 3 15 0 15 -2
0 -8 -10 -13 -22z"/>
<path d="M977 1794 c-9 -10 9 -68 23 -72 12 -4 13 -2 3 9 -16 17 -17 46 -1 51
8 3 6 6 -4 10 -9 4 -18 5 -21 2z"/>
<path d="M400 1780 c-8 -5 -11 -12 -8 -15 4 -4 17 0 30 9 24 17 5 23 -22 6z"/>
<path d="M489 1788 c-1 -2 -2 -22 -3 -46 -2 -40 -1 -43 23 -40 24 3 43 28 21
28 -6 0 -8 -4 -5 -10 3 -5 -3 -10 -14 -10 -14 0 -19 5 -15 15 4 8 11 15 17 15
6 0 3 6 -8 13 -14 11 -15 16 -5 22 9 5 15 4 18 -3 4 -13 22 -6 22 9 0 7 -48
14 -51 7z"/>
<path d="M597 1783 c-3 -5 -1 -17 4 -28 7 -19 8 -18 8 3 1 30 23 24 32 -9 4
-14 7 -17 8 -7 2 28 -10 48 -29 48 -11 0 -21 -3 -23 -7z"/>
<path d="M765 1769 c-14 -43 45 -66 61 -24 8 19 -13 45 -37 45 -10 0 -21 -10
-24 -21z m42 -5 c8 -21 -13 -42 -28 -27 -13 13 -5 43 11 43 6 0 13 -7 17 -16z"/>
<path d="M844 1776 c-9 -23 0 -51 16 -52 9 0 10 1 3 3 -20 7 -16 51 5 56 16 4
16 5 -1 6 -10 0 -20 -5 -23 -13z"/>
<path d="M923 1783 c10 -3 17 -14 17 -29 0 -25 -15 -33 -23 -11 -3 7 -6 5 -6
-5 -1 -12 6 -18 19 -18 16 0 20 7 20 35 0 30 -3 35 -22 34 -17 -1 -19 -2 -5
-6z"/>
<path d="M1080 1783 c20 -8 29 -23 23 -40 -8 -20 -22 -16 -33 10 -10 22 -10
22 -7 -3 2 -26 23 -36 46 -21 22 14 6 61 -22 60 -15 0 -17 -2 -7 -6z"/>
<path d="M1143 1755 c0 -22 2 -30 4 -17 2 12 2 30 0 40 -3 9 -5 -1 -4 -23z"/>
<path d="M1167 1782 c6 -4 13 -21 16 -37 4 -27 4 -27 6 8 1 29 -3 37 -16 37
-12 0 -14 -3 -6 -8z"/>
<path d="M455 1761 c-3 -5 -1 -12 5 -16 5 -3 10 1 10 9 0 18 -6 21 -15 7z"/>
<path d="M303 1463 c-20 -7 -15 -41 7 -53 26 -14 25 -27 -2 -33 -20 -5 -20 -5
2 -4 32 2 41 36 11 44 -23 6 -27 23 -9 41 13 13 11 14 -9 5z"/>
<path d="M362 1390 c0 -25 2 -39 5 -32 2 6 13 12 23 12 10 0 20 7 24 15 8 22
-4 45 -23 44 -10 0 -11 -2 -3 -6 17 -7 15 -43 -2 -43 -8 0 -17 12 -19 28 -2
16 -4 10 -5 -18z"/>
<path d="M435 1420 c-12 -19 5 -50 28 -49 17 1 18 2 5 6 -25 6 -22 23 3 23 27
0 20 24 -8 28 -12 2 -24 -2 -28 -8z m42 -6 c-3 -3 -12 -4 -19 -1 -8 3 -5 6 6
6 11 1 17 -2 13 -5z"/>
<path d="M505 1420 c-12 -19 6 -50 28 -49 17 1 18 2 5 6 -10 2 -18 13 -18 23
0 10 8 21 18 23 13 4 12 5 -5 6 -12 0 -25 -4 -28 -9z"/>
<path d="M570 1400 c0 -16 5 -30 10 -30 6 0 10 14 10 30 0 17 -4 30 -10 30 -5
0 -10 -13 -10 -30z"/>
<path d="M608 1418 c-9 -25 4 -48 26 -47 17 1 17 2 4 6 -10 2 -18 13 -18 24 0
11 7 19 18 19 14 0 15 -2 2 -10 -13 -8 -12 -10 3 -10 11 0 17 6 15 13 -6 17
-45 21 -50 5z"/>
<path d="M680 1416 c0 -8 8 -17 18 -21 16 -7 15 -8 -3 -15 -19 -8 -19 -9 3 -9
26 -1 30 24 5 33 -15 6 -15 8 -3 16 13 8 12 10 -2 10 -10 0 -18 -6 -18 -14z"/>
<path d="M294 1095 c-15 -23 -15 -27 0 -50 10 -15 25 -25 39 -24 20 0 19 2 -5
11 -36 13 -39 59 -5 76 17 8 18 11 5 11 -10 1 -25 -10 -34 -24z"/>
<path d="M1113 1113 c-20 -7 -15 -31 7 -43 25 -13 26 -37 3 -43 -15 -4 -15 -5
-2 -6 26 -2 44 26 29 44 -7 8 -19 15 -26 15 -20 0 -17 17 4 29 17 11 7 13 -15
4z"/>
<path d="M1178 1097 c-8 -22 7 -70 22 -75 12 -4 13 -2 3 9 -15 15 -17 46 -4
51 5 2 3 8 -4 15 -10 9 -14 9 -17 0z"/>
<path d="M862 1063 c2 -20 9 -38 16 -41 11 -3 11 0 1 16 -10 16 -10 24 -1 35
10 12 9 16 -3 21 -13 5 -16 -1 -13 -31z"/>
<path d="M1297 1094 c-9 -10 9 -68 23 -72 12 -4 13 -2 3 9 -16 17 -17 46 -1
51 8 3 6 6 -4 10 -9 4 -18 5 -21 2z"/>
<path d="M387 1083 c-11 -10 -8 -51 3 -58 20 -12 50 6 50 30 0 27 -35 46 -53
28z m36 -15 c6 -19 -3 -38 -19 -38 -8 0 -14 10 -14 25 0 26 25 35 33 13z"/>
<path d="M463 1055 c0 -22 2 -30 4 -17 2 12 2 30 0 40 -3 9 -5 -1 -4 -23z"/>
<path d="M488 1083 c6 -2 12 -15 12 -28 0 -13 5 -27 10 -30 11 -7 13 24 4 49
-3 9 -14 16 -23 15 -10 0 -11 -2 -3 -6z"/>
<path d="M534 1079 c-4 -7 1 -16 10 -21 21 -12 20 -25 -1 -31 -14 -4 -12 -5 5
-6 27 -1 31 33 5 44 -17 7 -16 8 2 15 16 7 17 9 3 9 -9 1 -20 -4 -24 -10z"/>
<path d="M595 1079 c-4 -5 -4 -21 -1 -35 5 -17 13 -24 29 -23 15 1 17 3 5 6
-21 5 -29 26 -16 44 7 11 11 11 15 2 2 -7 9 -13 15 -13 6 0 6 6 -2 15 -14 17
-36 20 -45 4z"/>
<path d="M669 1083 c0 -5 -2 -18 -5 -30 -2 -12 1 -25 6 -28 6 -4 10 9 10 29 0
20 -2 36 -5 36 -3 0 -5 -3 -6 -7z"/>
<path d="M727 1058 c18 -42 26 -41 42 2 6 18 6 28 1 25 -6 -4 -10 -13 -10 -21
0 -21 -15 -17 -34 9 -14 20 -14 18 1 -15z"/>
<path d="M810 1082 c16 -8 20 -35 7 -49 -5 -4 -12 -1 -17 7 -8 13 -10 12 -10
-3 0 -13 6 -18 23 -15 30 4 33 61 2 65 -15 2 -16 1 -5 -5z"/>
<path d="M951 1076 c-15 -17 1 -56 23 -56 23 0 41 30 29 48 -14 23 -37 26 -52
8z m43 -5 c9 -14 -4 -41 -19 -41 -15 0 -28 27 -19 41 3 5 11 9 19 9 8 0 16 -4
19 -9z"/>
<path d="M1021 1053 c1 -36 2 -37 8 -8 3 17 13 30 21 30 8 0 18 -13 22 -30 6
-29 6 -29 5 5 -2 30 -6 35 -29 38 -26 3 -28 1 -27 -35z"/>
<path d="M1242 1084 c10 -3 19 -19 21 -37 4 -31 5 -31 3 3 -1 27 -5 35 -21 37
-14 1 -15 0 -3 -3z"/>
<path d="M1390 1060 c0 -16 -2 -30 -4 -30 -14 0 -35 13 -32 19 3 4 1 13 -5 21
-7 12 -9 11 -9 -5 0 -26 18 -45 42 -45 14 0 18 8 18 35 0 19 -2 35 -5 35 -3 0
-5 -13 -5 -30z"/>
<path d="M1425 1079 c-4 -6 -5 -11 -4 -12 2 -2 13 -9 24 -17 20 -14 20 -14 2
7 -18 21 -18 21 0 26 15 4 16 5 1 6 -9 0 -20 -4 -23 -10z"/>
<path d="M1230 1035 c0 -8 4 -15 10 -15 5 0 7 7 4 15 -4 8 -8 15 -10 15 -2 0
-4 -7 -4 -15z"/>
<path d="M1428 1023 c6 -2 18 -2 25 0 6 3 1 5 -13 5 -14 0 -19 -2 -12 -5z"/>
<path d="M461 722 c-1 -53 -1 -53 27 -50 21 2 27 8 27 28 0 18 -6 26 -22 28
-13 2 -23 12 -26 25 -2 12 -5 -2 -6 -31z m49 -17 c0 -16 -27 -32 -37 -22 -3 4
-3 13 0 22 8 20 37 20 37 0z"/>
<path d="M797 763 c-4 -3 -7 -26 -7 -50 0 -44 0 -44 31 -41 18 2 36 10 42 19
12 19 1 69 -14 69 -8 0 -8 -4 1 -14 21 -26 8 -61 -24 -64 -29 -4 -29 -3 -24
42 6 48 5 50 -5 39z"/>
<path d="M290 715 c0 -27 3 -46 6 -42 3 3 6 22 6 42 0 20 -3 39 -6 42 -3 4 -6
-15 -6 -42z"/>
<path d="M351 738 c-5 -14 -5 -28 1 -35 5 -7 7 -17 3 -23 -3 -5 -1 -10 4 -10
6 0 11 20 11 45 0 50 -6 57 -19 23z"/>
<path d="M698 748 c-7 -17 2 -78 11 -78 7 0 5 79 -2 87 -3 2 -7 -2 -9 -9z"/>
<path d="M753 715 c0 -27 2 -38 4 -22 2 15 2 37 0 50 -2 12 -4 0 -4 -28z"/>
<path d="M2183 700 c0 -36 2 -50 4 -32 2 17 2 47 0 65 -2 17 -4 3 -4 -33z"/>
<path d="M573 726 c4 -10 7 -26 7 -37 0 -10 3 -19 8 -19 13 0 6 64 -8 68 -9 3
-11 -1 -7 -12z"/>
<path d="M408 724 c15 -7 16 -44 1 -44 -5 0 -7 5 -4 10 3 6 1 10 -4 10 -6 0
-11 -7 -11 -15 0 -9 10 -15 26 -15 22 0 25 4 22 27 -2 19 -9 29 -23 30 -11 2
-14 0 -7 -3z"/>
<path d="M542 700 c0 -19 2 -27 5 -17 2 9 2 25 0 35 -3 9 -5 1 -5 -18z"/>
<path d="M648 724 c18 -8 15 -44 -4 -44 -9 0 -12 5 -8 12 4 7 3 8 -4 4 -22
-13 -12 -26 19 -26 27 0 30 3 27 27 -2 19 -9 29 -23 30 -11 2 -14 0 -7 -3z"/>
<path d="M1263 623 c170 -2 444 -2 610 0 166 1 28 2 -308 2 -335 0 -471 -1
-302 -2z"/>
</g>
</svg>
